<svg width="40" height="32" viewBox="0 0 40 32" fill="none" xmlns="http://www.w3.org/2000/svg">
<path fill-rule="evenodd" clip-rule="evenodd" d="M26.121 10.5637C24.6218 10.0214 23.4735 10.5956 22.1976 10.9783L13.6171 13.6577C13.2024 13.7853 13.0749 13.7853 12.6283 13.881C11.8627 14.0724 11.3205 14.3276 10.6506 14.519L4.94095 16.2733C2.77191 16.9432 0.411482 17.1984 0.0287099 19.814C-0.130778 21.058 0.347687 22.6848 2.13396 23.4184C3.56935 23.9926 4.90905 23.3865 6.05737 23.0038C6.79102 22.7805 7.26948 22.6848 7.93933 22.3977C9.24714 21.8554 15.6905 20.2287 17.6043 19.4312C18.7207 18.9846 23.7925 17.5492 25.2917 17.1346C29.5979 15.8906 28.7685 11.5206 26.121 10.5637Z" fill="#02361B"/>
<path fill-rule="evenodd" clip-rule="evenodd" d="M28.4504 21.5365C26.5046 20.6433 23.2511 22.302 20.476 23.0356L15.181 24.6624C14.3835 24.9495 13.4266 25.0452 12.661 25.9383C11.1299 27.7246 11.6084 30.3083 13.8413 31.2971C15.5318 32.0627 17.1586 31.042 19.1682 30.4997L27.0469 28.1074C27.6529 27.916 28.897 27.5651 29.5349 26.7996C31.0022 25.0771 30.4918 22.5253 28.4504 21.5365Z" fill="#02361B"/>
<path fill-rule="evenodd" clip-rule="evenodd" d="M37.8592 18.9528C33.7444 17.326 31.1288 23.3547 35.2436 25.1728C36.8704 25.8746 38.8799 25.3323 39.7093 23.2909C40.3153 21.7917 39.7093 19.6864 37.8592 18.9528Z" fill="#02361B"/>
<path fill-rule="evenodd" clip-rule="evenodd" d="M19.1991 0.260714C17.2852 -0.632421 13.9998 0.994361 11.2247 1.7599L5.96155 3.38669C5.13221 3.67377 4.20718 3.76946 3.44163 4.6307C1.87865 6.44886 2.35711 9.03257 4.58995 10.0214C6.28053 10.7869 7.9392 9.76622 9.94876 9.19206L17.8275 6.83164C18.4335 6.64025 19.6775 6.28937 20.3155 5.52383C21.7828 3.80136 21.2405 1.21764 19.1991 0.260714Z" fill="#02361B"/>
</svg>
