<svg width="16" height="16" viewBox="0 0 16 16" fill="none" xmlns="http://www.w3.org/2000/svg">
<path d="M5.63997 4.2002C5.50736 4.2002 5.38019 4.25287 5.28642 4.34664C5.19265 4.44041 5.13997 4.56759 5.13997 4.7002C5.13997 4.8328 5.19265 4.95998 5.28642 5.05375C5.38019 5.14752 5.50736 5.2002 5.63997 5.2002H10.0933L4.34664 10.9469C4.29751 10.9926 4.25811 11.0478 4.23078 11.1092C4.20346 11.1705 4.18876 11.2367 4.18758 11.3038C4.18639 11.371 4.19874 11.4377 4.22389 11.4999C4.24904 11.5622 4.28647 11.6187 4.33395 11.6662C4.38143 11.7137 4.43798 11.7511 4.50024 11.7763C4.5625 11.8014 4.62919 11.8138 4.69632 11.8126C4.76346 11.8114 4.82966 11.7967 4.891 11.7694C4.95233 11.7421 5.00753 11.7027 5.05331 11.6535L10.8 5.90686V10.3602C10.8 10.4928 10.8527 10.62 10.9464 10.7137C11.0402 10.8075 11.1674 10.8602 11.3 10.8602C11.4326 10.8602 11.5598 10.8075 11.6535 10.7137C11.7473 10.62 11.8 10.4928 11.8 10.3602V4.7002C11.7988 4.63382 11.7852 4.56826 11.76 4.50686C11.7237 4.42162 11.6647 4.34797 11.5895 4.2939C11.5143 4.23983 11.4257 4.20742 11.3333 4.2002H5.63997Z" fill="#557866"/>
</svg>
