<svg width="36" height="35" viewBox="0 0 36 35" fill="none" xmlns="http://www.w3.org/2000/svg">
<path d="M16.0417 18.2273L13.625 15.8523C13.3194 15.5467 12.9378 15.3939 12.48 15.3939C12.0222 15.3939 11.6261 15.5606 11.2917 15.8939C10.9861 16.1995 10.8333 16.5884 10.8333 17.0606C10.8333 17.5328 10.9861 17.9217 11.2917 18.2273L14.875 21.8106C15.2083 22.1439 15.5972 22.3106 16.0417 22.3106C16.4861 22.3106 16.875 22.1439 17.2083 21.8106L24.2917 14.7273C24.625 14.3939 24.7844 14.0051 24.77 13.5606C24.7556 13.1162 24.5961 12.7273 24.2917 12.3939C23.9583 12.0606 23.5628 11.8873 23.105 11.8739C22.6472 11.8606 22.2511 12.0201 21.9167 12.3523L16.0417 18.2273ZM11.375 33.3106L8.95833 29.2273L4.375 28.2273C3.95833 28.1439 3.625 27.9289 3.375 27.5823C3.125 27.2356 3.02778 26.8534 3.08333 26.4356L3.54167 21.7273L0.416667 18.1439C0.138889 17.8384 0 17.4773 0 17.0606C0 16.6439 0.138889 16.2828 0.416667 15.9773L3.54167 12.3939L3.08333 7.68561C3.02778 7.26895 3.125 6.88672 3.375 6.53895C3.625 6.19117 3.95833 5.97617 4.375 5.89395L8.95833 4.89395L11.375 0.810612C11.5972 0.449501 11.9028 0.206168 12.2917 0.0806124C12.6806 -0.0449432 13.0694 -0.0238321 13.4583 0.143946L17.7917 1.97728L22.125 0.143946C22.5139 -0.022721 22.9028 -0.0438321 23.2917 0.0806124C23.6806 0.205057 23.9861 0.44839 24.2083 0.810612L26.625 4.89395L31.2083 5.89395C31.625 5.97728 31.9583 6.19283 32.2083 6.54061C32.4583 6.88839 32.5556 7.27006 32.5 7.68561L32.0417 12.3939L35.1667 15.9773C35.4444 16.2828 35.5833 16.6439 35.5833 17.0606C35.5833 17.4773 35.4444 17.8384 35.1667 18.1439L32.0417 21.7273L32.5 26.4356C32.5556 26.8523 32.4583 27.2345 32.2083 27.5823C31.9583 27.9301 31.625 28.1451 31.2083 28.2273L26.625 29.2273L24.2083 33.3106C23.9861 33.6717 23.6806 33.9151 23.2917 34.0406C22.9028 34.1662 22.5139 34.1451 22.125 33.9773L17.7917 32.1439L13.4583 33.9773C13.0694 34.1439 12.6806 34.1651 12.2917 34.0406C11.9028 33.9162 11.5972 33.6728 11.375 33.3106Z" fill="#02361B"/>
</svg>
