<svg width="460" height="50" viewBox="0 0 460 50" fill="none" xmlns="http://www.w3.org/2000/svg">
<path d="M0 49C0 49.5523 0.447715 50 1 50C1.55228 50 2 49.5523 2 49H1H0ZM451.293 49.7071C451.683 50.0976 452.317 50.0976 452.707 49.7071L459.071 43.3431C459.462 42.9526 459.462 42.3195 459.071 41.9289C458.681 41.5384 458.047 41.5384 457.657 41.9289L452 47.5858L446.343 41.9289C445.953 41.5384 445.319 41.5384 444.929 41.9289C444.538 42.3195 444.538 42.9526 444.929 43.3431L451.293 49.7071ZM1 49H2V46H1H0V49H1ZM1 40H2V34H1H0V40H1ZM1 28H2V25H1H0V28H1ZM1 25H2C2 23.4627 2.15069 21.9615 2.43781 20.5102L1.45682 20.3161L0.475829 20.122C0.163563 21.7005 0 23.3316 0 25H1ZM5.04243 11.6652L5.8734 12.2215C7.55288 9.71293 9.71293 7.55287 12.2215 5.8734L11.6652 5.04243L11.1089 4.21146C8.38305 6.03637 6.03638 8.38305 4.21146 11.1089L5.04243 11.6652ZM20.3161 1.45682L20.5102 2.4378C21.9615 2.15069 23.4627 2 25 2V1V0C23.3316 0 21.7005 0.163562 20.122 0.475829L20.3161 1.45682ZM25 1V2H29.03V1V0H25V1ZM37.09 1V2H45.15V1V0H37.09V1ZM53.21 1V2H61.27V1V0H53.21V1ZM69.33 1V2H77.39V1V0H69.33V1ZM85.45 1V2H93.51V1V0H85.45V1ZM101.57 1V2H109.63V1V0H101.57V1ZM117.69 1V2H125.75V1V0H117.69V1ZM133.81 1V2H141.87V1V0H133.81V1ZM149.93 1V2H157.99V1V0H149.93V1ZM166.05 1V2H174.11V1V0H166.05V1ZM182.17 1V2H190.23V1V0H182.17V1ZM198.29 1V2H206.35V1V0H198.29V1ZM214.41 1V2H222.47V1V0H214.41V1ZM230.53 1V2H238.59V1V0H230.53V1ZM246.65 1V2H254.71V1V0H246.65V1ZM262.77 1V2H270.83V1V0H262.77V1ZM278.89 1V2H286.95V1V0H278.89V1ZM295.01 1V2H303.07V1V0H295.01V1ZM311.13 1V2H319.19V1V0H311.13V1ZM327.25 1V2H335.31V1V0H327.25V1ZM343.37 1V2H351.43V1V0H343.37V1ZM359.49 1V2H367.55V1V0H359.49V1ZM375.61 1V2H383.67V1V0H375.61V1ZM391.73 1V2H399.79V1V0H391.73V1ZM407.85 1V2H415.91V1V0H407.85V1ZM423.97 1V2H428V1V0H423.97V1ZM428 1V2C429.537 2 431.039 2.15069 432.49 2.43781L432.684 1.45682L432.878 0.475829C431.299 0.163563 429.668 0 428 0V1ZM441.335 5.04243L440.778 5.8734C443.287 7.55287 445.447 9.71293 447.127 12.2215L447.958 11.6652L448.789 11.1089C446.964 8.38305 444.617 6.03638 441.891 4.21146L441.335 5.04243ZM451.543 20.3161L450.562 20.5102C450.849 21.9615 451 23.4627 451 25H452H453C453 23.3316 452.836 21.7005 452.524 20.122L451.543 20.3161ZM452 25H451V28H452H453V25H452ZM452 34H451V40H452H453V34H452ZM452 46H451V49H452H453V46H452Z" fill="url(#paint0_linear_383_7478)"/>
<defs>
<linearGradient id="paint0_linear_383_7478" x1="1" y1="-18.3548" x2="452" y2="-18.3548" gradientUnits="userSpaceOnUse">
<stop stop-color="#BAFCDA"/>
<stop offset="1" stop-color="#02361B"/>
</linearGradient>
</defs>
</svg>
