<svg width="460" height="62" viewBox="0 0 460 62" fill="none" xmlns="http://www.w3.org/2000/svg">
<path d="M2 1C2 0.447715 1.55228 0 1 0C0.447715 0 0 0.447715 0 1H1H2ZM452.707 0.292893C452.317 -0.0976311 451.683 -0.0976311 451.293 0.292893L444.929 6.65685C444.538 7.04738 444.538 7.68054 444.929 8.07107C445.319 8.46159 445.953 8.46159 446.343 8.07107L452 2.41421L457.657 8.07107C458.047 8.46159 458.681 8.46159 459.071 8.07107C459.462 7.68054 459.462 7.04738 459.071 6.65685L452.707 0.292893ZM1 1H0V5.5H1H2V1H1ZM1 14.5H0V23.5H1H2V14.5H1ZM1 32.5H0V37H1H2V32.5H1ZM1 37H0C0 38.6684 0.163563 40.2995 0.475829 41.878L1.45682 41.6839L2.43781 41.4898C2.15069 40.0385 2 38.5373 2 37H1ZM5.04243 50.3348L4.21146 50.8911C6.03638 53.617 8.38305 55.9636 11.1089 57.7885L11.6652 56.9576L12.2215 56.1266C9.71293 54.4471 7.55288 52.2871 5.8734 49.7785L5.04243 50.3348ZM20.3161 60.5432L20.122 61.5242C21.7005 61.8364 23.3316 62 25 62V61V60C23.4627 60 21.9615 59.8493 20.5102 59.5622L20.3161 60.5432ZM25 61V62H29.03V61V60H25V61ZM37.09 61V62H45.15V61V60H37.09V61ZM53.21 61V62H61.27V61V60H53.21V61ZM69.33 61V62H77.39V61V60H69.33V61ZM85.45 61V62H93.51V61V60H85.45V61ZM101.57 61V62H109.63V61V60H101.57V61ZM117.69 61V62H125.75V61V60H117.69V61ZM133.81 61V62H141.87V61V60H133.81V61ZM149.93 61V62H157.99V61V60H149.93V61ZM166.05 61V62H174.11V61V60H166.05V61ZM182.17 61V62H190.23V61V60H182.17V61ZM198.29 61V62H206.35V61V60H198.29V61ZM214.41 61V62H222.47V61V60H214.41V61ZM230.53 61V62H238.59V61V60H230.53V61ZM246.65 61V62H254.71V61V60H246.65V61ZM262.77 61V62H270.83V61V60H262.77V61ZM278.89 61V62H286.95V61V60H278.89V61ZM295.01 61V62H303.07V61V60H295.01V61ZM311.13 61V62H319.19V61V60H311.13V61ZM327.25 61V62H335.31V61V60H327.25V61ZM343.37 61V62H351.43V61V60H343.37V61ZM359.49 61V62H367.55V61V60H359.49V61ZM375.61 61V62H383.67V61V60H375.61V61ZM391.73 61V62H399.79V61V60H391.73V61ZM407.85 61V62H415.91V61V60H407.85V61ZM423.97 61V62H428V61V60H423.97V61ZM428 61V62C429.668 62 431.299 61.8364 432.878 61.5242L432.684 60.5432L432.49 59.5622C431.039 59.8493 429.537 60 428 60V61ZM441.335 56.9576L441.891 57.7885C444.617 55.9636 446.964 53.6169 448.789 50.8911L447.958 50.3348L447.127 49.7785C445.447 52.2871 443.287 54.4471 440.778 56.1266L441.335 56.9576ZM451.543 41.6839L452.524 41.878C452.836 40.2995 453 38.6684 453 37H452H451C451 38.5373 450.849 40.0385 450.562 41.4898L451.543 41.6839ZM452 37H453V32.5H452H451V37H452ZM452 23.5H453V14.5H452H451V23.5H452ZM452 5.5H453V1H452H451V5.5H452Z" fill="url(#paint0_linear_383_7482)"/>
<defs>
<linearGradient id="paint0_linear_383_7482" x1="1" y1="31" x2="452" y2="31" gradientUnits="userSpaceOnUse">
<stop stop-color="#BAFCDA"/>
<stop offset="1" stop-color="#02361B"/>
</linearGradient>
</defs>
</svg>
