<svg width="266" height="353" viewBox="0 0 266 353" fill="none" xmlns="http://www.w3.org/2000/svg">
<mask id="mask0_400_34589" style="mask-type:alpha" maskUnits="userSpaceOnUse" x="0" y="0" width="266" height="353">
<path d="M3.6349 1.81733C3.6349 2.82101 2.82125 3.63466 1.81757 3.63466C0.81389 3.63466 0.000244141 2.82101 0.000244141 1.81733C0.000244141 0.813645 0.81389 0 1.81757 0C2.82125 0 3.6349 0.813645 3.6349 1.81733Z" fill="url(#paint0_linear_400_34589)"/>
<path d="M32.7122 1.81733C32.7122 2.82101 31.8985 3.63466 30.8948 3.63466C29.8911 3.63466 29.0775 2.82101 29.0775 1.81733C29.0775 0.813645 29.8911 0 30.8948 0C31.8985 0 32.7122 0.813645 32.7122 1.81733Z" fill="url(#paint1_linear_400_34589)"/>
<path d="M61.7894 1.81733C61.7894 2.82101 60.9758 3.63466 59.9721 3.63466C58.9684 3.63466 58.1547 2.82101 58.1547 1.81733C58.1547 0.813645 58.9684 0 59.9721 0C60.9758 0 61.7894 0.813645 61.7894 1.81733Z" fill="url(#paint2_linear_400_34589)"/>
<path d="M90.8666 1.81733C90.8666 2.82101 90.053 3.63466 89.0493 3.63466C88.0456 3.63466 87.232 2.82101 87.232 1.81733C87.232 0.813645 88.0456 0 89.0493 0C90.053 0 90.8666 0.813645 90.8666 1.81733Z" fill="url(#paint3_linear_400_34589)"/>
<path d="M119.944 1.81733C119.944 2.82101 119.13 3.63466 118.127 3.63466C117.123 3.63466 116.309 2.82101 116.309 1.81733C116.309 0.813645 117.123 0 118.127 0C119.13 0 119.944 0.813645 119.944 1.81733Z" fill="url(#paint4_linear_400_34589)"/>
<path d="M149.021 1.81733C149.021 2.82101 148.207 3.63466 147.204 3.63466C146.2 3.63466 145.386 2.82101 145.386 1.81733C145.386 0.813645 146.2 0 147.204 0C148.207 0 149.021 0.813645 149.021 1.81733Z" fill="url(#paint5_linear_400_34589)"/>
<path d="M178.098 1.81733C178.098 2.82101 177.285 3.63466 176.281 3.63466C175.277 3.63466 174.464 2.82101 174.464 1.81733C174.464 0.813645 175.277 0 176.281 0C177.285 0 178.098 0.813645 178.098 1.81733Z" fill="url(#paint6_linear_400_34589)"/>
<path d="M207.176 1.81733C207.176 2.82101 206.362 3.63466 205.358 3.63466C204.355 3.63466 203.541 2.82101 203.541 1.81733C203.541 0.813645 204.355 0 205.358 0C206.362 0 207.176 0.813645 207.176 1.81733Z" fill="url(#paint7_linear_400_34589)"/>
<path d="M236.253 1.81733C236.253 2.82101 235.439 3.63466 234.436 3.63466C233.432 3.63466 232.618 2.82101 232.618 1.81733C232.618 0.813645 233.432 0 234.436 0C235.439 0 236.253 0.813645 236.253 1.81733Z" fill="url(#paint8_linear_400_34589)"/>
<path d="M265.33 1.81733C265.33 2.82101 264.516 3.63466 263.513 3.63466C262.509 3.63466 261.695 2.82101 261.695 1.81733C261.695 0.813645 262.509 0 263.513 0C264.516 0 265.33 0.813645 265.33 1.81733Z" fill="url(#paint9_linear_400_34589)"/>
<path d="M3.6349 30.8946C3.6349 31.8983 2.82125 32.7119 1.81757 32.7119C0.81389 32.7119 0.000244141 31.8983 0.000244141 30.8946C0.000244141 29.8909 0.81389 29.0772 1.81757 29.0772C2.82125 29.0772 3.6349 29.8909 3.6349 30.8946Z" fill="url(#paint10_linear_400_34589)"/>
<path d="M32.7122 30.8946C32.7122 31.8983 31.8985 32.7119 30.8948 32.7119C29.8911 32.7119 29.0775 31.8983 29.0775 30.8946C29.0775 29.8909 29.8911 29.0772 30.8948 29.0772C31.8985 29.0772 32.7122 29.8909 32.7122 30.8946Z" fill="url(#paint11_linear_400_34589)"/>
<path d="M61.7894 30.8946C61.7894 31.8983 60.9758 32.7119 59.9721 32.7119C58.9684 32.7119 58.1547 31.8983 58.1547 30.8946C58.1547 29.8909 58.9684 29.0772 59.9721 29.0772C60.9758 29.0772 61.7894 29.8909 61.7894 30.8946Z" fill="url(#paint12_linear_400_34589)"/>
<path d="M90.8666 30.8946C90.8666 31.8983 90.053 32.7119 89.0493 32.7119C88.0456 32.7119 87.232 31.8983 87.232 30.8946C87.232 29.8909 88.0456 29.0772 89.0493 29.0772C90.053 29.0772 90.8666 29.8909 90.8666 30.8946Z" fill="url(#paint13_linear_400_34589)"/>
<path d="M119.944 30.8946C119.944 31.8983 119.13 32.7119 118.127 32.7119C117.123 32.7119 116.309 31.8983 116.309 30.8946C116.309 29.8909 117.123 29.0772 118.127 29.0772C119.13 29.0772 119.944 29.8909 119.944 30.8946Z" fill="url(#paint14_linear_400_34589)"/>
<path d="M149.021 30.8946C149.021 31.8983 148.207 32.7119 147.204 32.7119C146.2 32.7119 145.386 31.8983 145.386 30.8946C145.386 29.8909 146.2 29.0772 147.204 29.0772C148.207 29.0772 149.021 29.8909 149.021 30.8946Z" fill="url(#paint15_linear_400_34589)"/>
<path d="M178.098 30.8946C178.098 31.8983 177.285 32.7119 176.281 32.7119C175.277 32.7119 174.464 31.8983 174.464 30.8946C174.464 29.8909 175.277 29.0772 176.281 29.0772C177.285 29.0772 178.098 29.8909 178.098 30.8946Z" fill="url(#paint16_linear_400_34589)"/>
<path d="M207.176 30.8946C207.176 31.8983 206.362 32.7119 205.358 32.7119C204.355 32.7119 203.541 31.8983 203.541 30.8946C203.541 29.8909 204.355 29.0772 205.358 29.0772C206.362 29.0772 207.176 29.8909 207.176 30.8946Z" fill="url(#paint17_linear_400_34589)"/>
<path d="M236.253 30.8946C236.253 31.8983 235.439 32.7119 234.436 32.7119C233.432 32.7119 232.618 31.8983 232.618 30.8946C232.618 29.8909 233.432 29.0772 234.436 29.0772C235.439 29.0772 236.253 29.8909 236.253 30.8946Z" fill="url(#paint18_linear_400_34589)"/>
<path d="M265.33 30.8946C265.33 31.8983 264.516 32.7119 263.513 32.7119C262.509 32.7119 261.695 31.8983 261.695 30.8946C261.695 29.8909 262.509 29.0772 263.513 29.0772C264.516 29.0772 265.33 29.8909 265.33 30.8946Z" fill="url(#paint19_linear_400_34589)"/>
<path d="M3.6349 59.9718C3.6349 60.9755 2.82125 61.7891 1.81757 61.7891C0.81389 61.7891 0.000244141 60.9755 0.000244141 59.9718C0.000244141 58.9681 0.81389 58.1545 1.81757 58.1545C2.82125 58.1545 3.6349 58.9681 3.6349 59.9718Z" fill="url(#paint20_linear_400_34589)"/>
<path d="M32.7122 59.9718C32.7122 60.9755 31.8985 61.7891 30.8948 61.7891C29.8911 61.7891 29.0775 60.9755 29.0775 59.9718C29.0775 58.9681 29.8911 58.1545 30.8948 58.1545C31.8985 58.1545 32.7122 58.9681 32.7122 59.9718Z" fill="url(#paint21_linear_400_34589)"/>
<path d="M61.7894 59.9718C61.7894 60.9755 60.9758 61.7891 59.9721 61.7891C58.9684 61.7891 58.1547 60.9755 58.1547 59.9718C58.1547 58.9681 58.9684 58.1545 59.9721 58.1545C60.9758 58.1545 61.7894 58.9681 61.7894 59.9718Z" fill="url(#paint22_linear_400_34589)"/>
<path d="M90.8666 59.9718C90.8666 60.9755 90.053 61.7891 89.0493 61.7891C88.0456 61.7891 87.232 60.9755 87.232 59.9718C87.232 58.9681 88.0456 58.1545 89.0493 58.1545C90.053 58.1545 90.8666 58.9681 90.8666 59.9718Z" fill="url(#paint23_linear_400_34589)"/>
<path d="M119.944 59.9718C119.944 60.9755 119.13 61.7891 118.127 61.7891C117.123 61.7891 116.309 60.9755 116.309 59.9718C116.309 58.9681 117.123 58.1545 118.127 58.1545C119.13 58.1545 119.944 58.9681 119.944 59.9718Z" fill="url(#paint24_linear_400_34589)"/>
<path d="M149.021 59.9718C149.021 60.9755 148.207 61.7891 147.204 61.7891C146.2 61.7891 145.386 60.9755 145.386 59.9718C145.386 58.9681 146.2 58.1545 147.204 58.1545C148.207 58.1545 149.021 58.9681 149.021 59.9718Z" fill="url(#paint25_linear_400_34589)"/>
<path d="M178.098 59.9718C178.098 60.9755 177.285 61.7891 176.281 61.7891C175.277 61.7891 174.464 60.9755 174.464 59.9718C174.464 58.9681 175.277 58.1545 176.281 58.1545C177.285 58.1545 178.098 58.9681 178.098 59.9718Z" fill="url(#paint26_linear_400_34589)"/>
<path d="M207.176 59.9718C207.176 60.9755 206.362 61.7891 205.358 61.7891C204.355 61.7891 203.541 60.9755 203.541 59.9718C203.541 58.9681 204.355 58.1545 205.358 58.1545C206.362 58.1545 207.176 58.9681 207.176 59.9718Z" fill="url(#paint27_linear_400_34589)"/>
<path d="M236.253 59.9718C236.253 60.9755 235.439 61.7891 234.436 61.7891C233.432 61.7891 232.618 60.9755 232.618 59.9718C232.618 58.9681 233.432 58.1545 234.436 58.1545C235.439 58.1545 236.253 58.9681 236.253 59.9718Z" fill="url(#paint28_linear_400_34589)"/>
<path d="M265.33 59.9718C265.33 60.9755 264.516 61.7891 263.513 61.7891C262.509 61.7891 261.695 60.9755 261.695 59.9718C261.695 58.9681 262.509 58.1545 263.513 58.1545C264.516 58.1545 265.33 58.9681 265.33 59.9718Z" fill="url(#paint29_linear_400_34589)"/>
<path d="M3.6349 89.0491C3.6349 90.0527 2.82125 90.8664 1.81757 90.8664C0.81389 90.8664 0.000244141 90.0527 0.000244141 89.0491C0.000244141 88.0454 0.81389 87.2317 1.81757 87.2317C2.82125 87.2317 3.6349 88.0454 3.6349 89.0491Z" fill="url(#paint30_linear_400_34589)"/>
<path d="M32.7122 89.0491C32.7122 90.0527 31.8985 90.8664 30.8948 90.8664C29.8911 90.8664 29.0775 90.0527 29.0775 89.0491C29.0775 88.0454 29.8911 87.2317 30.8948 87.2317C31.8985 87.2317 32.7122 88.0454 32.7122 89.0491Z" fill="url(#paint31_linear_400_34589)"/>
<path d="M61.7894 89.0491C61.7894 90.0527 60.9758 90.8664 59.9721 90.8664C58.9684 90.8664 58.1547 90.0527 58.1547 89.0491C58.1547 88.0454 58.9684 87.2317 59.9721 87.2317C60.9758 87.2317 61.7894 88.0454 61.7894 89.0491Z" fill="url(#paint32_linear_400_34589)"/>
<path d="M90.8666 89.0491C90.8666 90.0527 90.053 90.8664 89.0493 90.8664C88.0456 90.8664 87.232 90.0527 87.232 89.0491C87.232 88.0454 88.0456 87.2317 89.0493 87.2317C90.053 87.2317 90.8666 88.0454 90.8666 89.0491Z" fill="url(#paint33_linear_400_34589)"/>
<path d="M119.944 89.0491C119.944 90.0527 119.13 90.8664 118.127 90.8664C117.123 90.8664 116.309 90.0527 116.309 89.0491C116.309 88.0454 117.123 87.2317 118.127 87.2317C119.13 87.2317 119.944 88.0454 119.944 89.0491Z" fill="url(#paint34_linear_400_34589)"/>
<path d="M149.021 89.0491C149.021 90.0527 148.207 90.8664 147.204 90.8664C146.2 90.8664 145.386 90.0527 145.386 89.0491C145.386 88.0454 146.2 87.2317 147.204 87.2317C148.207 87.2317 149.021 88.0454 149.021 89.0491Z" fill="url(#paint35_linear_400_34589)"/>
<path d="M178.098 89.0491C178.098 90.0527 177.285 90.8664 176.281 90.8664C175.277 90.8664 174.464 90.0527 174.464 89.0491C174.464 88.0454 175.277 87.2317 176.281 87.2317C177.285 87.2317 178.098 88.0454 178.098 89.0491Z" fill="url(#paint36_linear_400_34589)"/>
<path d="M207.176 89.0491C207.176 90.0527 206.362 90.8664 205.358 90.8664C204.355 90.8664 203.541 90.0527 203.541 89.0491C203.541 88.0454 204.355 87.2317 205.358 87.2317C206.362 87.2317 207.176 88.0454 207.176 89.0491Z" fill="url(#paint37_linear_400_34589)"/>
<path d="M236.253 89.0491C236.253 90.0527 235.439 90.8664 234.436 90.8664C233.432 90.8664 232.618 90.0527 232.618 89.0491C232.618 88.0454 233.432 87.2317 234.436 87.2317C235.439 87.2317 236.253 88.0454 236.253 89.0491Z" fill="url(#paint38_linear_400_34589)"/>
<path d="M265.33 89.0491C265.33 90.0527 264.516 90.8664 263.513 90.8664C262.509 90.8664 261.695 90.0527 261.695 89.0491C261.695 88.0454 262.509 87.2317 263.513 87.2317C264.516 87.2317 265.33 88.0454 265.33 89.0491Z" fill="url(#paint39_linear_400_34589)"/>
<path d="M3.6349 118.126C3.6349 119.13 2.82125 119.944 1.81757 119.944C0.81389 119.944 0.000244141 119.13 0.000244141 118.126C0.000244141 117.123 0.81389 116.309 1.81757 116.309C2.82125 116.309 3.6349 117.123 3.6349 118.126Z" fill="url(#paint40_linear_400_34589)"/>
<path d="M32.7122 118.126C32.7122 119.13 31.8985 119.944 30.8948 119.944C29.8911 119.944 29.0775 119.13 29.0775 118.126C29.0775 117.123 29.8911 116.309 30.8948 116.309C31.8985 116.309 32.7122 117.123 32.7122 118.126Z" fill="url(#paint41_linear_400_34589)"/>
<path d="M61.7894 118.126C61.7894 119.13 60.9758 119.944 59.9721 119.944C58.9684 119.944 58.1547 119.13 58.1547 118.126C58.1547 117.123 58.9684 116.309 59.9721 116.309C60.9758 116.309 61.7894 117.123 61.7894 118.126Z" fill="url(#paint42_linear_400_34589)"/>
<path d="M90.8666 118.126C90.8666 119.13 90.053 119.944 89.0493 119.944C88.0456 119.944 87.232 119.13 87.232 118.126C87.232 117.123 88.0456 116.309 89.0493 116.309C90.053 116.309 90.8666 117.123 90.8666 118.126Z" fill="url(#paint43_linear_400_34589)"/>
<path d="M119.944 118.126C119.944 119.13 119.13 119.944 118.127 119.944C117.123 119.944 116.309 119.13 116.309 118.126C116.309 117.123 117.123 116.309 118.127 116.309C119.13 116.309 119.944 117.123 119.944 118.126Z" fill="url(#paint44_linear_400_34589)"/>
<path d="M149.021 118.126C149.021 119.13 148.207 119.944 147.204 119.944C146.2 119.944 145.386 119.13 145.386 118.126C145.386 117.123 146.2 116.309 147.204 116.309C148.207 116.309 149.021 117.123 149.021 118.126Z" fill="url(#paint45_linear_400_34589)"/>
<path d="M178.098 118.126C178.098 119.13 177.285 119.944 176.281 119.944C175.277 119.944 174.464 119.13 174.464 118.126C174.464 117.123 175.277 116.309 176.281 116.309C177.285 116.309 178.098 117.123 178.098 118.126Z" fill="url(#paint46_linear_400_34589)"/>
<path d="M207.176 118.126C207.176 119.13 206.362 119.944 205.358 119.944C204.355 119.944 203.541 119.13 203.541 118.126C203.541 117.123 204.355 116.309 205.358 116.309C206.362 116.309 207.176 117.123 207.176 118.126Z" fill="url(#paint47_linear_400_34589)"/>
<path d="M236.253 118.126C236.253 119.13 235.439 119.944 234.436 119.944C233.432 119.944 232.618 119.13 232.618 118.126C232.618 117.123 233.432 116.309 234.436 116.309C235.439 116.309 236.253 117.123 236.253 118.126Z" fill="url(#paint48_linear_400_34589)"/>
<path d="M265.33 118.126C265.33 119.13 264.516 119.944 263.513 119.944C262.509 119.944 261.695 119.13 261.695 118.126C261.695 117.123 262.509 116.309 263.513 116.309C264.516 116.309 265.33 117.123 265.33 118.126Z" fill="url(#paint49_linear_400_34589)"/>
<path d="M3.6349 147.204C3.6349 148.207 2.82125 149.021 1.81757 149.021C0.81389 149.021 0.000244141 148.207 0.000244141 147.204C0.000244141 146.2 0.81389 145.386 1.81757 145.386C2.82125 145.386 3.6349 146.2 3.6349 147.204Z" fill="url(#paint50_linear_400_34589)"/>
<path d="M32.7122 147.204C32.7122 148.207 31.8985 149.021 30.8948 149.021C29.8911 149.021 29.0775 148.207 29.0775 147.204C29.0775 146.2 29.8911 145.386 30.8948 145.386C31.8985 145.386 32.7122 146.2 32.7122 147.204Z" fill="url(#paint51_linear_400_34589)"/>
<path d="M61.7894 147.204C61.7894 148.207 60.9758 149.021 59.9721 149.021C58.9684 149.021 58.1547 148.207 58.1547 147.204C58.1547 146.2 58.9684 145.386 59.9721 145.386C60.9758 145.386 61.7894 146.2 61.7894 147.204Z" fill="url(#paint52_linear_400_34589)"/>
<path d="M90.8666 147.204C90.8666 148.207 90.053 149.021 89.0493 149.021C88.0456 149.021 87.232 148.207 87.232 147.204C87.232 146.2 88.0456 145.386 89.0493 145.386C90.053 145.386 90.8666 146.2 90.8666 147.204Z" fill="url(#paint53_linear_400_34589)"/>
<path d="M119.944 147.204C119.944 148.207 119.13 149.021 118.127 149.021C117.123 149.021 116.309 148.207 116.309 147.204C116.309 146.2 117.123 145.386 118.127 145.386C119.13 145.386 119.944 146.2 119.944 147.204Z" fill="url(#paint54_linear_400_34589)"/>
<path d="M149.021 147.204C149.021 148.207 148.207 149.021 147.204 149.021C146.2 149.021 145.386 148.207 145.386 147.204C145.386 146.2 146.2 145.386 147.204 145.386C148.207 145.386 149.021 146.2 149.021 147.204Z" fill="url(#paint55_linear_400_34589)"/>
<path d="M178.098 147.204C178.098 148.207 177.285 149.021 176.281 149.021C175.277 149.021 174.464 148.207 174.464 147.204C174.464 146.2 175.277 145.386 176.281 145.386C177.285 145.386 178.098 146.2 178.098 147.204Z" fill="url(#paint56_linear_400_34589)"/>
<path d="M207.176 147.204C207.176 148.207 206.362 149.021 205.358 149.021C204.355 149.021 203.541 148.207 203.541 147.204C203.541 146.2 204.355 145.386 205.358 145.386C206.362 145.386 207.176 146.2 207.176 147.204Z" fill="url(#paint57_linear_400_34589)"/>
<path d="M236.253 147.204C236.253 148.207 235.439 149.021 234.436 149.021C233.432 149.021 232.618 148.207 232.618 147.204C232.618 146.2 233.432 145.386 234.436 145.386C235.439 145.386 236.253 146.2 236.253 147.204Z" fill="url(#paint58_linear_400_34589)"/>
<path d="M265.33 147.204C265.33 148.207 264.516 149.021 263.513 149.021C262.509 149.021 261.695 148.207 261.695 147.204C261.695 146.2 262.509 145.386 263.513 145.386C264.516 145.386 265.33 146.2 265.33 147.204Z" fill="url(#paint59_linear_400_34589)"/>
<path d="M3.6349 176.281C3.6349 177.284 2.82125 178.098 1.81757 178.098C0.81389 178.098 0.000244141 177.284 0.000244141 176.281C0.000244141 175.277 0.81389 174.463 1.81757 174.463C2.82125 174.463 3.6349 175.277 3.6349 176.281Z" fill="url(#paint60_linear_400_34589)"/>
<path d="M32.7122 176.281C32.7122 177.284 31.8985 178.098 30.8948 178.098C29.8911 178.098 29.0775 177.284 29.0775 176.281C29.0775 175.277 29.8911 174.463 30.8948 174.463C31.8985 174.463 32.7122 175.277 32.7122 176.281Z" fill="url(#paint61_linear_400_34589)"/>
<path d="M61.7894 176.281C61.7894 177.284 60.9758 178.098 59.9721 178.098C58.9684 178.098 58.1547 177.284 58.1547 176.281C58.1547 175.277 58.9684 174.463 59.9721 174.463C60.9758 174.463 61.7894 175.277 61.7894 176.281Z" fill="url(#paint62_linear_400_34589)"/>
<path d="M90.8666 176.281C90.8666 177.284 90.053 178.098 89.0493 178.098C88.0456 178.098 87.232 177.284 87.232 176.281C87.232 175.277 88.0456 174.463 89.0493 174.463C90.053 174.463 90.8666 175.277 90.8666 176.281Z" fill="url(#paint63_linear_400_34589)"/>
<path d="M119.944 176.281C119.944 177.284 119.13 178.098 118.127 178.098C117.123 178.098 116.309 177.284 116.309 176.281C116.309 175.277 117.123 174.463 118.127 174.463C119.13 174.463 119.944 175.277 119.944 176.281Z" fill="url(#paint64_linear_400_34589)"/>
<path d="M149.021 176.281C149.021 177.284 148.207 178.098 147.204 178.098C146.2 178.098 145.386 177.284 145.386 176.281C145.386 175.277 146.2 174.463 147.204 174.463C148.207 174.463 149.021 175.277 149.021 176.281Z" fill="url(#paint65_linear_400_34589)"/>
<path d="M178.098 176.281C178.098 177.284 177.285 178.098 176.281 178.098C175.277 178.098 174.464 177.284 174.464 176.281C174.464 175.277 175.277 174.463 176.281 174.463C177.285 174.463 178.098 175.277 178.098 176.281Z" fill="url(#paint66_linear_400_34589)"/>
<path d="M207.176 176.281C207.176 177.284 206.362 178.098 205.358 178.098C204.355 178.098 203.541 177.284 203.541 176.281C203.541 175.277 204.355 174.463 205.358 174.463C206.362 174.463 207.176 175.277 207.176 176.281Z" fill="url(#paint67_linear_400_34589)"/>
<path d="M236.253 176.281C236.253 177.284 235.439 178.098 234.436 178.098C233.432 178.098 232.618 177.284 232.618 176.281C232.618 175.277 233.432 174.463 234.436 174.463C235.439 174.463 236.253 175.277 236.253 176.281Z" fill="url(#paint68_linear_400_34589)"/>
<path d="M265.33 176.281C265.33 177.284 264.516 178.098 263.513 178.098C262.509 178.098 261.695 177.284 261.695 176.281C261.695 175.277 262.509 174.463 263.513 174.463C264.516 174.463 265.33 175.277 265.33 176.281Z" fill="url(#paint69_linear_400_34589)"/>
<path d="M3.6349 205.358C3.6349 206.362 2.82125 207.175 1.81757 207.175C0.81389 207.175 0.000244141 206.362 0.000244141 205.358C0.000244141 204.354 0.81389 203.541 1.81757 203.541C2.82125 203.541 3.6349 204.354 3.6349 205.358Z" fill="url(#paint70_linear_400_34589)"/>
<path d="M32.7122 205.358C32.7122 206.362 31.8985 207.175 30.8948 207.175C29.8911 207.175 29.0775 206.362 29.0775 205.358C29.0775 204.354 29.8911 203.541 30.8948 203.541C31.8985 203.541 32.7122 204.354 32.7122 205.358Z" fill="url(#paint71_linear_400_34589)"/>
<path d="M61.7894 205.358C61.7894 206.362 60.9758 207.175 59.9721 207.175C58.9684 207.175 58.1547 206.362 58.1547 205.358C58.1547 204.354 58.9684 203.541 59.9721 203.541C60.9758 203.541 61.7894 204.354 61.7894 205.358Z" fill="url(#paint72_linear_400_34589)"/>
<path d="M90.8666 205.358C90.8666 206.362 90.053 207.175 89.0493 207.175C88.0456 207.175 87.232 206.362 87.232 205.358C87.232 204.354 88.0456 203.541 89.0493 203.541C90.053 203.541 90.8666 204.354 90.8666 205.358Z" fill="url(#paint73_linear_400_34589)"/>
<path d="M119.944 205.358C119.944 206.362 119.13 207.175 118.127 207.175C117.123 207.175 116.309 206.362 116.309 205.358C116.309 204.354 117.123 203.541 118.127 203.541C119.13 203.541 119.944 204.354 119.944 205.358Z" fill="url(#paint74_linear_400_34589)"/>
<path d="M149.021 205.358C149.021 206.362 148.207 207.175 147.204 207.175C146.2 207.175 145.386 206.362 145.386 205.358C145.386 204.354 146.2 203.541 147.204 203.541C148.207 203.541 149.021 204.354 149.021 205.358Z" fill="url(#paint75_linear_400_34589)"/>
<path d="M178.098 205.358C178.098 206.362 177.285 207.175 176.281 207.175C175.277 207.175 174.464 206.362 174.464 205.358C174.464 204.354 175.277 203.541 176.281 203.541C177.285 203.541 178.098 204.354 178.098 205.358Z" fill="url(#paint76_linear_400_34589)"/>
<path d="M207.176 205.358C207.176 206.362 206.362 207.175 205.358 207.175C204.355 207.175 203.541 206.362 203.541 205.358C203.541 204.354 204.355 203.541 205.358 203.541C206.362 203.541 207.176 204.354 207.176 205.358Z" fill="url(#paint77_linear_400_34589)"/>
<path d="M236.253 205.358C236.253 206.362 235.439 207.175 234.436 207.175C233.432 207.175 232.618 206.362 232.618 205.358C232.618 204.354 233.432 203.541 234.436 203.541C235.439 203.541 236.253 204.354 236.253 205.358Z" fill="url(#paint78_linear_400_34589)"/>
<path d="M265.33 205.358C265.33 206.362 264.516 207.175 263.513 207.175C262.509 207.175 261.695 206.362 261.695 205.358C261.695 204.354 262.509 203.541 263.513 203.541C264.516 203.541 265.33 204.354 265.33 205.358Z" fill="url(#paint79_linear_400_34589)"/>
<path d="M3.6349 234.435C3.6349 235.439 2.82125 236.253 1.81757 236.253C0.81389 236.253 0.000244141 235.439 0.000244141 234.435C0.000244141 233.432 0.81389 232.618 1.81757 232.618C2.82125 232.618 3.6349 233.432 3.6349 234.435Z" fill="url(#paint80_linear_400_34589)"/>
<path d="M32.7122 234.435C32.7122 235.439 31.8985 236.253 30.8948 236.253C29.8911 236.253 29.0775 235.439 29.0775 234.435C29.0775 233.432 29.8911 232.618 30.8948 232.618C31.8985 232.618 32.7122 233.432 32.7122 234.435Z" fill="url(#paint81_linear_400_34589)"/>
<path d="M61.7894 234.435C61.7894 235.439 60.9758 236.253 59.9721 236.253C58.9684 236.253 58.1547 235.439 58.1547 234.435C58.1547 233.432 58.9684 232.618 59.9721 232.618C60.9758 232.618 61.7894 233.432 61.7894 234.435Z" fill="url(#paint82_linear_400_34589)"/>
<path d="M90.8666 234.435C90.8666 235.439 90.053 236.253 89.0493 236.253C88.0456 236.253 87.232 235.439 87.232 234.435C87.232 233.432 88.0456 232.618 89.0493 232.618C90.053 232.618 90.8666 233.432 90.8666 234.435Z" fill="url(#paint83_linear_400_34589)"/>
<path d="M119.944 234.435C119.944 235.439 119.13 236.253 118.127 236.253C117.123 236.253 116.309 235.439 116.309 234.435C116.309 233.432 117.123 232.618 118.127 232.618C119.13 232.618 119.944 233.432 119.944 234.435Z" fill="url(#paint84_linear_400_34589)"/>
<path d="M149.021 234.435C149.021 235.439 148.207 236.253 147.204 236.253C146.2 236.253 145.386 235.439 145.386 234.435C145.386 233.432 146.2 232.618 147.204 232.618C148.207 232.618 149.021 233.432 149.021 234.435Z" fill="url(#paint85_linear_400_34589)"/>
<path d="M178.098 234.435C178.098 235.439 177.285 236.253 176.281 236.253C175.277 236.253 174.464 235.439 174.464 234.435C174.464 233.432 175.277 232.618 176.281 232.618C177.285 232.618 178.098 233.432 178.098 234.435Z" fill="url(#paint86_linear_400_34589)"/>
<path d="M207.176 234.435C207.176 235.439 206.362 236.253 205.358 236.253C204.355 236.253 203.541 235.439 203.541 234.435C203.541 233.432 204.355 232.618 205.358 232.618C206.362 232.618 207.176 233.432 207.176 234.435Z" fill="url(#paint87_linear_400_34589)"/>
<path d="M236.253 234.435C236.253 235.439 235.439 236.253 234.436 236.253C233.432 236.253 232.618 235.439 232.618 234.435C232.618 233.432 233.432 232.618 234.436 232.618C235.439 232.618 236.253 233.432 236.253 234.435Z" fill="url(#paint88_linear_400_34589)"/>
<path d="M265.33 234.435C265.33 235.439 264.516 236.253 263.513 236.253C262.509 236.253 261.695 235.439 261.695 234.435C261.695 233.432 262.509 232.618 263.513 232.618C264.516 232.618 265.33 233.432 265.33 234.435Z" fill="url(#paint89_linear_400_34589)"/>
<path d="M3.6349 263.513C3.6349 264.516 2.82125 265.33 1.81757 265.33C0.81389 265.33 0.000244141 264.516 0.000244141 263.513C0.000244141 262.509 0.81389 261.695 1.81757 261.695C2.82125 261.695 3.6349 262.509 3.6349 263.513Z" fill="url(#paint90_linear_400_34589)"/>
<path d="M32.7122 263.513C32.7122 264.516 31.8985 265.33 30.8948 265.33C29.8911 265.33 29.0775 264.516 29.0775 263.513C29.0775 262.509 29.8911 261.695 30.8948 261.695C31.8985 261.695 32.7122 262.509 32.7122 263.513Z" fill="url(#paint91_linear_400_34589)"/>
<path d="M61.7894 263.513C61.7894 264.516 60.9758 265.33 59.9721 265.33C58.9684 265.33 58.1547 264.516 58.1547 263.513C58.1547 262.509 58.9684 261.695 59.9721 261.695C60.9758 261.695 61.7894 262.509 61.7894 263.513Z" fill="url(#paint92_linear_400_34589)"/>
<path d="M90.8666 263.513C90.8666 264.516 90.053 265.33 89.0493 265.33C88.0456 265.33 87.232 264.516 87.232 263.513C87.232 262.509 88.0456 261.695 89.0493 261.695C90.053 261.695 90.8666 262.509 90.8666 263.513Z" fill="url(#paint93_linear_400_34589)"/>
<path d="M119.944 263.513C119.944 264.516 119.13 265.33 118.127 265.33C117.123 265.33 116.309 264.516 116.309 263.513C116.309 262.509 117.123 261.695 118.127 261.695C119.13 261.695 119.944 262.509 119.944 263.513Z" fill="url(#paint94_linear_400_34589)"/>
<path d="M149.021 263.513C149.021 264.516 148.207 265.33 147.204 265.33C146.2 265.33 145.386 264.516 145.386 263.513C145.386 262.509 146.2 261.695 147.204 261.695C148.207 261.695 149.021 262.509 149.021 263.513Z" fill="url(#paint95_linear_400_34589)"/>
<path d="M178.098 263.513C178.098 264.516 177.285 265.33 176.281 265.33C175.277 265.33 174.464 264.516 174.464 263.513C174.464 262.509 175.277 261.695 176.281 261.695C177.285 261.695 178.098 262.509 178.098 263.513Z" fill="url(#paint96_linear_400_34589)"/>
<path d="M207.176 263.513C207.176 264.516 206.362 265.33 205.358 265.33C204.355 265.33 203.541 264.516 203.541 263.513C203.541 262.509 204.355 261.695 205.358 261.695C206.362 261.695 207.176 262.509 207.176 263.513Z" fill="url(#paint97_linear_400_34589)"/>
<path d="M236.253 263.513C236.253 264.516 235.439 265.33 234.436 265.33C233.432 265.33 232.618 264.516 232.618 263.513C232.618 262.509 233.432 261.695 234.436 261.695C235.439 261.695 236.253 262.509 236.253 263.513Z" fill="url(#paint98_linear_400_34589)"/>
<path d="M265.33 263.513C265.33 264.516 264.516 265.33 263.513 265.33C262.509 265.33 261.695 264.516 261.695 263.513C261.695 262.509 262.509 261.695 263.513 261.695C264.516 261.695 265.33 262.509 265.33 263.513Z" fill="url(#paint99_linear_400_34589)"/>
<path d="M3.6349 292.59C3.6349 293.593 2.82125 294.407 1.81757 294.407C0.81389 294.407 0.000244141 293.593 0.000244141 292.59C0.000244141 291.586 0.81389 290.772 1.81757 290.772C2.82125 290.772 3.6349 291.586 3.6349 292.59Z" fill="url(#paint100_linear_400_34589)"/>
<path d="M32.7122 292.59C32.7122 293.593 31.8985 294.407 30.8948 294.407C29.8911 294.407 29.0775 293.593 29.0775 292.59C29.0775 291.586 29.8911 290.772 30.8948 290.772C31.8985 290.772 32.7122 291.586 32.7122 292.59Z" fill="url(#paint101_linear_400_34589)"/>
<path d="M61.7894 292.59C61.7894 293.593 60.9758 294.407 59.9721 294.407C58.9684 294.407 58.1547 293.593 58.1547 292.59C58.1547 291.586 58.9684 290.772 59.9721 290.772C60.9758 290.772 61.7894 291.586 61.7894 292.59Z" fill="url(#paint102_linear_400_34589)"/>
<path d="M90.8666 292.59C90.8666 293.593 90.053 294.407 89.0493 294.407C88.0456 294.407 87.232 293.593 87.232 292.59C87.232 291.586 88.0456 290.772 89.0493 290.772C90.053 290.772 90.8666 291.586 90.8666 292.59Z" fill="url(#paint103_linear_400_34589)"/>
<path d="M119.944 292.59C119.944 293.593 119.13 294.407 118.127 294.407C117.123 294.407 116.309 293.593 116.309 292.59C116.309 291.586 117.123 290.772 118.127 290.772C119.13 290.772 119.944 291.586 119.944 292.59Z" fill="url(#paint104_linear_400_34589)"/>
<path d="M149.021 292.59C149.021 293.593 148.207 294.407 147.204 294.407C146.2 294.407 145.386 293.593 145.386 292.59C145.386 291.586 146.2 290.772 147.204 290.772C148.207 290.772 149.021 291.586 149.021 292.59Z" fill="url(#paint105_linear_400_34589)"/>
<path d="M178.098 292.59C178.098 293.593 177.285 294.407 176.281 294.407C175.277 294.407 174.464 293.593 174.464 292.59C174.464 291.586 175.277 290.772 176.281 290.772C177.285 290.772 178.098 291.586 178.098 292.59Z" fill="url(#paint106_linear_400_34589)"/>
<path d="M207.176 292.59C207.176 293.593 206.362 294.407 205.358 294.407C204.355 294.407 203.541 293.593 203.541 292.59C203.541 291.586 204.355 290.772 205.358 290.772C206.362 290.772 207.176 291.586 207.176 292.59Z" fill="url(#paint107_linear_400_34589)"/>
<path d="M236.253 292.59C236.253 293.593 235.439 294.407 234.436 294.407C233.432 294.407 232.618 293.593 232.618 292.59C232.618 291.586 233.432 290.772 234.436 290.772C235.439 290.772 236.253 291.586 236.253 292.59Z" fill="url(#paint108_linear_400_34589)"/>
<path d="M265.33 292.59C265.33 293.593 264.516 294.407 263.513 294.407C262.509 294.407 261.695 293.593 261.695 292.59C261.695 291.586 262.509 290.772 263.513 290.772C264.516 290.772 265.33 291.586 265.33 292.59Z" fill="url(#paint109_linear_400_34589)"/>
<path d="M3.6349 321.667C3.6349 322.671 2.82125 323.484 1.81757 323.484C0.81389 323.484 0.000244141 322.671 0.000244141 321.667C0.000244141 320.663 0.81389 319.85 1.81757 319.85C2.82125 319.85 3.6349 320.663 3.6349 321.667Z" fill="url(#paint110_linear_400_34589)"/>
<path d="M32.7122 321.667C32.7122 322.671 31.8985 323.484 30.8948 323.484C29.8911 323.484 29.0775 322.671 29.0775 321.667C29.0775 320.663 29.8911 319.85 30.8948 319.85C31.8985 319.85 32.7122 320.663 32.7122 321.667Z" fill="url(#paint111_linear_400_34589)"/>
<path d="M61.7894 321.667C61.7894 322.671 60.9758 323.484 59.9721 323.484C58.9684 323.484 58.1547 322.671 58.1547 321.667C58.1547 320.663 58.9684 319.85 59.9721 319.85C60.9758 319.85 61.7894 320.663 61.7894 321.667Z" fill="url(#paint112_linear_400_34589)"/>
<path d="M90.8666 321.667C90.8666 322.671 90.053 323.484 89.0493 323.484C88.0456 323.484 87.232 322.671 87.232 321.667C87.232 320.663 88.0456 319.85 89.0493 319.85C90.053 319.85 90.8666 320.663 90.8666 321.667Z" fill="url(#paint113_linear_400_34589)"/>
<path d="M119.944 321.667C119.944 322.671 119.13 323.484 118.127 323.484C117.123 323.484 116.309 322.671 116.309 321.667C116.309 320.663 117.123 319.85 118.127 319.85C119.13 319.85 119.944 320.663 119.944 321.667Z" fill="url(#paint114_linear_400_34589)"/>
<path d="M149.021 321.667C149.021 322.671 148.207 323.484 147.204 323.484C146.2 323.484 145.386 322.671 145.386 321.667C145.386 320.663 146.2 319.85 147.204 319.85C148.207 319.85 149.021 320.663 149.021 321.667Z" fill="url(#paint115_linear_400_34589)"/>
<path d="M178.098 321.667C178.098 322.671 177.285 323.484 176.281 323.484C175.277 323.484 174.464 322.671 174.464 321.667C174.464 320.663 175.277 319.85 176.281 319.85C177.285 319.85 178.098 320.663 178.098 321.667Z" fill="url(#paint116_linear_400_34589)"/>
<path d="M207.176 321.667C207.176 322.671 206.362 323.484 205.358 323.484C204.355 323.484 203.541 322.671 203.541 321.667C203.541 320.663 204.355 319.85 205.358 319.85C206.362 319.85 207.176 320.663 207.176 321.667Z" fill="url(#paint117_linear_400_34589)"/>
<path d="M236.253 321.667C236.253 322.671 235.439 323.484 234.436 323.484C233.432 323.484 232.618 322.671 232.618 321.667C232.618 320.663 233.432 319.85 234.436 319.85C235.439 319.85 236.253 320.663 236.253 321.667Z" fill="url(#paint118_linear_400_34589)"/>
<path d="M265.33 321.667C265.33 322.671 264.516 323.484 263.513 323.484C262.509 323.484 261.695 322.671 261.695 321.667C261.695 320.663 262.509 319.85 263.513 319.85C264.516 319.85 265.33 320.663 265.33 321.667Z" fill="url(#paint119_linear_400_34589)"/>
<path d="M3.6349 350.744C3.6349 351.748 2.82125 352.562 1.81757 352.562C0.81389 352.562 0.000244141 351.748 0.000244141 350.744C0.000244141 349.741 0.81389 348.927 1.81757 348.927C2.82125 348.927 3.6349 349.741 3.6349 350.744Z" fill="url(#paint120_linear_400_34589)"/>
<path d="M32.7122 350.744C32.7122 351.748 31.8985 352.562 30.8948 352.562C29.8911 352.562 29.0775 351.748 29.0775 350.744C29.0775 349.741 29.8911 348.927 30.8948 348.927C31.8985 348.927 32.7122 349.741 32.7122 350.744Z" fill="url(#paint121_linear_400_34589)"/>
<path d="M61.7894 350.744C61.7894 351.748 60.9758 352.562 59.9721 352.562C58.9684 352.562 58.1547 351.748 58.1547 350.744C58.1547 349.741 58.9684 348.927 59.9721 348.927C60.9758 348.927 61.7894 349.741 61.7894 350.744Z" fill="url(#paint122_linear_400_34589)"/>
<path d="M90.8666 350.744C90.8666 351.748 90.053 352.562 89.0493 352.562C88.0456 352.562 87.232 351.748 87.232 350.744C87.232 349.741 88.0456 348.927 89.0493 348.927C90.053 348.927 90.8666 349.741 90.8666 350.744Z" fill="url(#paint123_linear_400_34589)"/>
<path d="M119.944 350.744C119.944 351.748 119.13 352.562 118.127 352.562C117.123 352.562 116.309 351.748 116.309 350.744C116.309 349.741 117.123 348.927 118.127 348.927C119.13 348.927 119.944 349.741 119.944 350.744Z" fill="url(#paint124_linear_400_34589)"/>
<path d="M149.021 350.744C149.021 351.748 148.207 352.562 147.204 352.562C146.2 352.562 145.386 351.748 145.386 350.744C145.386 349.741 146.2 348.927 147.204 348.927C148.207 348.927 149.021 349.741 149.021 350.744Z" fill="url(#paint125_linear_400_34589)"/>
<path d="M178.098 350.744C178.098 351.748 177.285 352.562 176.281 352.562C175.277 352.562 174.464 351.748 174.464 350.744C174.464 349.741 175.277 348.927 176.281 348.927C177.285 348.927 178.098 349.741 178.098 350.744Z" fill="url(#paint126_linear_400_34589)"/>
<path d="M207.176 350.744C207.176 351.748 206.362 352.562 205.358 352.562C204.355 352.562 203.541 351.748 203.541 350.744C203.541 349.741 204.355 348.927 205.358 348.927C206.362 348.927 207.176 349.741 207.176 350.744Z" fill="url(#paint127_linear_400_34589)"/>
<path d="M236.253 350.744C236.253 351.748 235.439 352.562 234.436 352.562C233.432 352.562 232.618 351.748 232.618 350.744C232.618 349.741 233.432 348.927 234.436 348.927C235.439 348.927 236.253 349.741 236.253 350.744Z" fill="url(#paint128_linear_400_34589)"/>
<path d="M265.33 350.744C265.33 351.748 264.516 352.562 263.513 352.562C262.509 352.562 261.695 351.748 261.695 350.744C261.695 349.741 262.509 348.927 263.513 348.927C264.516 348.927 265.33 349.741 265.33 350.744Z" fill="url(#paint129_linear_400_34589)"/>
</mask>
<g mask="url(#mask0_400_34589)">
<rect x="-6.05762" y="-8.48096" width="278.051" height="368.918" fill="url(#paint130_radial_400_34589)"/>
</g>
<defs>
<linearGradient id="paint0_linear_400_34589" x1="3.02912" y1="8.48087" x2="476.746" y2="352.562" gradientUnits="userSpaceOnUse">
<stop stop-color="#D9D9D9" stop-opacity="0"/>
<stop offset="0.50257" stop-color="#011E0F"/>
<stop offset="1" stop-color="#6D7C74" stop-opacity="0"/>
</linearGradient>
<linearGradient id="paint1_linear_400_34589" x1="3.02912" y1="8.48087" x2="476.746" y2="352.562" gradientUnits="userSpaceOnUse">
<stop stop-color="#D9D9D9" stop-opacity="0"/>
<stop offset="0.50257" stop-color="#011E0F"/>
<stop offset="1" stop-color="#6D7C74" stop-opacity="0"/>
</linearGradient>
<linearGradient id="paint2_linear_400_34589" x1="3.02912" y1="8.48087" x2="476.746" y2="352.562" gradientUnits="userSpaceOnUse">
<stop stop-color="#D9D9D9" stop-opacity="0"/>
<stop offset="0.50257" stop-color="#011E0F"/>
<stop offset="1" stop-color="#6D7C74" stop-opacity="0"/>
</linearGradient>
<linearGradient id="paint3_linear_400_34589" x1="3.02912" y1="8.48087" x2="476.746" y2="352.562" gradientUnits="userSpaceOnUse">
<stop stop-color="#D9D9D9" stop-opacity="0"/>
<stop offset="0.50257" stop-color="#011E0F"/>
<stop offset="1" stop-color="#6D7C74" stop-opacity="0"/>
</linearGradient>
<linearGradient id="paint4_linear_400_34589" x1="3.02912" y1="8.48087" x2="476.746" y2="352.562" gradientUnits="userSpaceOnUse">
<stop stop-color="#D9D9D9" stop-opacity="0"/>
<stop offset="0.50257" stop-color="#011E0F"/>
<stop offset="1" stop-color="#6D7C74" stop-opacity="0"/>
</linearGradient>
<linearGradient id="paint5_linear_400_34589" x1="3.02912" y1="8.48087" x2="476.746" y2="352.562" gradientUnits="userSpaceOnUse">
<stop stop-color="#D9D9D9" stop-opacity="0"/>
<stop offset="0.50257" stop-color="#011E0F"/>
<stop offset="1" stop-color="#6D7C74" stop-opacity="0"/>
</linearGradient>
<linearGradient id="paint6_linear_400_34589" x1="3.02912" y1="8.48087" x2="476.746" y2="352.562" gradientUnits="userSpaceOnUse">
<stop stop-color="#D9D9D9" stop-opacity="0"/>
<stop offset="0.50257" stop-color="#011E0F"/>
<stop offset="1" stop-color="#6D7C74" stop-opacity="0"/>
</linearGradient>
<linearGradient id="paint7_linear_400_34589" x1="3.02912" y1="8.48087" x2="476.746" y2="352.562" gradientUnits="userSpaceOnUse">
<stop stop-color="#D9D9D9" stop-opacity="0"/>
<stop offset="0.50257" stop-color="#011E0F"/>
<stop offset="1" stop-color="#6D7C74" stop-opacity="0"/>
</linearGradient>
<linearGradient id="paint8_linear_400_34589" x1="3.02912" y1="8.48087" x2="476.746" y2="352.562" gradientUnits="userSpaceOnUse">
<stop stop-color="#D9D9D9" stop-opacity="0"/>
<stop offset="0.50257" stop-color="#011E0F"/>
<stop offset="1" stop-color="#6D7C74" stop-opacity="0"/>
</linearGradient>
<linearGradient id="paint9_linear_400_34589" x1="3.02912" y1="8.48087" x2="476.746" y2="352.562" gradientUnits="userSpaceOnUse">
<stop stop-color="#D9D9D9" stop-opacity="0"/>
<stop offset="0.50257" stop-color="#011E0F"/>
<stop offset="1" stop-color="#6D7C74" stop-opacity="0"/>
</linearGradient>
<linearGradient id="paint10_linear_400_34589" x1="3.02912" y1="8.48087" x2="476.746" y2="352.562" gradientUnits="userSpaceOnUse">
<stop stop-color="#D9D9D9" stop-opacity="0"/>
<stop offset="0.50257" stop-color="#011E0F"/>
<stop offset="1" stop-color="#6D7C74" stop-opacity="0"/>
</linearGradient>
<linearGradient id="paint11_linear_400_34589" x1="3.02912" y1="8.48087" x2="476.746" y2="352.562" gradientUnits="userSpaceOnUse">
<stop stop-color="#D9D9D9" stop-opacity="0"/>
<stop offset="0.50257" stop-color="#011E0F"/>
<stop offset="1" stop-color="#6D7C74" stop-opacity="0"/>
</linearGradient>
<linearGradient id="paint12_linear_400_34589" x1="3.02912" y1="8.48087" x2="476.746" y2="352.562" gradientUnits="userSpaceOnUse">
<stop stop-color="#D9D9D9" stop-opacity="0"/>
<stop offset="0.50257" stop-color="#011E0F"/>
<stop offset="1" stop-color="#6D7C74" stop-opacity="0"/>
</linearGradient>
<linearGradient id="paint13_linear_400_34589" x1="3.02912" y1="8.48087" x2="476.746" y2="352.562" gradientUnits="userSpaceOnUse">
<stop stop-color="#D9D9D9" stop-opacity="0"/>
<stop offset="0.50257" stop-color="#011E0F"/>
<stop offset="1" stop-color="#6D7C74" stop-opacity="0"/>
</linearGradient>
<linearGradient id="paint14_linear_400_34589" x1="3.02912" y1="8.48087" x2="476.746" y2="352.562" gradientUnits="userSpaceOnUse">
<stop stop-color="#D9D9D9" stop-opacity="0"/>
<stop offset="0.50257" stop-color="#011E0F"/>
<stop offset="1" stop-color="#6D7C74" stop-opacity="0"/>
</linearGradient>
<linearGradient id="paint15_linear_400_34589" x1="3.02912" y1="8.48087" x2="476.746" y2="352.562" gradientUnits="userSpaceOnUse">
<stop stop-color="#D9D9D9" stop-opacity="0"/>
<stop offset="0.50257" stop-color="#011E0F"/>
<stop offset="1" stop-color="#6D7C74" stop-opacity="0"/>
</linearGradient>
<linearGradient id="paint16_linear_400_34589" x1="3.02912" y1="8.48087" x2="476.746" y2="352.562" gradientUnits="userSpaceOnUse">
<stop stop-color="#D9D9D9" stop-opacity="0"/>
<stop offset="0.50257" stop-color="#011E0F"/>
<stop offset="1" stop-color="#6D7C74" stop-opacity="0"/>
</linearGradient>
<linearGradient id="paint17_linear_400_34589" x1="3.02912" y1="8.48087" x2="476.746" y2="352.562" gradientUnits="userSpaceOnUse">
<stop stop-color="#D9D9D9" stop-opacity="0"/>
<stop offset="0.50257" stop-color="#011E0F"/>
<stop offset="1" stop-color="#6D7C74" stop-opacity="0"/>
</linearGradient>
<linearGradient id="paint18_linear_400_34589" x1="3.02912" y1="8.48087" x2="476.746" y2="352.562" gradientUnits="userSpaceOnUse">
<stop stop-color="#D9D9D9" stop-opacity="0"/>
<stop offset="0.50257" stop-color="#011E0F"/>
<stop offset="1" stop-color="#6D7C74" stop-opacity="0"/>
</linearGradient>
<linearGradient id="paint19_linear_400_34589" x1="3.02912" y1="8.48087" x2="476.746" y2="352.562" gradientUnits="userSpaceOnUse">
<stop stop-color="#D9D9D9" stop-opacity="0"/>
<stop offset="0.50257" stop-color="#011E0F"/>
<stop offset="1" stop-color="#6D7C74" stop-opacity="0"/>
</linearGradient>
<linearGradient id="paint20_linear_400_34589" x1="3.02912" y1="8.48087" x2="476.746" y2="352.562" gradientUnits="userSpaceOnUse">
<stop stop-color="#D9D9D9" stop-opacity="0"/>
<stop offset="0.50257" stop-color="#011E0F"/>
<stop offset="1" stop-color="#6D7C74" stop-opacity="0"/>
</linearGradient>
<linearGradient id="paint21_linear_400_34589" x1="3.02912" y1="8.48087" x2="476.746" y2="352.562" gradientUnits="userSpaceOnUse">
<stop stop-color="#D9D9D9" stop-opacity="0"/>
<stop offset="0.50257" stop-color="#011E0F"/>
<stop offset="1" stop-color="#6D7C74" stop-opacity="0"/>
</linearGradient>
<linearGradient id="paint22_linear_400_34589" x1="3.02912" y1="8.48087" x2="476.746" y2="352.562" gradientUnits="userSpaceOnUse">
<stop stop-color="#D9D9D9" stop-opacity="0"/>
<stop offset="0.50257" stop-color="#011E0F"/>
<stop offset="1" stop-color="#6D7C74" stop-opacity="0"/>
</linearGradient>
<linearGradient id="paint23_linear_400_34589" x1="3.02912" y1="8.48087" x2="476.746" y2="352.562" gradientUnits="userSpaceOnUse">
<stop stop-color="#D9D9D9" stop-opacity="0"/>
<stop offset="0.50257" stop-color="#011E0F"/>
<stop offset="1" stop-color="#6D7C74" stop-opacity="0"/>
</linearGradient>
<linearGradient id="paint24_linear_400_34589" x1="3.02912" y1="8.48087" x2="476.746" y2="352.562" gradientUnits="userSpaceOnUse">
<stop stop-color="#D9D9D9" stop-opacity="0"/>
<stop offset="0.50257" stop-color="#011E0F"/>
<stop offset="1" stop-color="#6D7C74" stop-opacity="0"/>
</linearGradient>
<linearGradient id="paint25_linear_400_34589" x1="3.02912" y1="8.48087" x2="476.746" y2="352.562" gradientUnits="userSpaceOnUse">
<stop stop-color="#D9D9D9" stop-opacity="0"/>
<stop offset="0.50257" stop-color="#011E0F"/>
<stop offset="1" stop-color="#6D7C74" stop-opacity="0"/>
</linearGradient>
<linearGradient id="paint26_linear_400_34589" x1="3.02912" y1="8.48087" x2="476.746" y2="352.562" gradientUnits="userSpaceOnUse">
<stop stop-color="#D9D9D9" stop-opacity="0"/>
<stop offset="0.50257" stop-color="#011E0F"/>
<stop offset="1" stop-color="#6D7C74" stop-opacity="0"/>
</linearGradient>
<linearGradient id="paint27_linear_400_34589" x1="3.02912" y1="8.48087" x2="476.746" y2="352.562" gradientUnits="userSpaceOnUse">
<stop stop-color="#D9D9D9" stop-opacity="0"/>
<stop offset="0.50257" stop-color="#011E0F"/>
<stop offset="1" stop-color="#6D7C74" stop-opacity="0"/>
</linearGradient>
<linearGradient id="paint28_linear_400_34589" x1="3.02912" y1="8.48087" x2="476.746" y2="352.562" gradientUnits="userSpaceOnUse">
<stop stop-color="#D9D9D9" stop-opacity="0"/>
<stop offset="0.50257" stop-color="#011E0F"/>
<stop offset="1" stop-color="#6D7C74" stop-opacity="0"/>
</linearGradient>
<linearGradient id="paint29_linear_400_34589" x1="3.02912" y1="8.48087" x2="476.746" y2="352.562" gradientUnits="userSpaceOnUse">
<stop stop-color="#D9D9D9" stop-opacity="0"/>
<stop offset="0.50257" stop-color="#011E0F"/>
<stop offset="1" stop-color="#6D7C74" stop-opacity="0"/>
</linearGradient>
<linearGradient id="paint30_linear_400_34589" x1="3.02912" y1="8.48087" x2="476.746" y2="352.562" gradientUnits="userSpaceOnUse">
<stop stop-color="#D9D9D9" stop-opacity="0"/>
<stop offset="0.50257" stop-color="#011E0F"/>
<stop offset="1" stop-color="#6D7C74" stop-opacity="0"/>
</linearGradient>
<linearGradient id="paint31_linear_400_34589" x1="3.02912" y1="8.48087" x2="476.746" y2="352.562" gradientUnits="userSpaceOnUse">
<stop stop-color="#D9D9D9" stop-opacity="0"/>
<stop offset="0.50257" stop-color="#011E0F"/>
<stop offset="1" stop-color="#6D7C74" stop-opacity="0"/>
</linearGradient>
<linearGradient id="paint32_linear_400_34589" x1="3.02912" y1="8.48087" x2="476.746" y2="352.562" gradientUnits="userSpaceOnUse">
<stop stop-color="#D9D9D9" stop-opacity="0"/>
<stop offset="0.50257" stop-color="#011E0F"/>
<stop offset="1" stop-color="#6D7C74" stop-opacity="0"/>
</linearGradient>
<linearGradient id="paint33_linear_400_34589" x1="3.02912" y1="8.48087" x2="476.746" y2="352.562" gradientUnits="userSpaceOnUse">
<stop stop-color="#D9D9D9" stop-opacity="0"/>
<stop offset="0.50257" stop-color="#011E0F"/>
<stop offset="1" stop-color="#6D7C74" stop-opacity="0"/>
</linearGradient>
<linearGradient id="paint34_linear_400_34589" x1="3.02912" y1="8.48087" x2="476.746" y2="352.562" gradientUnits="userSpaceOnUse">
<stop stop-color="#D9D9D9" stop-opacity="0"/>
<stop offset="0.50257" stop-color="#011E0F"/>
<stop offset="1" stop-color="#6D7C74" stop-opacity="0"/>
</linearGradient>
<linearGradient id="paint35_linear_400_34589" x1="3.02912" y1="8.48087" x2="476.746" y2="352.562" gradientUnits="userSpaceOnUse">
<stop stop-color="#D9D9D9" stop-opacity="0"/>
<stop offset="0.50257" stop-color="#011E0F"/>
<stop offset="1" stop-color="#6D7C74" stop-opacity="0"/>
</linearGradient>
<linearGradient id="paint36_linear_400_34589" x1="3.02912" y1="8.48087" x2="476.746" y2="352.562" gradientUnits="userSpaceOnUse">
<stop stop-color="#D9D9D9" stop-opacity="0"/>
<stop offset="0.50257" stop-color="#011E0F"/>
<stop offset="1" stop-color="#6D7C74" stop-opacity="0"/>
</linearGradient>
<linearGradient id="paint37_linear_400_34589" x1="3.02912" y1="8.48087" x2="476.746" y2="352.562" gradientUnits="userSpaceOnUse">
<stop stop-color="#D9D9D9" stop-opacity="0"/>
<stop offset="0.50257" stop-color="#011E0F"/>
<stop offset="1" stop-color="#6D7C74" stop-opacity="0"/>
</linearGradient>
<linearGradient id="paint38_linear_400_34589" x1="3.02912" y1="8.48087" x2="476.746" y2="352.562" gradientUnits="userSpaceOnUse">
<stop stop-color="#D9D9D9" stop-opacity="0"/>
<stop offset="0.50257" stop-color="#011E0F"/>
<stop offset="1" stop-color="#6D7C74" stop-opacity="0"/>
</linearGradient>
<linearGradient id="paint39_linear_400_34589" x1="3.02912" y1="8.48087" x2="476.746" y2="352.562" gradientUnits="userSpaceOnUse">
<stop stop-color="#D9D9D9" stop-opacity="0"/>
<stop offset="0.50257" stop-color="#011E0F"/>
<stop offset="1" stop-color="#6D7C74" stop-opacity="0"/>
</linearGradient>
<linearGradient id="paint40_linear_400_34589" x1="3.02912" y1="8.48087" x2="476.746" y2="352.562" gradientUnits="userSpaceOnUse">
<stop stop-color="#D9D9D9" stop-opacity="0"/>
<stop offset="0.50257" stop-color="#011E0F"/>
<stop offset="1" stop-color="#6D7C74" stop-opacity="0"/>
</linearGradient>
<linearGradient id="paint41_linear_400_34589" x1="3.02912" y1="8.48087" x2="476.746" y2="352.562" gradientUnits="userSpaceOnUse">
<stop stop-color="#D9D9D9" stop-opacity="0"/>
<stop offset="0.50257" stop-color="#011E0F"/>
<stop offset="1" stop-color="#6D7C74" stop-opacity="0"/>
</linearGradient>
<linearGradient id="paint42_linear_400_34589" x1="3.02912" y1="8.48087" x2="476.746" y2="352.562" gradientUnits="userSpaceOnUse">
<stop stop-color="#D9D9D9" stop-opacity="0"/>
<stop offset="0.50257" stop-color="#011E0F"/>
<stop offset="1" stop-color="#6D7C74" stop-opacity="0"/>
</linearGradient>
<linearGradient id="paint43_linear_400_34589" x1="3.02912" y1="8.48087" x2="476.746" y2="352.562" gradientUnits="userSpaceOnUse">
<stop stop-color="#D9D9D9" stop-opacity="0"/>
<stop offset="0.50257" stop-color="#011E0F"/>
<stop offset="1" stop-color="#6D7C74" stop-opacity="0"/>
</linearGradient>
<linearGradient id="paint44_linear_400_34589" x1="3.02912" y1="8.48087" x2="476.746" y2="352.562" gradientUnits="userSpaceOnUse">
<stop stop-color="#D9D9D9" stop-opacity="0"/>
<stop offset="0.50257" stop-color="#011E0F"/>
<stop offset="1" stop-color="#6D7C74" stop-opacity="0"/>
</linearGradient>
<linearGradient id="paint45_linear_400_34589" x1="3.02912" y1="8.48087" x2="476.746" y2="352.562" gradientUnits="userSpaceOnUse">
<stop stop-color="#D9D9D9" stop-opacity="0"/>
<stop offset="0.50257" stop-color="#011E0F"/>
<stop offset="1" stop-color="#6D7C74" stop-opacity="0"/>
</linearGradient>
<linearGradient id="paint46_linear_400_34589" x1="3.02912" y1="8.48087" x2="476.746" y2="352.562" gradientUnits="userSpaceOnUse">
<stop stop-color="#D9D9D9" stop-opacity="0"/>
<stop offset="0.50257" stop-color="#011E0F"/>
<stop offset="1" stop-color="#6D7C74" stop-opacity="0"/>
</linearGradient>
<linearGradient id="paint47_linear_400_34589" x1="3.02912" y1="8.48087" x2="476.746" y2="352.562" gradientUnits="userSpaceOnUse">
<stop stop-color="#D9D9D9" stop-opacity="0"/>
<stop offset="0.50257" stop-color="#011E0F"/>
<stop offset="1" stop-color="#6D7C74" stop-opacity="0"/>
</linearGradient>
<linearGradient id="paint48_linear_400_34589" x1="3.02912" y1="8.48087" x2="476.746" y2="352.562" gradientUnits="userSpaceOnUse">
<stop stop-color="#D9D9D9" stop-opacity="0"/>
<stop offset="0.50257" stop-color="#011E0F"/>
<stop offset="1" stop-color="#6D7C74" stop-opacity="0"/>
</linearGradient>
<linearGradient id="paint49_linear_400_34589" x1="3.02912" y1="8.48087" x2="476.746" y2="352.562" gradientUnits="userSpaceOnUse">
<stop stop-color="#D9D9D9" stop-opacity="0"/>
<stop offset="0.50257" stop-color="#011E0F"/>
<stop offset="1" stop-color="#6D7C74" stop-opacity="0"/>
</linearGradient>
<linearGradient id="paint50_linear_400_34589" x1="3.02912" y1="8.48087" x2="476.746" y2="352.562" gradientUnits="userSpaceOnUse">
<stop stop-color="#D9D9D9" stop-opacity="0"/>
<stop offset="0.50257" stop-color="#011E0F"/>
<stop offset="1" stop-color="#6D7C74" stop-opacity="0"/>
</linearGradient>
<linearGradient id="paint51_linear_400_34589" x1="3.02912" y1="8.48087" x2="476.746" y2="352.562" gradientUnits="userSpaceOnUse">
<stop stop-color="#D9D9D9" stop-opacity="0"/>
<stop offset="0.50257" stop-color="#011E0F"/>
<stop offset="1" stop-color="#6D7C74" stop-opacity="0"/>
</linearGradient>
<linearGradient id="paint52_linear_400_34589" x1="3.02912" y1="8.48087" x2="476.746" y2="352.562" gradientUnits="userSpaceOnUse">
<stop stop-color="#D9D9D9" stop-opacity="0"/>
<stop offset="0.50257" stop-color="#011E0F"/>
<stop offset="1" stop-color="#6D7C74" stop-opacity="0"/>
</linearGradient>
<linearGradient id="paint53_linear_400_34589" x1="3.02912" y1="8.48087" x2="476.746" y2="352.562" gradientUnits="userSpaceOnUse">
<stop stop-color="#D9D9D9" stop-opacity="0"/>
<stop offset="0.50257" stop-color="#011E0F"/>
<stop offset="1" stop-color="#6D7C74" stop-opacity="0"/>
</linearGradient>
<linearGradient id="paint54_linear_400_34589" x1="3.02912" y1="8.48087" x2="476.746" y2="352.562" gradientUnits="userSpaceOnUse">
<stop stop-color="#D9D9D9" stop-opacity="0"/>
<stop offset="0.50257" stop-color="#011E0F"/>
<stop offset="1" stop-color="#6D7C74" stop-opacity="0"/>
</linearGradient>
<linearGradient id="paint55_linear_400_34589" x1="3.02912" y1="8.48087" x2="476.746" y2="352.562" gradientUnits="userSpaceOnUse">
<stop stop-color="#D9D9D9" stop-opacity="0"/>
<stop offset="0.50257" stop-color="#011E0F"/>
<stop offset="1" stop-color="#6D7C74" stop-opacity="0"/>
</linearGradient>
<linearGradient id="paint56_linear_400_34589" x1="3.02912" y1="8.48087" x2="476.746" y2="352.562" gradientUnits="userSpaceOnUse">
<stop stop-color="#D9D9D9" stop-opacity="0"/>
<stop offset="0.50257" stop-color="#011E0F"/>
<stop offset="1" stop-color="#6D7C74" stop-opacity="0"/>
</linearGradient>
<linearGradient id="paint57_linear_400_34589" x1="3.02912" y1="8.48087" x2="476.746" y2="352.562" gradientUnits="userSpaceOnUse">
<stop stop-color="#D9D9D9" stop-opacity="0"/>
<stop offset="0.50257" stop-color="#011E0F"/>
<stop offset="1" stop-color="#6D7C74" stop-opacity="0"/>
</linearGradient>
<linearGradient id="paint58_linear_400_34589" x1="3.02912" y1="8.48087" x2="476.746" y2="352.562" gradientUnits="userSpaceOnUse">
<stop stop-color="#D9D9D9" stop-opacity="0"/>
<stop offset="0.50257" stop-color="#011E0F"/>
<stop offset="1" stop-color="#6D7C74" stop-opacity="0"/>
</linearGradient>
<linearGradient id="paint59_linear_400_34589" x1="3.02912" y1="8.48087" x2="476.746" y2="352.562" gradientUnits="userSpaceOnUse">
<stop stop-color="#D9D9D9" stop-opacity="0"/>
<stop offset="0.50257" stop-color="#011E0F"/>
<stop offset="1" stop-color="#6D7C74" stop-opacity="0"/>
</linearGradient>
<linearGradient id="paint60_linear_400_34589" x1="3.02912" y1="8.48087" x2="476.746" y2="352.562" gradientUnits="userSpaceOnUse">
<stop stop-color="#D9D9D9" stop-opacity="0"/>
<stop offset="0.50257" stop-color="#011E0F"/>
<stop offset="1" stop-color="#6D7C74" stop-opacity="0"/>
</linearGradient>
<linearGradient id="paint61_linear_400_34589" x1="3.02912" y1="8.48087" x2="476.746" y2="352.562" gradientUnits="userSpaceOnUse">
<stop stop-color="#D9D9D9" stop-opacity="0"/>
<stop offset="0.50257" stop-color="#011E0F"/>
<stop offset="1" stop-color="#6D7C74" stop-opacity="0"/>
</linearGradient>
<linearGradient id="paint62_linear_400_34589" x1="3.02912" y1="8.48087" x2="476.746" y2="352.562" gradientUnits="userSpaceOnUse">
<stop stop-color="#D9D9D9" stop-opacity="0"/>
<stop offset="0.50257" stop-color="#011E0F"/>
<stop offset="1" stop-color="#6D7C74" stop-opacity="0"/>
</linearGradient>
<linearGradient id="paint63_linear_400_34589" x1="3.02912" y1="8.48087" x2="476.746" y2="352.562" gradientUnits="userSpaceOnUse">
<stop stop-color="#D9D9D9" stop-opacity="0"/>
<stop offset="0.50257" stop-color="#011E0F"/>
<stop offset="1" stop-color="#6D7C74" stop-opacity="0"/>
</linearGradient>
<linearGradient id="paint64_linear_400_34589" x1="3.02912" y1="8.48087" x2="476.746" y2="352.562" gradientUnits="userSpaceOnUse">
<stop stop-color="#D9D9D9" stop-opacity="0"/>
<stop offset="0.50257" stop-color="#011E0F"/>
<stop offset="1" stop-color="#6D7C74" stop-opacity="0"/>
</linearGradient>
<linearGradient id="paint65_linear_400_34589" x1="3.02912" y1="8.48087" x2="476.746" y2="352.562" gradientUnits="userSpaceOnUse">
<stop stop-color="#D9D9D9" stop-opacity="0"/>
<stop offset="0.50257" stop-color="#011E0F"/>
<stop offset="1" stop-color="#6D7C74" stop-opacity="0"/>
</linearGradient>
<linearGradient id="paint66_linear_400_34589" x1="3.02912" y1="8.48087" x2="476.746" y2="352.562" gradientUnits="userSpaceOnUse">
<stop stop-color="#D9D9D9" stop-opacity="0"/>
<stop offset="0.50257" stop-color="#011E0F"/>
<stop offset="1" stop-color="#6D7C74" stop-opacity="0"/>
</linearGradient>
<linearGradient id="paint67_linear_400_34589" x1="3.02912" y1="8.48087" x2="476.746" y2="352.562" gradientUnits="userSpaceOnUse">
<stop stop-color="#D9D9D9" stop-opacity="0"/>
<stop offset="0.50257" stop-color="#011E0F"/>
<stop offset="1" stop-color="#6D7C74" stop-opacity="0"/>
</linearGradient>
<linearGradient id="paint68_linear_400_34589" x1="3.02912" y1="8.48087" x2="476.746" y2="352.562" gradientUnits="userSpaceOnUse">
<stop stop-color="#D9D9D9" stop-opacity="0"/>
<stop offset="0.50257" stop-color="#011E0F"/>
<stop offset="1" stop-color="#6D7C74" stop-opacity="0"/>
</linearGradient>
<linearGradient id="paint69_linear_400_34589" x1="3.02912" y1="8.48087" x2="476.746" y2="352.562" gradientUnits="userSpaceOnUse">
<stop stop-color="#D9D9D9" stop-opacity="0"/>
<stop offset="0.50257" stop-color="#011E0F"/>
<stop offset="1" stop-color="#6D7C74" stop-opacity="0"/>
</linearGradient>
<linearGradient id="paint70_linear_400_34589" x1="3.02912" y1="8.48087" x2="476.746" y2="352.562" gradientUnits="userSpaceOnUse">
<stop stop-color="#D9D9D9" stop-opacity="0"/>
<stop offset="0.50257" stop-color="#011E0F"/>
<stop offset="1" stop-color="#6D7C74" stop-opacity="0"/>
</linearGradient>
<linearGradient id="paint71_linear_400_34589" x1="3.02912" y1="8.48087" x2="476.746" y2="352.562" gradientUnits="userSpaceOnUse">
<stop stop-color="#D9D9D9" stop-opacity="0"/>
<stop offset="0.50257" stop-color="#011E0F"/>
<stop offset="1" stop-color="#6D7C74" stop-opacity="0"/>
</linearGradient>
<linearGradient id="paint72_linear_400_34589" x1="3.02912" y1="8.48087" x2="476.746" y2="352.562" gradientUnits="userSpaceOnUse">
<stop stop-color="#D9D9D9" stop-opacity="0"/>
<stop offset="0.50257" stop-color="#011E0F"/>
<stop offset="1" stop-color="#6D7C74" stop-opacity="0"/>
</linearGradient>
<linearGradient id="paint73_linear_400_34589" x1="3.02912" y1="8.48087" x2="476.746" y2="352.562" gradientUnits="userSpaceOnUse">
<stop stop-color="#D9D9D9" stop-opacity="0"/>
<stop offset="0.50257" stop-color="#011E0F"/>
<stop offset="1" stop-color="#6D7C74" stop-opacity="0"/>
</linearGradient>
<linearGradient id="paint74_linear_400_34589" x1="3.02912" y1="8.48087" x2="476.746" y2="352.562" gradientUnits="userSpaceOnUse">
<stop stop-color="#D9D9D9" stop-opacity="0"/>
<stop offset="0.50257" stop-color="#011E0F"/>
<stop offset="1" stop-color="#6D7C74" stop-opacity="0"/>
</linearGradient>
<linearGradient id="paint75_linear_400_34589" x1="3.02912" y1="8.48087" x2="476.746" y2="352.562" gradientUnits="userSpaceOnUse">
<stop stop-color="#D9D9D9" stop-opacity="0"/>
<stop offset="0.50257" stop-color="#011E0F"/>
<stop offset="1" stop-color="#6D7C74" stop-opacity="0"/>
</linearGradient>
<linearGradient id="paint76_linear_400_34589" x1="3.02912" y1="8.48087" x2="476.746" y2="352.562" gradientUnits="userSpaceOnUse">
<stop stop-color="#D9D9D9" stop-opacity="0"/>
<stop offset="0.50257" stop-color="#011E0F"/>
<stop offset="1" stop-color="#6D7C74" stop-opacity="0"/>
</linearGradient>
<linearGradient id="paint77_linear_400_34589" x1="3.02912" y1="8.48087" x2="476.746" y2="352.562" gradientUnits="userSpaceOnUse">
<stop stop-color="#D9D9D9" stop-opacity="0"/>
<stop offset="0.50257" stop-color="#011E0F"/>
<stop offset="1" stop-color="#6D7C74" stop-opacity="0"/>
</linearGradient>
<linearGradient id="paint78_linear_400_34589" x1="3.02912" y1="8.48087" x2="476.746" y2="352.562" gradientUnits="userSpaceOnUse">
<stop stop-color="#D9D9D9" stop-opacity="0"/>
<stop offset="0.50257" stop-color="#011E0F"/>
<stop offset="1" stop-color="#6D7C74" stop-opacity="0"/>
</linearGradient>
<linearGradient id="paint79_linear_400_34589" x1="3.02912" y1="8.48087" x2="476.746" y2="352.562" gradientUnits="userSpaceOnUse">
<stop stop-color="#D9D9D9" stop-opacity="0"/>
<stop offset="0.50257" stop-color="#011E0F"/>
<stop offset="1" stop-color="#6D7C74" stop-opacity="0"/>
</linearGradient>
<linearGradient id="paint80_linear_400_34589" x1="3.02912" y1="8.48087" x2="476.746" y2="352.562" gradientUnits="userSpaceOnUse">
<stop stop-color="#D9D9D9" stop-opacity="0"/>
<stop offset="0.50257" stop-color="#011E0F"/>
<stop offset="1" stop-color="#6D7C74" stop-opacity="0"/>
</linearGradient>
<linearGradient id="paint81_linear_400_34589" x1="3.02912" y1="8.48087" x2="476.746" y2="352.562" gradientUnits="userSpaceOnUse">
<stop stop-color="#D9D9D9" stop-opacity="0"/>
<stop offset="0.50257" stop-color="#011E0F"/>
<stop offset="1" stop-color="#6D7C74" stop-opacity="0"/>
</linearGradient>
<linearGradient id="paint82_linear_400_34589" x1="3.02912" y1="8.48087" x2="476.746" y2="352.562" gradientUnits="userSpaceOnUse">
<stop stop-color="#D9D9D9" stop-opacity="0"/>
<stop offset="0.50257" stop-color="#011E0F"/>
<stop offset="1" stop-color="#6D7C74" stop-opacity="0"/>
</linearGradient>
<linearGradient id="paint83_linear_400_34589" x1="3.02912" y1="8.48087" x2="476.746" y2="352.562" gradientUnits="userSpaceOnUse">
<stop stop-color="#D9D9D9" stop-opacity="0"/>
<stop offset="0.50257" stop-color="#011E0F"/>
<stop offset="1" stop-color="#6D7C74" stop-opacity="0"/>
</linearGradient>
<linearGradient id="paint84_linear_400_34589" x1="3.02912" y1="8.48087" x2="476.746" y2="352.562" gradientUnits="userSpaceOnUse">
<stop stop-color="#D9D9D9" stop-opacity="0"/>
<stop offset="0.50257" stop-color="#011E0F"/>
<stop offset="1" stop-color="#6D7C74" stop-opacity="0"/>
</linearGradient>
<linearGradient id="paint85_linear_400_34589" x1="3.02912" y1="8.48087" x2="476.746" y2="352.562" gradientUnits="userSpaceOnUse">
<stop stop-color="#D9D9D9" stop-opacity="0"/>
<stop offset="0.50257" stop-color="#011E0F"/>
<stop offset="1" stop-color="#6D7C74" stop-opacity="0"/>
</linearGradient>
<linearGradient id="paint86_linear_400_34589" x1="3.02912" y1="8.48087" x2="476.746" y2="352.562" gradientUnits="userSpaceOnUse">
<stop stop-color="#D9D9D9" stop-opacity="0"/>
<stop offset="0.50257" stop-color="#011E0F"/>
<stop offset="1" stop-color="#6D7C74" stop-opacity="0"/>
</linearGradient>
<linearGradient id="paint87_linear_400_34589" x1="3.02912" y1="8.48087" x2="476.746" y2="352.562" gradientUnits="userSpaceOnUse">
<stop stop-color="#D9D9D9" stop-opacity="0"/>
<stop offset="0.50257" stop-color="#011E0F"/>
<stop offset="1" stop-color="#6D7C74" stop-opacity="0"/>
</linearGradient>
<linearGradient id="paint88_linear_400_34589" x1="3.02912" y1="8.48087" x2="476.746" y2="352.562" gradientUnits="userSpaceOnUse">
<stop stop-color="#D9D9D9" stop-opacity="0"/>
<stop offset="0.50257" stop-color="#011E0F"/>
<stop offset="1" stop-color="#6D7C74" stop-opacity="0"/>
</linearGradient>
<linearGradient id="paint89_linear_400_34589" x1="3.02912" y1="8.48087" x2="476.746" y2="352.562" gradientUnits="userSpaceOnUse">
<stop stop-color="#D9D9D9" stop-opacity="0"/>
<stop offset="0.50257" stop-color="#011E0F"/>
<stop offset="1" stop-color="#6D7C74" stop-opacity="0"/>
</linearGradient>
<linearGradient id="paint90_linear_400_34589" x1="3.02912" y1="8.48087" x2="476.746" y2="352.562" gradientUnits="userSpaceOnUse">
<stop stop-color="#D9D9D9" stop-opacity="0"/>
<stop offset="0.50257" stop-color="#011E0F"/>
<stop offset="1" stop-color="#6D7C74" stop-opacity="0"/>
</linearGradient>
<linearGradient id="paint91_linear_400_34589" x1="3.02912" y1="8.48087" x2="476.746" y2="352.562" gradientUnits="userSpaceOnUse">
<stop stop-color="#D9D9D9" stop-opacity="0"/>
<stop offset="0.50257" stop-color="#011E0F"/>
<stop offset="1" stop-color="#6D7C74" stop-opacity="0"/>
</linearGradient>
<linearGradient id="paint92_linear_400_34589" x1="3.02912" y1="8.48087" x2="476.746" y2="352.562" gradientUnits="userSpaceOnUse">
<stop stop-color="#D9D9D9" stop-opacity="0"/>
<stop offset="0.50257" stop-color="#011E0F"/>
<stop offset="1" stop-color="#6D7C74" stop-opacity="0"/>
</linearGradient>
<linearGradient id="paint93_linear_400_34589" x1="3.02912" y1="8.48087" x2="476.746" y2="352.562" gradientUnits="userSpaceOnUse">
<stop stop-color="#D9D9D9" stop-opacity="0"/>
<stop offset="0.50257" stop-color="#011E0F"/>
<stop offset="1" stop-color="#6D7C74" stop-opacity="0"/>
</linearGradient>
<linearGradient id="paint94_linear_400_34589" x1="3.02912" y1="8.48087" x2="476.746" y2="352.562" gradientUnits="userSpaceOnUse">
<stop stop-color="#D9D9D9" stop-opacity="0"/>
<stop offset="0.50257" stop-color="#011E0F"/>
<stop offset="1" stop-color="#6D7C74" stop-opacity="0"/>
</linearGradient>
<linearGradient id="paint95_linear_400_34589" x1="3.02912" y1="8.48087" x2="476.746" y2="352.562" gradientUnits="userSpaceOnUse">
<stop stop-color="#D9D9D9" stop-opacity="0"/>
<stop offset="0.50257" stop-color="#011E0F"/>
<stop offset="1" stop-color="#6D7C74" stop-opacity="0"/>
</linearGradient>
<linearGradient id="paint96_linear_400_34589" x1="3.02912" y1="8.48087" x2="476.746" y2="352.562" gradientUnits="userSpaceOnUse">
<stop stop-color="#D9D9D9" stop-opacity="0"/>
<stop offset="0.50257" stop-color="#011E0F"/>
<stop offset="1" stop-color="#6D7C74" stop-opacity="0"/>
</linearGradient>
<linearGradient id="paint97_linear_400_34589" x1="3.02912" y1="8.48087" x2="476.746" y2="352.562" gradientUnits="userSpaceOnUse">
<stop stop-color="#D9D9D9" stop-opacity="0"/>
<stop offset="0.50257" stop-color="#011E0F"/>
<stop offset="1" stop-color="#6D7C74" stop-opacity="0"/>
</linearGradient>
<linearGradient id="paint98_linear_400_34589" x1="3.02912" y1="8.48087" x2="476.746" y2="352.562" gradientUnits="userSpaceOnUse">
<stop stop-color="#D9D9D9" stop-opacity="0"/>
<stop offset="0.50257" stop-color="#011E0F"/>
<stop offset="1" stop-color="#6D7C74" stop-opacity="0"/>
</linearGradient>
<linearGradient id="paint99_linear_400_34589" x1="3.02912" y1="8.48087" x2="476.746" y2="352.562" gradientUnits="userSpaceOnUse">
<stop stop-color="#D9D9D9" stop-opacity="0"/>
<stop offset="0.50257" stop-color="#011E0F"/>
<stop offset="1" stop-color="#6D7C74" stop-opacity="0"/>
</linearGradient>
<linearGradient id="paint100_linear_400_34589" x1="3.02912" y1="8.48087" x2="476.746" y2="352.562" gradientUnits="userSpaceOnUse">
<stop stop-color="#D9D9D9" stop-opacity="0"/>
<stop offset="0.50257" stop-color="#011E0F"/>
<stop offset="1" stop-color="#6D7C74" stop-opacity="0"/>
</linearGradient>
<linearGradient id="paint101_linear_400_34589" x1="3.02912" y1="8.48087" x2="476.746" y2="352.562" gradientUnits="userSpaceOnUse">
<stop stop-color="#D9D9D9" stop-opacity="0"/>
<stop offset="0.50257" stop-color="#011E0F"/>
<stop offset="1" stop-color="#6D7C74" stop-opacity="0"/>
</linearGradient>
<linearGradient id="paint102_linear_400_34589" x1="3.02912" y1="8.48087" x2="476.746" y2="352.562" gradientUnits="userSpaceOnUse">
<stop stop-color="#D9D9D9" stop-opacity="0"/>
<stop offset="0.50257" stop-color="#011E0F"/>
<stop offset="1" stop-color="#6D7C74" stop-opacity="0"/>
</linearGradient>
<linearGradient id="paint103_linear_400_34589" x1="3.02912" y1="8.48087" x2="476.746" y2="352.562" gradientUnits="userSpaceOnUse">
<stop stop-color="#D9D9D9" stop-opacity="0"/>
<stop offset="0.50257" stop-color="#011E0F"/>
<stop offset="1" stop-color="#6D7C74" stop-opacity="0"/>
</linearGradient>
<linearGradient id="paint104_linear_400_34589" x1="3.02912" y1="8.48087" x2="476.746" y2="352.562" gradientUnits="userSpaceOnUse">
<stop stop-color="#D9D9D9" stop-opacity="0"/>
<stop offset="0.50257" stop-color="#011E0F"/>
<stop offset="1" stop-color="#6D7C74" stop-opacity="0"/>
</linearGradient>
<linearGradient id="paint105_linear_400_34589" x1="3.02912" y1="8.48087" x2="476.746" y2="352.562" gradientUnits="userSpaceOnUse">
<stop stop-color="#D9D9D9" stop-opacity="0"/>
<stop offset="0.50257" stop-color="#011E0F"/>
<stop offset="1" stop-color="#6D7C74" stop-opacity="0"/>
</linearGradient>
<linearGradient id="paint106_linear_400_34589" x1="3.02912" y1="8.48087" x2="476.746" y2="352.562" gradientUnits="userSpaceOnUse">
<stop stop-color="#D9D9D9" stop-opacity="0"/>
<stop offset="0.50257" stop-color="#011E0F"/>
<stop offset="1" stop-color="#6D7C74" stop-opacity="0"/>
</linearGradient>
<linearGradient id="paint107_linear_400_34589" x1="3.02912" y1="8.48087" x2="476.746" y2="352.562" gradientUnits="userSpaceOnUse">
<stop stop-color="#D9D9D9" stop-opacity="0"/>
<stop offset="0.50257" stop-color="#011E0F"/>
<stop offset="1" stop-color="#6D7C74" stop-opacity="0"/>
</linearGradient>
<linearGradient id="paint108_linear_400_34589" x1="3.02912" y1="8.48087" x2="476.746" y2="352.562" gradientUnits="userSpaceOnUse">
<stop stop-color="#D9D9D9" stop-opacity="0"/>
<stop offset="0.50257" stop-color="#011E0F"/>
<stop offset="1" stop-color="#6D7C74" stop-opacity="0"/>
</linearGradient>
<linearGradient id="paint109_linear_400_34589" x1="3.02912" y1="8.48087" x2="476.746" y2="352.562" gradientUnits="userSpaceOnUse">
<stop stop-color="#D9D9D9" stop-opacity="0"/>
<stop offset="0.50257" stop-color="#011E0F"/>
<stop offset="1" stop-color="#6D7C74" stop-opacity="0"/>
</linearGradient>
<linearGradient id="paint110_linear_400_34589" x1="3.02912" y1="8.48087" x2="476.746" y2="352.562" gradientUnits="userSpaceOnUse">
<stop stop-color="#D9D9D9" stop-opacity="0"/>
<stop offset="0.50257" stop-color="#011E0F"/>
<stop offset="1" stop-color="#6D7C74" stop-opacity="0"/>
</linearGradient>
<linearGradient id="paint111_linear_400_34589" x1="3.02912" y1="8.48087" x2="476.746" y2="352.562" gradientUnits="userSpaceOnUse">
<stop stop-color="#D9D9D9" stop-opacity="0"/>
<stop offset="0.50257" stop-color="#011E0F"/>
<stop offset="1" stop-color="#6D7C74" stop-opacity="0"/>
</linearGradient>
<linearGradient id="paint112_linear_400_34589" x1="3.02912" y1="8.48087" x2="476.746" y2="352.562" gradientUnits="userSpaceOnUse">
<stop stop-color="#D9D9D9" stop-opacity="0"/>
<stop offset="0.50257" stop-color="#011E0F"/>
<stop offset="1" stop-color="#6D7C74" stop-opacity="0"/>
</linearGradient>
<linearGradient id="paint113_linear_400_34589" x1="3.02912" y1="8.48087" x2="476.746" y2="352.562" gradientUnits="userSpaceOnUse">
<stop stop-color="#D9D9D9" stop-opacity="0"/>
<stop offset="0.50257" stop-color="#011E0F"/>
<stop offset="1" stop-color="#6D7C74" stop-opacity="0"/>
</linearGradient>
<linearGradient id="paint114_linear_400_34589" x1="3.02912" y1="8.48087" x2="476.746" y2="352.562" gradientUnits="userSpaceOnUse">
<stop stop-color="#D9D9D9" stop-opacity="0"/>
<stop offset="0.50257" stop-color="#011E0F"/>
<stop offset="1" stop-color="#6D7C74" stop-opacity="0"/>
</linearGradient>
<linearGradient id="paint115_linear_400_34589" x1="3.02912" y1="8.48087" x2="476.746" y2="352.562" gradientUnits="userSpaceOnUse">
<stop stop-color="#D9D9D9" stop-opacity="0"/>
<stop offset="0.50257" stop-color="#011E0F"/>
<stop offset="1" stop-color="#6D7C74" stop-opacity="0"/>
</linearGradient>
<linearGradient id="paint116_linear_400_34589" x1="3.02912" y1="8.48087" x2="476.746" y2="352.562" gradientUnits="userSpaceOnUse">
<stop stop-color="#D9D9D9" stop-opacity="0"/>
<stop offset="0.50257" stop-color="#011E0F"/>
<stop offset="1" stop-color="#6D7C74" stop-opacity="0"/>
</linearGradient>
<linearGradient id="paint117_linear_400_34589" x1="3.02912" y1="8.48087" x2="476.746" y2="352.562" gradientUnits="userSpaceOnUse">
<stop stop-color="#D9D9D9" stop-opacity="0"/>
<stop offset="0.50257" stop-color="#011E0F"/>
<stop offset="1" stop-color="#6D7C74" stop-opacity="0"/>
</linearGradient>
<linearGradient id="paint118_linear_400_34589" x1="3.02912" y1="8.48087" x2="476.746" y2="352.562" gradientUnits="userSpaceOnUse">
<stop stop-color="#D9D9D9" stop-opacity="0"/>
<stop offset="0.50257" stop-color="#011E0F"/>
<stop offset="1" stop-color="#6D7C74" stop-opacity="0"/>
</linearGradient>
<linearGradient id="paint119_linear_400_34589" x1="3.02912" y1="8.48087" x2="476.746" y2="352.562" gradientUnits="userSpaceOnUse">
<stop stop-color="#D9D9D9" stop-opacity="0"/>
<stop offset="0.50257" stop-color="#011E0F"/>
<stop offset="1" stop-color="#6D7C74" stop-opacity="0"/>
</linearGradient>
<linearGradient id="paint120_linear_400_34589" x1="3.02912" y1="8.48087" x2="476.746" y2="352.562" gradientUnits="userSpaceOnUse">
<stop stop-color="#D9D9D9" stop-opacity="0"/>
<stop offset="0.50257" stop-color="#011E0F"/>
<stop offset="1" stop-color="#6D7C74" stop-opacity="0"/>
</linearGradient>
<linearGradient id="paint121_linear_400_34589" x1="3.02912" y1="8.48087" x2="476.746" y2="352.562" gradientUnits="userSpaceOnUse">
<stop stop-color="#D9D9D9" stop-opacity="0"/>
<stop offset="0.50257" stop-color="#011E0F"/>
<stop offset="1" stop-color="#6D7C74" stop-opacity="0"/>
</linearGradient>
<linearGradient id="paint122_linear_400_34589" x1="3.02912" y1="8.48087" x2="476.746" y2="352.562" gradientUnits="userSpaceOnUse">
<stop stop-color="#D9D9D9" stop-opacity="0"/>
<stop offset="0.50257" stop-color="#011E0F"/>
<stop offset="1" stop-color="#6D7C74" stop-opacity="0"/>
</linearGradient>
<linearGradient id="paint123_linear_400_34589" x1="3.02912" y1="8.48087" x2="476.746" y2="352.562" gradientUnits="userSpaceOnUse">
<stop stop-color="#D9D9D9" stop-opacity="0"/>
<stop offset="0.50257" stop-color="#011E0F"/>
<stop offset="1" stop-color="#6D7C74" stop-opacity="0"/>
</linearGradient>
<linearGradient id="paint124_linear_400_34589" x1="3.02912" y1="8.48087" x2="476.746" y2="352.562" gradientUnits="userSpaceOnUse">
<stop stop-color="#D9D9D9" stop-opacity="0"/>
<stop offset="0.50257" stop-color="#011E0F"/>
<stop offset="1" stop-color="#6D7C74" stop-opacity="0"/>
</linearGradient>
<linearGradient id="paint125_linear_400_34589" x1="3.02912" y1="8.48087" x2="476.746" y2="352.562" gradientUnits="userSpaceOnUse">
<stop stop-color="#D9D9D9" stop-opacity="0"/>
<stop offset="0.50257" stop-color="#011E0F"/>
<stop offset="1" stop-color="#6D7C74" stop-opacity="0"/>
</linearGradient>
<linearGradient id="paint126_linear_400_34589" x1="3.02912" y1="8.48087" x2="476.746" y2="352.562" gradientUnits="userSpaceOnUse">
<stop stop-color="#D9D9D9" stop-opacity="0"/>
<stop offset="0.50257" stop-color="#011E0F"/>
<stop offset="1" stop-color="#6D7C74" stop-opacity="0"/>
</linearGradient>
<linearGradient id="paint127_linear_400_34589" x1="3.02912" y1="8.48087" x2="476.746" y2="352.562" gradientUnits="userSpaceOnUse">
<stop stop-color="#D9D9D9" stop-opacity="0"/>
<stop offset="0.50257" stop-color="#011E0F"/>
<stop offset="1" stop-color="#6D7C74" stop-opacity="0"/>
</linearGradient>
<linearGradient id="paint128_linear_400_34589" x1="3.02912" y1="8.48087" x2="476.746" y2="352.562" gradientUnits="userSpaceOnUse">
<stop stop-color="#D9D9D9" stop-opacity="0"/>
<stop offset="0.50257" stop-color="#011E0F"/>
<stop offset="1" stop-color="#6D7C74" stop-opacity="0"/>
</linearGradient>
<linearGradient id="paint129_linear_400_34589" x1="3.02912" y1="8.48087" x2="476.746" y2="352.562" gradientUnits="userSpaceOnUse">
<stop stop-color="#D9D9D9" stop-opacity="0"/>
<stop offset="0.50257" stop-color="#011E0F"/>
<stop offset="1" stop-color="#6D7C74" stop-opacity="0"/>
</linearGradient>
<radialGradient id="paint130_radial_400_34589" cx="0" cy="0" r="1" gradientUnits="userSpaceOnUse" gradientTransform="translate(133.33 176) scale(139 199.388)">
<stop offset="0.49743" stop-color="#011E0F"/>
<stop offset="1" stop-color="#D9D9D9" stop-opacity="0"/>
</radialGradient>
</defs>
</svg>
