<svg width="118" height="157" viewBox="0 0 118 157" fill="none" xmlns="http://www.w3.org/2000/svg">
<mask id="mask0_400_38679" style="mask-type:alpha" maskUnits="userSpaceOnUse" x="0" y="0" width="118" height="157">
<path d="M1.61644 0.808219C1.61644 1.25459 1.25459 1.61644 0.808219 1.61644C0.361852 1.61644 0 1.25459 0 0.808219C0 0.361852 0.361852 0 0.808219 0C1.25459 0 1.61644 0.361852 1.61644 0.808219Z" fill="url(#paint0_linear_400_38679)"/>
<path d="M14.5479 0.808219C14.5479 1.25459 14.1861 1.61644 13.7397 1.61644C13.2934 1.61644 12.9315 1.25459 12.9315 0.808219C12.9315 0.361852 13.2934 0 13.7397 0C14.1861 0 14.5479 0.361852 14.5479 0.808219Z" fill="url(#paint1_linear_400_38679)"/>
<path d="M27.4795 0.808219C27.4795 1.25459 27.1176 1.61644 26.6712 1.61644C26.2249 1.61644 25.863 1.25459 25.863 0.808219C25.863 0.361852 26.2249 0 26.6712 0C27.1176 0 27.4795 0.361852 27.4795 0.808219Z" fill="url(#paint2_linear_400_38679)"/>
<path d="M40.411 0.808219C40.411 1.25459 40.0491 1.61644 39.6027 1.61644C39.1564 1.61644 38.7945 1.25459 38.7945 0.808219C38.7945 0.361852 39.1564 0 39.6027 0C40.0491 0 40.411 0.361852 40.411 0.808219Z" fill="url(#paint3_linear_400_38679)"/>
<path d="M53.3425 0.808219C53.3425 1.25459 52.9806 1.61644 52.5342 1.61644C52.0879 1.61644 51.726 1.25459 51.726 0.808219C51.726 0.361852 52.0879 0 52.5342 0C52.9806 0 53.3425 0.361852 53.3425 0.808219Z" fill="url(#paint4_linear_400_38679)"/>
<path d="M66.274 0.808219C66.274 1.25459 65.9121 1.61644 65.4658 1.61644C65.0194 1.61644 64.6575 1.25459 64.6575 0.808219C64.6575 0.361852 65.0194 0 65.4658 0C65.9121 0 66.274 0.361852 66.274 0.808219Z" fill="url(#paint5_linear_400_38679)"/>
<path d="M79.2055 0.808219C79.2055 1.25459 78.8436 1.61644 78.3973 1.61644C77.9509 1.61644 77.589 1.25459 77.589 0.808219C77.589 0.361852 77.9509 0 78.3973 0C78.8436 0 79.2055 0.361852 79.2055 0.808219Z" fill="url(#paint6_linear_400_38679)"/>
<path d="M92.137 0.808219C92.137 1.25459 91.7751 1.61644 91.3288 1.61644C90.8824 1.61644 90.5205 1.25459 90.5205 0.808219C90.5205 0.361852 90.8824 0 91.3288 0C91.7751 0 92.137 0.361852 92.137 0.808219Z" fill="url(#paint7_linear_400_38679)"/>
<path d="M105.068 0.808219C105.068 1.25459 104.707 1.61644 104.26 1.61644C103.814 1.61644 103.452 1.25459 103.452 0.808219C103.452 0.361852 103.814 0 104.26 0C104.707 0 105.068 0.361852 105.068 0.808219Z" fill="url(#paint8_linear_400_38679)"/>
<path d="M118 0.808219C118 1.25459 117.638 1.61644 117.192 1.61644C116.745 1.61644 116.384 1.25459 116.384 0.808219C116.384 0.361852 116.745 0 117.192 0C117.638 0 118 0.361852 118 0.808219Z" fill="url(#paint9_linear_400_38679)"/>
<path d="M1.61644 13.7397C1.61644 14.1861 1.25459 14.5479 0.808219 14.5479C0.361852 14.5479 0 14.1861 0 13.7397C0 13.2934 0.361852 12.9315 0.808219 12.9315C1.25459 12.9315 1.61644 13.2934 1.61644 13.7397Z" fill="url(#paint10_linear_400_38679)"/>
<path d="M14.5479 13.7397C14.5479 14.1861 14.1861 14.5479 13.7397 14.5479C13.2934 14.5479 12.9315 14.1861 12.9315 13.7397C12.9315 13.2934 13.2934 12.9315 13.7397 12.9315C14.1861 12.9315 14.5479 13.2934 14.5479 13.7397Z" fill="url(#paint11_linear_400_38679)"/>
<path d="M27.4795 13.7397C27.4795 14.1861 27.1176 14.5479 26.6712 14.5479C26.2249 14.5479 25.863 14.1861 25.863 13.7397C25.863 13.2934 26.2249 12.9315 26.6712 12.9315C27.1176 12.9315 27.4795 13.2934 27.4795 13.7397Z" fill="url(#paint12_linear_400_38679)"/>
<path d="M40.411 13.7397C40.411 14.1861 40.0491 14.5479 39.6027 14.5479C39.1564 14.5479 38.7945 14.1861 38.7945 13.7397C38.7945 13.2934 39.1564 12.9315 39.6027 12.9315C40.0491 12.9315 40.411 13.2934 40.411 13.7397Z" fill="url(#paint13_linear_400_38679)"/>
<path d="M53.3425 13.7397C53.3425 14.1861 52.9806 14.5479 52.5342 14.5479C52.0879 14.5479 51.726 14.1861 51.726 13.7397C51.726 13.2934 52.0879 12.9315 52.5342 12.9315C52.9806 12.9315 53.3425 13.2934 53.3425 13.7397Z" fill="url(#paint14_linear_400_38679)"/>
<path d="M66.274 13.7397C66.274 14.1861 65.9121 14.5479 65.4658 14.5479C65.0194 14.5479 64.6575 14.1861 64.6575 13.7397C64.6575 13.2934 65.0194 12.9315 65.4658 12.9315C65.9121 12.9315 66.274 13.2934 66.274 13.7397Z" fill="url(#paint15_linear_400_38679)"/>
<path d="M79.2055 13.7397C79.2055 14.1861 78.8436 14.5479 78.3973 14.5479C77.9509 14.5479 77.589 14.1861 77.589 13.7397C77.589 13.2934 77.9509 12.9315 78.3973 12.9315C78.8436 12.9315 79.2055 13.2934 79.2055 13.7397Z" fill="url(#paint16_linear_400_38679)"/>
<path d="M92.137 13.7397C92.137 14.1861 91.7751 14.5479 91.3288 14.5479C90.8824 14.5479 90.5205 14.1861 90.5205 13.7397C90.5205 13.2934 90.8824 12.9315 91.3288 12.9315C91.7751 12.9315 92.137 13.2934 92.137 13.7397Z" fill="url(#paint17_linear_400_38679)"/>
<path d="M105.068 13.7397C105.068 14.1861 104.707 14.5479 104.26 14.5479C103.814 14.5479 103.452 14.1861 103.452 13.7397C103.452 13.2934 103.814 12.9315 104.26 12.9315C104.707 12.9315 105.068 13.2934 105.068 13.7397Z" fill="url(#paint18_linear_400_38679)"/>
<path d="M118 13.7397C118 14.1861 117.638 14.5479 117.192 14.5479C116.745 14.5479 116.384 14.1861 116.384 13.7397C116.384 13.2934 116.745 12.9315 117.192 12.9315C117.638 12.9315 118 13.2934 118 13.7397Z" fill="url(#paint19_linear_400_38679)"/>
<path d="M1.61644 26.6712C1.61644 27.1176 1.25459 27.4794 0.808219 27.4794C0.361852 27.4794 0 27.1176 0 26.6712C0 26.2249 0.361852 25.863 0.808219 25.863C1.25459 25.863 1.61644 26.2249 1.61644 26.6712Z" fill="url(#paint20_linear_400_38679)"/>
<path d="M14.5479 26.6712C14.5479 27.1176 14.1861 27.4794 13.7397 27.4794C13.2934 27.4794 12.9315 27.1176 12.9315 26.6712C12.9315 26.2249 13.2934 25.863 13.7397 25.863C14.1861 25.863 14.5479 26.2249 14.5479 26.6712Z" fill="url(#paint21_linear_400_38679)"/>
<path d="M27.4795 26.6712C27.4795 27.1176 27.1176 27.4794 26.6712 27.4794C26.2249 27.4794 25.863 27.1176 25.863 26.6712C25.863 26.2249 26.2249 25.863 26.6712 25.863C27.1176 25.863 27.4795 26.2249 27.4795 26.6712Z" fill="url(#paint22_linear_400_38679)"/>
<path d="M40.411 26.6712C40.411 27.1176 40.0491 27.4794 39.6027 27.4794C39.1564 27.4794 38.7945 27.1176 38.7945 26.6712C38.7945 26.2249 39.1564 25.863 39.6027 25.863C40.0491 25.863 40.411 26.2249 40.411 26.6712Z" fill="url(#paint23_linear_400_38679)"/>
<path d="M53.3425 26.6712C53.3425 27.1176 52.9806 27.4794 52.5342 27.4794C52.0879 27.4794 51.726 27.1176 51.726 26.6712C51.726 26.2249 52.0879 25.863 52.5342 25.863C52.9806 25.863 53.3425 26.2249 53.3425 26.6712Z" fill="url(#paint24_linear_400_38679)"/>
<path d="M66.274 26.6712C66.274 27.1176 65.9121 27.4794 65.4658 27.4794C65.0194 27.4794 64.6575 27.1176 64.6575 26.6712C64.6575 26.2249 65.0194 25.863 65.4658 25.863C65.9121 25.863 66.274 26.2249 66.274 26.6712Z" fill="url(#paint25_linear_400_38679)"/>
<path d="M79.2055 26.6712C79.2055 27.1176 78.8436 27.4794 78.3973 27.4794C77.9509 27.4794 77.589 27.1176 77.589 26.6712C77.589 26.2249 77.9509 25.863 78.3973 25.863C78.8436 25.863 79.2055 26.2249 79.2055 26.6712Z" fill="url(#paint26_linear_400_38679)"/>
<path d="M92.137 26.6712C92.137 27.1176 91.7751 27.4794 91.3288 27.4794C90.8824 27.4794 90.5205 27.1176 90.5205 26.6712C90.5205 26.2249 90.8824 25.863 91.3288 25.863C91.7751 25.863 92.137 26.2249 92.137 26.6712Z" fill="url(#paint27_linear_400_38679)"/>
<path d="M105.068 26.6712C105.068 27.1176 104.707 27.4794 104.26 27.4794C103.814 27.4794 103.452 27.1176 103.452 26.6712C103.452 26.2249 103.814 25.863 104.26 25.863C104.707 25.863 105.068 26.2249 105.068 26.6712Z" fill="url(#paint28_linear_400_38679)"/>
<path d="M118 26.6712C118 27.1176 117.638 27.4794 117.192 27.4794C116.745 27.4794 116.384 27.1176 116.384 26.6712C116.384 26.2249 116.745 25.863 117.192 25.863C117.638 25.863 118 26.2249 118 26.6712Z" fill="url(#paint29_linear_400_38679)"/>
<path d="M1.61644 39.6027C1.61644 40.0491 1.25459 40.411 0.808219 40.411C0.361852 40.411 0 40.0491 0 39.6027C0 39.1564 0.361852 38.7945 0.808219 38.7945C1.25459 38.7945 1.61644 39.1564 1.61644 39.6027Z" fill="url(#paint30_linear_400_38679)"/>
<path d="M14.5479 39.6027C14.5479 40.0491 14.1861 40.411 13.7397 40.411C13.2934 40.411 12.9315 40.0491 12.9315 39.6027C12.9315 39.1564 13.2934 38.7945 13.7397 38.7945C14.1861 38.7945 14.5479 39.1564 14.5479 39.6027Z" fill="url(#paint31_linear_400_38679)"/>
<path d="M27.4795 39.6027C27.4795 40.0491 27.1176 40.411 26.6712 40.411C26.2249 40.411 25.863 40.0491 25.863 39.6027C25.863 39.1564 26.2249 38.7945 26.6712 38.7945C27.1176 38.7945 27.4795 39.1564 27.4795 39.6027Z" fill="url(#paint32_linear_400_38679)"/>
<path d="M40.411 39.6027C40.411 40.0491 40.0491 40.411 39.6027 40.411C39.1564 40.411 38.7945 40.0491 38.7945 39.6027C38.7945 39.1564 39.1564 38.7945 39.6027 38.7945C40.0491 38.7945 40.411 39.1564 40.411 39.6027Z" fill="url(#paint33_linear_400_38679)"/>
<path d="M53.3425 39.6027C53.3425 40.0491 52.9806 40.411 52.5342 40.411C52.0879 40.411 51.726 40.0491 51.726 39.6027C51.726 39.1564 52.0879 38.7945 52.5342 38.7945C52.9806 38.7945 53.3425 39.1564 53.3425 39.6027Z" fill="url(#paint34_linear_400_38679)"/>
<path d="M66.274 39.6027C66.274 40.0491 65.9121 40.411 65.4658 40.411C65.0194 40.411 64.6575 40.0491 64.6575 39.6027C64.6575 39.1564 65.0194 38.7945 65.4658 38.7945C65.9121 38.7945 66.274 39.1564 66.274 39.6027Z" fill="url(#paint35_linear_400_38679)"/>
<path d="M79.2055 39.6027C79.2055 40.0491 78.8436 40.411 78.3973 40.411C77.9509 40.411 77.589 40.0491 77.589 39.6027C77.589 39.1564 77.9509 38.7945 78.3973 38.7945C78.8436 38.7945 79.2055 39.1564 79.2055 39.6027Z" fill="url(#paint36_linear_400_38679)"/>
<path d="M92.137 39.6027C92.137 40.0491 91.7751 40.411 91.3288 40.411C90.8824 40.411 90.5205 40.0491 90.5205 39.6027C90.5205 39.1564 90.8824 38.7945 91.3288 38.7945C91.7751 38.7945 92.137 39.1564 92.137 39.6027Z" fill="url(#paint37_linear_400_38679)"/>
<path d="M105.068 39.6027C105.068 40.0491 104.707 40.411 104.26 40.411C103.814 40.411 103.452 40.0491 103.452 39.6027C103.452 39.1564 103.814 38.7945 104.26 38.7945C104.707 38.7945 105.068 39.1564 105.068 39.6027Z" fill="url(#paint38_linear_400_38679)"/>
<path d="M118 39.6027C118 40.0491 117.638 40.411 117.192 40.411C116.745 40.411 116.384 40.0491 116.384 39.6027C116.384 39.1564 116.745 38.7945 117.192 38.7945C117.638 38.7945 118 39.1564 118 39.6027Z" fill="url(#paint39_linear_400_38679)"/>
<path d="M1.61644 52.5342C1.61644 52.9806 1.25459 53.3425 0.808219 53.3425C0.361852 53.3425 0 52.9806 0 52.5342C0 52.0879 0.361852 51.726 0.808219 51.726C1.25459 51.726 1.61644 52.0879 1.61644 52.5342Z" fill="url(#paint40_linear_400_38679)"/>
<path d="M14.5479 52.5342C14.5479 52.9806 14.1861 53.3425 13.7397 53.3425C13.2934 53.3425 12.9315 52.9806 12.9315 52.5342C12.9315 52.0879 13.2934 51.726 13.7397 51.726C14.1861 51.726 14.5479 52.0879 14.5479 52.5342Z" fill="url(#paint41_linear_400_38679)"/>
<path d="M27.4795 52.5342C27.4795 52.9806 27.1176 53.3425 26.6712 53.3425C26.2249 53.3425 25.863 52.9806 25.863 52.5342C25.863 52.0879 26.2249 51.726 26.6712 51.726C27.1176 51.726 27.4795 52.0879 27.4795 52.5342Z" fill="url(#paint42_linear_400_38679)"/>
<path d="M40.411 52.5342C40.411 52.9806 40.0491 53.3425 39.6027 53.3425C39.1564 53.3425 38.7945 52.9806 38.7945 52.5342C38.7945 52.0879 39.1564 51.726 39.6027 51.726C40.0491 51.726 40.411 52.0879 40.411 52.5342Z" fill="url(#paint43_linear_400_38679)"/>
<path d="M53.3425 52.5342C53.3425 52.9806 52.9806 53.3425 52.5342 53.3425C52.0879 53.3425 51.726 52.9806 51.726 52.5342C51.726 52.0879 52.0879 51.726 52.5342 51.726C52.9806 51.726 53.3425 52.0879 53.3425 52.5342Z" fill="url(#paint44_linear_400_38679)"/>
<path d="M66.274 52.5342C66.274 52.9806 65.9121 53.3425 65.4658 53.3425C65.0194 53.3425 64.6575 52.9806 64.6575 52.5342C64.6575 52.0879 65.0194 51.726 65.4658 51.726C65.9121 51.726 66.274 52.0879 66.274 52.5342Z" fill="url(#paint45_linear_400_38679)"/>
<path d="M79.2055 52.5342C79.2055 52.9806 78.8436 53.3425 78.3973 53.3425C77.9509 53.3425 77.589 52.9806 77.589 52.5342C77.589 52.0879 77.9509 51.726 78.3973 51.726C78.8436 51.726 79.2055 52.0879 79.2055 52.5342Z" fill="url(#paint46_linear_400_38679)"/>
<path d="M92.137 52.5342C92.137 52.9806 91.7751 53.3425 91.3288 53.3425C90.8824 53.3425 90.5205 52.9806 90.5205 52.5342C90.5205 52.0879 90.8824 51.726 91.3288 51.726C91.7751 51.726 92.137 52.0879 92.137 52.5342Z" fill="url(#paint47_linear_400_38679)"/>
<path d="M105.068 52.5342C105.068 52.9806 104.707 53.3425 104.26 53.3425C103.814 53.3425 103.452 52.9806 103.452 52.5342C103.452 52.0879 103.814 51.726 104.26 51.726C104.707 51.726 105.068 52.0879 105.068 52.5342Z" fill="url(#paint48_linear_400_38679)"/>
<path d="M118 52.5342C118 52.9806 117.638 53.3425 117.192 53.3425C116.745 53.3425 116.384 52.9806 116.384 52.5342C116.384 52.0879 116.745 51.726 117.192 51.726C117.638 51.726 118 52.0879 118 52.5342Z" fill="url(#paint49_linear_400_38679)"/>
<path d="M1.61644 65.4657C1.61644 65.9121 1.25459 66.274 0.808219 66.274C0.361852 66.274 0 65.9121 0 65.4657C0 65.0194 0.361852 64.6575 0.808219 64.6575C1.25459 64.6575 1.61644 65.0194 1.61644 65.4657Z" fill="url(#paint50_linear_400_38679)"/>
<path d="M14.5479 65.4657C14.5479 65.9121 14.1861 66.274 13.7397 66.274C13.2934 66.274 12.9315 65.9121 12.9315 65.4657C12.9315 65.0194 13.2934 64.6575 13.7397 64.6575C14.1861 64.6575 14.5479 65.0194 14.5479 65.4657Z" fill="url(#paint51_linear_400_38679)"/>
<path d="M27.4795 65.4657C27.4795 65.9121 27.1176 66.274 26.6712 66.274C26.2249 66.274 25.863 65.9121 25.863 65.4657C25.863 65.0194 26.2249 64.6575 26.6712 64.6575C27.1176 64.6575 27.4795 65.0194 27.4795 65.4657Z" fill="url(#paint52_linear_400_38679)"/>
<path d="M40.411 65.4657C40.411 65.9121 40.0491 66.274 39.6027 66.274C39.1564 66.274 38.7945 65.9121 38.7945 65.4657C38.7945 65.0194 39.1564 64.6575 39.6027 64.6575C40.0491 64.6575 40.411 65.0194 40.411 65.4657Z" fill="url(#paint53_linear_400_38679)"/>
<path d="M53.3425 65.4657C53.3425 65.9121 52.9806 66.274 52.5342 66.274C52.0879 66.274 51.726 65.9121 51.726 65.4657C51.726 65.0194 52.0879 64.6575 52.5342 64.6575C52.9806 64.6575 53.3425 65.0194 53.3425 65.4657Z" fill="url(#paint54_linear_400_38679)"/>
<path d="M66.274 65.4657C66.274 65.9121 65.9121 66.274 65.4658 66.274C65.0194 66.274 64.6575 65.9121 64.6575 65.4657C64.6575 65.0194 65.0194 64.6575 65.4658 64.6575C65.9121 64.6575 66.274 65.0194 66.274 65.4657Z" fill="url(#paint55_linear_400_38679)"/>
<path d="M79.2055 65.4657C79.2055 65.9121 78.8436 66.274 78.3973 66.274C77.9509 66.274 77.589 65.9121 77.589 65.4657C77.589 65.0194 77.9509 64.6575 78.3973 64.6575C78.8436 64.6575 79.2055 65.0194 79.2055 65.4657Z" fill="url(#paint56_linear_400_38679)"/>
<path d="M92.137 65.4657C92.137 65.9121 91.7751 66.274 91.3288 66.274C90.8824 66.274 90.5205 65.9121 90.5205 65.4657C90.5205 65.0194 90.8824 64.6575 91.3288 64.6575C91.7751 64.6575 92.137 65.0194 92.137 65.4657Z" fill="url(#paint57_linear_400_38679)"/>
<path d="M105.068 65.4657C105.068 65.9121 104.707 66.274 104.26 66.274C103.814 66.274 103.452 65.9121 103.452 65.4657C103.452 65.0194 103.814 64.6575 104.26 64.6575C104.707 64.6575 105.068 65.0194 105.068 65.4657Z" fill="url(#paint58_linear_400_38679)"/>
<path d="M118 65.4657C118 65.9121 117.638 66.274 117.192 66.274C116.745 66.274 116.384 65.9121 116.384 65.4657C116.384 65.0194 116.745 64.6575 117.192 64.6575C117.638 64.6575 118 65.0194 118 65.4657Z" fill="url(#paint59_linear_400_38679)"/>
<path d="M1.61644 78.3973C1.61644 78.8436 1.25459 79.2055 0.808219 79.2055C0.361852 79.2055 0 78.8436 0 78.3973C0 77.9509 0.361852 77.589 0.808219 77.589C1.25459 77.589 1.61644 77.9509 1.61644 78.3973Z" fill="url(#paint60_linear_400_38679)"/>
<path d="M14.5479 78.3973C14.5479 78.8436 14.1861 79.2055 13.7397 79.2055C13.2934 79.2055 12.9315 78.8436 12.9315 78.3973C12.9315 77.9509 13.2934 77.589 13.7397 77.589C14.1861 77.589 14.5479 77.9509 14.5479 78.3973Z" fill="url(#paint61_linear_400_38679)"/>
<path d="M27.4795 78.3973C27.4795 78.8436 27.1176 79.2055 26.6712 79.2055C26.2249 79.2055 25.863 78.8436 25.863 78.3973C25.863 77.9509 26.2249 77.589 26.6712 77.589C27.1176 77.589 27.4795 77.9509 27.4795 78.3973Z" fill="url(#paint62_linear_400_38679)"/>
<path d="M40.411 78.3973C40.411 78.8436 40.0491 79.2055 39.6027 79.2055C39.1564 79.2055 38.7945 78.8436 38.7945 78.3973C38.7945 77.9509 39.1564 77.589 39.6027 77.589C40.0491 77.589 40.411 77.9509 40.411 78.3973Z" fill="url(#paint63_linear_400_38679)"/>
<path d="M53.3425 78.3973C53.3425 78.8436 52.9806 79.2055 52.5342 79.2055C52.0879 79.2055 51.726 78.8436 51.726 78.3973C51.726 77.9509 52.0879 77.589 52.5342 77.589C52.9806 77.589 53.3425 77.9509 53.3425 78.3973Z" fill="url(#paint64_linear_400_38679)"/>
<path d="M66.274 78.3973C66.274 78.8436 65.9121 79.2055 65.4658 79.2055C65.0194 79.2055 64.6575 78.8436 64.6575 78.3973C64.6575 77.9509 65.0194 77.589 65.4658 77.589C65.9121 77.589 66.274 77.9509 66.274 78.3973Z" fill="url(#paint65_linear_400_38679)"/>
<path d="M79.2055 78.3973C79.2055 78.8436 78.8436 79.2055 78.3973 79.2055C77.9509 79.2055 77.589 78.8436 77.589 78.3973C77.589 77.9509 77.9509 77.589 78.3973 77.589C78.8436 77.589 79.2055 77.9509 79.2055 78.3973Z" fill="url(#paint66_linear_400_38679)"/>
<path d="M92.137 78.3973C92.137 78.8436 91.7751 79.2055 91.3288 79.2055C90.8824 79.2055 90.5205 78.8436 90.5205 78.3973C90.5205 77.9509 90.8824 77.589 91.3288 77.589C91.7751 77.589 92.137 77.9509 92.137 78.3973Z" fill="url(#paint67_linear_400_38679)"/>
<path d="M105.068 78.3973C105.068 78.8436 104.707 79.2055 104.26 79.2055C103.814 79.2055 103.452 78.8436 103.452 78.3973C103.452 77.9509 103.814 77.589 104.26 77.589C104.707 77.589 105.068 77.9509 105.068 78.3973Z" fill="url(#paint68_linear_400_38679)"/>
<path d="M118 78.3973C118 78.8436 117.638 79.2055 117.192 79.2055C116.745 79.2055 116.384 78.8436 116.384 78.3973C116.384 77.9509 116.745 77.589 117.192 77.589C117.638 77.589 118 77.9509 118 78.3973Z" fill="url(#paint69_linear_400_38679)"/>
<path d="M1.61644 91.3288C1.61644 91.7751 1.25459 92.137 0.808219 92.137C0.361852 92.137 0 91.7751 0 91.3288C0 90.8824 0.361852 90.5205 0.808219 90.5205C1.25459 90.5205 1.61644 90.8824 1.61644 91.3288Z" fill="url(#paint70_linear_400_38679)"/>
<path d="M14.5479 91.3288C14.5479 91.7751 14.1861 92.137 13.7397 92.137C13.2934 92.137 12.9315 91.7751 12.9315 91.3288C12.9315 90.8824 13.2934 90.5205 13.7397 90.5205C14.1861 90.5205 14.5479 90.8824 14.5479 91.3288Z" fill="url(#paint71_linear_400_38679)"/>
<path d="M27.4795 91.3288C27.4795 91.7751 27.1176 92.137 26.6712 92.137C26.2249 92.137 25.863 91.7751 25.863 91.3288C25.863 90.8824 26.2249 90.5205 26.6712 90.5205C27.1176 90.5205 27.4795 90.8824 27.4795 91.3288Z" fill="url(#paint72_linear_400_38679)"/>
<path d="M40.411 91.3288C40.411 91.7751 40.0491 92.137 39.6027 92.137C39.1564 92.137 38.7945 91.7751 38.7945 91.3288C38.7945 90.8824 39.1564 90.5205 39.6027 90.5205C40.0491 90.5205 40.411 90.8824 40.411 91.3288Z" fill="url(#paint73_linear_400_38679)"/>
<path d="M53.3425 91.3288C53.3425 91.7751 52.9806 92.137 52.5342 92.137C52.0879 92.137 51.726 91.7751 51.726 91.3288C51.726 90.8824 52.0879 90.5205 52.5342 90.5205C52.9806 90.5205 53.3425 90.8824 53.3425 91.3288Z" fill="url(#paint74_linear_400_38679)"/>
<path d="M66.274 91.3288C66.274 91.7751 65.9121 92.137 65.4658 92.137C65.0194 92.137 64.6575 91.7751 64.6575 91.3288C64.6575 90.8824 65.0194 90.5205 65.4658 90.5205C65.9121 90.5205 66.274 90.8824 66.274 91.3288Z" fill="url(#paint75_linear_400_38679)"/>
<path d="M79.2055 91.3288C79.2055 91.7751 78.8436 92.137 78.3973 92.137C77.9509 92.137 77.589 91.7751 77.589 91.3288C77.589 90.8824 77.9509 90.5205 78.3973 90.5205C78.8436 90.5205 79.2055 90.8824 79.2055 91.3288Z" fill="url(#paint76_linear_400_38679)"/>
<path d="M92.137 91.3288C92.137 91.7751 91.7751 92.137 91.3288 92.137C90.8824 92.137 90.5205 91.7751 90.5205 91.3288C90.5205 90.8824 90.8824 90.5205 91.3288 90.5205C91.7751 90.5205 92.137 90.8824 92.137 91.3288Z" fill="url(#paint77_linear_400_38679)"/>
<path d="M105.068 91.3288C105.068 91.7751 104.707 92.137 104.26 92.137C103.814 92.137 103.452 91.7751 103.452 91.3288C103.452 90.8824 103.814 90.5205 104.26 90.5205C104.707 90.5205 105.068 90.8824 105.068 91.3288Z" fill="url(#paint78_linear_400_38679)"/>
<path d="M118 91.3288C118 91.7751 117.638 92.137 117.192 92.137C116.745 92.137 116.384 91.7751 116.384 91.3288C116.384 90.8824 116.745 90.5205 117.192 90.5205C117.638 90.5205 118 90.8824 118 91.3288Z" fill="url(#paint79_linear_400_38679)"/>
<path d="M1.61644 104.26C1.61644 104.707 1.25459 105.068 0.808219 105.068C0.361852 105.068 0 104.707 0 104.26C0 103.814 0.361852 103.452 0.808219 103.452C1.25459 103.452 1.61644 103.814 1.61644 104.26Z" fill="url(#paint80_linear_400_38679)"/>
<path d="M14.5479 104.26C14.5479 104.707 14.1861 105.068 13.7397 105.068C13.2934 105.068 12.9315 104.707 12.9315 104.26C12.9315 103.814 13.2934 103.452 13.7397 103.452C14.1861 103.452 14.5479 103.814 14.5479 104.26Z" fill="url(#paint81_linear_400_38679)"/>
<path d="M27.4795 104.26C27.4795 104.707 27.1176 105.068 26.6712 105.068C26.2249 105.068 25.863 104.707 25.863 104.26C25.863 103.814 26.2249 103.452 26.6712 103.452C27.1176 103.452 27.4795 103.814 27.4795 104.26Z" fill="url(#paint82_linear_400_38679)"/>
<path d="M40.411 104.26C40.411 104.707 40.0491 105.068 39.6027 105.068C39.1564 105.068 38.7945 104.707 38.7945 104.26C38.7945 103.814 39.1564 103.452 39.6027 103.452C40.0491 103.452 40.411 103.814 40.411 104.26Z" fill="url(#paint83_linear_400_38679)"/>
<path d="M53.3425 104.26C53.3425 104.707 52.9806 105.068 52.5342 105.068C52.0879 105.068 51.726 104.707 51.726 104.26C51.726 103.814 52.0879 103.452 52.5342 103.452C52.9806 103.452 53.3425 103.814 53.3425 104.26Z" fill="url(#paint84_linear_400_38679)"/>
<path d="M66.274 104.26C66.274 104.707 65.9121 105.068 65.4658 105.068C65.0194 105.068 64.6575 104.707 64.6575 104.26C64.6575 103.814 65.0194 103.452 65.4658 103.452C65.9121 103.452 66.274 103.814 66.274 104.26Z" fill="url(#paint85_linear_400_38679)"/>
<path d="M79.2055 104.26C79.2055 104.707 78.8436 105.068 78.3973 105.068C77.9509 105.068 77.589 104.707 77.589 104.26C77.589 103.814 77.9509 103.452 78.3973 103.452C78.8436 103.452 79.2055 103.814 79.2055 104.26Z" fill="url(#paint86_linear_400_38679)"/>
<path d="M92.137 104.26C92.137 104.707 91.7751 105.068 91.3288 105.068C90.8824 105.068 90.5205 104.707 90.5205 104.26C90.5205 103.814 90.8824 103.452 91.3288 103.452C91.7751 103.452 92.137 103.814 92.137 104.26Z" fill="url(#paint87_linear_400_38679)"/>
<path d="M105.068 104.26C105.068 104.707 104.707 105.068 104.26 105.068C103.814 105.068 103.452 104.707 103.452 104.26C103.452 103.814 103.814 103.452 104.26 103.452C104.707 103.452 105.068 103.814 105.068 104.26Z" fill="url(#paint88_linear_400_38679)"/>
<path d="M118 104.26C118 104.707 117.638 105.068 117.192 105.068C116.745 105.068 116.384 104.707 116.384 104.26C116.384 103.814 116.745 103.452 117.192 103.452C117.638 103.452 118 103.814 118 104.26Z" fill="url(#paint89_linear_400_38679)"/>
<path d="M1.61644 117.192C1.61644 117.638 1.25459 118 0.808219 118C0.361852 118 0 117.638 0 117.192C0 116.745 0.361852 116.384 0.808219 116.384C1.25459 116.384 1.61644 116.745 1.61644 117.192Z" fill="url(#paint90_linear_400_38679)"/>
<path d="M14.5479 117.192C14.5479 117.638 14.1861 118 13.7397 118C13.2934 118 12.9315 117.638 12.9315 117.192C12.9315 116.745 13.2934 116.384 13.7397 116.384C14.1861 116.384 14.5479 116.745 14.5479 117.192Z" fill="url(#paint91_linear_400_38679)"/>
<path d="M27.4795 117.192C27.4795 117.638 27.1176 118 26.6712 118C26.2249 118 25.863 117.638 25.863 117.192C25.863 116.745 26.2249 116.384 26.6712 116.384C27.1176 116.384 27.4795 116.745 27.4795 117.192Z" fill="url(#paint92_linear_400_38679)"/>
<path d="M40.411 117.192C40.411 117.638 40.0491 118 39.6027 118C39.1564 118 38.7945 117.638 38.7945 117.192C38.7945 116.745 39.1564 116.384 39.6027 116.384C40.0491 116.384 40.411 116.745 40.411 117.192Z" fill="url(#paint93_linear_400_38679)"/>
<path d="M53.3425 117.192C53.3425 117.638 52.9806 118 52.5342 118C52.0879 118 51.726 117.638 51.726 117.192C51.726 116.745 52.0879 116.384 52.5342 116.384C52.9806 116.384 53.3425 116.745 53.3425 117.192Z" fill="url(#paint94_linear_400_38679)"/>
<path d="M66.274 117.192C66.274 117.638 65.9121 118 65.4658 118C65.0194 118 64.6575 117.638 64.6575 117.192C64.6575 116.745 65.0194 116.384 65.4658 116.384C65.9121 116.384 66.274 116.745 66.274 117.192Z" fill="url(#paint95_linear_400_38679)"/>
<path d="M79.2055 117.192C79.2055 117.638 78.8436 118 78.3973 118C77.9509 118 77.589 117.638 77.589 117.192C77.589 116.745 77.9509 116.384 78.3973 116.384C78.8436 116.384 79.2055 116.745 79.2055 117.192Z" fill="url(#paint96_linear_400_38679)"/>
<path d="M92.137 117.192C92.137 117.638 91.7751 118 91.3288 118C90.8824 118 90.5205 117.638 90.5205 117.192C90.5205 116.745 90.8824 116.384 91.3288 116.384C91.7751 116.384 92.137 116.745 92.137 117.192Z" fill="url(#paint97_linear_400_38679)"/>
<path d="M105.068 117.192C105.068 117.638 104.707 118 104.26 118C103.814 118 103.452 117.638 103.452 117.192C103.452 116.745 103.814 116.384 104.26 116.384C104.707 116.384 105.068 116.745 105.068 117.192Z" fill="url(#paint98_linear_400_38679)"/>
<path d="M118 117.192C118 117.638 117.638 118 117.192 118C116.745 118 116.384 117.638 116.384 117.192C116.384 116.745 116.745 116.384 117.192 116.384C117.638 116.384 118 116.745 118 117.192Z" fill="url(#paint99_linear_400_38679)"/>
<path d="M1.61644 130.123C1.61644 130.57 1.25459 130.931 0.808219 130.931C0.361852 130.931 0 130.57 0 130.123C0 129.677 0.361852 129.315 0.808219 129.315C1.25459 129.315 1.61644 129.677 1.61644 130.123Z" fill="url(#paint100_linear_400_38679)"/>
<path d="M14.5479 130.123C14.5479 130.57 14.1861 130.931 13.7397 130.931C13.2934 130.931 12.9315 130.57 12.9315 130.123C12.9315 129.677 13.2934 129.315 13.7397 129.315C14.1861 129.315 14.5479 129.677 14.5479 130.123Z" fill="url(#paint101_linear_400_38679)"/>
<path d="M27.4795 130.123C27.4795 130.57 27.1176 130.931 26.6712 130.931C26.2249 130.931 25.863 130.57 25.863 130.123C25.863 129.677 26.2249 129.315 26.6712 129.315C27.1176 129.315 27.4795 129.677 27.4795 130.123Z" fill="url(#paint102_linear_400_38679)"/>
<path d="M40.411 130.123C40.411 130.57 40.0491 130.931 39.6027 130.931C39.1564 130.931 38.7945 130.57 38.7945 130.123C38.7945 129.677 39.1564 129.315 39.6027 129.315C40.0491 129.315 40.411 129.677 40.411 130.123Z" fill="url(#paint103_linear_400_38679)"/>
<path d="M53.3425 130.123C53.3425 130.57 52.9806 130.931 52.5342 130.931C52.0879 130.931 51.726 130.57 51.726 130.123C51.726 129.677 52.0879 129.315 52.5342 129.315C52.9806 129.315 53.3425 129.677 53.3425 130.123Z" fill="url(#paint104_linear_400_38679)"/>
<path d="M66.274 130.123C66.274 130.57 65.9121 130.931 65.4658 130.931C65.0194 130.931 64.6575 130.57 64.6575 130.123C64.6575 129.677 65.0194 129.315 65.4658 129.315C65.9121 129.315 66.274 129.677 66.274 130.123Z" fill="url(#paint105_linear_400_38679)"/>
<path d="M79.2055 130.123C79.2055 130.57 78.8436 130.931 78.3973 130.931C77.9509 130.931 77.589 130.57 77.589 130.123C77.589 129.677 77.9509 129.315 78.3973 129.315C78.8436 129.315 79.2055 129.677 79.2055 130.123Z" fill="url(#paint106_linear_400_38679)"/>
<path d="M92.137 130.123C92.137 130.57 91.7751 130.931 91.3288 130.931C90.8824 130.931 90.5205 130.57 90.5205 130.123C90.5205 129.677 90.8824 129.315 91.3288 129.315C91.7751 129.315 92.137 129.677 92.137 130.123Z" fill="url(#paint107_linear_400_38679)"/>
<path d="M105.068 130.123C105.068 130.57 104.707 130.931 104.26 130.931C103.814 130.931 103.452 130.57 103.452 130.123C103.452 129.677 103.814 129.315 104.26 129.315C104.707 129.315 105.068 129.677 105.068 130.123Z" fill="url(#paint108_linear_400_38679)"/>
<path d="M118 130.123C118 130.57 117.638 130.931 117.192 130.931C116.745 130.931 116.384 130.57 116.384 130.123C116.384 129.677 116.745 129.315 117.192 129.315C117.638 129.315 118 129.677 118 130.123Z" fill="url(#paint109_linear_400_38679)"/>
<path d="M1.61644 143.055C1.61644 143.501 1.25459 143.863 0.808219 143.863C0.361852 143.863 0 143.501 0 143.055C0 142.608 0.361852 142.247 0.808219 142.247C1.25459 142.247 1.61644 142.608 1.61644 143.055Z" fill="url(#paint110_linear_400_38679)"/>
<path d="M14.5479 143.055C14.5479 143.501 14.1861 143.863 13.7397 143.863C13.2934 143.863 12.9315 143.501 12.9315 143.055C12.9315 142.608 13.2934 142.247 13.7397 142.247C14.1861 142.247 14.5479 142.608 14.5479 143.055Z" fill="url(#paint111_linear_400_38679)"/>
<path d="M27.4795 143.055C27.4795 143.501 27.1176 143.863 26.6712 143.863C26.2249 143.863 25.863 143.501 25.863 143.055C25.863 142.608 26.2249 142.247 26.6712 142.247C27.1176 142.247 27.4795 142.608 27.4795 143.055Z" fill="url(#paint112_linear_400_38679)"/>
<path d="M40.411 143.055C40.411 143.501 40.0491 143.863 39.6027 143.863C39.1564 143.863 38.7945 143.501 38.7945 143.055C38.7945 142.608 39.1564 142.247 39.6027 142.247C40.0491 142.247 40.411 142.608 40.411 143.055Z" fill="url(#paint113_linear_400_38679)"/>
<path d="M53.3425 143.055C53.3425 143.501 52.9806 143.863 52.5342 143.863C52.0879 143.863 51.726 143.501 51.726 143.055C51.726 142.608 52.0879 142.247 52.5342 142.247C52.9806 142.247 53.3425 142.608 53.3425 143.055Z" fill="url(#paint114_linear_400_38679)"/>
<path d="M66.274 143.055C66.274 143.501 65.9121 143.863 65.4658 143.863C65.0194 143.863 64.6575 143.501 64.6575 143.055C64.6575 142.608 65.0194 142.247 65.4658 142.247C65.9121 142.247 66.274 142.608 66.274 143.055Z" fill="url(#paint115_linear_400_38679)"/>
<path d="M79.2055 143.055C79.2055 143.501 78.8436 143.863 78.3973 143.863C77.9509 143.863 77.589 143.501 77.589 143.055C77.589 142.608 77.9509 142.247 78.3973 142.247C78.8436 142.247 79.2055 142.608 79.2055 143.055Z" fill="url(#paint116_linear_400_38679)"/>
<path d="M92.137 143.055C92.137 143.501 91.7751 143.863 91.3288 143.863C90.8824 143.863 90.5205 143.501 90.5205 143.055C90.5205 142.608 90.8824 142.247 91.3288 142.247C91.7751 142.247 92.137 142.608 92.137 143.055Z" fill="url(#paint117_linear_400_38679)"/>
<path d="M105.068 143.055C105.068 143.501 104.707 143.863 104.26 143.863C103.814 143.863 103.452 143.501 103.452 143.055C103.452 142.608 103.814 142.247 104.26 142.247C104.707 142.247 105.068 142.608 105.068 143.055Z" fill="url(#paint118_linear_400_38679)"/>
<path d="M118 143.055C118 143.501 117.638 143.863 117.192 143.863C116.745 143.863 116.384 143.501 116.384 143.055C116.384 142.608 116.745 142.247 117.192 142.247C117.638 142.247 118 142.608 118 143.055Z" fill="url(#paint119_linear_400_38679)"/>
<path d="M1.61644 155.986C1.61644 156.433 1.25459 156.795 0.808219 156.795C0.361852 156.795 0 156.433 0 155.986C0 155.54 0.361852 155.178 0.808219 155.178C1.25459 155.178 1.61644 155.54 1.61644 155.986Z" fill="url(#paint120_linear_400_38679)"/>
<path d="M14.5479 155.986C14.5479 156.433 14.1861 156.795 13.7397 156.795C13.2934 156.795 12.9315 156.433 12.9315 155.986C12.9315 155.54 13.2934 155.178 13.7397 155.178C14.1861 155.178 14.5479 155.54 14.5479 155.986Z" fill="url(#paint121_linear_400_38679)"/>
<path d="M27.4795 155.986C27.4795 156.433 27.1176 156.795 26.6712 156.795C26.2249 156.795 25.863 156.433 25.863 155.986C25.863 155.54 26.2249 155.178 26.6712 155.178C27.1176 155.178 27.4795 155.54 27.4795 155.986Z" fill="url(#paint122_linear_400_38679)"/>
<path d="M40.411 155.986C40.411 156.433 40.0491 156.795 39.6027 156.795C39.1564 156.795 38.7945 156.433 38.7945 155.986C38.7945 155.54 39.1564 155.178 39.6027 155.178C40.0491 155.178 40.411 155.54 40.411 155.986Z" fill="url(#paint123_linear_400_38679)"/>
<path d="M53.3425 155.986C53.3425 156.433 52.9806 156.795 52.5342 156.795C52.0879 156.795 51.726 156.433 51.726 155.986C51.726 155.54 52.0879 155.178 52.5342 155.178C52.9806 155.178 53.3425 155.54 53.3425 155.986Z" fill="url(#paint124_linear_400_38679)"/>
<path d="M66.274 155.986C66.274 156.433 65.9121 156.795 65.4658 156.795C65.0194 156.795 64.6575 156.433 64.6575 155.986C64.6575 155.54 65.0194 155.178 65.4658 155.178C65.9121 155.178 66.274 155.54 66.274 155.986Z" fill="url(#paint125_linear_400_38679)"/>
<path d="M79.2055 155.986C79.2055 156.433 78.8436 156.795 78.3973 156.795C77.9509 156.795 77.589 156.433 77.589 155.986C77.589 155.54 77.9509 155.178 78.3973 155.178C78.8436 155.178 79.2055 155.54 79.2055 155.986Z" fill="url(#paint126_linear_400_38679)"/>
<path d="M92.137 155.986C92.137 156.433 91.7751 156.795 91.3288 156.795C90.8824 156.795 90.5205 156.433 90.5205 155.986C90.5205 155.54 90.8824 155.178 91.3288 155.178C91.7751 155.178 92.137 155.54 92.137 155.986Z" fill="url(#paint127_linear_400_38679)"/>
<path d="M105.068 155.986C105.068 156.433 104.707 156.795 104.26 156.795C103.814 156.795 103.452 156.433 103.452 155.986C103.452 155.54 103.814 155.178 104.26 155.178C104.707 155.178 105.068 155.54 105.068 155.986Z" fill="url(#paint128_linear_400_38679)"/>
<path d="M118 155.986C118 156.433 117.638 156.795 117.192 156.795C116.745 156.795 116.384 156.433 116.384 155.986C116.384 155.54 116.745 155.178 117.192 155.178C117.638 155.178 118 155.54 118 155.986Z" fill="url(#paint129_linear_400_38679)"/>
</mask>
<g mask="url(#mask0_400_38679)">
<rect x="-2.69336" y="-3.77148" width="123.658" height="164.068" fill="url(#paint130_linear_400_38679)"/>
</g>
<defs>
<linearGradient id="paint0_linear_400_38679" x1="1.34703" y1="3.77169" x2="212.023" y2="156.795" gradientUnits="userSpaceOnUse">
<stop stop-color="#D9D9D9" stop-opacity="0"/>
<stop offset="0.50257" stop-color="#011E0F"/>
<stop offset="1" stop-color="#6D7C74" stop-opacity="0"/>
</linearGradient>
<linearGradient id="paint1_linear_400_38679" x1="1.34703" y1="3.77169" x2="212.023" y2="156.795" gradientUnits="userSpaceOnUse">
<stop stop-color="#D9D9D9" stop-opacity="0"/>
<stop offset="0.50257" stop-color="#011E0F"/>
<stop offset="1" stop-color="#6D7C74" stop-opacity="0"/>
</linearGradient>
<linearGradient id="paint2_linear_400_38679" x1="1.34703" y1="3.77169" x2="212.023" y2="156.795" gradientUnits="userSpaceOnUse">
<stop stop-color="#D9D9D9" stop-opacity="0"/>
<stop offset="0.50257" stop-color="#011E0F"/>
<stop offset="1" stop-color="#6D7C74" stop-opacity="0"/>
</linearGradient>
<linearGradient id="paint3_linear_400_38679" x1="1.34703" y1="3.77169" x2="212.023" y2="156.795" gradientUnits="userSpaceOnUse">
<stop stop-color="#D9D9D9" stop-opacity="0"/>
<stop offset="0.50257" stop-color="#011E0F"/>
<stop offset="1" stop-color="#6D7C74" stop-opacity="0"/>
</linearGradient>
<linearGradient id="paint4_linear_400_38679" x1="1.34703" y1="3.77169" x2="212.023" y2="156.795" gradientUnits="userSpaceOnUse">
<stop stop-color="#D9D9D9" stop-opacity="0"/>
<stop offset="0.50257" stop-color="#011E0F"/>
<stop offset="1" stop-color="#6D7C74" stop-opacity="0"/>
</linearGradient>
<linearGradient id="paint5_linear_400_38679" x1="1.34703" y1="3.77169" x2="212.023" y2="156.795" gradientUnits="userSpaceOnUse">
<stop stop-color="#D9D9D9" stop-opacity="0"/>
<stop offset="0.50257" stop-color="#011E0F"/>
<stop offset="1" stop-color="#6D7C74" stop-opacity="0"/>
</linearGradient>
<linearGradient id="paint6_linear_400_38679" x1="1.34703" y1="3.77169" x2="212.023" y2="156.795" gradientUnits="userSpaceOnUse">
<stop stop-color="#D9D9D9" stop-opacity="0"/>
<stop offset="0.50257" stop-color="#011E0F"/>
<stop offset="1" stop-color="#6D7C74" stop-opacity="0"/>
</linearGradient>
<linearGradient id="paint7_linear_400_38679" x1="1.34703" y1="3.77169" x2="212.023" y2="156.795" gradientUnits="userSpaceOnUse">
<stop stop-color="#D9D9D9" stop-opacity="0"/>
<stop offset="0.50257" stop-color="#011E0F"/>
<stop offset="1" stop-color="#6D7C74" stop-opacity="0"/>
</linearGradient>
<linearGradient id="paint8_linear_400_38679" x1="1.34703" y1="3.77169" x2="212.023" y2="156.795" gradientUnits="userSpaceOnUse">
<stop stop-color="#D9D9D9" stop-opacity="0"/>
<stop offset="0.50257" stop-color="#011E0F"/>
<stop offset="1" stop-color="#6D7C74" stop-opacity="0"/>
</linearGradient>
<linearGradient id="paint9_linear_400_38679" x1="1.34703" y1="3.77169" x2="212.023" y2="156.795" gradientUnits="userSpaceOnUse">
<stop stop-color="#D9D9D9" stop-opacity="0"/>
<stop offset="0.50257" stop-color="#011E0F"/>
<stop offset="1" stop-color="#6D7C74" stop-opacity="0"/>
</linearGradient>
<linearGradient id="paint10_linear_400_38679" x1="1.34703" y1="3.77169" x2="212.023" y2="156.795" gradientUnits="userSpaceOnUse">
<stop stop-color="#D9D9D9" stop-opacity="0"/>
<stop offset="0.50257" stop-color="#011E0F"/>
<stop offset="1" stop-color="#6D7C74" stop-opacity="0"/>
</linearGradient>
<linearGradient id="paint11_linear_400_38679" x1="1.34703" y1="3.77169" x2="212.023" y2="156.795" gradientUnits="userSpaceOnUse">
<stop stop-color="#D9D9D9" stop-opacity="0"/>
<stop offset="0.50257" stop-color="#011E0F"/>
<stop offset="1" stop-color="#6D7C74" stop-opacity="0"/>
</linearGradient>
<linearGradient id="paint12_linear_400_38679" x1="1.34703" y1="3.77169" x2="212.023" y2="156.795" gradientUnits="userSpaceOnUse">
<stop stop-color="#D9D9D9" stop-opacity="0"/>
<stop offset="0.50257" stop-color="#011E0F"/>
<stop offset="1" stop-color="#6D7C74" stop-opacity="0"/>
</linearGradient>
<linearGradient id="paint13_linear_400_38679" x1="1.34703" y1="3.77169" x2="212.023" y2="156.795" gradientUnits="userSpaceOnUse">
<stop stop-color="#D9D9D9" stop-opacity="0"/>
<stop offset="0.50257" stop-color="#011E0F"/>
<stop offset="1" stop-color="#6D7C74" stop-opacity="0"/>
</linearGradient>
<linearGradient id="paint14_linear_400_38679" x1="1.34703" y1="3.77169" x2="212.023" y2="156.795" gradientUnits="userSpaceOnUse">
<stop stop-color="#D9D9D9" stop-opacity="0"/>
<stop offset="0.50257" stop-color="#011E0F"/>
<stop offset="1" stop-color="#6D7C74" stop-opacity="0"/>
</linearGradient>
<linearGradient id="paint15_linear_400_38679" x1="1.34703" y1="3.77169" x2="212.023" y2="156.795" gradientUnits="userSpaceOnUse">
<stop stop-color="#D9D9D9" stop-opacity="0"/>
<stop offset="0.50257" stop-color="#011E0F"/>
<stop offset="1" stop-color="#6D7C74" stop-opacity="0"/>
</linearGradient>
<linearGradient id="paint16_linear_400_38679" x1="1.34703" y1="3.77169" x2="212.023" y2="156.795" gradientUnits="userSpaceOnUse">
<stop stop-color="#D9D9D9" stop-opacity="0"/>
<stop offset="0.50257" stop-color="#011E0F"/>
<stop offset="1" stop-color="#6D7C74" stop-opacity="0"/>
</linearGradient>
<linearGradient id="paint17_linear_400_38679" x1="1.34703" y1="3.77169" x2="212.023" y2="156.795" gradientUnits="userSpaceOnUse">
<stop stop-color="#D9D9D9" stop-opacity="0"/>
<stop offset="0.50257" stop-color="#011E0F"/>
<stop offset="1" stop-color="#6D7C74" stop-opacity="0"/>
</linearGradient>
<linearGradient id="paint18_linear_400_38679" x1="1.34703" y1="3.77169" x2="212.023" y2="156.795" gradientUnits="userSpaceOnUse">
<stop stop-color="#D9D9D9" stop-opacity="0"/>
<stop offset="0.50257" stop-color="#011E0F"/>
<stop offset="1" stop-color="#6D7C74" stop-opacity="0"/>
</linearGradient>
<linearGradient id="paint19_linear_400_38679" x1="1.34703" y1="3.77169" x2="212.023" y2="156.795" gradientUnits="userSpaceOnUse">
<stop stop-color="#D9D9D9" stop-opacity="0"/>
<stop offset="0.50257" stop-color="#011E0F"/>
<stop offset="1" stop-color="#6D7C74" stop-opacity="0"/>
</linearGradient>
<linearGradient id="paint20_linear_400_38679" x1="1.34703" y1="3.77169" x2="212.023" y2="156.795" gradientUnits="userSpaceOnUse">
<stop stop-color="#D9D9D9" stop-opacity="0"/>
<stop offset="0.50257" stop-color="#011E0F"/>
<stop offset="1" stop-color="#6D7C74" stop-opacity="0"/>
</linearGradient>
<linearGradient id="paint21_linear_400_38679" x1="1.34703" y1="3.77169" x2="212.023" y2="156.795" gradientUnits="userSpaceOnUse">
<stop stop-color="#D9D9D9" stop-opacity="0"/>
<stop offset="0.50257" stop-color="#011E0F"/>
<stop offset="1" stop-color="#6D7C74" stop-opacity="0"/>
</linearGradient>
<linearGradient id="paint22_linear_400_38679" x1="1.34703" y1="3.77169" x2="212.023" y2="156.795" gradientUnits="userSpaceOnUse">
<stop stop-color="#D9D9D9" stop-opacity="0"/>
<stop offset="0.50257" stop-color="#011E0F"/>
<stop offset="1" stop-color="#6D7C74" stop-opacity="0"/>
</linearGradient>
<linearGradient id="paint23_linear_400_38679" x1="1.34703" y1="3.77169" x2="212.023" y2="156.795" gradientUnits="userSpaceOnUse">
<stop stop-color="#D9D9D9" stop-opacity="0"/>
<stop offset="0.50257" stop-color="#011E0F"/>
<stop offset="1" stop-color="#6D7C74" stop-opacity="0"/>
</linearGradient>
<linearGradient id="paint24_linear_400_38679" x1="1.34703" y1="3.77169" x2="212.023" y2="156.795" gradientUnits="userSpaceOnUse">
<stop stop-color="#D9D9D9" stop-opacity="0"/>
<stop offset="0.50257" stop-color="#011E0F"/>
<stop offset="1" stop-color="#6D7C74" stop-opacity="0"/>
</linearGradient>
<linearGradient id="paint25_linear_400_38679" x1="1.34703" y1="3.77169" x2="212.023" y2="156.795" gradientUnits="userSpaceOnUse">
<stop stop-color="#D9D9D9" stop-opacity="0"/>
<stop offset="0.50257" stop-color="#011E0F"/>
<stop offset="1" stop-color="#6D7C74" stop-opacity="0"/>
</linearGradient>
<linearGradient id="paint26_linear_400_38679" x1="1.34703" y1="3.77169" x2="212.023" y2="156.795" gradientUnits="userSpaceOnUse">
<stop stop-color="#D9D9D9" stop-opacity="0"/>
<stop offset="0.50257" stop-color="#011E0F"/>
<stop offset="1" stop-color="#6D7C74" stop-opacity="0"/>
</linearGradient>
<linearGradient id="paint27_linear_400_38679" x1="1.34703" y1="3.77169" x2="212.023" y2="156.795" gradientUnits="userSpaceOnUse">
<stop stop-color="#D9D9D9" stop-opacity="0"/>
<stop offset="0.50257" stop-color="#011E0F"/>
<stop offset="1" stop-color="#6D7C74" stop-opacity="0"/>
</linearGradient>
<linearGradient id="paint28_linear_400_38679" x1="1.34703" y1="3.77169" x2="212.023" y2="156.795" gradientUnits="userSpaceOnUse">
<stop stop-color="#D9D9D9" stop-opacity="0"/>
<stop offset="0.50257" stop-color="#011E0F"/>
<stop offset="1" stop-color="#6D7C74" stop-opacity="0"/>
</linearGradient>
<linearGradient id="paint29_linear_400_38679" x1="1.34703" y1="3.77169" x2="212.023" y2="156.795" gradientUnits="userSpaceOnUse">
<stop stop-color="#D9D9D9" stop-opacity="0"/>
<stop offset="0.50257" stop-color="#011E0F"/>
<stop offset="1" stop-color="#6D7C74" stop-opacity="0"/>
</linearGradient>
<linearGradient id="paint30_linear_400_38679" x1="1.34703" y1="3.77169" x2="212.023" y2="156.795" gradientUnits="userSpaceOnUse">
<stop stop-color="#D9D9D9" stop-opacity="0"/>
<stop offset="0.50257" stop-color="#011E0F"/>
<stop offset="1" stop-color="#6D7C74" stop-opacity="0"/>
</linearGradient>
<linearGradient id="paint31_linear_400_38679" x1="1.34703" y1="3.77169" x2="212.023" y2="156.795" gradientUnits="userSpaceOnUse">
<stop stop-color="#D9D9D9" stop-opacity="0"/>
<stop offset="0.50257" stop-color="#011E0F"/>
<stop offset="1" stop-color="#6D7C74" stop-opacity="0"/>
</linearGradient>
<linearGradient id="paint32_linear_400_38679" x1="1.34703" y1="3.77169" x2="212.023" y2="156.795" gradientUnits="userSpaceOnUse">
<stop stop-color="#D9D9D9" stop-opacity="0"/>
<stop offset="0.50257" stop-color="#011E0F"/>
<stop offset="1" stop-color="#6D7C74" stop-opacity="0"/>
</linearGradient>
<linearGradient id="paint33_linear_400_38679" x1="1.34703" y1="3.77169" x2="212.023" y2="156.795" gradientUnits="userSpaceOnUse">
<stop stop-color="#D9D9D9" stop-opacity="0"/>
<stop offset="0.50257" stop-color="#011E0F"/>
<stop offset="1" stop-color="#6D7C74" stop-opacity="0"/>
</linearGradient>
<linearGradient id="paint34_linear_400_38679" x1="1.34703" y1="3.77169" x2="212.023" y2="156.795" gradientUnits="userSpaceOnUse">
<stop stop-color="#D9D9D9" stop-opacity="0"/>
<stop offset="0.50257" stop-color="#011E0F"/>
<stop offset="1" stop-color="#6D7C74" stop-opacity="0"/>
</linearGradient>
<linearGradient id="paint35_linear_400_38679" x1="1.34703" y1="3.77169" x2="212.023" y2="156.795" gradientUnits="userSpaceOnUse">
<stop stop-color="#D9D9D9" stop-opacity="0"/>
<stop offset="0.50257" stop-color="#011E0F"/>
<stop offset="1" stop-color="#6D7C74" stop-opacity="0"/>
</linearGradient>
<linearGradient id="paint36_linear_400_38679" x1="1.34703" y1="3.77169" x2="212.023" y2="156.795" gradientUnits="userSpaceOnUse">
<stop stop-color="#D9D9D9" stop-opacity="0"/>
<stop offset="0.50257" stop-color="#011E0F"/>
<stop offset="1" stop-color="#6D7C74" stop-opacity="0"/>
</linearGradient>
<linearGradient id="paint37_linear_400_38679" x1="1.34703" y1="3.77169" x2="212.023" y2="156.795" gradientUnits="userSpaceOnUse">
<stop stop-color="#D9D9D9" stop-opacity="0"/>
<stop offset="0.50257" stop-color="#011E0F"/>
<stop offset="1" stop-color="#6D7C74" stop-opacity="0"/>
</linearGradient>
<linearGradient id="paint38_linear_400_38679" x1="1.34703" y1="3.77169" x2="212.023" y2="156.795" gradientUnits="userSpaceOnUse">
<stop stop-color="#D9D9D9" stop-opacity="0"/>
<stop offset="0.50257" stop-color="#011E0F"/>
<stop offset="1" stop-color="#6D7C74" stop-opacity="0"/>
</linearGradient>
<linearGradient id="paint39_linear_400_38679" x1="1.34703" y1="3.77169" x2="212.023" y2="156.795" gradientUnits="userSpaceOnUse">
<stop stop-color="#D9D9D9" stop-opacity="0"/>
<stop offset="0.50257" stop-color="#011E0F"/>
<stop offset="1" stop-color="#6D7C74" stop-opacity="0"/>
</linearGradient>
<linearGradient id="paint40_linear_400_38679" x1="1.34703" y1="3.77169" x2="212.023" y2="156.795" gradientUnits="userSpaceOnUse">
<stop stop-color="#D9D9D9" stop-opacity="0"/>
<stop offset="0.50257" stop-color="#011E0F"/>
<stop offset="1" stop-color="#6D7C74" stop-opacity="0"/>
</linearGradient>
<linearGradient id="paint41_linear_400_38679" x1="1.34703" y1="3.77169" x2="212.023" y2="156.795" gradientUnits="userSpaceOnUse">
<stop stop-color="#D9D9D9" stop-opacity="0"/>
<stop offset="0.50257" stop-color="#011E0F"/>
<stop offset="1" stop-color="#6D7C74" stop-opacity="0"/>
</linearGradient>
<linearGradient id="paint42_linear_400_38679" x1="1.34703" y1="3.77169" x2="212.023" y2="156.795" gradientUnits="userSpaceOnUse">
<stop stop-color="#D9D9D9" stop-opacity="0"/>
<stop offset="0.50257" stop-color="#011E0F"/>
<stop offset="1" stop-color="#6D7C74" stop-opacity="0"/>
</linearGradient>
<linearGradient id="paint43_linear_400_38679" x1="1.34703" y1="3.77169" x2="212.023" y2="156.795" gradientUnits="userSpaceOnUse">
<stop stop-color="#D9D9D9" stop-opacity="0"/>
<stop offset="0.50257" stop-color="#011E0F"/>
<stop offset="1" stop-color="#6D7C74" stop-opacity="0"/>
</linearGradient>
<linearGradient id="paint44_linear_400_38679" x1="1.34703" y1="3.77169" x2="212.023" y2="156.795" gradientUnits="userSpaceOnUse">
<stop stop-color="#D9D9D9" stop-opacity="0"/>
<stop offset="0.50257" stop-color="#011E0F"/>
<stop offset="1" stop-color="#6D7C74" stop-opacity="0"/>
</linearGradient>
<linearGradient id="paint45_linear_400_38679" x1="1.34703" y1="3.77169" x2="212.023" y2="156.795" gradientUnits="userSpaceOnUse">
<stop stop-color="#D9D9D9" stop-opacity="0"/>
<stop offset="0.50257" stop-color="#011E0F"/>
<stop offset="1" stop-color="#6D7C74" stop-opacity="0"/>
</linearGradient>
<linearGradient id="paint46_linear_400_38679" x1="1.34703" y1="3.77169" x2="212.023" y2="156.795" gradientUnits="userSpaceOnUse">
<stop stop-color="#D9D9D9" stop-opacity="0"/>
<stop offset="0.50257" stop-color="#011E0F"/>
<stop offset="1" stop-color="#6D7C74" stop-opacity="0"/>
</linearGradient>
<linearGradient id="paint47_linear_400_38679" x1="1.34703" y1="3.77169" x2="212.023" y2="156.795" gradientUnits="userSpaceOnUse">
<stop stop-color="#D9D9D9" stop-opacity="0"/>
<stop offset="0.50257" stop-color="#011E0F"/>
<stop offset="1" stop-color="#6D7C74" stop-opacity="0"/>
</linearGradient>
<linearGradient id="paint48_linear_400_38679" x1="1.34703" y1="3.77169" x2="212.023" y2="156.795" gradientUnits="userSpaceOnUse">
<stop stop-color="#D9D9D9" stop-opacity="0"/>
<stop offset="0.50257" stop-color="#011E0F"/>
<stop offset="1" stop-color="#6D7C74" stop-opacity="0"/>
</linearGradient>
<linearGradient id="paint49_linear_400_38679" x1="1.34703" y1="3.77169" x2="212.023" y2="156.795" gradientUnits="userSpaceOnUse">
<stop stop-color="#D9D9D9" stop-opacity="0"/>
<stop offset="0.50257" stop-color="#011E0F"/>
<stop offset="1" stop-color="#6D7C74" stop-opacity="0"/>
</linearGradient>
<linearGradient id="paint50_linear_400_38679" x1="1.34703" y1="3.77169" x2="212.023" y2="156.795" gradientUnits="userSpaceOnUse">
<stop stop-color="#D9D9D9" stop-opacity="0"/>
<stop offset="0.50257" stop-color="#011E0F"/>
<stop offset="1" stop-color="#6D7C74" stop-opacity="0"/>
</linearGradient>
<linearGradient id="paint51_linear_400_38679" x1="1.34703" y1="3.77169" x2="212.023" y2="156.795" gradientUnits="userSpaceOnUse">
<stop stop-color="#D9D9D9" stop-opacity="0"/>
<stop offset="0.50257" stop-color="#011E0F"/>
<stop offset="1" stop-color="#6D7C74" stop-opacity="0"/>
</linearGradient>
<linearGradient id="paint52_linear_400_38679" x1="1.34703" y1="3.77169" x2="212.023" y2="156.795" gradientUnits="userSpaceOnUse">
<stop stop-color="#D9D9D9" stop-opacity="0"/>
<stop offset="0.50257" stop-color="#011E0F"/>
<stop offset="1" stop-color="#6D7C74" stop-opacity="0"/>
</linearGradient>
<linearGradient id="paint53_linear_400_38679" x1="1.34703" y1="3.77169" x2="212.023" y2="156.795" gradientUnits="userSpaceOnUse">
<stop stop-color="#D9D9D9" stop-opacity="0"/>
<stop offset="0.50257" stop-color="#011E0F"/>
<stop offset="1" stop-color="#6D7C74" stop-opacity="0"/>
</linearGradient>
<linearGradient id="paint54_linear_400_38679" x1="1.34703" y1="3.77169" x2="212.023" y2="156.795" gradientUnits="userSpaceOnUse">
<stop stop-color="#D9D9D9" stop-opacity="0"/>
<stop offset="0.50257" stop-color="#011E0F"/>
<stop offset="1" stop-color="#6D7C74" stop-opacity="0"/>
</linearGradient>
<linearGradient id="paint55_linear_400_38679" x1="1.34703" y1="3.77169" x2="212.023" y2="156.795" gradientUnits="userSpaceOnUse">
<stop stop-color="#D9D9D9" stop-opacity="0"/>
<stop offset="0.50257" stop-color="#011E0F"/>
<stop offset="1" stop-color="#6D7C74" stop-opacity="0"/>
</linearGradient>
<linearGradient id="paint56_linear_400_38679" x1="1.34703" y1="3.77169" x2="212.023" y2="156.795" gradientUnits="userSpaceOnUse">
<stop stop-color="#D9D9D9" stop-opacity="0"/>
<stop offset="0.50257" stop-color="#011E0F"/>
<stop offset="1" stop-color="#6D7C74" stop-opacity="0"/>
</linearGradient>
<linearGradient id="paint57_linear_400_38679" x1="1.34703" y1="3.77169" x2="212.023" y2="156.795" gradientUnits="userSpaceOnUse">
<stop stop-color="#D9D9D9" stop-opacity="0"/>
<stop offset="0.50257" stop-color="#011E0F"/>
<stop offset="1" stop-color="#6D7C74" stop-opacity="0"/>
</linearGradient>
<linearGradient id="paint58_linear_400_38679" x1="1.34703" y1="3.77169" x2="212.023" y2="156.795" gradientUnits="userSpaceOnUse">
<stop stop-color="#D9D9D9" stop-opacity="0"/>
<stop offset="0.50257" stop-color="#011E0F"/>
<stop offset="1" stop-color="#6D7C74" stop-opacity="0"/>
</linearGradient>
<linearGradient id="paint59_linear_400_38679" x1="1.34703" y1="3.77169" x2="212.023" y2="156.795" gradientUnits="userSpaceOnUse">
<stop stop-color="#D9D9D9" stop-opacity="0"/>
<stop offset="0.50257" stop-color="#011E0F"/>
<stop offset="1" stop-color="#6D7C74" stop-opacity="0"/>
</linearGradient>
<linearGradient id="paint60_linear_400_38679" x1="1.34703" y1="3.77169" x2="212.023" y2="156.795" gradientUnits="userSpaceOnUse">
<stop stop-color="#D9D9D9" stop-opacity="0"/>
<stop offset="0.50257" stop-color="#011E0F"/>
<stop offset="1" stop-color="#6D7C74" stop-opacity="0"/>
</linearGradient>
<linearGradient id="paint61_linear_400_38679" x1="1.34703" y1="3.77169" x2="212.023" y2="156.795" gradientUnits="userSpaceOnUse">
<stop stop-color="#D9D9D9" stop-opacity="0"/>
<stop offset="0.50257" stop-color="#011E0F"/>
<stop offset="1" stop-color="#6D7C74" stop-opacity="0"/>
</linearGradient>
<linearGradient id="paint62_linear_400_38679" x1="1.34703" y1="3.77169" x2="212.023" y2="156.795" gradientUnits="userSpaceOnUse">
<stop stop-color="#D9D9D9" stop-opacity="0"/>
<stop offset="0.50257" stop-color="#011E0F"/>
<stop offset="1" stop-color="#6D7C74" stop-opacity="0"/>
</linearGradient>
<linearGradient id="paint63_linear_400_38679" x1="1.34703" y1="3.77169" x2="212.023" y2="156.795" gradientUnits="userSpaceOnUse">
<stop stop-color="#D9D9D9" stop-opacity="0"/>
<stop offset="0.50257" stop-color="#011E0F"/>
<stop offset="1" stop-color="#6D7C74" stop-opacity="0"/>
</linearGradient>
<linearGradient id="paint64_linear_400_38679" x1="1.34703" y1="3.77169" x2="212.023" y2="156.795" gradientUnits="userSpaceOnUse">
<stop stop-color="#D9D9D9" stop-opacity="0"/>
<stop offset="0.50257" stop-color="#011E0F"/>
<stop offset="1" stop-color="#6D7C74" stop-opacity="0"/>
</linearGradient>
<linearGradient id="paint65_linear_400_38679" x1="1.34703" y1="3.77169" x2="212.023" y2="156.795" gradientUnits="userSpaceOnUse">
<stop stop-color="#D9D9D9" stop-opacity="0"/>
<stop offset="0.50257" stop-color="#011E0F"/>
<stop offset="1" stop-color="#6D7C74" stop-opacity="0"/>
</linearGradient>
<linearGradient id="paint66_linear_400_38679" x1="1.34703" y1="3.77169" x2="212.023" y2="156.795" gradientUnits="userSpaceOnUse">
<stop stop-color="#D9D9D9" stop-opacity="0"/>
<stop offset="0.50257" stop-color="#011E0F"/>
<stop offset="1" stop-color="#6D7C74" stop-opacity="0"/>
</linearGradient>
<linearGradient id="paint67_linear_400_38679" x1="1.34703" y1="3.77169" x2="212.023" y2="156.795" gradientUnits="userSpaceOnUse">
<stop stop-color="#D9D9D9" stop-opacity="0"/>
<stop offset="0.50257" stop-color="#011E0F"/>
<stop offset="1" stop-color="#6D7C74" stop-opacity="0"/>
</linearGradient>
<linearGradient id="paint68_linear_400_38679" x1="1.34703" y1="3.77169" x2="212.023" y2="156.795" gradientUnits="userSpaceOnUse">
<stop stop-color="#D9D9D9" stop-opacity="0"/>
<stop offset="0.50257" stop-color="#011E0F"/>
<stop offset="1" stop-color="#6D7C74" stop-opacity="0"/>
</linearGradient>
<linearGradient id="paint69_linear_400_38679" x1="1.34703" y1="3.77169" x2="212.023" y2="156.795" gradientUnits="userSpaceOnUse">
<stop stop-color="#D9D9D9" stop-opacity="0"/>
<stop offset="0.50257" stop-color="#011E0F"/>
<stop offset="1" stop-color="#6D7C74" stop-opacity="0"/>
</linearGradient>
<linearGradient id="paint70_linear_400_38679" x1="1.34703" y1="3.77169" x2="212.023" y2="156.795" gradientUnits="userSpaceOnUse">
<stop stop-color="#D9D9D9" stop-opacity="0"/>
<stop offset="0.50257" stop-color="#011E0F"/>
<stop offset="1" stop-color="#6D7C74" stop-opacity="0"/>
</linearGradient>
<linearGradient id="paint71_linear_400_38679" x1="1.34703" y1="3.77169" x2="212.023" y2="156.795" gradientUnits="userSpaceOnUse">
<stop stop-color="#D9D9D9" stop-opacity="0"/>
<stop offset="0.50257" stop-color="#011E0F"/>
<stop offset="1" stop-color="#6D7C74" stop-opacity="0"/>
</linearGradient>
<linearGradient id="paint72_linear_400_38679" x1="1.34703" y1="3.77169" x2="212.023" y2="156.795" gradientUnits="userSpaceOnUse">
<stop stop-color="#D9D9D9" stop-opacity="0"/>
<stop offset="0.50257" stop-color="#011E0F"/>
<stop offset="1" stop-color="#6D7C74" stop-opacity="0"/>
</linearGradient>
<linearGradient id="paint73_linear_400_38679" x1="1.34703" y1="3.77169" x2="212.023" y2="156.795" gradientUnits="userSpaceOnUse">
<stop stop-color="#D9D9D9" stop-opacity="0"/>
<stop offset="0.50257" stop-color="#011E0F"/>
<stop offset="1" stop-color="#6D7C74" stop-opacity="0"/>
</linearGradient>
<linearGradient id="paint74_linear_400_38679" x1="1.34703" y1="3.77169" x2="212.023" y2="156.795" gradientUnits="userSpaceOnUse">
<stop stop-color="#D9D9D9" stop-opacity="0"/>
<stop offset="0.50257" stop-color="#011E0F"/>
<stop offset="1" stop-color="#6D7C74" stop-opacity="0"/>
</linearGradient>
<linearGradient id="paint75_linear_400_38679" x1="1.34703" y1="3.77169" x2="212.023" y2="156.795" gradientUnits="userSpaceOnUse">
<stop stop-color="#D9D9D9" stop-opacity="0"/>
<stop offset="0.50257" stop-color="#011E0F"/>
<stop offset="1" stop-color="#6D7C74" stop-opacity="0"/>
</linearGradient>
<linearGradient id="paint76_linear_400_38679" x1="1.34703" y1="3.77169" x2="212.023" y2="156.795" gradientUnits="userSpaceOnUse">
<stop stop-color="#D9D9D9" stop-opacity="0"/>
<stop offset="0.50257" stop-color="#011E0F"/>
<stop offset="1" stop-color="#6D7C74" stop-opacity="0"/>
</linearGradient>
<linearGradient id="paint77_linear_400_38679" x1="1.34703" y1="3.77169" x2="212.023" y2="156.795" gradientUnits="userSpaceOnUse">
<stop stop-color="#D9D9D9" stop-opacity="0"/>
<stop offset="0.50257" stop-color="#011E0F"/>
<stop offset="1" stop-color="#6D7C74" stop-opacity="0"/>
</linearGradient>
<linearGradient id="paint78_linear_400_38679" x1="1.34703" y1="3.77169" x2="212.023" y2="156.795" gradientUnits="userSpaceOnUse">
<stop stop-color="#D9D9D9" stop-opacity="0"/>
<stop offset="0.50257" stop-color="#011E0F"/>
<stop offset="1" stop-color="#6D7C74" stop-opacity="0"/>
</linearGradient>
<linearGradient id="paint79_linear_400_38679" x1="1.34703" y1="3.77169" x2="212.023" y2="156.795" gradientUnits="userSpaceOnUse">
<stop stop-color="#D9D9D9" stop-opacity="0"/>
<stop offset="0.50257" stop-color="#011E0F"/>
<stop offset="1" stop-color="#6D7C74" stop-opacity="0"/>
</linearGradient>
<linearGradient id="paint80_linear_400_38679" x1="1.34703" y1="3.77169" x2="212.023" y2="156.795" gradientUnits="userSpaceOnUse">
<stop stop-color="#D9D9D9" stop-opacity="0"/>
<stop offset="0.50257" stop-color="#011E0F"/>
<stop offset="1" stop-color="#6D7C74" stop-opacity="0"/>
</linearGradient>
<linearGradient id="paint81_linear_400_38679" x1="1.34703" y1="3.77169" x2="212.023" y2="156.795" gradientUnits="userSpaceOnUse">
<stop stop-color="#D9D9D9" stop-opacity="0"/>
<stop offset="0.50257" stop-color="#011E0F"/>
<stop offset="1" stop-color="#6D7C74" stop-opacity="0"/>
</linearGradient>
<linearGradient id="paint82_linear_400_38679" x1="1.34703" y1="3.77169" x2="212.023" y2="156.795" gradientUnits="userSpaceOnUse">
<stop stop-color="#D9D9D9" stop-opacity="0"/>
<stop offset="0.50257" stop-color="#011E0F"/>
<stop offset="1" stop-color="#6D7C74" stop-opacity="0"/>
</linearGradient>
<linearGradient id="paint83_linear_400_38679" x1="1.34703" y1="3.77169" x2="212.023" y2="156.795" gradientUnits="userSpaceOnUse">
<stop stop-color="#D9D9D9" stop-opacity="0"/>
<stop offset="0.50257" stop-color="#011E0F"/>
<stop offset="1" stop-color="#6D7C74" stop-opacity="0"/>
</linearGradient>
<linearGradient id="paint84_linear_400_38679" x1="1.34703" y1="3.77169" x2="212.023" y2="156.795" gradientUnits="userSpaceOnUse">
<stop stop-color="#D9D9D9" stop-opacity="0"/>
<stop offset="0.50257" stop-color="#011E0F"/>
<stop offset="1" stop-color="#6D7C74" stop-opacity="0"/>
</linearGradient>
<linearGradient id="paint85_linear_400_38679" x1="1.34703" y1="3.77169" x2="212.023" y2="156.795" gradientUnits="userSpaceOnUse">
<stop stop-color="#D9D9D9" stop-opacity="0"/>
<stop offset="0.50257" stop-color="#011E0F"/>
<stop offset="1" stop-color="#6D7C74" stop-opacity="0"/>
</linearGradient>
<linearGradient id="paint86_linear_400_38679" x1="1.34703" y1="3.77169" x2="212.023" y2="156.795" gradientUnits="userSpaceOnUse">
<stop stop-color="#D9D9D9" stop-opacity="0"/>
<stop offset="0.50257" stop-color="#011E0F"/>
<stop offset="1" stop-color="#6D7C74" stop-opacity="0"/>
</linearGradient>
<linearGradient id="paint87_linear_400_38679" x1="1.34703" y1="3.77169" x2="212.023" y2="156.795" gradientUnits="userSpaceOnUse">
<stop stop-color="#D9D9D9" stop-opacity="0"/>
<stop offset="0.50257" stop-color="#011E0F"/>
<stop offset="1" stop-color="#6D7C74" stop-opacity="0"/>
</linearGradient>
<linearGradient id="paint88_linear_400_38679" x1="1.34703" y1="3.77169" x2="212.023" y2="156.795" gradientUnits="userSpaceOnUse">
<stop stop-color="#D9D9D9" stop-opacity="0"/>
<stop offset="0.50257" stop-color="#011E0F"/>
<stop offset="1" stop-color="#6D7C74" stop-opacity="0"/>
</linearGradient>
<linearGradient id="paint89_linear_400_38679" x1="1.34703" y1="3.77169" x2="212.023" y2="156.795" gradientUnits="userSpaceOnUse">
<stop stop-color="#D9D9D9" stop-opacity="0"/>
<stop offset="0.50257" stop-color="#011E0F"/>
<stop offset="1" stop-color="#6D7C74" stop-opacity="0"/>
</linearGradient>
<linearGradient id="paint90_linear_400_38679" x1="1.34703" y1="3.77169" x2="212.023" y2="156.795" gradientUnits="userSpaceOnUse">
<stop stop-color="#D9D9D9" stop-opacity="0"/>
<stop offset="0.50257" stop-color="#011E0F"/>
<stop offset="1" stop-color="#6D7C74" stop-opacity="0"/>
</linearGradient>
<linearGradient id="paint91_linear_400_38679" x1="1.34703" y1="3.77169" x2="212.023" y2="156.795" gradientUnits="userSpaceOnUse">
<stop stop-color="#D9D9D9" stop-opacity="0"/>
<stop offset="0.50257" stop-color="#011E0F"/>
<stop offset="1" stop-color="#6D7C74" stop-opacity="0"/>
</linearGradient>
<linearGradient id="paint92_linear_400_38679" x1="1.34703" y1="3.77169" x2="212.023" y2="156.795" gradientUnits="userSpaceOnUse">
<stop stop-color="#D9D9D9" stop-opacity="0"/>
<stop offset="0.50257" stop-color="#011E0F"/>
<stop offset="1" stop-color="#6D7C74" stop-opacity="0"/>
</linearGradient>
<linearGradient id="paint93_linear_400_38679" x1="1.34703" y1="3.77169" x2="212.023" y2="156.795" gradientUnits="userSpaceOnUse">
<stop stop-color="#D9D9D9" stop-opacity="0"/>
<stop offset="0.50257" stop-color="#011E0F"/>
<stop offset="1" stop-color="#6D7C74" stop-opacity="0"/>
</linearGradient>
<linearGradient id="paint94_linear_400_38679" x1="1.34703" y1="3.77169" x2="212.023" y2="156.795" gradientUnits="userSpaceOnUse">
<stop stop-color="#D9D9D9" stop-opacity="0"/>
<stop offset="0.50257" stop-color="#011E0F"/>
<stop offset="1" stop-color="#6D7C74" stop-opacity="0"/>
</linearGradient>
<linearGradient id="paint95_linear_400_38679" x1="1.34703" y1="3.77169" x2="212.023" y2="156.795" gradientUnits="userSpaceOnUse">
<stop stop-color="#D9D9D9" stop-opacity="0"/>
<stop offset="0.50257" stop-color="#011E0F"/>
<stop offset="1" stop-color="#6D7C74" stop-opacity="0"/>
</linearGradient>
<linearGradient id="paint96_linear_400_38679" x1="1.34703" y1="3.77169" x2="212.023" y2="156.795" gradientUnits="userSpaceOnUse">
<stop stop-color="#D9D9D9" stop-opacity="0"/>
<stop offset="0.50257" stop-color="#011E0F"/>
<stop offset="1" stop-color="#6D7C74" stop-opacity="0"/>
</linearGradient>
<linearGradient id="paint97_linear_400_38679" x1="1.34703" y1="3.77169" x2="212.023" y2="156.795" gradientUnits="userSpaceOnUse">
<stop stop-color="#D9D9D9" stop-opacity="0"/>
<stop offset="0.50257" stop-color="#011E0F"/>
<stop offset="1" stop-color="#6D7C74" stop-opacity="0"/>
</linearGradient>
<linearGradient id="paint98_linear_400_38679" x1="1.34703" y1="3.77169" x2="212.023" y2="156.795" gradientUnits="userSpaceOnUse">
<stop stop-color="#D9D9D9" stop-opacity="0"/>
<stop offset="0.50257" stop-color="#011E0F"/>
<stop offset="1" stop-color="#6D7C74" stop-opacity="0"/>
</linearGradient>
<linearGradient id="paint99_linear_400_38679" x1="1.34703" y1="3.77169" x2="212.023" y2="156.795" gradientUnits="userSpaceOnUse">
<stop stop-color="#D9D9D9" stop-opacity="0"/>
<stop offset="0.50257" stop-color="#011E0F"/>
<stop offset="1" stop-color="#6D7C74" stop-opacity="0"/>
</linearGradient>
<linearGradient id="paint100_linear_400_38679" x1="1.34703" y1="3.77169" x2="212.023" y2="156.795" gradientUnits="userSpaceOnUse">
<stop stop-color="#D9D9D9" stop-opacity="0"/>
<stop offset="0.50257" stop-color="#011E0F"/>
<stop offset="1" stop-color="#6D7C74" stop-opacity="0"/>
</linearGradient>
<linearGradient id="paint101_linear_400_38679" x1="1.34703" y1="3.77169" x2="212.023" y2="156.795" gradientUnits="userSpaceOnUse">
<stop stop-color="#D9D9D9" stop-opacity="0"/>
<stop offset="0.50257" stop-color="#011E0F"/>
<stop offset="1" stop-color="#6D7C74" stop-opacity="0"/>
</linearGradient>
<linearGradient id="paint102_linear_400_38679" x1="1.34703" y1="3.77169" x2="212.023" y2="156.795" gradientUnits="userSpaceOnUse">
<stop stop-color="#D9D9D9" stop-opacity="0"/>
<stop offset="0.50257" stop-color="#011E0F"/>
<stop offset="1" stop-color="#6D7C74" stop-opacity="0"/>
</linearGradient>
<linearGradient id="paint103_linear_400_38679" x1="1.34703" y1="3.77169" x2="212.023" y2="156.795" gradientUnits="userSpaceOnUse">
<stop stop-color="#D9D9D9" stop-opacity="0"/>
<stop offset="0.50257" stop-color="#011E0F"/>
<stop offset="1" stop-color="#6D7C74" stop-opacity="0"/>
</linearGradient>
<linearGradient id="paint104_linear_400_38679" x1="1.34703" y1="3.77169" x2="212.023" y2="156.795" gradientUnits="userSpaceOnUse">
<stop stop-color="#D9D9D9" stop-opacity="0"/>
<stop offset="0.50257" stop-color="#011E0F"/>
<stop offset="1" stop-color="#6D7C74" stop-opacity="0"/>
</linearGradient>
<linearGradient id="paint105_linear_400_38679" x1="1.34703" y1="3.77169" x2="212.023" y2="156.795" gradientUnits="userSpaceOnUse">
<stop stop-color="#D9D9D9" stop-opacity="0"/>
<stop offset="0.50257" stop-color="#011E0F"/>
<stop offset="1" stop-color="#6D7C74" stop-opacity="0"/>
</linearGradient>
<linearGradient id="paint106_linear_400_38679" x1="1.34703" y1="3.77169" x2="212.023" y2="156.795" gradientUnits="userSpaceOnUse">
<stop stop-color="#D9D9D9" stop-opacity="0"/>
<stop offset="0.50257" stop-color="#011E0F"/>
<stop offset="1" stop-color="#6D7C74" stop-opacity="0"/>
</linearGradient>
<linearGradient id="paint107_linear_400_38679" x1="1.34703" y1="3.77169" x2="212.023" y2="156.795" gradientUnits="userSpaceOnUse">
<stop stop-color="#D9D9D9" stop-opacity="0"/>
<stop offset="0.50257" stop-color="#011E0F"/>
<stop offset="1" stop-color="#6D7C74" stop-opacity="0"/>
</linearGradient>
<linearGradient id="paint108_linear_400_38679" x1="1.34703" y1="3.77169" x2="212.023" y2="156.795" gradientUnits="userSpaceOnUse">
<stop stop-color="#D9D9D9" stop-opacity="0"/>
<stop offset="0.50257" stop-color="#011E0F"/>
<stop offset="1" stop-color="#6D7C74" stop-opacity="0"/>
</linearGradient>
<linearGradient id="paint109_linear_400_38679" x1="1.34703" y1="3.77169" x2="212.023" y2="156.795" gradientUnits="userSpaceOnUse">
<stop stop-color="#D9D9D9" stop-opacity="0"/>
<stop offset="0.50257" stop-color="#011E0F"/>
<stop offset="1" stop-color="#6D7C74" stop-opacity="0"/>
</linearGradient>
<linearGradient id="paint110_linear_400_38679" x1="1.34703" y1="3.77169" x2="212.023" y2="156.795" gradientUnits="userSpaceOnUse">
<stop stop-color="#D9D9D9" stop-opacity="0"/>
<stop offset="0.50257" stop-color="#011E0F"/>
<stop offset="1" stop-color="#6D7C74" stop-opacity="0"/>
</linearGradient>
<linearGradient id="paint111_linear_400_38679" x1="1.34703" y1="3.77169" x2="212.023" y2="156.795" gradientUnits="userSpaceOnUse">
<stop stop-color="#D9D9D9" stop-opacity="0"/>
<stop offset="0.50257" stop-color="#011E0F"/>
<stop offset="1" stop-color="#6D7C74" stop-opacity="0"/>
</linearGradient>
<linearGradient id="paint112_linear_400_38679" x1="1.34703" y1="3.77169" x2="212.023" y2="156.795" gradientUnits="userSpaceOnUse">
<stop stop-color="#D9D9D9" stop-opacity="0"/>
<stop offset="0.50257" stop-color="#011E0F"/>
<stop offset="1" stop-color="#6D7C74" stop-opacity="0"/>
</linearGradient>
<linearGradient id="paint113_linear_400_38679" x1="1.34703" y1="3.77169" x2="212.023" y2="156.795" gradientUnits="userSpaceOnUse">
<stop stop-color="#D9D9D9" stop-opacity="0"/>
<stop offset="0.50257" stop-color="#011E0F"/>
<stop offset="1" stop-color="#6D7C74" stop-opacity="0"/>
</linearGradient>
<linearGradient id="paint114_linear_400_38679" x1="1.34703" y1="3.77169" x2="212.023" y2="156.795" gradientUnits="userSpaceOnUse">
<stop stop-color="#D9D9D9" stop-opacity="0"/>
<stop offset="0.50257" stop-color="#011E0F"/>
<stop offset="1" stop-color="#6D7C74" stop-opacity="0"/>
</linearGradient>
<linearGradient id="paint115_linear_400_38679" x1="1.34703" y1="3.77169" x2="212.023" y2="156.795" gradientUnits="userSpaceOnUse">
<stop stop-color="#D9D9D9" stop-opacity="0"/>
<stop offset="0.50257" stop-color="#011E0F"/>
<stop offset="1" stop-color="#6D7C74" stop-opacity="0"/>
</linearGradient>
<linearGradient id="paint116_linear_400_38679" x1="1.34703" y1="3.77169" x2="212.023" y2="156.795" gradientUnits="userSpaceOnUse">
<stop stop-color="#D9D9D9" stop-opacity="0"/>
<stop offset="0.50257" stop-color="#011E0F"/>
<stop offset="1" stop-color="#6D7C74" stop-opacity="0"/>
</linearGradient>
<linearGradient id="paint117_linear_400_38679" x1="1.34703" y1="3.77169" x2="212.023" y2="156.795" gradientUnits="userSpaceOnUse">
<stop stop-color="#D9D9D9" stop-opacity="0"/>
<stop offset="0.50257" stop-color="#011E0F"/>
<stop offset="1" stop-color="#6D7C74" stop-opacity="0"/>
</linearGradient>
<linearGradient id="paint118_linear_400_38679" x1="1.34703" y1="3.77169" x2="212.023" y2="156.795" gradientUnits="userSpaceOnUse">
<stop stop-color="#D9D9D9" stop-opacity="0"/>
<stop offset="0.50257" stop-color="#011E0F"/>
<stop offset="1" stop-color="#6D7C74" stop-opacity="0"/>
</linearGradient>
<linearGradient id="paint119_linear_400_38679" x1="1.34703" y1="3.77169" x2="212.023" y2="156.795" gradientUnits="userSpaceOnUse">
<stop stop-color="#D9D9D9" stop-opacity="0"/>
<stop offset="0.50257" stop-color="#011E0F"/>
<stop offset="1" stop-color="#6D7C74" stop-opacity="0"/>
</linearGradient>
<linearGradient id="paint120_linear_400_38679" x1="1.34703" y1="3.77169" x2="212.023" y2="156.795" gradientUnits="userSpaceOnUse">
<stop stop-color="#D9D9D9" stop-opacity="0"/>
<stop offset="0.50257" stop-color="#011E0F"/>
<stop offset="1" stop-color="#6D7C74" stop-opacity="0"/>
</linearGradient>
<linearGradient id="paint121_linear_400_38679" x1="1.34703" y1="3.77169" x2="212.023" y2="156.795" gradientUnits="userSpaceOnUse">
<stop stop-color="#D9D9D9" stop-opacity="0"/>
<stop offset="0.50257" stop-color="#011E0F"/>
<stop offset="1" stop-color="#6D7C74" stop-opacity="0"/>
</linearGradient>
<linearGradient id="paint122_linear_400_38679" x1="1.34703" y1="3.77169" x2="212.023" y2="156.795" gradientUnits="userSpaceOnUse">
<stop stop-color="#D9D9D9" stop-opacity="0"/>
<stop offset="0.50257" stop-color="#011E0F"/>
<stop offset="1" stop-color="#6D7C74" stop-opacity="0"/>
</linearGradient>
<linearGradient id="paint123_linear_400_38679" x1="1.34703" y1="3.77169" x2="212.023" y2="156.795" gradientUnits="userSpaceOnUse">
<stop stop-color="#D9D9D9" stop-opacity="0"/>
<stop offset="0.50257" stop-color="#011E0F"/>
<stop offset="1" stop-color="#6D7C74" stop-opacity="0"/>
</linearGradient>
<linearGradient id="paint124_linear_400_38679" x1="1.34703" y1="3.77169" x2="212.023" y2="156.795" gradientUnits="userSpaceOnUse">
<stop stop-color="#D9D9D9" stop-opacity="0"/>
<stop offset="0.50257" stop-color="#011E0F"/>
<stop offset="1" stop-color="#6D7C74" stop-opacity="0"/>
</linearGradient>
<linearGradient id="paint125_linear_400_38679" x1="1.34703" y1="3.77169" x2="212.023" y2="156.795" gradientUnits="userSpaceOnUse">
<stop stop-color="#D9D9D9" stop-opacity="0"/>
<stop offset="0.50257" stop-color="#011E0F"/>
<stop offset="1" stop-color="#6D7C74" stop-opacity="0"/>
</linearGradient>
<linearGradient id="paint126_linear_400_38679" x1="1.34703" y1="3.77169" x2="212.023" y2="156.795" gradientUnits="userSpaceOnUse">
<stop stop-color="#D9D9D9" stop-opacity="0"/>
<stop offset="0.50257" stop-color="#011E0F"/>
<stop offset="1" stop-color="#6D7C74" stop-opacity="0"/>
</linearGradient>
<linearGradient id="paint127_linear_400_38679" x1="1.34703" y1="3.77169" x2="212.023" y2="156.795" gradientUnits="userSpaceOnUse">
<stop stop-color="#D9D9D9" stop-opacity="0"/>
<stop offset="0.50257" stop-color="#011E0F"/>
<stop offset="1" stop-color="#6D7C74" stop-opacity="0"/>
</linearGradient>
<linearGradient id="paint128_linear_400_38679" x1="1.34703" y1="3.77169" x2="212.023" y2="156.795" gradientUnits="userSpaceOnUse">
<stop stop-color="#D9D9D9" stop-opacity="0"/>
<stop offset="0.50257" stop-color="#011E0F"/>
<stop offset="1" stop-color="#6D7C74" stop-opacity="0"/>
</linearGradient>
<linearGradient id="paint129_linear_400_38679" x1="1.34703" y1="3.77169" x2="212.023" y2="156.795" gradientUnits="userSpaceOnUse">
<stop stop-color="#D9D9D9" stop-opacity="0"/>
<stop offset="0.50257" stop-color="#011E0F"/>
<stop offset="1" stop-color="#6D7C74" stop-opacity="0"/>
</linearGradient>
<linearGradient id="paint130_linear_400_38679" x1="-1.89454" y1="0.175182" x2="161.301" y2="67.3531" gradientUnits="userSpaceOnUse">
<stop stop-color="#D9D9D9" stop-opacity="0"/>
<stop offset="0.50257" stop-color="#011E0F"/>
<stop offset="1" stop-color="#6D7C74" stop-opacity="0"/>
</linearGradient>
</defs>
</svg>
