<svg width="266" height="353" viewBox="0 0 266 353" fill="none" xmlns="http://www.w3.org/2000/svg">
<mask id="mask0_397_3185" style="mask-type:alpha" maskUnits="userSpaceOnUse" x="0" y="0" width="266" height="353">
<path d="M3.63466 1.81733C3.63466 2.82101 2.82101 3.63466 1.81733 3.63466C0.813645 3.63466 0 2.82101 0 1.81733C0 0.813645 0.813645 0 1.81733 0C2.82101 0 3.63466 0.813645 3.63466 1.81733Z" fill="url(#paint0_linear_397_3185)"/>
<path d="M32.7119 1.81733C32.7119 2.82101 31.8983 3.63466 30.8946 3.63466C29.8909 3.63466 29.0772 2.82101 29.0772 1.81733C29.0772 0.813645 29.8909 0 30.8946 0C31.8983 0 32.7119 0.813645 32.7119 1.81733Z" fill="url(#paint1_linear_397_3185)"/>
<path d="M61.7892 1.81733C61.7892 2.82101 60.9755 3.63466 59.9718 3.63466C58.9681 3.63466 58.1545 2.82101 58.1545 1.81733C58.1545 0.813645 58.9681 0 59.9718 0C60.9755 0 61.7892 0.813645 61.7892 1.81733Z" fill="url(#paint2_linear_397_3185)"/>
<path d="M90.8664 1.81733C90.8664 2.82101 90.0528 3.63466 89.0491 3.63466C88.0454 3.63466 87.2317 2.82101 87.2317 1.81733C87.2317 0.813645 88.0454 0 89.0491 0C90.0528 0 90.8664 0.813645 90.8664 1.81733Z" fill="url(#paint3_linear_397_3185)"/>
<path d="M119.944 1.81733C119.944 2.82101 119.13 3.63466 118.126 3.63466C117.123 3.63466 116.309 2.82101 116.309 1.81733C116.309 0.813645 117.123 0 118.126 0C119.13 0 119.944 0.813645 119.944 1.81733Z" fill="url(#paint4_linear_397_3185)"/>
<path d="M149.021 1.81733C149.021 2.82101 148.207 3.63466 147.204 3.63466C146.2 3.63466 145.386 2.82101 145.386 1.81733C145.386 0.813645 146.2 0 147.204 0C148.207 0 149.021 0.813645 149.021 1.81733Z" fill="url(#paint5_linear_397_3185)"/>
<path d="M178.098 1.81733C178.098 2.82101 177.285 3.63466 176.281 3.63466C175.277 3.63466 174.463 2.82101 174.463 1.81733C174.463 0.813645 175.277 0 176.281 0C177.285 0 178.098 0.813645 178.098 1.81733Z" fill="url(#paint6_linear_397_3185)"/>
<path d="M207.175 1.81733C207.175 2.82101 206.362 3.63466 205.358 3.63466C204.354 3.63466 203.541 2.82101 203.541 1.81733C203.541 0.813645 204.354 0 205.358 0C206.362 0 207.175 0.813645 207.175 1.81733Z" fill="url(#paint7_linear_397_3185)"/>
<path d="M236.253 1.81733C236.253 2.82101 235.439 3.63466 234.435 3.63466C233.432 3.63466 232.618 2.82101 232.618 1.81733C232.618 0.813645 233.432 0 234.435 0C235.439 0 236.253 0.813645 236.253 1.81733Z" fill="url(#paint8_linear_397_3185)"/>
<path d="M265.33 1.81733C265.33 2.82101 264.516 3.63466 263.513 3.63466C262.509 3.63466 261.695 2.82101 261.695 1.81733C261.695 0.813645 262.509 0 263.513 0C264.516 0 265.33 0.813645 265.33 1.81733Z" fill="url(#paint9_linear_397_3185)"/>
<path d="M3.63466 30.8946C3.63466 31.8983 2.82101 32.7119 1.81733 32.7119C0.813645 32.7119 0 31.8983 0 30.8946C0 29.8909 0.813645 29.0772 1.81733 29.0772C2.82101 29.0772 3.63466 29.8909 3.63466 30.8946Z" fill="url(#paint10_linear_397_3185)"/>
<path d="M32.7119 30.8946C32.7119 31.8983 31.8983 32.7119 30.8946 32.7119C29.8909 32.7119 29.0772 31.8983 29.0772 30.8946C29.0772 29.8909 29.8909 29.0772 30.8946 29.0772C31.8983 29.0772 32.7119 29.8909 32.7119 30.8946Z" fill="url(#paint11_linear_397_3185)"/>
<path d="M61.7892 30.8946C61.7892 31.8983 60.9755 32.7119 59.9718 32.7119C58.9681 32.7119 58.1545 31.8983 58.1545 30.8946C58.1545 29.8909 58.9681 29.0772 59.9718 29.0772C60.9755 29.0772 61.7892 29.8909 61.7892 30.8946Z" fill="url(#paint12_linear_397_3185)"/>
<path d="M90.8664 30.8946C90.8664 31.8983 90.0528 32.7119 89.0491 32.7119C88.0454 32.7119 87.2317 31.8983 87.2317 30.8946C87.2317 29.8909 88.0454 29.0772 89.0491 29.0772C90.0528 29.0772 90.8664 29.8909 90.8664 30.8946Z" fill="url(#paint13_linear_397_3185)"/>
<path d="M119.944 30.8946C119.944 31.8983 119.13 32.7119 118.126 32.7119C117.123 32.7119 116.309 31.8983 116.309 30.8946C116.309 29.8909 117.123 29.0772 118.126 29.0772C119.13 29.0772 119.944 29.8909 119.944 30.8946Z" fill="url(#paint14_linear_397_3185)"/>
<path d="M149.021 30.8946C149.021 31.8983 148.207 32.7119 147.204 32.7119C146.2 32.7119 145.386 31.8983 145.386 30.8946C145.386 29.8909 146.2 29.0772 147.204 29.0772C148.207 29.0772 149.021 29.8909 149.021 30.8946Z" fill="url(#paint15_linear_397_3185)"/>
<path d="M178.098 30.8946C178.098 31.8983 177.285 32.7119 176.281 32.7119C175.277 32.7119 174.463 31.8983 174.463 30.8946C174.463 29.8909 175.277 29.0772 176.281 29.0772C177.285 29.0772 178.098 29.8909 178.098 30.8946Z" fill="url(#paint16_linear_397_3185)"/>
<path d="M207.175 30.8946C207.175 31.8983 206.362 32.7119 205.358 32.7119C204.354 32.7119 203.541 31.8983 203.541 30.8946C203.541 29.8909 204.354 29.0772 205.358 29.0772C206.362 29.0772 207.175 29.8909 207.175 30.8946Z" fill="url(#paint17_linear_397_3185)"/>
<path d="M236.253 30.8946C236.253 31.8983 235.439 32.7119 234.435 32.7119C233.432 32.7119 232.618 31.8983 232.618 30.8946C232.618 29.8909 233.432 29.0772 234.435 29.0772C235.439 29.0772 236.253 29.8909 236.253 30.8946Z" fill="url(#paint18_linear_397_3185)"/>
<path d="M265.33 30.8946C265.33 31.8983 264.516 32.7119 263.513 32.7119C262.509 32.7119 261.695 31.8983 261.695 30.8946C261.695 29.8909 262.509 29.0772 263.513 29.0772C264.516 29.0772 265.33 29.8909 265.33 30.8946Z" fill="url(#paint19_linear_397_3185)"/>
<path d="M3.63466 59.9718C3.63466 60.9755 2.82101 61.7891 1.81733 61.7891C0.813645 61.7891 0 60.9755 0 59.9718C0 58.9681 0.813645 58.1545 1.81733 58.1545C2.82101 58.1545 3.63466 58.9681 3.63466 59.9718Z" fill="url(#paint20_linear_397_3185)"/>
<path d="M32.7119 59.9718C32.7119 60.9755 31.8983 61.7891 30.8946 61.7891C29.8909 61.7891 29.0772 60.9755 29.0772 59.9718C29.0772 58.9681 29.8909 58.1545 30.8946 58.1545C31.8983 58.1545 32.7119 58.9681 32.7119 59.9718Z" fill="url(#paint21_linear_397_3185)"/>
<path d="M61.7892 59.9718C61.7892 60.9755 60.9755 61.7891 59.9718 61.7891C58.9681 61.7891 58.1545 60.9755 58.1545 59.9718C58.1545 58.9681 58.9681 58.1545 59.9718 58.1545C60.9755 58.1545 61.7892 58.9681 61.7892 59.9718Z" fill="url(#paint22_linear_397_3185)"/>
<path d="M90.8664 59.9718C90.8664 60.9755 90.0528 61.7891 89.0491 61.7891C88.0454 61.7891 87.2317 60.9755 87.2317 59.9718C87.2317 58.9681 88.0454 58.1545 89.0491 58.1545C90.0528 58.1545 90.8664 58.9681 90.8664 59.9718Z" fill="url(#paint23_linear_397_3185)"/>
<path d="M119.944 59.9718C119.944 60.9755 119.13 61.7891 118.126 61.7891C117.123 61.7891 116.309 60.9755 116.309 59.9718C116.309 58.9681 117.123 58.1545 118.126 58.1545C119.13 58.1545 119.944 58.9681 119.944 59.9718Z" fill="url(#paint24_linear_397_3185)"/>
<path d="M149.021 59.9718C149.021 60.9755 148.207 61.7891 147.204 61.7891C146.2 61.7891 145.386 60.9755 145.386 59.9718C145.386 58.9681 146.2 58.1545 147.204 58.1545C148.207 58.1545 149.021 58.9681 149.021 59.9718Z" fill="url(#paint25_linear_397_3185)"/>
<path d="M178.098 59.9718C178.098 60.9755 177.285 61.7891 176.281 61.7891C175.277 61.7891 174.463 60.9755 174.463 59.9718C174.463 58.9681 175.277 58.1545 176.281 58.1545C177.285 58.1545 178.098 58.9681 178.098 59.9718Z" fill="url(#paint26_linear_397_3185)"/>
<path d="M207.175 59.9718C207.175 60.9755 206.362 61.7891 205.358 61.7891C204.354 61.7891 203.541 60.9755 203.541 59.9718C203.541 58.9681 204.354 58.1545 205.358 58.1545C206.362 58.1545 207.175 58.9681 207.175 59.9718Z" fill="url(#paint27_linear_397_3185)"/>
<path d="M236.253 59.9718C236.253 60.9755 235.439 61.7891 234.435 61.7891C233.432 61.7891 232.618 60.9755 232.618 59.9718C232.618 58.9681 233.432 58.1545 234.435 58.1545C235.439 58.1545 236.253 58.9681 236.253 59.9718Z" fill="url(#paint28_linear_397_3185)"/>
<path d="M265.33 59.9718C265.33 60.9755 264.516 61.7891 263.513 61.7891C262.509 61.7891 261.695 60.9755 261.695 59.9718C261.695 58.9681 262.509 58.1545 263.513 58.1545C264.516 58.1545 265.33 58.9681 265.33 59.9718Z" fill="url(#paint29_linear_397_3185)"/>
<path d="M3.63466 89.0491C3.63466 90.0527 2.82101 90.8664 1.81733 90.8664C0.813645 90.8664 0 90.0527 0 89.0491C0 88.0454 0.813645 87.2317 1.81733 87.2317C2.82101 87.2317 3.63466 88.0454 3.63466 89.0491Z" fill="url(#paint30_linear_397_3185)"/>
<path d="M32.7119 89.0491C32.7119 90.0527 31.8983 90.8664 30.8946 90.8664C29.8909 90.8664 29.0772 90.0527 29.0772 89.0491C29.0772 88.0454 29.8909 87.2317 30.8946 87.2317C31.8983 87.2317 32.7119 88.0454 32.7119 89.0491Z" fill="url(#paint31_linear_397_3185)"/>
<path d="M61.7892 89.0491C61.7892 90.0527 60.9755 90.8664 59.9718 90.8664C58.9681 90.8664 58.1545 90.0527 58.1545 89.0491C58.1545 88.0454 58.9681 87.2317 59.9718 87.2317C60.9755 87.2317 61.7892 88.0454 61.7892 89.0491Z" fill="url(#paint32_linear_397_3185)"/>
<path d="M90.8664 89.0491C90.8664 90.0527 90.0528 90.8664 89.0491 90.8664C88.0454 90.8664 87.2317 90.0527 87.2317 89.0491C87.2317 88.0454 88.0454 87.2317 89.0491 87.2317C90.0528 87.2317 90.8664 88.0454 90.8664 89.0491Z" fill="url(#paint33_linear_397_3185)"/>
<path d="M119.944 89.0491C119.944 90.0527 119.13 90.8664 118.126 90.8664C117.123 90.8664 116.309 90.0527 116.309 89.0491C116.309 88.0454 117.123 87.2317 118.126 87.2317C119.13 87.2317 119.944 88.0454 119.944 89.0491Z" fill="url(#paint34_linear_397_3185)"/>
<path d="M149.021 89.0491C149.021 90.0527 148.207 90.8664 147.204 90.8664C146.2 90.8664 145.386 90.0527 145.386 89.0491C145.386 88.0454 146.2 87.2317 147.204 87.2317C148.207 87.2317 149.021 88.0454 149.021 89.0491Z" fill="url(#paint35_linear_397_3185)"/>
<path d="M178.098 89.0491C178.098 90.0527 177.285 90.8664 176.281 90.8664C175.277 90.8664 174.463 90.0527 174.463 89.0491C174.463 88.0454 175.277 87.2317 176.281 87.2317C177.285 87.2317 178.098 88.0454 178.098 89.0491Z" fill="url(#paint36_linear_397_3185)"/>
<path d="M207.175 89.0491C207.175 90.0527 206.362 90.8664 205.358 90.8664C204.354 90.8664 203.541 90.0527 203.541 89.0491C203.541 88.0454 204.354 87.2317 205.358 87.2317C206.362 87.2317 207.175 88.0454 207.175 89.0491Z" fill="url(#paint37_linear_397_3185)"/>
<path d="M236.253 89.0491C236.253 90.0527 235.439 90.8664 234.435 90.8664C233.432 90.8664 232.618 90.0527 232.618 89.0491C232.618 88.0454 233.432 87.2317 234.435 87.2317C235.439 87.2317 236.253 88.0454 236.253 89.0491Z" fill="url(#paint38_linear_397_3185)"/>
<path d="M265.33 89.0491C265.33 90.0527 264.516 90.8664 263.513 90.8664C262.509 90.8664 261.695 90.0527 261.695 89.0491C261.695 88.0454 262.509 87.2317 263.513 87.2317C264.516 87.2317 265.33 88.0454 265.33 89.0491Z" fill="url(#paint39_linear_397_3185)"/>
<path d="M3.63466 118.126C3.63466 119.13 2.82101 119.944 1.81733 119.944C0.813645 119.944 0 119.13 0 118.126C0 117.123 0.813645 116.309 1.81733 116.309C2.82101 116.309 3.63466 117.123 3.63466 118.126Z" fill="url(#paint40_linear_397_3185)"/>
<path d="M32.7119 118.126C32.7119 119.13 31.8983 119.944 30.8946 119.944C29.8909 119.944 29.0772 119.13 29.0772 118.126C29.0772 117.123 29.8909 116.309 30.8946 116.309C31.8983 116.309 32.7119 117.123 32.7119 118.126Z" fill="url(#paint41_linear_397_3185)"/>
<path d="M61.7892 118.126C61.7892 119.13 60.9755 119.944 59.9718 119.944C58.9681 119.944 58.1545 119.13 58.1545 118.126C58.1545 117.123 58.9681 116.309 59.9718 116.309C60.9755 116.309 61.7892 117.123 61.7892 118.126Z" fill="url(#paint42_linear_397_3185)"/>
<path d="M90.8664 118.126C90.8664 119.13 90.0528 119.944 89.0491 119.944C88.0454 119.944 87.2317 119.13 87.2317 118.126C87.2317 117.123 88.0454 116.309 89.0491 116.309C90.0528 116.309 90.8664 117.123 90.8664 118.126Z" fill="url(#paint43_linear_397_3185)"/>
<path d="M119.944 118.126C119.944 119.13 119.13 119.944 118.126 119.944C117.123 119.944 116.309 119.13 116.309 118.126C116.309 117.123 117.123 116.309 118.126 116.309C119.13 116.309 119.944 117.123 119.944 118.126Z" fill="url(#paint44_linear_397_3185)"/>
<path d="M149.021 118.126C149.021 119.13 148.207 119.944 147.204 119.944C146.2 119.944 145.386 119.13 145.386 118.126C145.386 117.123 146.2 116.309 147.204 116.309C148.207 116.309 149.021 117.123 149.021 118.126Z" fill="url(#paint45_linear_397_3185)"/>
<path d="M178.098 118.126C178.098 119.13 177.285 119.944 176.281 119.944C175.277 119.944 174.463 119.13 174.463 118.126C174.463 117.123 175.277 116.309 176.281 116.309C177.285 116.309 178.098 117.123 178.098 118.126Z" fill="url(#paint46_linear_397_3185)"/>
<path d="M207.175 118.126C207.175 119.13 206.362 119.944 205.358 119.944C204.354 119.944 203.541 119.13 203.541 118.126C203.541 117.123 204.354 116.309 205.358 116.309C206.362 116.309 207.175 117.123 207.175 118.126Z" fill="url(#paint47_linear_397_3185)"/>
<path d="M236.253 118.126C236.253 119.13 235.439 119.944 234.435 119.944C233.432 119.944 232.618 119.13 232.618 118.126C232.618 117.123 233.432 116.309 234.435 116.309C235.439 116.309 236.253 117.123 236.253 118.126Z" fill="url(#paint48_linear_397_3185)"/>
<path d="M265.33 118.126C265.33 119.13 264.516 119.944 263.513 119.944C262.509 119.944 261.695 119.13 261.695 118.126C261.695 117.123 262.509 116.309 263.513 116.309C264.516 116.309 265.33 117.123 265.33 118.126Z" fill="url(#paint49_linear_397_3185)"/>
<path d="M3.63466 147.204C3.63466 148.207 2.82101 149.021 1.81733 149.021C0.813645 149.021 0 148.207 0 147.204C0 146.2 0.813645 145.386 1.81733 145.386C2.82101 145.386 3.63466 146.2 3.63466 147.204Z" fill="url(#paint50_linear_397_3185)"/>
<path d="M32.7119 147.204C32.7119 148.207 31.8983 149.021 30.8946 149.021C29.8909 149.021 29.0772 148.207 29.0772 147.204C29.0772 146.2 29.8909 145.386 30.8946 145.386C31.8983 145.386 32.7119 146.2 32.7119 147.204Z" fill="url(#paint51_linear_397_3185)"/>
<path d="M61.7892 147.204C61.7892 148.207 60.9755 149.021 59.9718 149.021C58.9681 149.021 58.1545 148.207 58.1545 147.204C58.1545 146.2 58.9681 145.386 59.9718 145.386C60.9755 145.386 61.7892 146.2 61.7892 147.204Z" fill="url(#paint52_linear_397_3185)"/>
<path d="M90.8664 147.204C90.8664 148.207 90.0528 149.021 89.0491 149.021C88.0454 149.021 87.2317 148.207 87.2317 147.204C87.2317 146.2 88.0454 145.386 89.0491 145.386C90.0528 145.386 90.8664 146.2 90.8664 147.204Z" fill="url(#paint53_linear_397_3185)"/>
<path d="M119.944 147.204C119.944 148.207 119.13 149.021 118.126 149.021C117.123 149.021 116.309 148.207 116.309 147.204C116.309 146.2 117.123 145.386 118.126 145.386C119.13 145.386 119.944 146.2 119.944 147.204Z" fill="url(#paint54_linear_397_3185)"/>
<path d="M149.021 147.204C149.021 148.207 148.207 149.021 147.204 149.021C146.2 149.021 145.386 148.207 145.386 147.204C145.386 146.2 146.2 145.386 147.204 145.386C148.207 145.386 149.021 146.2 149.021 147.204Z" fill="url(#paint55_linear_397_3185)"/>
<path d="M178.098 147.204C178.098 148.207 177.285 149.021 176.281 149.021C175.277 149.021 174.463 148.207 174.463 147.204C174.463 146.2 175.277 145.386 176.281 145.386C177.285 145.386 178.098 146.2 178.098 147.204Z" fill="url(#paint56_linear_397_3185)"/>
<path d="M207.175 147.204C207.175 148.207 206.362 149.021 205.358 149.021C204.354 149.021 203.541 148.207 203.541 147.204C203.541 146.2 204.354 145.386 205.358 145.386C206.362 145.386 207.175 146.2 207.175 147.204Z" fill="url(#paint57_linear_397_3185)"/>
<path d="M236.253 147.204C236.253 148.207 235.439 149.021 234.435 149.021C233.432 149.021 232.618 148.207 232.618 147.204C232.618 146.2 233.432 145.386 234.435 145.386C235.439 145.386 236.253 146.2 236.253 147.204Z" fill="url(#paint58_linear_397_3185)"/>
<path d="M265.33 147.204C265.33 148.207 264.516 149.021 263.513 149.021C262.509 149.021 261.695 148.207 261.695 147.204C261.695 146.2 262.509 145.386 263.513 145.386C264.516 145.386 265.33 146.2 265.33 147.204Z" fill="url(#paint59_linear_397_3185)"/>
<path d="M3.63466 176.281C3.63466 177.284 2.82101 178.098 1.81733 178.098C0.813645 178.098 0 177.284 0 176.281C0 175.277 0.813645 174.463 1.81733 174.463C2.82101 174.463 3.63466 175.277 3.63466 176.281Z" fill="url(#paint60_linear_397_3185)"/>
<path d="M32.7119 176.281C32.7119 177.284 31.8983 178.098 30.8946 178.098C29.8909 178.098 29.0772 177.284 29.0772 176.281C29.0772 175.277 29.8909 174.463 30.8946 174.463C31.8983 174.463 32.7119 175.277 32.7119 176.281Z" fill="url(#paint61_linear_397_3185)"/>
<path d="M61.7892 176.281C61.7892 177.284 60.9755 178.098 59.9718 178.098C58.9681 178.098 58.1545 177.284 58.1545 176.281C58.1545 175.277 58.9681 174.463 59.9718 174.463C60.9755 174.463 61.7892 175.277 61.7892 176.281Z" fill="url(#paint62_linear_397_3185)"/>
<path d="M90.8664 176.281C90.8664 177.284 90.0528 178.098 89.0491 178.098C88.0454 178.098 87.2317 177.284 87.2317 176.281C87.2317 175.277 88.0454 174.463 89.0491 174.463C90.0528 174.463 90.8664 175.277 90.8664 176.281Z" fill="url(#paint63_linear_397_3185)"/>
<path d="M119.944 176.281C119.944 177.284 119.13 178.098 118.126 178.098C117.123 178.098 116.309 177.284 116.309 176.281C116.309 175.277 117.123 174.463 118.126 174.463C119.13 174.463 119.944 175.277 119.944 176.281Z" fill="url(#paint64_linear_397_3185)"/>
<path d="M149.021 176.281C149.021 177.284 148.207 178.098 147.204 178.098C146.2 178.098 145.386 177.284 145.386 176.281C145.386 175.277 146.2 174.463 147.204 174.463C148.207 174.463 149.021 175.277 149.021 176.281Z" fill="url(#paint65_linear_397_3185)"/>
<path d="M178.098 176.281C178.098 177.284 177.285 178.098 176.281 178.098C175.277 178.098 174.463 177.284 174.463 176.281C174.463 175.277 175.277 174.463 176.281 174.463C177.285 174.463 178.098 175.277 178.098 176.281Z" fill="url(#paint66_linear_397_3185)"/>
<path d="M207.175 176.281C207.175 177.284 206.362 178.098 205.358 178.098C204.354 178.098 203.541 177.284 203.541 176.281C203.541 175.277 204.354 174.463 205.358 174.463C206.362 174.463 207.175 175.277 207.175 176.281Z" fill="url(#paint67_linear_397_3185)"/>
<path d="M236.253 176.281C236.253 177.284 235.439 178.098 234.435 178.098C233.432 178.098 232.618 177.284 232.618 176.281C232.618 175.277 233.432 174.463 234.435 174.463C235.439 174.463 236.253 175.277 236.253 176.281Z" fill="url(#paint68_linear_397_3185)"/>
<path d="M265.33 176.281C265.33 177.284 264.516 178.098 263.513 178.098C262.509 178.098 261.695 177.284 261.695 176.281C261.695 175.277 262.509 174.463 263.513 174.463C264.516 174.463 265.33 175.277 265.33 176.281Z" fill="url(#paint69_linear_397_3185)"/>
<path d="M3.63466 205.358C3.63466 206.362 2.82101 207.175 1.81733 207.175C0.813645 207.175 0 206.362 0 205.358C0 204.354 0.813645 203.541 1.81733 203.541C2.82101 203.541 3.63466 204.354 3.63466 205.358Z" fill="url(#paint70_linear_397_3185)"/>
<path d="M32.7119 205.358C32.7119 206.362 31.8983 207.175 30.8946 207.175C29.8909 207.175 29.0772 206.362 29.0772 205.358C29.0772 204.354 29.8909 203.541 30.8946 203.541C31.8983 203.541 32.7119 204.354 32.7119 205.358Z" fill="url(#paint71_linear_397_3185)"/>
<path d="M61.7892 205.358C61.7892 206.362 60.9755 207.175 59.9718 207.175C58.9681 207.175 58.1545 206.362 58.1545 205.358C58.1545 204.354 58.9681 203.541 59.9718 203.541C60.9755 203.541 61.7892 204.354 61.7892 205.358Z" fill="url(#paint72_linear_397_3185)"/>
<path d="M90.8664 205.358C90.8664 206.362 90.0528 207.175 89.0491 207.175C88.0454 207.175 87.2317 206.362 87.2317 205.358C87.2317 204.354 88.0454 203.541 89.0491 203.541C90.0528 203.541 90.8664 204.354 90.8664 205.358Z" fill="url(#paint73_linear_397_3185)"/>
<path d="M119.944 205.358C119.944 206.362 119.13 207.175 118.126 207.175C117.123 207.175 116.309 206.362 116.309 205.358C116.309 204.354 117.123 203.541 118.126 203.541C119.13 203.541 119.944 204.354 119.944 205.358Z" fill="url(#paint74_linear_397_3185)"/>
<path d="M149.021 205.358C149.021 206.362 148.207 207.175 147.204 207.175C146.2 207.175 145.386 206.362 145.386 205.358C145.386 204.354 146.2 203.541 147.204 203.541C148.207 203.541 149.021 204.354 149.021 205.358Z" fill="url(#paint75_linear_397_3185)"/>
<path d="M178.098 205.358C178.098 206.362 177.285 207.175 176.281 207.175C175.277 207.175 174.463 206.362 174.463 205.358C174.463 204.354 175.277 203.541 176.281 203.541C177.285 203.541 178.098 204.354 178.098 205.358Z" fill="url(#paint76_linear_397_3185)"/>
<path d="M207.175 205.358C207.175 206.362 206.362 207.175 205.358 207.175C204.354 207.175 203.541 206.362 203.541 205.358C203.541 204.354 204.354 203.541 205.358 203.541C206.362 203.541 207.175 204.354 207.175 205.358Z" fill="url(#paint77_linear_397_3185)"/>
<path d="M236.253 205.358C236.253 206.362 235.439 207.175 234.435 207.175C233.432 207.175 232.618 206.362 232.618 205.358C232.618 204.354 233.432 203.541 234.435 203.541C235.439 203.541 236.253 204.354 236.253 205.358Z" fill="url(#paint78_linear_397_3185)"/>
<path d="M265.33 205.358C265.33 206.362 264.516 207.175 263.513 207.175C262.509 207.175 261.695 206.362 261.695 205.358C261.695 204.354 262.509 203.541 263.513 203.541C264.516 203.541 265.33 204.354 265.33 205.358Z" fill="url(#paint79_linear_397_3185)"/>
<path d="M3.63466 234.435C3.63466 235.439 2.82101 236.253 1.81733 236.253C0.813645 236.253 0 235.439 0 234.435C0 233.432 0.813645 232.618 1.81733 232.618C2.82101 232.618 3.63466 233.432 3.63466 234.435Z" fill="url(#paint80_linear_397_3185)"/>
<path d="M32.7119 234.435C32.7119 235.439 31.8983 236.253 30.8946 236.253C29.8909 236.253 29.0772 235.439 29.0772 234.435C29.0772 233.432 29.8909 232.618 30.8946 232.618C31.8983 232.618 32.7119 233.432 32.7119 234.435Z" fill="url(#paint81_linear_397_3185)"/>
<path d="M61.7892 234.435C61.7892 235.439 60.9755 236.253 59.9718 236.253C58.9681 236.253 58.1545 235.439 58.1545 234.435C58.1545 233.432 58.9681 232.618 59.9718 232.618C60.9755 232.618 61.7892 233.432 61.7892 234.435Z" fill="url(#paint82_linear_397_3185)"/>
<path d="M90.8664 234.435C90.8664 235.439 90.0528 236.253 89.0491 236.253C88.0454 236.253 87.2317 235.439 87.2317 234.435C87.2317 233.432 88.0454 232.618 89.0491 232.618C90.0528 232.618 90.8664 233.432 90.8664 234.435Z" fill="url(#paint83_linear_397_3185)"/>
<path d="M119.944 234.435C119.944 235.439 119.13 236.253 118.126 236.253C117.123 236.253 116.309 235.439 116.309 234.435C116.309 233.432 117.123 232.618 118.126 232.618C119.13 232.618 119.944 233.432 119.944 234.435Z" fill="url(#paint84_linear_397_3185)"/>
<path d="M149.021 234.435C149.021 235.439 148.207 236.253 147.204 236.253C146.2 236.253 145.386 235.439 145.386 234.435C145.386 233.432 146.2 232.618 147.204 232.618C148.207 232.618 149.021 233.432 149.021 234.435Z" fill="url(#paint85_linear_397_3185)"/>
<path d="M178.098 234.435C178.098 235.439 177.285 236.253 176.281 236.253C175.277 236.253 174.463 235.439 174.463 234.435C174.463 233.432 175.277 232.618 176.281 232.618C177.285 232.618 178.098 233.432 178.098 234.435Z" fill="url(#paint86_linear_397_3185)"/>
<path d="M207.175 234.435C207.175 235.439 206.362 236.253 205.358 236.253C204.354 236.253 203.541 235.439 203.541 234.435C203.541 233.432 204.354 232.618 205.358 232.618C206.362 232.618 207.175 233.432 207.175 234.435Z" fill="url(#paint87_linear_397_3185)"/>
<path d="M236.253 234.435C236.253 235.439 235.439 236.253 234.435 236.253C233.432 236.253 232.618 235.439 232.618 234.435C232.618 233.432 233.432 232.618 234.435 232.618C235.439 232.618 236.253 233.432 236.253 234.435Z" fill="url(#paint88_linear_397_3185)"/>
<path d="M265.33 234.435C265.33 235.439 264.516 236.253 263.513 236.253C262.509 236.253 261.695 235.439 261.695 234.435C261.695 233.432 262.509 232.618 263.513 232.618C264.516 232.618 265.33 233.432 265.33 234.435Z" fill="url(#paint89_linear_397_3185)"/>
<path d="M3.63466 263.513C3.63466 264.516 2.82101 265.33 1.81733 265.33C0.813645 265.33 0 264.516 0 263.513C0 262.509 0.813645 261.695 1.81733 261.695C2.82101 261.695 3.63466 262.509 3.63466 263.513Z" fill="url(#paint90_linear_397_3185)"/>
<path d="M32.7119 263.513C32.7119 264.516 31.8983 265.33 30.8946 265.33C29.8909 265.33 29.0772 264.516 29.0772 263.513C29.0772 262.509 29.8909 261.695 30.8946 261.695C31.8983 261.695 32.7119 262.509 32.7119 263.513Z" fill="url(#paint91_linear_397_3185)"/>
<path d="M61.7892 263.513C61.7892 264.516 60.9755 265.33 59.9718 265.33C58.9681 265.33 58.1545 264.516 58.1545 263.513C58.1545 262.509 58.9681 261.695 59.9718 261.695C60.9755 261.695 61.7892 262.509 61.7892 263.513Z" fill="url(#paint92_linear_397_3185)"/>
<path d="M90.8664 263.513C90.8664 264.516 90.0528 265.33 89.0491 265.33C88.0454 265.33 87.2317 264.516 87.2317 263.513C87.2317 262.509 88.0454 261.695 89.0491 261.695C90.0528 261.695 90.8664 262.509 90.8664 263.513Z" fill="url(#paint93_linear_397_3185)"/>
<path d="M119.944 263.513C119.944 264.516 119.13 265.33 118.126 265.33C117.123 265.33 116.309 264.516 116.309 263.513C116.309 262.509 117.123 261.695 118.126 261.695C119.13 261.695 119.944 262.509 119.944 263.513Z" fill="url(#paint94_linear_397_3185)"/>
<path d="M149.021 263.513C149.021 264.516 148.207 265.33 147.204 265.33C146.2 265.33 145.386 264.516 145.386 263.513C145.386 262.509 146.2 261.695 147.204 261.695C148.207 261.695 149.021 262.509 149.021 263.513Z" fill="url(#paint95_linear_397_3185)"/>
<path d="M178.098 263.513C178.098 264.516 177.285 265.33 176.281 265.33C175.277 265.33 174.463 264.516 174.463 263.513C174.463 262.509 175.277 261.695 176.281 261.695C177.285 261.695 178.098 262.509 178.098 263.513Z" fill="url(#paint96_linear_397_3185)"/>
<path d="M207.175 263.513C207.175 264.516 206.362 265.33 205.358 265.33C204.354 265.33 203.541 264.516 203.541 263.513C203.541 262.509 204.354 261.695 205.358 261.695C206.362 261.695 207.175 262.509 207.175 263.513Z" fill="url(#paint97_linear_397_3185)"/>
<path d="M236.253 263.513C236.253 264.516 235.439 265.33 234.435 265.33C233.432 265.33 232.618 264.516 232.618 263.513C232.618 262.509 233.432 261.695 234.435 261.695C235.439 261.695 236.253 262.509 236.253 263.513Z" fill="url(#paint98_linear_397_3185)"/>
<path d="M265.33 263.513C265.33 264.516 264.516 265.33 263.513 265.33C262.509 265.33 261.695 264.516 261.695 263.513C261.695 262.509 262.509 261.695 263.513 261.695C264.516 261.695 265.33 262.509 265.33 263.513Z" fill="url(#paint99_linear_397_3185)"/>
<path d="M3.63466 292.59C3.63466 293.593 2.82101 294.407 1.81733 294.407C0.813645 294.407 0 293.593 0 292.59C0 291.586 0.813645 290.772 1.81733 290.772C2.82101 290.772 3.63466 291.586 3.63466 292.59Z" fill="url(#paint100_linear_397_3185)"/>
<path d="M32.7119 292.59C32.7119 293.593 31.8983 294.407 30.8946 294.407C29.8909 294.407 29.0772 293.593 29.0772 292.59C29.0772 291.586 29.8909 290.772 30.8946 290.772C31.8983 290.772 32.7119 291.586 32.7119 292.59Z" fill="url(#paint101_linear_397_3185)"/>
<path d="M61.7892 292.59C61.7892 293.593 60.9755 294.407 59.9718 294.407C58.9681 294.407 58.1545 293.593 58.1545 292.59C58.1545 291.586 58.9681 290.772 59.9718 290.772C60.9755 290.772 61.7892 291.586 61.7892 292.59Z" fill="url(#paint102_linear_397_3185)"/>
<path d="M90.8664 292.59C90.8664 293.593 90.0528 294.407 89.0491 294.407C88.0454 294.407 87.2317 293.593 87.2317 292.59C87.2317 291.586 88.0454 290.772 89.0491 290.772C90.0528 290.772 90.8664 291.586 90.8664 292.59Z" fill="url(#paint103_linear_397_3185)"/>
<path d="M119.944 292.59C119.944 293.593 119.13 294.407 118.126 294.407C117.123 294.407 116.309 293.593 116.309 292.59C116.309 291.586 117.123 290.772 118.126 290.772C119.13 290.772 119.944 291.586 119.944 292.59Z" fill="url(#paint104_linear_397_3185)"/>
<path d="M149.021 292.59C149.021 293.593 148.207 294.407 147.204 294.407C146.2 294.407 145.386 293.593 145.386 292.59C145.386 291.586 146.2 290.772 147.204 290.772C148.207 290.772 149.021 291.586 149.021 292.59Z" fill="url(#paint105_linear_397_3185)"/>
<path d="M178.098 292.59C178.098 293.593 177.285 294.407 176.281 294.407C175.277 294.407 174.463 293.593 174.463 292.59C174.463 291.586 175.277 290.772 176.281 290.772C177.285 290.772 178.098 291.586 178.098 292.59Z" fill="url(#paint106_linear_397_3185)"/>
<path d="M207.175 292.59C207.175 293.593 206.362 294.407 205.358 294.407C204.354 294.407 203.541 293.593 203.541 292.59C203.541 291.586 204.354 290.772 205.358 290.772C206.362 290.772 207.175 291.586 207.175 292.59Z" fill="url(#paint107_linear_397_3185)"/>
<path d="M236.253 292.59C236.253 293.593 235.439 294.407 234.435 294.407C233.432 294.407 232.618 293.593 232.618 292.59C232.618 291.586 233.432 290.772 234.435 290.772C235.439 290.772 236.253 291.586 236.253 292.59Z" fill="url(#paint108_linear_397_3185)"/>
<path d="M265.33 292.59C265.33 293.593 264.516 294.407 263.513 294.407C262.509 294.407 261.695 293.593 261.695 292.59C261.695 291.586 262.509 290.772 263.513 290.772C264.516 290.772 265.33 291.586 265.33 292.59Z" fill="url(#paint109_linear_397_3185)"/>
<path d="M3.63466 321.667C3.63466 322.671 2.82101 323.484 1.81733 323.484C0.813645 323.484 0 322.671 0 321.667C0 320.663 0.813645 319.85 1.81733 319.85C2.82101 319.85 3.63466 320.663 3.63466 321.667Z" fill="url(#paint110_linear_397_3185)"/>
<path d="M32.7119 321.667C32.7119 322.671 31.8983 323.484 30.8946 323.484C29.8909 323.484 29.0772 322.671 29.0772 321.667C29.0772 320.663 29.8909 319.85 30.8946 319.85C31.8983 319.85 32.7119 320.663 32.7119 321.667Z" fill="url(#paint111_linear_397_3185)"/>
<path d="M61.7892 321.667C61.7892 322.671 60.9755 323.484 59.9718 323.484C58.9681 323.484 58.1545 322.671 58.1545 321.667C58.1545 320.663 58.9681 319.85 59.9718 319.85C60.9755 319.85 61.7892 320.663 61.7892 321.667Z" fill="url(#paint112_linear_397_3185)"/>
<path d="M90.8664 321.667C90.8664 322.671 90.0528 323.484 89.0491 323.484C88.0454 323.484 87.2317 322.671 87.2317 321.667C87.2317 320.663 88.0454 319.85 89.0491 319.85C90.0528 319.85 90.8664 320.663 90.8664 321.667Z" fill="url(#paint113_linear_397_3185)"/>
<path d="M119.944 321.667C119.944 322.671 119.13 323.484 118.126 323.484C117.123 323.484 116.309 322.671 116.309 321.667C116.309 320.663 117.123 319.85 118.126 319.85C119.13 319.85 119.944 320.663 119.944 321.667Z" fill="url(#paint114_linear_397_3185)"/>
<path d="M149.021 321.667C149.021 322.671 148.207 323.484 147.204 323.484C146.2 323.484 145.386 322.671 145.386 321.667C145.386 320.663 146.2 319.85 147.204 319.85C148.207 319.85 149.021 320.663 149.021 321.667Z" fill="url(#paint115_linear_397_3185)"/>
<path d="M178.098 321.667C178.098 322.671 177.285 323.484 176.281 323.484C175.277 323.484 174.463 322.671 174.463 321.667C174.463 320.663 175.277 319.85 176.281 319.85C177.285 319.85 178.098 320.663 178.098 321.667Z" fill="url(#paint116_linear_397_3185)"/>
<path d="M207.175 321.667C207.175 322.671 206.362 323.484 205.358 323.484C204.354 323.484 203.541 322.671 203.541 321.667C203.541 320.663 204.354 319.85 205.358 319.85C206.362 319.85 207.175 320.663 207.175 321.667Z" fill="url(#paint117_linear_397_3185)"/>
<path d="M236.253 321.667C236.253 322.671 235.439 323.484 234.435 323.484C233.432 323.484 232.618 322.671 232.618 321.667C232.618 320.663 233.432 319.85 234.435 319.85C235.439 319.85 236.253 320.663 236.253 321.667Z" fill="url(#paint118_linear_397_3185)"/>
<path d="M265.33 321.667C265.33 322.671 264.516 323.484 263.513 323.484C262.509 323.484 261.695 322.671 261.695 321.667C261.695 320.663 262.509 319.85 263.513 319.85C264.516 319.85 265.33 320.663 265.33 321.667Z" fill="url(#paint119_linear_397_3185)"/>
<path d="M3.63466 350.744C3.63466 351.748 2.82101 352.562 1.81733 352.562C0.813645 352.562 0 351.748 0 350.744C0 349.741 0.813645 348.927 1.81733 348.927C2.82101 348.927 3.63466 349.741 3.63466 350.744Z" fill="url(#paint120_linear_397_3185)"/>
<path d="M32.7119 350.744C32.7119 351.748 31.8983 352.562 30.8946 352.562C29.8909 352.562 29.0772 351.748 29.0772 350.744C29.0772 349.741 29.8909 348.927 30.8946 348.927C31.8983 348.927 32.7119 349.741 32.7119 350.744Z" fill="url(#paint121_linear_397_3185)"/>
<path d="M61.7892 350.744C61.7892 351.748 60.9755 352.562 59.9718 352.562C58.9681 352.562 58.1545 351.748 58.1545 350.744C58.1545 349.741 58.9681 348.927 59.9718 348.927C60.9755 348.927 61.7892 349.741 61.7892 350.744Z" fill="url(#paint122_linear_397_3185)"/>
<path d="M90.8664 350.744C90.8664 351.748 90.0528 352.562 89.0491 352.562C88.0454 352.562 87.2317 351.748 87.2317 350.744C87.2317 349.741 88.0454 348.927 89.0491 348.927C90.0528 348.927 90.8664 349.741 90.8664 350.744Z" fill="url(#paint123_linear_397_3185)"/>
<path d="M119.944 350.744C119.944 351.748 119.13 352.562 118.126 352.562C117.123 352.562 116.309 351.748 116.309 350.744C116.309 349.741 117.123 348.927 118.126 348.927C119.13 348.927 119.944 349.741 119.944 350.744Z" fill="url(#paint124_linear_397_3185)"/>
<path d="M149.021 350.744C149.021 351.748 148.207 352.562 147.204 352.562C146.2 352.562 145.386 351.748 145.386 350.744C145.386 349.741 146.2 348.927 147.204 348.927C148.207 348.927 149.021 349.741 149.021 350.744Z" fill="url(#paint125_linear_397_3185)"/>
<path d="M178.098 350.744C178.098 351.748 177.285 352.562 176.281 352.562C175.277 352.562 174.463 351.748 174.463 350.744C174.463 349.741 175.277 348.927 176.281 348.927C177.285 348.927 178.098 349.741 178.098 350.744Z" fill="url(#paint126_linear_397_3185)"/>
<path d="M207.175 350.744C207.175 351.748 206.362 352.562 205.358 352.562C204.354 352.562 203.541 351.748 203.541 350.744C203.541 349.741 204.354 348.927 205.358 348.927C206.362 348.927 207.175 349.741 207.175 350.744Z" fill="url(#paint127_linear_397_3185)"/>
<path d="M236.253 350.744C236.253 351.748 235.439 352.562 234.435 352.562C233.432 352.562 232.618 351.748 232.618 350.744C232.618 349.741 233.432 348.927 234.435 348.927C235.439 348.927 236.253 349.741 236.253 350.744Z" fill="url(#paint128_linear_397_3185)"/>
<path d="M265.33 350.744C265.33 351.748 264.516 352.562 263.513 352.562C262.509 352.562 261.695 351.748 261.695 350.744C261.695 349.741 262.509 348.927 263.513 348.927C264.516 348.927 265.33 349.741 265.33 350.744Z" fill="url(#paint129_linear_397_3185)"/>
</mask>
<g mask="url(#mask0_397_3185)">
<rect x="-6.05762" y="-8.48096" width="278.051" height="368.918" fill="url(#paint130_radial_397_3185)"/>
</g>
<defs>
<linearGradient id="paint0_linear_397_3185" x1="3.02888" y1="8.48087" x2="476.746" y2="352.562" gradientUnits="userSpaceOnUse">
<stop stop-color="#D9D9D9" stop-opacity="0"/>
<stop offset="0.50257" stop-color="#011E0F"/>
<stop offset="1" stop-color="#6D7C74" stop-opacity="0"/>
</linearGradient>
<linearGradient id="paint1_linear_397_3185" x1="3.02888" y1="8.48087" x2="476.746" y2="352.562" gradientUnits="userSpaceOnUse">
<stop stop-color="#D9D9D9" stop-opacity="0"/>
<stop offset="0.50257" stop-color="#011E0F"/>
<stop offset="1" stop-color="#6D7C74" stop-opacity="0"/>
</linearGradient>
<linearGradient id="paint2_linear_397_3185" x1="3.02888" y1="8.48087" x2="476.746" y2="352.562" gradientUnits="userSpaceOnUse">
<stop stop-color="#D9D9D9" stop-opacity="0"/>
<stop offset="0.50257" stop-color="#011E0F"/>
<stop offset="1" stop-color="#6D7C74" stop-opacity="0"/>
</linearGradient>
<linearGradient id="paint3_linear_397_3185" x1="3.02888" y1="8.48087" x2="476.746" y2="352.562" gradientUnits="userSpaceOnUse">
<stop stop-color="#D9D9D9" stop-opacity="0"/>
<stop offset="0.50257" stop-color="#011E0F"/>
<stop offset="1" stop-color="#6D7C74" stop-opacity="0"/>
</linearGradient>
<linearGradient id="paint4_linear_397_3185" x1="3.02888" y1="8.48087" x2="476.746" y2="352.562" gradientUnits="userSpaceOnUse">
<stop stop-color="#D9D9D9" stop-opacity="0"/>
<stop offset="0.50257" stop-color="#011E0F"/>
<stop offset="1" stop-color="#6D7C74" stop-opacity="0"/>
</linearGradient>
<linearGradient id="paint5_linear_397_3185" x1="3.02888" y1="8.48087" x2="476.746" y2="352.562" gradientUnits="userSpaceOnUse">
<stop stop-color="#D9D9D9" stop-opacity="0"/>
<stop offset="0.50257" stop-color="#011E0F"/>
<stop offset="1" stop-color="#6D7C74" stop-opacity="0"/>
</linearGradient>
<linearGradient id="paint6_linear_397_3185" x1="3.02888" y1="8.48087" x2="476.746" y2="352.562" gradientUnits="userSpaceOnUse">
<stop stop-color="#D9D9D9" stop-opacity="0"/>
<stop offset="0.50257" stop-color="#011E0F"/>
<stop offset="1" stop-color="#6D7C74" stop-opacity="0"/>
</linearGradient>
<linearGradient id="paint7_linear_397_3185" x1="3.02888" y1="8.48087" x2="476.746" y2="352.562" gradientUnits="userSpaceOnUse">
<stop stop-color="#D9D9D9" stop-opacity="0"/>
<stop offset="0.50257" stop-color="#011E0F"/>
<stop offset="1" stop-color="#6D7C74" stop-opacity="0"/>
</linearGradient>
<linearGradient id="paint8_linear_397_3185" x1="3.02888" y1="8.48087" x2="476.746" y2="352.562" gradientUnits="userSpaceOnUse">
<stop stop-color="#D9D9D9" stop-opacity="0"/>
<stop offset="0.50257" stop-color="#011E0F"/>
<stop offset="1" stop-color="#6D7C74" stop-opacity="0"/>
</linearGradient>
<linearGradient id="paint9_linear_397_3185" x1="3.02888" y1="8.48087" x2="476.746" y2="352.562" gradientUnits="userSpaceOnUse">
<stop stop-color="#D9D9D9" stop-opacity="0"/>
<stop offset="0.50257" stop-color="#011E0F"/>
<stop offset="1" stop-color="#6D7C74" stop-opacity="0"/>
</linearGradient>
<linearGradient id="paint10_linear_397_3185" x1="3.02888" y1="8.48087" x2="476.746" y2="352.562" gradientUnits="userSpaceOnUse">
<stop stop-color="#D9D9D9" stop-opacity="0"/>
<stop offset="0.50257" stop-color="#011E0F"/>
<stop offset="1" stop-color="#6D7C74" stop-opacity="0"/>
</linearGradient>
<linearGradient id="paint11_linear_397_3185" x1="3.02888" y1="8.48087" x2="476.746" y2="352.562" gradientUnits="userSpaceOnUse">
<stop stop-color="#D9D9D9" stop-opacity="0"/>
<stop offset="0.50257" stop-color="#011E0F"/>
<stop offset="1" stop-color="#6D7C74" stop-opacity="0"/>
</linearGradient>
<linearGradient id="paint12_linear_397_3185" x1="3.02888" y1="8.48087" x2="476.746" y2="352.562" gradientUnits="userSpaceOnUse">
<stop stop-color="#D9D9D9" stop-opacity="0"/>
<stop offset="0.50257" stop-color="#011E0F"/>
<stop offset="1" stop-color="#6D7C74" stop-opacity="0"/>
</linearGradient>
<linearGradient id="paint13_linear_397_3185" x1="3.02888" y1="8.48087" x2="476.746" y2="352.562" gradientUnits="userSpaceOnUse">
<stop stop-color="#D9D9D9" stop-opacity="0"/>
<stop offset="0.50257" stop-color="#011E0F"/>
<stop offset="1" stop-color="#6D7C74" stop-opacity="0"/>
</linearGradient>
<linearGradient id="paint14_linear_397_3185" x1="3.02888" y1="8.48087" x2="476.746" y2="352.562" gradientUnits="userSpaceOnUse">
<stop stop-color="#D9D9D9" stop-opacity="0"/>
<stop offset="0.50257" stop-color="#011E0F"/>
<stop offset="1" stop-color="#6D7C74" stop-opacity="0"/>
</linearGradient>
<linearGradient id="paint15_linear_397_3185" x1="3.02888" y1="8.48087" x2="476.746" y2="352.562" gradientUnits="userSpaceOnUse">
<stop stop-color="#D9D9D9" stop-opacity="0"/>
<stop offset="0.50257" stop-color="#011E0F"/>
<stop offset="1" stop-color="#6D7C74" stop-opacity="0"/>
</linearGradient>
<linearGradient id="paint16_linear_397_3185" x1="3.02888" y1="8.48087" x2="476.746" y2="352.562" gradientUnits="userSpaceOnUse">
<stop stop-color="#D9D9D9" stop-opacity="0"/>
<stop offset="0.50257" stop-color="#011E0F"/>
<stop offset="1" stop-color="#6D7C74" stop-opacity="0"/>
</linearGradient>
<linearGradient id="paint17_linear_397_3185" x1="3.02888" y1="8.48087" x2="476.746" y2="352.562" gradientUnits="userSpaceOnUse">
<stop stop-color="#D9D9D9" stop-opacity="0"/>
<stop offset="0.50257" stop-color="#011E0F"/>
<stop offset="1" stop-color="#6D7C74" stop-opacity="0"/>
</linearGradient>
<linearGradient id="paint18_linear_397_3185" x1="3.02888" y1="8.48087" x2="476.746" y2="352.562" gradientUnits="userSpaceOnUse">
<stop stop-color="#D9D9D9" stop-opacity="0"/>
<stop offset="0.50257" stop-color="#011E0F"/>
<stop offset="1" stop-color="#6D7C74" stop-opacity="0"/>
</linearGradient>
<linearGradient id="paint19_linear_397_3185" x1="3.02888" y1="8.48087" x2="476.746" y2="352.562" gradientUnits="userSpaceOnUse">
<stop stop-color="#D9D9D9" stop-opacity="0"/>
<stop offset="0.50257" stop-color="#011E0F"/>
<stop offset="1" stop-color="#6D7C74" stop-opacity="0"/>
</linearGradient>
<linearGradient id="paint20_linear_397_3185" x1="3.02888" y1="8.48087" x2="476.746" y2="352.562" gradientUnits="userSpaceOnUse">
<stop stop-color="#D9D9D9" stop-opacity="0"/>
<stop offset="0.50257" stop-color="#011E0F"/>
<stop offset="1" stop-color="#6D7C74" stop-opacity="0"/>
</linearGradient>
<linearGradient id="paint21_linear_397_3185" x1="3.02888" y1="8.48087" x2="476.746" y2="352.562" gradientUnits="userSpaceOnUse">
<stop stop-color="#D9D9D9" stop-opacity="0"/>
<stop offset="0.50257" stop-color="#011E0F"/>
<stop offset="1" stop-color="#6D7C74" stop-opacity="0"/>
</linearGradient>
<linearGradient id="paint22_linear_397_3185" x1="3.02888" y1="8.48087" x2="476.746" y2="352.562" gradientUnits="userSpaceOnUse">
<stop stop-color="#D9D9D9" stop-opacity="0"/>
<stop offset="0.50257" stop-color="#011E0F"/>
<stop offset="1" stop-color="#6D7C74" stop-opacity="0"/>
</linearGradient>
<linearGradient id="paint23_linear_397_3185" x1="3.02888" y1="8.48087" x2="476.746" y2="352.562" gradientUnits="userSpaceOnUse">
<stop stop-color="#D9D9D9" stop-opacity="0"/>
<stop offset="0.50257" stop-color="#011E0F"/>
<stop offset="1" stop-color="#6D7C74" stop-opacity="0"/>
</linearGradient>
<linearGradient id="paint24_linear_397_3185" x1="3.02888" y1="8.48087" x2="476.746" y2="352.562" gradientUnits="userSpaceOnUse">
<stop stop-color="#D9D9D9" stop-opacity="0"/>
<stop offset="0.50257" stop-color="#011E0F"/>
<stop offset="1" stop-color="#6D7C74" stop-opacity="0"/>
</linearGradient>
<linearGradient id="paint25_linear_397_3185" x1="3.02888" y1="8.48087" x2="476.746" y2="352.562" gradientUnits="userSpaceOnUse">
<stop stop-color="#D9D9D9" stop-opacity="0"/>
<stop offset="0.50257" stop-color="#011E0F"/>
<stop offset="1" stop-color="#6D7C74" stop-opacity="0"/>
</linearGradient>
<linearGradient id="paint26_linear_397_3185" x1="3.02888" y1="8.48087" x2="476.746" y2="352.562" gradientUnits="userSpaceOnUse">
<stop stop-color="#D9D9D9" stop-opacity="0"/>
<stop offset="0.50257" stop-color="#011E0F"/>
<stop offset="1" stop-color="#6D7C74" stop-opacity="0"/>
</linearGradient>
<linearGradient id="paint27_linear_397_3185" x1="3.02888" y1="8.48087" x2="476.746" y2="352.562" gradientUnits="userSpaceOnUse">
<stop stop-color="#D9D9D9" stop-opacity="0"/>
<stop offset="0.50257" stop-color="#011E0F"/>
<stop offset="1" stop-color="#6D7C74" stop-opacity="0"/>
</linearGradient>
<linearGradient id="paint28_linear_397_3185" x1="3.02888" y1="8.48087" x2="476.746" y2="352.562" gradientUnits="userSpaceOnUse">
<stop stop-color="#D9D9D9" stop-opacity="0"/>
<stop offset="0.50257" stop-color="#011E0F"/>
<stop offset="1" stop-color="#6D7C74" stop-opacity="0"/>
</linearGradient>
<linearGradient id="paint29_linear_397_3185" x1="3.02888" y1="8.48087" x2="476.746" y2="352.562" gradientUnits="userSpaceOnUse">
<stop stop-color="#D9D9D9" stop-opacity="0"/>
<stop offset="0.50257" stop-color="#011E0F"/>
<stop offset="1" stop-color="#6D7C74" stop-opacity="0"/>
</linearGradient>
<linearGradient id="paint30_linear_397_3185" x1="3.02888" y1="8.48087" x2="476.746" y2="352.562" gradientUnits="userSpaceOnUse">
<stop stop-color="#D9D9D9" stop-opacity="0"/>
<stop offset="0.50257" stop-color="#011E0F"/>
<stop offset="1" stop-color="#6D7C74" stop-opacity="0"/>
</linearGradient>
<linearGradient id="paint31_linear_397_3185" x1="3.02888" y1="8.48087" x2="476.746" y2="352.562" gradientUnits="userSpaceOnUse">
<stop stop-color="#D9D9D9" stop-opacity="0"/>
<stop offset="0.50257" stop-color="#011E0F"/>
<stop offset="1" stop-color="#6D7C74" stop-opacity="0"/>
</linearGradient>
<linearGradient id="paint32_linear_397_3185" x1="3.02888" y1="8.48087" x2="476.746" y2="352.562" gradientUnits="userSpaceOnUse">
<stop stop-color="#D9D9D9" stop-opacity="0"/>
<stop offset="0.50257" stop-color="#011E0F"/>
<stop offset="1" stop-color="#6D7C74" stop-opacity="0"/>
</linearGradient>
<linearGradient id="paint33_linear_397_3185" x1="3.02888" y1="8.48087" x2="476.746" y2="352.562" gradientUnits="userSpaceOnUse">
<stop stop-color="#D9D9D9" stop-opacity="0"/>
<stop offset="0.50257" stop-color="#011E0F"/>
<stop offset="1" stop-color="#6D7C74" stop-opacity="0"/>
</linearGradient>
<linearGradient id="paint34_linear_397_3185" x1="3.02888" y1="8.48087" x2="476.746" y2="352.562" gradientUnits="userSpaceOnUse">
<stop stop-color="#D9D9D9" stop-opacity="0"/>
<stop offset="0.50257" stop-color="#011E0F"/>
<stop offset="1" stop-color="#6D7C74" stop-opacity="0"/>
</linearGradient>
<linearGradient id="paint35_linear_397_3185" x1="3.02888" y1="8.48087" x2="476.746" y2="352.562" gradientUnits="userSpaceOnUse">
<stop stop-color="#D9D9D9" stop-opacity="0"/>
<stop offset="0.50257" stop-color="#011E0F"/>
<stop offset="1" stop-color="#6D7C74" stop-opacity="0"/>
</linearGradient>
<linearGradient id="paint36_linear_397_3185" x1="3.02888" y1="8.48087" x2="476.746" y2="352.562" gradientUnits="userSpaceOnUse">
<stop stop-color="#D9D9D9" stop-opacity="0"/>
<stop offset="0.50257" stop-color="#011E0F"/>
<stop offset="1" stop-color="#6D7C74" stop-opacity="0"/>
</linearGradient>
<linearGradient id="paint37_linear_397_3185" x1="3.02888" y1="8.48087" x2="476.746" y2="352.562" gradientUnits="userSpaceOnUse">
<stop stop-color="#D9D9D9" stop-opacity="0"/>
<stop offset="0.50257" stop-color="#011E0F"/>
<stop offset="1" stop-color="#6D7C74" stop-opacity="0"/>
</linearGradient>
<linearGradient id="paint38_linear_397_3185" x1="3.02888" y1="8.48087" x2="476.746" y2="352.562" gradientUnits="userSpaceOnUse">
<stop stop-color="#D9D9D9" stop-opacity="0"/>
<stop offset="0.50257" stop-color="#011E0F"/>
<stop offset="1" stop-color="#6D7C74" stop-opacity="0"/>
</linearGradient>
<linearGradient id="paint39_linear_397_3185" x1="3.02888" y1="8.48087" x2="476.746" y2="352.562" gradientUnits="userSpaceOnUse">
<stop stop-color="#D9D9D9" stop-opacity="0"/>
<stop offset="0.50257" stop-color="#011E0F"/>
<stop offset="1" stop-color="#6D7C74" stop-opacity="0"/>
</linearGradient>
<linearGradient id="paint40_linear_397_3185" x1="3.02888" y1="8.48087" x2="476.746" y2="352.562" gradientUnits="userSpaceOnUse">
<stop stop-color="#D9D9D9" stop-opacity="0"/>
<stop offset="0.50257" stop-color="#011E0F"/>
<stop offset="1" stop-color="#6D7C74" stop-opacity="0"/>
</linearGradient>
<linearGradient id="paint41_linear_397_3185" x1="3.02888" y1="8.48087" x2="476.746" y2="352.562" gradientUnits="userSpaceOnUse">
<stop stop-color="#D9D9D9" stop-opacity="0"/>
<stop offset="0.50257" stop-color="#011E0F"/>
<stop offset="1" stop-color="#6D7C74" stop-opacity="0"/>
</linearGradient>
<linearGradient id="paint42_linear_397_3185" x1="3.02888" y1="8.48087" x2="476.746" y2="352.562" gradientUnits="userSpaceOnUse">
<stop stop-color="#D9D9D9" stop-opacity="0"/>
<stop offset="0.50257" stop-color="#011E0F"/>
<stop offset="1" stop-color="#6D7C74" stop-opacity="0"/>
</linearGradient>
<linearGradient id="paint43_linear_397_3185" x1="3.02888" y1="8.48087" x2="476.746" y2="352.562" gradientUnits="userSpaceOnUse">
<stop stop-color="#D9D9D9" stop-opacity="0"/>
<stop offset="0.50257" stop-color="#011E0F"/>
<stop offset="1" stop-color="#6D7C74" stop-opacity="0"/>
</linearGradient>
<linearGradient id="paint44_linear_397_3185" x1="3.02888" y1="8.48087" x2="476.746" y2="352.562" gradientUnits="userSpaceOnUse">
<stop stop-color="#D9D9D9" stop-opacity="0"/>
<stop offset="0.50257" stop-color="#011E0F"/>
<stop offset="1" stop-color="#6D7C74" stop-opacity="0"/>
</linearGradient>
<linearGradient id="paint45_linear_397_3185" x1="3.02888" y1="8.48087" x2="476.746" y2="352.562" gradientUnits="userSpaceOnUse">
<stop stop-color="#D9D9D9" stop-opacity="0"/>
<stop offset="0.50257" stop-color="#011E0F"/>
<stop offset="1" stop-color="#6D7C74" stop-opacity="0"/>
</linearGradient>
<linearGradient id="paint46_linear_397_3185" x1="3.02888" y1="8.48087" x2="476.746" y2="352.562" gradientUnits="userSpaceOnUse">
<stop stop-color="#D9D9D9" stop-opacity="0"/>
<stop offset="0.50257" stop-color="#011E0F"/>
<stop offset="1" stop-color="#6D7C74" stop-opacity="0"/>
</linearGradient>
<linearGradient id="paint47_linear_397_3185" x1="3.02888" y1="8.48087" x2="476.746" y2="352.562" gradientUnits="userSpaceOnUse">
<stop stop-color="#D9D9D9" stop-opacity="0"/>
<stop offset="0.50257" stop-color="#011E0F"/>
<stop offset="1" stop-color="#6D7C74" stop-opacity="0"/>
</linearGradient>
<linearGradient id="paint48_linear_397_3185" x1="3.02888" y1="8.48087" x2="476.746" y2="352.562" gradientUnits="userSpaceOnUse">
<stop stop-color="#D9D9D9" stop-opacity="0"/>
<stop offset="0.50257" stop-color="#011E0F"/>
<stop offset="1" stop-color="#6D7C74" stop-opacity="0"/>
</linearGradient>
<linearGradient id="paint49_linear_397_3185" x1="3.02888" y1="8.48087" x2="476.746" y2="352.562" gradientUnits="userSpaceOnUse">
<stop stop-color="#D9D9D9" stop-opacity="0"/>
<stop offset="0.50257" stop-color="#011E0F"/>
<stop offset="1" stop-color="#6D7C74" stop-opacity="0"/>
</linearGradient>
<linearGradient id="paint50_linear_397_3185" x1="3.02888" y1="8.48087" x2="476.746" y2="352.562" gradientUnits="userSpaceOnUse">
<stop stop-color="#D9D9D9" stop-opacity="0"/>
<stop offset="0.50257" stop-color="#011E0F"/>
<stop offset="1" stop-color="#6D7C74" stop-opacity="0"/>
</linearGradient>
<linearGradient id="paint51_linear_397_3185" x1="3.02888" y1="8.48087" x2="476.746" y2="352.562" gradientUnits="userSpaceOnUse">
<stop stop-color="#D9D9D9" stop-opacity="0"/>
<stop offset="0.50257" stop-color="#011E0F"/>
<stop offset="1" stop-color="#6D7C74" stop-opacity="0"/>
</linearGradient>
<linearGradient id="paint52_linear_397_3185" x1="3.02888" y1="8.48087" x2="476.746" y2="352.562" gradientUnits="userSpaceOnUse">
<stop stop-color="#D9D9D9" stop-opacity="0"/>
<stop offset="0.50257" stop-color="#011E0F"/>
<stop offset="1" stop-color="#6D7C74" stop-opacity="0"/>
</linearGradient>
<linearGradient id="paint53_linear_397_3185" x1="3.02888" y1="8.48087" x2="476.746" y2="352.562" gradientUnits="userSpaceOnUse">
<stop stop-color="#D9D9D9" stop-opacity="0"/>
<stop offset="0.50257" stop-color="#011E0F"/>
<stop offset="1" stop-color="#6D7C74" stop-opacity="0"/>
</linearGradient>
<linearGradient id="paint54_linear_397_3185" x1="3.02888" y1="8.48087" x2="476.746" y2="352.562" gradientUnits="userSpaceOnUse">
<stop stop-color="#D9D9D9" stop-opacity="0"/>
<stop offset="0.50257" stop-color="#011E0F"/>
<stop offset="1" stop-color="#6D7C74" stop-opacity="0"/>
</linearGradient>
<linearGradient id="paint55_linear_397_3185" x1="3.02888" y1="8.48087" x2="476.746" y2="352.562" gradientUnits="userSpaceOnUse">
<stop stop-color="#D9D9D9" stop-opacity="0"/>
<stop offset="0.50257" stop-color="#011E0F"/>
<stop offset="1" stop-color="#6D7C74" stop-opacity="0"/>
</linearGradient>
<linearGradient id="paint56_linear_397_3185" x1="3.02888" y1="8.48087" x2="476.746" y2="352.562" gradientUnits="userSpaceOnUse">
<stop stop-color="#D9D9D9" stop-opacity="0"/>
<stop offset="0.50257" stop-color="#011E0F"/>
<stop offset="1" stop-color="#6D7C74" stop-opacity="0"/>
</linearGradient>
<linearGradient id="paint57_linear_397_3185" x1="3.02888" y1="8.48087" x2="476.746" y2="352.562" gradientUnits="userSpaceOnUse">
<stop stop-color="#D9D9D9" stop-opacity="0"/>
<stop offset="0.50257" stop-color="#011E0F"/>
<stop offset="1" stop-color="#6D7C74" stop-opacity="0"/>
</linearGradient>
<linearGradient id="paint58_linear_397_3185" x1="3.02888" y1="8.48087" x2="476.746" y2="352.562" gradientUnits="userSpaceOnUse">
<stop stop-color="#D9D9D9" stop-opacity="0"/>
<stop offset="0.50257" stop-color="#011E0F"/>
<stop offset="1" stop-color="#6D7C74" stop-opacity="0"/>
</linearGradient>
<linearGradient id="paint59_linear_397_3185" x1="3.02888" y1="8.48087" x2="476.746" y2="352.562" gradientUnits="userSpaceOnUse">
<stop stop-color="#D9D9D9" stop-opacity="0"/>
<stop offset="0.50257" stop-color="#011E0F"/>
<stop offset="1" stop-color="#6D7C74" stop-opacity="0"/>
</linearGradient>
<linearGradient id="paint60_linear_397_3185" x1="3.02888" y1="8.48087" x2="476.746" y2="352.562" gradientUnits="userSpaceOnUse">
<stop stop-color="#D9D9D9" stop-opacity="0"/>
<stop offset="0.50257" stop-color="#011E0F"/>
<stop offset="1" stop-color="#6D7C74" stop-opacity="0"/>
</linearGradient>
<linearGradient id="paint61_linear_397_3185" x1="3.02888" y1="8.48087" x2="476.746" y2="352.562" gradientUnits="userSpaceOnUse">
<stop stop-color="#D9D9D9" stop-opacity="0"/>
<stop offset="0.50257" stop-color="#011E0F"/>
<stop offset="1" stop-color="#6D7C74" stop-opacity="0"/>
</linearGradient>
<linearGradient id="paint62_linear_397_3185" x1="3.02888" y1="8.48087" x2="476.746" y2="352.562" gradientUnits="userSpaceOnUse">
<stop stop-color="#D9D9D9" stop-opacity="0"/>
<stop offset="0.50257" stop-color="#011E0F"/>
<stop offset="1" stop-color="#6D7C74" stop-opacity="0"/>
</linearGradient>
<linearGradient id="paint63_linear_397_3185" x1="3.02888" y1="8.48087" x2="476.746" y2="352.562" gradientUnits="userSpaceOnUse">
<stop stop-color="#D9D9D9" stop-opacity="0"/>
<stop offset="0.50257" stop-color="#011E0F"/>
<stop offset="1" stop-color="#6D7C74" stop-opacity="0"/>
</linearGradient>
<linearGradient id="paint64_linear_397_3185" x1="3.02888" y1="8.48087" x2="476.746" y2="352.562" gradientUnits="userSpaceOnUse">
<stop stop-color="#D9D9D9" stop-opacity="0"/>
<stop offset="0.50257" stop-color="#011E0F"/>
<stop offset="1" stop-color="#6D7C74" stop-opacity="0"/>
</linearGradient>
<linearGradient id="paint65_linear_397_3185" x1="3.02888" y1="8.48087" x2="476.746" y2="352.562" gradientUnits="userSpaceOnUse">
<stop stop-color="#D9D9D9" stop-opacity="0"/>
<stop offset="0.50257" stop-color="#011E0F"/>
<stop offset="1" stop-color="#6D7C74" stop-opacity="0"/>
</linearGradient>
<linearGradient id="paint66_linear_397_3185" x1="3.02888" y1="8.48087" x2="476.746" y2="352.562" gradientUnits="userSpaceOnUse">
<stop stop-color="#D9D9D9" stop-opacity="0"/>
<stop offset="0.50257" stop-color="#011E0F"/>
<stop offset="1" stop-color="#6D7C74" stop-opacity="0"/>
</linearGradient>
<linearGradient id="paint67_linear_397_3185" x1="3.02888" y1="8.48087" x2="476.746" y2="352.562" gradientUnits="userSpaceOnUse">
<stop stop-color="#D9D9D9" stop-opacity="0"/>
<stop offset="0.50257" stop-color="#011E0F"/>
<stop offset="1" stop-color="#6D7C74" stop-opacity="0"/>
</linearGradient>
<linearGradient id="paint68_linear_397_3185" x1="3.02888" y1="8.48087" x2="476.746" y2="352.562" gradientUnits="userSpaceOnUse">
<stop stop-color="#D9D9D9" stop-opacity="0"/>
<stop offset="0.50257" stop-color="#011E0F"/>
<stop offset="1" stop-color="#6D7C74" stop-opacity="0"/>
</linearGradient>
<linearGradient id="paint69_linear_397_3185" x1="3.02888" y1="8.48087" x2="476.746" y2="352.562" gradientUnits="userSpaceOnUse">
<stop stop-color="#D9D9D9" stop-opacity="0"/>
<stop offset="0.50257" stop-color="#011E0F"/>
<stop offset="1" stop-color="#6D7C74" stop-opacity="0"/>
</linearGradient>
<linearGradient id="paint70_linear_397_3185" x1="3.02888" y1="8.48087" x2="476.746" y2="352.562" gradientUnits="userSpaceOnUse">
<stop stop-color="#D9D9D9" stop-opacity="0"/>
<stop offset="0.50257" stop-color="#011E0F"/>
<stop offset="1" stop-color="#6D7C74" stop-opacity="0"/>
</linearGradient>
<linearGradient id="paint71_linear_397_3185" x1="3.02888" y1="8.48087" x2="476.746" y2="352.562" gradientUnits="userSpaceOnUse">
<stop stop-color="#D9D9D9" stop-opacity="0"/>
<stop offset="0.50257" stop-color="#011E0F"/>
<stop offset="1" stop-color="#6D7C74" stop-opacity="0"/>
</linearGradient>
<linearGradient id="paint72_linear_397_3185" x1="3.02888" y1="8.48087" x2="476.746" y2="352.562" gradientUnits="userSpaceOnUse">
<stop stop-color="#D9D9D9" stop-opacity="0"/>
<stop offset="0.50257" stop-color="#011E0F"/>
<stop offset="1" stop-color="#6D7C74" stop-opacity="0"/>
</linearGradient>
<linearGradient id="paint73_linear_397_3185" x1="3.02888" y1="8.48087" x2="476.746" y2="352.562" gradientUnits="userSpaceOnUse">
<stop stop-color="#D9D9D9" stop-opacity="0"/>
<stop offset="0.50257" stop-color="#011E0F"/>
<stop offset="1" stop-color="#6D7C74" stop-opacity="0"/>
</linearGradient>
<linearGradient id="paint74_linear_397_3185" x1="3.02888" y1="8.48087" x2="476.746" y2="352.562" gradientUnits="userSpaceOnUse">
<stop stop-color="#D9D9D9" stop-opacity="0"/>
<stop offset="0.50257" stop-color="#011E0F"/>
<stop offset="1" stop-color="#6D7C74" stop-opacity="0"/>
</linearGradient>
<linearGradient id="paint75_linear_397_3185" x1="3.02888" y1="8.48087" x2="476.746" y2="352.562" gradientUnits="userSpaceOnUse">
<stop stop-color="#D9D9D9" stop-opacity="0"/>
<stop offset="0.50257" stop-color="#011E0F"/>
<stop offset="1" stop-color="#6D7C74" stop-opacity="0"/>
</linearGradient>
<linearGradient id="paint76_linear_397_3185" x1="3.02888" y1="8.48087" x2="476.746" y2="352.562" gradientUnits="userSpaceOnUse">
<stop stop-color="#D9D9D9" stop-opacity="0"/>
<stop offset="0.50257" stop-color="#011E0F"/>
<stop offset="1" stop-color="#6D7C74" stop-opacity="0"/>
</linearGradient>
<linearGradient id="paint77_linear_397_3185" x1="3.02888" y1="8.48087" x2="476.746" y2="352.562" gradientUnits="userSpaceOnUse">
<stop stop-color="#D9D9D9" stop-opacity="0"/>
<stop offset="0.50257" stop-color="#011E0F"/>
<stop offset="1" stop-color="#6D7C74" stop-opacity="0"/>
</linearGradient>
<linearGradient id="paint78_linear_397_3185" x1="3.02888" y1="8.48087" x2="476.746" y2="352.562" gradientUnits="userSpaceOnUse">
<stop stop-color="#D9D9D9" stop-opacity="0"/>
<stop offset="0.50257" stop-color="#011E0F"/>
<stop offset="1" stop-color="#6D7C74" stop-opacity="0"/>
</linearGradient>
<linearGradient id="paint79_linear_397_3185" x1="3.02888" y1="8.48087" x2="476.746" y2="352.562" gradientUnits="userSpaceOnUse">
<stop stop-color="#D9D9D9" stop-opacity="0"/>
<stop offset="0.50257" stop-color="#011E0F"/>
<stop offset="1" stop-color="#6D7C74" stop-opacity="0"/>
</linearGradient>
<linearGradient id="paint80_linear_397_3185" x1="3.02888" y1="8.48087" x2="476.746" y2="352.562" gradientUnits="userSpaceOnUse">
<stop stop-color="#D9D9D9" stop-opacity="0"/>
<stop offset="0.50257" stop-color="#011E0F"/>
<stop offset="1" stop-color="#6D7C74" stop-opacity="0"/>
</linearGradient>
<linearGradient id="paint81_linear_397_3185" x1="3.02888" y1="8.48087" x2="476.746" y2="352.562" gradientUnits="userSpaceOnUse">
<stop stop-color="#D9D9D9" stop-opacity="0"/>
<stop offset="0.50257" stop-color="#011E0F"/>
<stop offset="1" stop-color="#6D7C74" stop-opacity="0"/>
</linearGradient>
<linearGradient id="paint82_linear_397_3185" x1="3.02888" y1="8.48087" x2="476.746" y2="352.562" gradientUnits="userSpaceOnUse">
<stop stop-color="#D9D9D9" stop-opacity="0"/>
<stop offset="0.50257" stop-color="#011E0F"/>
<stop offset="1" stop-color="#6D7C74" stop-opacity="0"/>
</linearGradient>
<linearGradient id="paint83_linear_397_3185" x1="3.02888" y1="8.48087" x2="476.746" y2="352.562" gradientUnits="userSpaceOnUse">
<stop stop-color="#D9D9D9" stop-opacity="0"/>
<stop offset="0.50257" stop-color="#011E0F"/>
<stop offset="1" stop-color="#6D7C74" stop-opacity="0"/>
</linearGradient>
<linearGradient id="paint84_linear_397_3185" x1="3.02888" y1="8.48087" x2="476.746" y2="352.562" gradientUnits="userSpaceOnUse">
<stop stop-color="#D9D9D9" stop-opacity="0"/>
<stop offset="0.50257" stop-color="#011E0F"/>
<stop offset="1" stop-color="#6D7C74" stop-opacity="0"/>
</linearGradient>
<linearGradient id="paint85_linear_397_3185" x1="3.02888" y1="8.48087" x2="476.746" y2="352.562" gradientUnits="userSpaceOnUse">
<stop stop-color="#D9D9D9" stop-opacity="0"/>
<stop offset="0.50257" stop-color="#011E0F"/>
<stop offset="1" stop-color="#6D7C74" stop-opacity="0"/>
</linearGradient>
<linearGradient id="paint86_linear_397_3185" x1="3.02888" y1="8.48087" x2="476.746" y2="352.562" gradientUnits="userSpaceOnUse">
<stop stop-color="#D9D9D9" stop-opacity="0"/>
<stop offset="0.50257" stop-color="#011E0F"/>
<stop offset="1" stop-color="#6D7C74" stop-opacity="0"/>
</linearGradient>
<linearGradient id="paint87_linear_397_3185" x1="3.02888" y1="8.48087" x2="476.746" y2="352.562" gradientUnits="userSpaceOnUse">
<stop stop-color="#D9D9D9" stop-opacity="0"/>
<stop offset="0.50257" stop-color="#011E0F"/>
<stop offset="1" stop-color="#6D7C74" stop-opacity="0"/>
</linearGradient>
<linearGradient id="paint88_linear_397_3185" x1="3.02888" y1="8.48087" x2="476.746" y2="352.562" gradientUnits="userSpaceOnUse">
<stop stop-color="#D9D9D9" stop-opacity="0"/>
<stop offset="0.50257" stop-color="#011E0F"/>
<stop offset="1" stop-color="#6D7C74" stop-opacity="0"/>
</linearGradient>
<linearGradient id="paint89_linear_397_3185" x1="3.02888" y1="8.48087" x2="476.746" y2="352.562" gradientUnits="userSpaceOnUse">
<stop stop-color="#D9D9D9" stop-opacity="0"/>
<stop offset="0.50257" stop-color="#011E0F"/>
<stop offset="1" stop-color="#6D7C74" stop-opacity="0"/>
</linearGradient>
<linearGradient id="paint90_linear_397_3185" x1="3.02888" y1="8.48087" x2="476.746" y2="352.562" gradientUnits="userSpaceOnUse">
<stop stop-color="#D9D9D9" stop-opacity="0"/>
<stop offset="0.50257" stop-color="#011E0F"/>
<stop offset="1" stop-color="#6D7C74" stop-opacity="0"/>
</linearGradient>
<linearGradient id="paint91_linear_397_3185" x1="3.02888" y1="8.48087" x2="476.746" y2="352.562" gradientUnits="userSpaceOnUse">
<stop stop-color="#D9D9D9" stop-opacity="0"/>
<stop offset="0.50257" stop-color="#011E0F"/>
<stop offset="1" stop-color="#6D7C74" stop-opacity="0"/>
</linearGradient>
<linearGradient id="paint92_linear_397_3185" x1="3.02888" y1="8.48087" x2="476.746" y2="352.562" gradientUnits="userSpaceOnUse">
<stop stop-color="#D9D9D9" stop-opacity="0"/>
<stop offset="0.50257" stop-color="#011E0F"/>
<stop offset="1" stop-color="#6D7C74" stop-opacity="0"/>
</linearGradient>
<linearGradient id="paint93_linear_397_3185" x1="3.02888" y1="8.48087" x2="476.746" y2="352.562" gradientUnits="userSpaceOnUse">
<stop stop-color="#D9D9D9" stop-opacity="0"/>
<stop offset="0.50257" stop-color="#011E0F"/>
<stop offset="1" stop-color="#6D7C74" stop-opacity="0"/>
</linearGradient>
<linearGradient id="paint94_linear_397_3185" x1="3.02888" y1="8.48087" x2="476.746" y2="352.562" gradientUnits="userSpaceOnUse">
<stop stop-color="#D9D9D9" stop-opacity="0"/>
<stop offset="0.50257" stop-color="#011E0F"/>
<stop offset="1" stop-color="#6D7C74" stop-opacity="0"/>
</linearGradient>
<linearGradient id="paint95_linear_397_3185" x1="3.02888" y1="8.48087" x2="476.746" y2="352.562" gradientUnits="userSpaceOnUse">
<stop stop-color="#D9D9D9" stop-opacity="0"/>
<stop offset="0.50257" stop-color="#011E0F"/>
<stop offset="1" stop-color="#6D7C74" stop-opacity="0"/>
</linearGradient>
<linearGradient id="paint96_linear_397_3185" x1="3.02888" y1="8.48087" x2="476.746" y2="352.562" gradientUnits="userSpaceOnUse">
<stop stop-color="#D9D9D9" stop-opacity="0"/>
<stop offset="0.50257" stop-color="#011E0F"/>
<stop offset="1" stop-color="#6D7C74" stop-opacity="0"/>
</linearGradient>
<linearGradient id="paint97_linear_397_3185" x1="3.02888" y1="8.48087" x2="476.746" y2="352.562" gradientUnits="userSpaceOnUse">
<stop stop-color="#D9D9D9" stop-opacity="0"/>
<stop offset="0.50257" stop-color="#011E0F"/>
<stop offset="1" stop-color="#6D7C74" stop-opacity="0"/>
</linearGradient>
<linearGradient id="paint98_linear_397_3185" x1="3.02888" y1="8.48087" x2="476.746" y2="352.562" gradientUnits="userSpaceOnUse">
<stop stop-color="#D9D9D9" stop-opacity="0"/>
<stop offset="0.50257" stop-color="#011E0F"/>
<stop offset="1" stop-color="#6D7C74" stop-opacity="0"/>
</linearGradient>
<linearGradient id="paint99_linear_397_3185" x1="3.02888" y1="8.48087" x2="476.746" y2="352.562" gradientUnits="userSpaceOnUse">
<stop stop-color="#D9D9D9" stop-opacity="0"/>
<stop offset="0.50257" stop-color="#011E0F"/>
<stop offset="1" stop-color="#6D7C74" stop-opacity="0"/>
</linearGradient>
<linearGradient id="paint100_linear_397_3185" x1="3.02888" y1="8.48087" x2="476.746" y2="352.562" gradientUnits="userSpaceOnUse">
<stop stop-color="#D9D9D9" stop-opacity="0"/>
<stop offset="0.50257" stop-color="#011E0F"/>
<stop offset="1" stop-color="#6D7C74" stop-opacity="0"/>
</linearGradient>
<linearGradient id="paint101_linear_397_3185" x1="3.02888" y1="8.48087" x2="476.746" y2="352.562" gradientUnits="userSpaceOnUse">
<stop stop-color="#D9D9D9" stop-opacity="0"/>
<stop offset="0.50257" stop-color="#011E0F"/>
<stop offset="1" stop-color="#6D7C74" stop-opacity="0"/>
</linearGradient>
<linearGradient id="paint102_linear_397_3185" x1="3.02888" y1="8.48087" x2="476.746" y2="352.562" gradientUnits="userSpaceOnUse">
<stop stop-color="#D9D9D9" stop-opacity="0"/>
<stop offset="0.50257" stop-color="#011E0F"/>
<stop offset="1" stop-color="#6D7C74" stop-opacity="0"/>
</linearGradient>
<linearGradient id="paint103_linear_397_3185" x1="3.02888" y1="8.48087" x2="476.746" y2="352.562" gradientUnits="userSpaceOnUse">
<stop stop-color="#D9D9D9" stop-opacity="0"/>
<stop offset="0.50257" stop-color="#011E0F"/>
<stop offset="1" stop-color="#6D7C74" stop-opacity="0"/>
</linearGradient>
<linearGradient id="paint104_linear_397_3185" x1="3.02888" y1="8.48087" x2="476.746" y2="352.562" gradientUnits="userSpaceOnUse">
<stop stop-color="#D9D9D9" stop-opacity="0"/>
<stop offset="0.50257" stop-color="#011E0F"/>
<stop offset="1" stop-color="#6D7C74" stop-opacity="0"/>
</linearGradient>
<linearGradient id="paint105_linear_397_3185" x1="3.02888" y1="8.48087" x2="476.746" y2="352.562" gradientUnits="userSpaceOnUse">
<stop stop-color="#D9D9D9" stop-opacity="0"/>
<stop offset="0.50257" stop-color="#011E0F"/>
<stop offset="1" stop-color="#6D7C74" stop-opacity="0"/>
</linearGradient>
<linearGradient id="paint106_linear_397_3185" x1="3.02888" y1="8.48087" x2="476.746" y2="352.562" gradientUnits="userSpaceOnUse">
<stop stop-color="#D9D9D9" stop-opacity="0"/>
<stop offset="0.50257" stop-color="#011E0F"/>
<stop offset="1" stop-color="#6D7C74" stop-opacity="0"/>
</linearGradient>
<linearGradient id="paint107_linear_397_3185" x1="3.02888" y1="8.48087" x2="476.746" y2="352.562" gradientUnits="userSpaceOnUse">
<stop stop-color="#D9D9D9" stop-opacity="0"/>
<stop offset="0.50257" stop-color="#011E0F"/>
<stop offset="1" stop-color="#6D7C74" stop-opacity="0"/>
</linearGradient>
<linearGradient id="paint108_linear_397_3185" x1="3.02888" y1="8.48087" x2="476.746" y2="352.562" gradientUnits="userSpaceOnUse">
<stop stop-color="#D9D9D9" stop-opacity="0"/>
<stop offset="0.50257" stop-color="#011E0F"/>
<stop offset="1" stop-color="#6D7C74" stop-opacity="0"/>
</linearGradient>
<linearGradient id="paint109_linear_397_3185" x1="3.02888" y1="8.48087" x2="476.746" y2="352.562" gradientUnits="userSpaceOnUse">
<stop stop-color="#D9D9D9" stop-opacity="0"/>
<stop offset="0.50257" stop-color="#011E0F"/>
<stop offset="1" stop-color="#6D7C74" stop-opacity="0"/>
</linearGradient>
<linearGradient id="paint110_linear_397_3185" x1="3.02888" y1="8.48087" x2="476.746" y2="352.562" gradientUnits="userSpaceOnUse">
<stop stop-color="#D9D9D9" stop-opacity="0"/>
<stop offset="0.50257" stop-color="#011E0F"/>
<stop offset="1" stop-color="#6D7C74" stop-opacity="0"/>
</linearGradient>
<linearGradient id="paint111_linear_397_3185" x1="3.02888" y1="8.48087" x2="476.746" y2="352.562" gradientUnits="userSpaceOnUse">
<stop stop-color="#D9D9D9" stop-opacity="0"/>
<stop offset="0.50257" stop-color="#011E0F"/>
<stop offset="1" stop-color="#6D7C74" stop-opacity="0"/>
</linearGradient>
<linearGradient id="paint112_linear_397_3185" x1="3.02888" y1="8.48087" x2="476.746" y2="352.562" gradientUnits="userSpaceOnUse">
<stop stop-color="#D9D9D9" stop-opacity="0"/>
<stop offset="0.50257" stop-color="#011E0F"/>
<stop offset="1" stop-color="#6D7C74" stop-opacity="0"/>
</linearGradient>
<linearGradient id="paint113_linear_397_3185" x1="3.02888" y1="8.48087" x2="476.746" y2="352.562" gradientUnits="userSpaceOnUse">
<stop stop-color="#D9D9D9" stop-opacity="0"/>
<stop offset="0.50257" stop-color="#011E0F"/>
<stop offset="1" stop-color="#6D7C74" stop-opacity="0"/>
</linearGradient>
<linearGradient id="paint114_linear_397_3185" x1="3.02888" y1="8.48087" x2="476.746" y2="352.562" gradientUnits="userSpaceOnUse">
<stop stop-color="#D9D9D9" stop-opacity="0"/>
<stop offset="0.50257" stop-color="#011E0F"/>
<stop offset="1" stop-color="#6D7C74" stop-opacity="0"/>
</linearGradient>
<linearGradient id="paint115_linear_397_3185" x1="3.02888" y1="8.48087" x2="476.746" y2="352.562" gradientUnits="userSpaceOnUse">
<stop stop-color="#D9D9D9" stop-opacity="0"/>
<stop offset="0.50257" stop-color="#011E0F"/>
<stop offset="1" stop-color="#6D7C74" stop-opacity="0"/>
</linearGradient>
<linearGradient id="paint116_linear_397_3185" x1="3.02888" y1="8.48087" x2="476.746" y2="352.562" gradientUnits="userSpaceOnUse">
<stop stop-color="#D9D9D9" stop-opacity="0"/>
<stop offset="0.50257" stop-color="#011E0F"/>
<stop offset="1" stop-color="#6D7C74" stop-opacity="0"/>
</linearGradient>
<linearGradient id="paint117_linear_397_3185" x1="3.02888" y1="8.48087" x2="476.746" y2="352.562" gradientUnits="userSpaceOnUse">
<stop stop-color="#D9D9D9" stop-opacity="0"/>
<stop offset="0.50257" stop-color="#011E0F"/>
<stop offset="1" stop-color="#6D7C74" stop-opacity="0"/>
</linearGradient>
<linearGradient id="paint118_linear_397_3185" x1="3.02888" y1="8.48087" x2="476.746" y2="352.562" gradientUnits="userSpaceOnUse">
<stop stop-color="#D9D9D9" stop-opacity="0"/>
<stop offset="0.50257" stop-color="#011E0F"/>
<stop offset="1" stop-color="#6D7C74" stop-opacity="0"/>
</linearGradient>
<linearGradient id="paint119_linear_397_3185" x1="3.02888" y1="8.48087" x2="476.746" y2="352.562" gradientUnits="userSpaceOnUse">
<stop stop-color="#D9D9D9" stop-opacity="0"/>
<stop offset="0.50257" stop-color="#011E0F"/>
<stop offset="1" stop-color="#6D7C74" stop-opacity="0"/>
</linearGradient>
<linearGradient id="paint120_linear_397_3185" x1="3.02888" y1="8.48087" x2="476.746" y2="352.562" gradientUnits="userSpaceOnUse">
<stop stop-color="#D9D9D9" stop-opacity="0"/>
<stop offset="0.50257" stop-color="#011E0F"/>
<stop offset="1" stop-color="#6D7C74" stop-opacity="0"/>
</linearGradient>
<linearGradient id="paint121_linear_397_3185" x1="3.02888" y1="8.48087" x2="476.746" y2="352.562" gradientUnits="userSpaceOnUse">
<stop stop-color="#D9D9D9" stop-opacity="0"/>
<stop offset="0.50257" stop-color="#011E0F"/>
<stop offset="1" stop-color="#6D7C74" stop-opacity="0"/>
</linearGradient>
<linearGradient id="paint122_linear_397_3185" x1="3.02888" y1="8.48087" x2="476.746" y2="352.562" gradientUnits="userSpaceOnUse">
<stop stop-color="#D9D9D9" stop-opacity="0"/>
<stop offset="0.50257" stop-color="#011E0F"/>
<stop offset="1" stop-color="#6D7C74" stop-opacity="0"/>
</linearGradient>
<linearGradient id="paint123_linear_397_3185" x1="3.02888" y1="8.48087" x2="476.746" y2="352.562" gradientUnits="userSpaceOnUse">
<stop stop-color="#D9D9D9" stop-opacity="0"/>
<stop offset="0.50257" stop-color="#011E0F"/>
<stop offset="1" stop-color="#6D7C74" stop-opacity="0"/>
</linearGradient>
<linearGradient id="paint124_linear_397_3185" x1="3.02888" y1="8.48087" x2="476.746" y2="352.562" gradientUnits="userSpaceOnUse">
<stop stop-color="#D9D9D9" stop-opacity="0"/>
<stop offset="0.50257" stop-color="#011E0F"/>
<stop offset="1" stop-color="#6D7C74" stop-opacity="0"/>
</linearGradient>
<linearGradient id="paint125_linear_397_3185" x1="3.02888" y1="8.48087" x2="476.746" y2="352.562" gradientUnits="userSpaceOnUse">
<stop stop-color="#D9D9D9" stop-opacity="0"/>
<stop offset="0.50257" stop-color="#011E0F"/>
<stop offset="1" stop-color="#6D7C74" stop-opacity="0"/>
</linearGradient>
<linearGradient id="paint126_linear_397_3185" x1="3.02888" y1="8.48087" x2="476.746" y2="352.562" gradientUnits="userSpaceOnUse">
<stop stop-color="#D9D9D9" stop-opacity="0"/>
<stop offset="0.50257" stop-color="#011E0F"/>
<stop offset="1" stop-color="#6D7C74" stop-opacity="0"/>
</linearGradient>
<linearGradient id="paint127_linear_397_3185" x1="3.02888" y1="8.48087" x2="476.746" y2="352.562" gradientUnits="userSpaceOnUse">
<stop stop-color="#D9D9D9" stop-opacity="0"/>
<stop offset="0.50257" stop-color="#011E0F"/>
<stop offset="1" stop-color="#6D7C74" stop-opacity="0"/>
</linearGradient>
<linearGradient id="paint128_linear_397_3185" x1="3.02888" y1="8.48087" x2="476.746" y2="352.562" gradientUnits="userSpaceOnUse">
<stop stop-color="#D9D9D9" stop-opacity="0"/>
<stop offset="0.50257" stop-color="#011E0F"/>
<stop offset="1" stop-color="#6D7C74" stop-opacity="0"/>
</linearGradient>
<linearGradient id="paint129_linear_397_3185" x1="3.02888" y1="8.48087" x2="476.746" y2="352.562" gradientUnits="userSpaceOnUse">
<stop stop-color="#D9D9D9" stop-opacity="0"/>
<stop offset="0.50257" stop-color="#011E0F"/>
<stop offset="1" stop-color="#6D7C74" stop-opacity="0"/>
</linearGradient>
<radialGradient id="paint130_radial_397_3185" cx="0" cy="0" r="1" gradientUnits="userSpaceOnUse" gradientTransform="translate(133.33 176) scale(139 199.388)">
<stop offset="0.49743" stop-color="#011E0F"/>
<stop offset="1" stop-color="#D9D9D9" stop-opacity="0"/>
</radialGradient>
</defs>
</svg>
