<svg width="54" height="45" viewBox="0 0 54 45" fill="none" xmlns="http://www.w3.org/2000/svg">
<path fill-rule="evenodd" clip-rule="evenodd" d="M32.9628 10.5637C31.4636 10.0214 30.3153 10.5956 29.0394 10.9783L20.4589 13.6577C20.0442 13.7853 19.9167 13.7853 19.4701 13.881C18.7045 14.0724 18.1623 14.3276 17.4924 14.519L11.7827 16.2733C9.61371 16.9432 7.25328 17.1984 6.87051 19.814C6.71102 21.058 7.18948 22.6848 8.97575 23.4184C10.4111 23.9926 11.7509 23.3865 12.8992 23.0038C13.6328 22.7805 14.1113 22.6848 14.7811 22.3977C16.0889 21.8554 22.5323 20.2287 24.4461 19.4312C25.5625 18.9846 30.6343 17.5492 32.1335 17.1346C36.4396 15.8906 35.6103 11.5206 32.9628 10.5637Z" fill="#02361B"/>
<path fill-rule="evenodd" clip-rule="evenodd" d="M35.2922 21.5365C33.3464 20.6433 30.0929 22.302 27.3178 23.0356L22.0228 24.6624C21.2253 24.9495 20.2684 25.0452 19.5028 25.9383C17.9717 27.7246 18.4502 30.3083 20.683 31.2971C22.3736 32.0627 24.0004 31.042 26.01 30.4997L33.8887 28.1074C34.4947 27.916 35.7388 27.5651 36.3767 26.7996C37.844 25.0771 37.3336 22.5253 35.2922 21.5365Z" fill="#02361B"/>
<path fill-rule="evenodd" clip-rule="evenodd" d="M44.701 18.9528C40.5862 17.326 37.9706 23.3547 42.0854 25.1728C43.7122 25.8746 45.7217 25.3323 46.5511 23.2909C47.1571 21.7917 46.5511 19.6864 44.701 18.9528Z" fill="#02361B"/>
<path fill-rule="evenodd" clip-rule="evenodd" d="M26.0409 0.260714C24.127 -0.632421 20.8416 0.994361 18.0665 1.7599L12.8033 3.38669C11.974 3.67377 11.049 3.76946 10.2834 4.6307C8.72044 6.44886 9.19891 9.03257 11.4317 10.0214C13.1223 10.7869 14.781 9.76622 16.7906 9.19206L24.6693 6.83164C25.2753 6.64025 26.5193 6.28937 27.1573 5.52383C28.6246 3.80136 28.0823 1.21764 26.0409 0.260714Z" fill="#02361B"/>
<path d="M0 44.0808V36.6806H5.83727V37.5418H0.925032V39.7108H3.89152V40.5402H0.925032V43.2196H6.15625V44.0808H0Z" fill="#02361B"/>
<path d="M6.9541 44.0808V38.3392H7.84724V43.2515H12.1215V44.0808H6.9541Z" fill="#02361B"/>
<path d="M15.4708 38.3392C16.3958 38.3392 17.1613 38.6263 17.7355 39.1686C18.3097 39.6789 18.5967 40.3807 18.5967 41.2419C18.5967 42.1032 18.3097 42.8049 17.7674 43.3153C17.1932 43.8256 16.4277 44.0808 15.4708 44.0808H12.9189V38.3392H15.4708ZM15.5027 39.1686H13.8121V43.2515H15.5027C16.1725 43.2515 16.7148 43.092 17.0975 42.7092C17.4803 42.3583 17.6717 41.848 17.6717 41.2419C17.6717 40.6359 17.4803 40.1255 17.0656 39.7427C16.6829 39.36 16.1406 39.1686 15.5027 39.1686Z" fill="#02361B"/>
<path d="M19.3936 44.0808V38.3392H24.7524V39.2005H20.2867V40.6359H23.2213V41.4333H20.2867V43.2515H25.0075V44.0808H19.3936Z" fill="#02361B"/>
<path d="M26.6988 40.7316H29.761C30.08 40.7316 30.3032 40.6678 30.4627 40.5402C30.6222 40.4126 30.7179 40.2212 30.7179 39.966C30.7179 39.7108 30.6222 39.5195 30.4627 39.3919C30.3032 39.2643 30.08 39.2005 29.761 39.2005H26.6988V40.7316ZM26.6988 41.5928V44.0808H25.8057V38.3711H29.761C30.3351 38.3711 30.8136 38.4987 31.1326 38.7858C31.4835 39.0729 31.6429 39.4557 31.6429 39.966C31.6429 40.3807 31.5153 40.7316 31.2283 41.0186C30.9731 41.3057 30.6222 41.4971 30.2075 41.5609L31.8024 44.0808H30.8455L29.2187 41.5928H26.6988Z" fill="#02361B"/>
<path d="M36.4592 43.2196C37.2886 43.2196 37.9584 42.9325 38.5007 42.3583C39.0748 41.8161 39.33 41.0824 39.33 40.2212C39.33 39.328 39.0748 38.5944 38.5326 38.0521C37.9903 37.478 37.2886 37.1909 36.4592 37.1909C35.6299 37.1909 34.9281 37.478 34.3859 38.0521C33.8436 38.6263 33.5565 39.328 33.5565 40.2212C33.5565 41.0824 33.8436 41.8161 34.3859 42.3583C34.9281 42.9325 35.6299 43.2196 36.4592 43.2196ZM36.4592 44.0808C35.3428 44.0808 34.4178 43.7299 33.6841 42.9963C32.9824 42.2626 32.5996 41.3376 32.5996 40.2212C32.5996 39.0729 32.9824 38.1478 33.6841 37.4142C34.4178 36.6805 35.3428 36.3297 36.4592 36.3297C37.5437 36.3297 38.4688 36.6805 39.2024 37.4142C39.9361 38.1478 40.287 39.0729 40.287 40.2212C40.287 41.3376 39.9361 42.2626 39.2024 42.9963C38.4688 43.7299 37.5437 44.0808 36.4592 44.0808Z" fill="#02361B"/>
<path d="M41.9771 40.7315H45.2626C45.5497 40.7315 45.8048 40.6677 45.9643 40.5402C46.1238 40.4126 46.2195 40.2212 46.2195 39.966C46.2195 39.7108 46.1238 39.5194 45.9643 39.3918C45.8048 39.2642 45.5816 39.2005 45.2945 39.2005H41.9771V40.7315ZM41.9771 41.5928V44.0808H41.084V38.3392H45.2626C45.8367 38.3392 46.3152 38.4987 46.6342 38.7858C46.9532 39.041 47.1126 39.4556 47.1126 39.966C47.1126 40.4445 46.9532 40.8272 46.6342 41.1143C46.3152 41.4333 45.8686 41.5928 45.3583 41.5928H41.9771Z" fill="#02361B"/>
<path d="M47.9102 43.1558L48.3248 42.4221C48.7395 42.6773 49.1542 42.8687 49.6326 43.0282C50.0792 43.1877 50.5258 43.2515 50.9723 43.2515C51.4827 43.2515 51.8974 43.1558 52.2163 42.9325C52.5034 42.7411 52.6629 42.454 52.6629 42.135C52.6629 41.8161 52.5353 41.5609 52.2482 41.4014C51.9612 41.2419 51.5146 41.1781 50.8766 41.1462C49.824 41.1462 49.1223 41.0186 48.7395 40.7953C48.3567 40.5402 48.1334 40.1893 48.1334 39.647C48.1334 39.1686 48.3567 38.7539 48.8033 38.4668C49.218 38.1478 49.7921 38.0202 50.5258 38.0202C51.0042 38.0202 51.4827 38.084 51.9612 38.2116C52.4077 38.3711 52.8543 38.5625 53.3009 38.8496L52.8543 39.5832C52.4715 39.328 52.0888 39.1367 51.6741 39.0091C51.2594 38.8815 50.8766 38.8177 50.4939 38.8177C50.0792 38.8177 49.7283 38.8815 49.4412 39.041C49.1861 39.2005 49.0585 39.3918 49.0585 39.647C49.0585 39.9022 49.1861 40.0936 49.4412 40.1893C49.7283 40.285 50.1749 40.3488 50.8447 40.3488C51.7698 40.3488 52.4396 40.5083 52.9181 40.7953C53.3647 41.1143 53.6198 41.5928 53.6198 42.1988C53.6198 42.7411 53.3647 43.1877 52.8862 43.5385C52.4396 43.8894 51.8017 44.0808 51.068 44.0808C50.4939 44.0808 49.9516 43.9851 49.4093 43.8256C48.8671 43.6661 48.3567 43.4428 47.9102 43.1558Z" fill="#02361B"/>
</svg>
