<svg width="146" height="32" viewBox="0 0 146 32" fill="none" xmlns="http://www.w3.org/2000/svg">
<path fill-rule="evenodd" clip-rule="evenodd" d="M32.9628 10.5638C31.4636 10.0215 30.3153 10.5957 29.0394 10.9785L20.4589 13.6579C20.0442 13.7855 19.9167 13.7855 19.4701 13.8812C18.7045 14.0726 18.1623 14.3277 17.4924 14.5191L11.7827 16.2735C9.61371 16.9433 7.25328 17.1985 6.87051 19.8141C6.71102 21.0581 7.18948 22.6849 8.97575 23.4186C10.4111 23.9927 11.7509 23.3867 12.8992 23.0039C13.6328 22.7806 14.1113 22.6849 14.7811 22.3978C16.0889 21.8556 22.5323 20.2288 24.4461 19.4314C25.5625 18.9848 30.6343 17.5494 32.1335 17.1347C36.4396 15.8907 35.6103 11.5207 32.9628 10.5638Z" fill="#02361B"/>
<path fill-rule="evenodd" clip-rule="evenodd" d="M35.2922 21.5363C33.3464 20.6432 30.0929 22.3019 27.3178 23.0355L22.0228 24.6623C21.2253 24.9494 20.2684 25.0451 19.5028 25.9382C17.9717 27.7245 18.4502 30.3082 20.683 31.297C22.3736 32.0626 24.0004 31.0418 26.01 30.4996L33.8887 28.1073C34.4947 27.9159 35.7388 27.565 36.3767 26.7995C37.844 25.077 37.3336 22.5252 35.2922 21.5363Z" fill="#02361B"/>
<path fill-rule="evenodd" clip-rule="evenodd" d="M44.7015 18.9529C40.5867 17.3261 37.9711 23.3547 42.0859 25.1729C43.7126 25.8747 45.7222 25.3324 46.5515 23.2909C47.1576 21.7918 46.5515 19.6865 44.7015 18.9529Z" fill="#02361B"/>
<path fill-rule="evenodd" clip-rule="evenodd" d="M26.0409 0.26071C24.127 -0.632425 20.8416 0.994357 18.0665 1.7599L12.8033 3.38668C11.974 3.67376 11.049 3.76945 10.2834 4.63069C8.72044 6.44886 9.19891 9.03257 11.4317 10.0214C13.1223 10.7869 14.781 9.76622 16.7906 9.19206L24.6693 6.83163C25.2753 6.64025 26.5193 6.28937 27.1573 5.52383C28.6246 3.80135 28.0823 1.21764 26.0409 0.26071Z" fill="#02361B"/>
<path d="M57.6201 25.0001V12.9214H67.1477V14.3271H59.13V17.8674H63.9718V19.221H59.13V23.5943H67.6683V25.0001H57.6201Z" fill="#02361B"/>
<path d="M68.9697 24.9998V15.6284H70.4275V23.6462H77.404V24.9998H68.9697Z" fill="#02361B"/>
<path d="M82.8706 15.6284C84.3805 15.6284 85.63 16.097 86.5671 16.9821C87.5043 17.8151 87.9728 18.9605 87.9728 20.3662C87.9728 21.7719 87.5043 22.9173 86.6192 23.7503C85.682 24.5833 84.4325 24.9998 82.8706 24.9998H78.7056V15.6284H82.8706ZM82.9227 16.9821H80.1633V23.6462H82.9227C84.016 23.6462 84.9011 23.3858 85.5259 22.7611C86.1506 22.1884 86.463 21.3554 86.463 20.3662C86.463 19.377 86.1506 18.544 85.4738 17.9192C84.849 17.2944 83.964 16.9821 82.9227 16.9821Z" fill="#02361B"/>
<path d="M89.2744 24.9998V15.6284H98.021V17.0341H90.7322V19.377H95.522V20.6786H90.7322V23.6462H98.4375V24.9998H89.2744Z" fill="#02361B"/>
<path d="M101.197 19.5333H106.195C106.716 19.5333 107.08 19.4292 107.34 19.221C107.601 19.0127 107.757 18.7003 107.757 18.2838C107.757 17.8673 107.601 17.5549 107.34 17.3467C107.08 17.1384 106.716 17.0343 106.195 17.0343H101.197V19.5333ZM101.197 20.9391V25H99.7393V15.6807H106.195C107.132 15.6807 107.913 15.8889 108.434 16.3575C109.007 16.8261 109.267 17.4508 109.267 18.2838C109.267 18.9606 109.059 19.5333 108.59 20.0019C108.174 20.4705 107.601 20.7829 106.924 20.887L109.527 25H107.965L105.31 20.9391H101.197Z" fill="#02361B"/>
<path d="M117.128 23.5943C118.482 23.5943 119.575 23.1257 120.46 22.1886C121.397 21.3035 121.814 20.1061 121.814 18.7003C121.814 17.2426 121.397 16.0451 120.512 15.16C119.627 14.2229 118.482 13.7543 117.128 13.7543C115.775 13.7543 114.629 14.2229 113.744 15.16C112.859 16.0972 112.391 17.2426 112.391 18.7003C112.391 20.1061 112.859 21.3035 113.744 22.1886C114.629 23.1257 115.775 23.5943 117.128 23.5943ZM117.128 25C115.306 25 113.796 24.4273 112.599 23.2298C111.453 22.0324 110.829 20.5226 110.829 18.7003C110.829 16.8261 111.453 15.3162 112.599 14.1188C113.796 12.9213 115.306 12.3486 117.128 12.3486C118.898 12.3486 120.408 12.9213 121.606 14.1188C122.803 15.3162 123.376 16.8261 123.376 18.7003C123.376 20.5226 122.803 22.0324 121.606 23.2298C120.408 24.4273 118.898 25 117.128 25Z" fill="#02361B"/>
<path d="M126.136 19.5332H131.498C131.967 19.5332 132.383 19.429 132.643 19.2208C132.904 19.0125 133.06 18.7001 133.06 18.2836C133.06 17.8671 132.904 17.5548 132.643 17.3465C132.383 17.1383 132.019 17.0341 131.55 17.0341H126.136V19.5332ZM126.136 20.9389V24.9998H124.678V15.6284H131.498C132.435 15.6284 133.216 15.8887 133.737 16.3573C134.257 16.7738 134.518 17.4506 134.518 18.2836C134.518 19.0646 134.257 19.6894 133.737 20.1579C133.216 20.6786 132.487 20.9389 131.654 20.9389H126.136Z" fill="#02361B"/>
<path d="M135.819 23.4901L136.496 22.2926C137.173 22.7091 137.85 23.0215 138.631 23.2818C139.36 23.5422 140.089 23.6463 140.817 23.6463C141.65 23.6463 142.327 23.4901 142.848 23.1256C143.316 22.8133 143.577 22.3447 143.577 21.8241C143.577 21.3034 143.369 20.8869 142.9 20.6266C142.431 20.3663 141.702 20.2622 140.661 20.2101C138.943 20.2101 137.798 20.0019 137.173 19.6374C136.548 19.2209 136.184 18.6482 136.184 17.7631C136.184 16.9822 136.548 16.3054 137.277 15.8368C137.954 15.3162 138.891 15.1079 140.089 15.1079C140.869 15.1079 141.65 15.212 142.431 15.4203C143.16 15.6806 143.889 15.993 144.618 16.4616L143.889 17.659C143.264 17.2425 142.64 16.9301 141.963 16.7219C141.286 16.5136 140.661 16.4095 140.036 16.4095C139.36 16.4095 138.787 16.5136 138.318 16.7739C137.902 17.0342 137.694 17.3466 137.694 17.7631C137.694 18.1796 137.902 18.492 138.318 18.6482C138.787 18.8044 139.516 18.9085 140.609 18.9085C142.119 18.9085 143.212 19.1688 143.993 19.6374C144.722 20.158 145.139 20.939 145.139 21.9282C145.139 22.8133 144.722 23.5422 143.941 24.1149C143.212 24.6875 142.171 24.9999 140.974 24.9999C140.036 24.9999 139.151 24.8437 138.266 24.5834C137.381 24.3231 136.548 23.9587 135.819 23.4901Z" fill="#02361B"/>
</svg>
