<svg width="54" height="45" viewBox="0 0 54 45" fill="none" xmlns="http://www.w3.org/2000/svg">
<path fill-rule="evenodd" clip-rule="evenodd" d="M32.9628 10.5636C31.4636 10.0214 30.3153 10.5955 29.0394 10.9783L20.4589 13.6577C20.0442 13.7853 19.9167 13.7853 19.4701 13.881C18.7045 14.0724 18.1623 14.3276 17.4924 14.519L11.7827 16.2733C9.61371 16.9432 7.25328 17.1984 6.87051 19.814C6.71102 21.058 7.18948 22.6848 8.97575 23.4184C10.4111 23.9926 11.7509 23.3865 12.8992 23.0037C13.6328 22.7805 14.1113 22.6848 14.7811 22.3977C16.0889 21.8554 22.5323 20.2286 24.4461 19.4312C25.5625 18.9846 30.6343 17.5492 32.1335 17.1346C36.4396 15.8906 35.6103 11.5206 32.9628 10.5636Z" fill="white"/>
<path fill-rule="evenodd" clip-rule="evenodd" d="M35.2922 21.5364C33.3464 20.6433 30.0929 22.302 27.3178 23.0356L22.0228 24.6624C21.2253 24.9495 20.2684 25.0452 19.5028 25.9383C17.9717 27.7246 18.4502 30.3083 20.683 31.2971C22.3736 32.0627 24.0004 31.042 26.01 30.4997L33.8887 28.1074C34.4947 27.916 35.7388 27.5651 36.3767 26.7996C37.844 25.0771 37.3336 22.5253 35.2922 21.5364Z" fill="white"/>
<path fill-rule="evenodd" clip-rule="evenodd" d="M44.7015 18.9528C40.5867 17.326 37.9711 23.3547 42.0859 25.1728C43.7126 25.8746 45.7222 25.3323 46.5515 23.2909C47.1576 21.7917 46.5515 19.6864 44.7015 18.9528Z" fill="white"/>
<path fill-rule="evenodd" clip-rule="evenodd" d="M26.0409 0.260718C24.127 -0.632417 20.8416 0.994364 18.0665 1.75991L12.8033 3.38669C11.974 3.67377 11.049 3.76946 10.2834 4.6307C8.72044 6.44887 9.19891 9.03258 11.4317 10.0214C13.1223 10.787 14.781 9.76623 16.7906 9.19207L24.6693 6.83164C25.2753 6.64025 26.5193 6.28938 27.1573 5.52383C28.6246 3.80136 28.0823 1.21765 26.0409 0.260718Z" fill="white"/>
<path d="M0 44.0808V36.6805H5.83727V37.5418H0.925032V39.7108H3.89152V40.5401H0.925032V43.2195H6.15625V44.0808H0Z" fill="white"/>
<path d="M6.9541 44.0808V38.3392H7.84724V43.2514H12.1215V44.0808H6.9541Z" fill="white"/>
<path d="M15.4703 38.3392C16.3953 38.3392 17.1608 38.6263 17.735 39.1685C18.3092 39.6789 18.5962 40.3807 18.5962 41.2419C18.5962 42.1031 18.3092 42.8049 17.7669 43.3152C17.1927 43.8256 16.4272 44.0808 15.4703 44.0808H12.9185V38.3392H15.4703ZM15.5022 39.1685H13.8116V43.2514H15.5022C16.172 43.2514 16.7143 43.092 17.0971 42.7092C17.4798 42.3583 17.6712 41.848 17.6712 41.2419C17.6712 40.6358 17.4798 40.1255 17.0652 39.7427C16.6824 39.3599 16.1401 39.1685 15.5022 39.1685Z" fill="white"/>
<path d="M19.394 44.0808V38.3392H24.7529V39.2005H20.2872V40.6359H23.2218V41.4333H20.2872V43.2515H25.008V44.0808H19.394Z" fill="white"/>
<path d="M26.6983 40.7315H29.7605C30.0795 40.7315 30.3027 40.6677 30.4622 40.5401C30.6217 40.4126 30.7174 40.2212 30.7174 39.966C30.7174 39.7108 30.6217 39.5194 30.4622 39.3918C30.3027 39.2642 30.0795 39.2004 29.7605 39.2004H26.6983V40.7315ZM26.6983 41.5928V44.0808H25.8052V38.3711H29.7605C30.3346 38.3711 30.8131 38.4987 31.1321 38.7858C31.483 39.0729 31.6425 39.4556 31.6425 39.966C31.6425 40.3807 31.5149 40.7315 31.2278 41.0186C30.9726 41.3057 30.6217 41.4971 30.2071 41.5609L31.8019 44.0808H30.845L29.2182 41.5928H26.6983Z" fill="white"/>
<path d="M36.4587 43.2195C37.2881 43.2195 37.9579 42.9325 38.5002 42.3583C39.0743 41.816 39.3295 41.0824 39.3295 40.2212C39.3295 39.328 39.0743 38.5944 38.5321 38.0521C37.9898 37.478 37.2881 37.1909 36.4587 37.1909C35.6294 37.1909 34.9277 37.478 34.3854 38.0521C33.8431 38.6263 33.5561 39.328 33.5561 40.2212C33.5561 41.0824 33.8431 41.816 34.3854 42.3583C34.9277 42.9325 35.6294 43.2195 36.4587 43.2195ZM36.4587 44.0808C35.3423 44.0808 34.4173 43.7299 33.6836 42.9963C32.9819 42.2626 32.5991 41.3376 32.5991 40.2212C32.5991 39.0728 32.9819 38.1478 33.6836 37.4142C34.4173 36.6805 35.3423 36.3296 36.4587 36.3296C37.5433 36.3296 38.4683 36.6805 39.2019 37.4142C39.9356 38.1478 40.2865 39.0728 40.2865 40.2212C40.2865 41.3376 39.9356 42.2626 39.2019 42.9963C38.4683 43.7299 37.5433 44.0808 36.4587 44.0808Z" fill="white"/>
<path d="M41.9771 40.7315H45.2626C45.5497 40.7315 45.8048 40.6677 45.9643 40.5401C46.1238 40.4125 46.2195 40.2212 46.2195 39.966C46.2195 39.7108 46.1238 39.5194 45.9643 39.3918C45.8048 39.2642 45.5816 39.2004 45.2945 39.2004H41.9771V40.7315ZM41.9771 41.5928V44.0808H41.084V38.3392H45.2626C45.8367 38.3392 46.3152 38.4987 46.6342 38.7858C46.9532 39.0409 47.1126 39.4556 47.1126 39.966C47.1126 40.4444 46.9532 40.8272 46.6342 41.1143C46.3152 41.4333 45.8686 41.5928 45.3583 41.5928H41.9771Z" fill="white"/>
<path d="M47.9102 43.1557L48.3248 42.4221C48.7395 42.6773 49.1542 42.8687 49.6326 43.0281C50.0792 43.1876 50.5258 43.2514 50.9723 43.2514C51.4827 43.2514 51.8974 43.1557 52.2163 42.9325C52.5034 42.7411 52.6629 42.454 52.6629 42.135C52.6629 41.816 52.5353 41.5609 52.2482 41.4014C51.9612 41.2419 51.5146 41.1781 50.8766 41.1462C49.824 41.1462 49.1223 41.0186 48.7395 40.7953C48.3567 40.5401 48.1334 40.1893 48.1334 39.647C48.1334 39.1685 48.3567 38.7539 48.8033 38.4668C49.218 38.1478 49.7921 38.0202 50.5258 38.0202C51.0042 38.0202 51.4827 38.084 51.9612 38.2116C52.4077 38.3711 52.8543 38.5625 53.3009 38.8496L52.8543 39.5832C52.4715 39.328 52.0888 39.1366 51.6741 39.009C51.2594 38.8815 50.8766 38.8177 50.4939 38.8177C50.0792 38.8177 49.7283 38.8815 49.4412 39.0409C49.1861 39.2004 49.0585 39.3918 49.0585 39.647C49.0585 39.9022 49.1861 40.0936 49.4412 40.1893C49.7283 40.2849 50.1749 40.3487 50.8447 40.3487C51.7698 40.3487 52.4396 40.5082 52.9181 40.7953C53.3647 41.1143 53.6198 41.5928 53.6198 42.1988C53.6198 42.7411 53.3647 43.1876 52.8862 43.5385C52.4396 43.8894 51.8017 44.0808 51.068 44.0808C50.4939 44.0808 49.9516 43.9851 49.4093 43.8256C48.8671 43.6661 48.3567 43.4428 47.9102 43.1557Z" fill="white"/>
</svg>
