<svg width="116" height="122" viewBox="0 0 116 122" fill="none" xmlns="http://www.w3.org/2000/svg">
<path d="M83.8968 0C84.8666 0.0295172 91.865 4.23373 92.7209 5.17679C93.153 5.65291 92.9798 11.1352 92.9956 12.1381C93.2043 25.296 92.3756 38.3281 87.657 50.7666C89.037 51.6706 91.1017 52.812 92.5643 53.6691L103.379 59.9663C105 60.92 107.503 62.2843 108.872 63.4451C109.656 64.1086 109.378 67.6011 109.354 68.7756C111.069 69.7392 113.525 71.0265 115.074 72.2308C115.369 72.4602 115.794 73.249 115.803 73.6099C115.869 76.1139 115.809 79.2194 115.772 81.6949C115.448 82.1488 115.175 82.5717 114.673 82.8508C112.659 83.967 110.619 85.0596 108.598 86.1609C104.085 88.6364 99.558 91.0883 95.0188 93.5142L61.1576 111.944L49.6313 118.243C48.3678 118.934 46.8003 119.729 45.5885 120.443C41.3361 122.95 39.5891 122.207 35.6287 119.799C28.3426 115.726 21.3815 111.367 13.9472 107.085C9.55978 104.196 4.2018 101.894 0.214623 98.578C-0.118903 98.3002 -0.0177295 90.653 0.206811 89.8593C0.620061 88.3995 4.331 86.8579 5.69647 86.1522C5.59864 79.501 4.92229 80.477 10.8018 77.2673L16.9627 73.8778L37.1927 62.7729C34.2489 54.8509 34.651 44.8639 34.6285 36.4612C34.624 34.786 34.6359 30.7931 34.9062 29.3737C35.63 28.4656 37.8177 26.956 38.8519 26.1736C39.9505 25.3417 41.0234 24.4763 42.0689 23.5784C46.8603 19.5138 51.1746 14.9176 54.9284 9.87834C55.9286 8.55118 58.8128 3.92355 59.9622 3.19567C60.232 3.02476 64.0752 3.87841 65.0379 3.99375C71.9887 4.82693 77.6927 2.75961 83.8968 0Z" fill="#355E49"/>
<path d="M91.5956 6.08643C91.855 6.38767 91.8027 8.15586 91.7965 8.62131C91.6995 15.8908 91.9291 23.2056 91.1512 30.4416C89.2356 49.0796 81.0103 66.5034 67.8387 79.8246C66.4202 80.1247 63.7081 80.1197 62.2744 79.9449C57.1379 79.3198 53.2994 77.1011 50.0929 73.1162C42.8732 63.5393 44.0097 50.5051 43.8682 39.2046C43.8489 37.6618 43.8118 35.8079 44.0174 34.3004C45.1915 32.8232 50.2242 29.426 52.0197 27.8389C58.2579 22.2363 63.7134 15.8189 68.2389 8.75959C77.0859 11.4705 83.3697 9.60902 91.5956 6.08643Z" fill="#EFF2CD"/>
<path d="M87.378 12.6465C87.8685 12.6181 87.6743 12.5777 88.1135 12.8018C88.7728 13.7632 88.2925 26.1897 88.1696 28.1989C88.0463 30.1648 87.8616 32.1263 87.616 34.0807C86.0687 46.4881 81.3476 58.2858 73.9094 68.3352C72.7171 69.9339 69.9558 73.3011 68.4082 74.5078C62.7655 75.3251 57.1256 73.0146 53.3918 68.7718C48.2527 62.6836 47.6073 53.982 47.4209 46.3417C47.3178 43.0003 47.3365 39.6562 47.4771 36.316C48.0222 35.5611 52.8296 31.9363 54.1503 30.7099C57.8455 27.2782 60.6358 24.214 63.8198 20.2439C65.3219 18.6138 66.419 16.0214 68.1528 14.7307C68.3591 14.5771 71.586 15.3255 72.1567 15.3776C77.4466 15.8603 82.5208 14.6751 87.378 12.6465Z" fill="#355E49"/>
<path d="M87.0517 14.1587C87.8507 14.9519 86.6896 31.2988 86.4927 33.5672C85.0044 34.2863 83.2402 35.3208 81.7729 36.1315L73.2941 40.7973C72.5256 41.216 69.405 42.961 68.7584 43.1499L68.65 42.9437L68.5967 15.938C74.516 17.7794 81.4211 16.2158 87.0517 14.1587Z" fill="#02361B"/>
<path d="M67.2433 45.3921L67.3882 45.4316C67.5006 45.8722 67.4447 51.3543 67.4449 52.3075L67.4516 73.4113C67.3096 73.4126 67.1675 73.4126 67.0255 73.4113C61.9159 73.3667 58.4486 72.1984 54.8107 68.4976C51.2397 64.5847 50.1848 60.3742 49.251 55.3523C55.265 52.0624 61.2625 48.7422 67.2433 45.3921Z" fill="#02361B"/>
<path d="M86.0296 35.2466C86.0601 35.2873 86.1136 35.4706 86.1075 35.5151C84.252 49.1264 78.0838 62.469 68.8372 72.4676C68.553 70.7685 68.6951 65.6191 68.692 63.6819L68.6802 44.671C69.124 44.4495 69.5199 44.1993 69.9516 43.9658C75.3071 41.0688 80.6289 38.0538 86.0296 35.2466Z" fill="#02361B"/>
<path d="M67.2481 17.7007C67.4673 18.3649 67.5213 41.9396 67.294 43.6762C64.9341 42.3577 62.4315 40.7432 60.1057 39.5304C57.7692 40.626 54.0768 42.9286 51.6163 44.2885C50.6735 44.8474 49.6172 45.4024 48.6488 45.9324C48.5709 42.987 48.5191 39.654 48.641 36.7205C49.886 35.632 51.6018 34.4062 52.9351 33.3099C54.9927 31.5879 56.9563 29.7566 58.8173 27.8238C60.897 25.6776 62.9784 23.2554 64.8073 20.8859C65.6285 19.8221 66.3757 18.7282 67.2481 17.7007Z" fill="#DDE392"/>
<path d="M59.8129 40.957C60.3794 41.0204 65.8055 43.8678 66.7802 44.4427C62.231 46.9234 58.1287 49.0392 53.62 51.5929C52.1116 52.3509 50.5741 53.2333 49.0679 54.0262C48.7416 51.6625 48.833 49.6477 48.6143 47.2395C52.1241 45.1096 56.1942 43.0122 59.8129 40.957Z" fill="#DDE392"/>
<path d="M87.2385 51.9585C89.8005 53.4129 107.151 63.2292 107.999 64.3603C108.14 64.5476 108.068 64.6505 108.033 64.8688C107.517 65.6737 92.7216 73.5081 90.8905 74.5102L56.6203 93.2289L47.5278 98.2034C45.8421 99.1249 43.9789 100.277 42.1801 100.901C40.6513 101.432 39.0949 100.751 37.7871 99.9794C36.1749 99.0281 34.5585 98.0545 32.9416 97.0959L21.3598 90.2995C17.1227 87.7669 12.8746 85.2815 8.58677 82.8383C7.94141 82.4712 7.13624 82.0222 6.9541 81.3153C7.2968 80.2277 10.3237 78.8746 11.3871 78.2979L17.5019 74.9542L37.6489 63.9151C39.2195 67.4013 41.7505 71.2671 45.1598 73.1113C48.8452 75.1055 52.6869 77.8204 56.3858 79.6385C59.5301 81.1826 64.9822 81.8561 68.3325 80.885C69.1575 80.6456 71.0364 78.2123 71.6969 77.5773C78.762 69.8594 83.3187 61.5723 87.2385 51.9585Z" fill="#DDE392"/>
<path d="M114.411 75.5098L114.562 75.5507C114.704 75.8719 114.558 80.6703 114.543 81.3871C113.727 82.0705 109.666 84.1925 108.489 84.8412L91.5684 94.0088L58.0697 112.243C53.6474 114.65 49.2251 117.124 44.7899 119.513C43.7809 120.056 42.8447 120.545 41.7181 120.78L41.5341 120.679C41.4301 120.164 41.4893 115.493 41.4815 114.651C42.1232 114.556 43.0346 114.358 43.5962 114.059C53.3119 108.891 63.0294 103.495 72.6804 98.2194L114.411 75.5098Z" fill="#02361B"/>
<path d="M109.349 70.1509C110.299 70.6829 114.677 72.8025 114.534 73.8405C113.192 74.9927 107.23 78.0672 105.352 79.0842L87.6794 88.6847L54.1361 107.006L46.8188 111.004C40.7253 114.336 41.3058 114.48 35.2758 110.906L28.9185 107.155L4.89384 93.0317C3.88161 92.4413 1.46832 91.3784 1.41699 90.1928C1.8011 89.3867 4.7675 87.9815 5.69431 87.4693C5.70559 88.3511 5.75134 88.7281 5.90409 89.6C6.91793 90.7658 12.1679 93.5836 13.7903 94.5286L24.8672 101.046L33.9235 106.379C35.1393 107.093 37.1243 108.36 38.3434 108.961C39.1137 109.348 39.9593 109.561 40.8207 109.585C42.7686 109.631 43.985 108.866 45.6363 107.965C49.2477 105.993 52.8541 104.014 56.4621 102.037L79.8979 89.223L99.1215 78.7654C101.93 77.24 106.211 75.0621 108.907 73.239C109.531 72.8161 109.383 70.9607 109.349 70.1509Z" fill="#DDE392"/>
<path d="M107.918 66.5967C108.051 66.6227 108.024 66.6327 108.148 66.7306C108.249 68.3504 108.19 70.7291 108.085 72.3476C106.671 73.4911 102.217 75.6925 100.487 76.6412L83.7202 85.7915L57.8829 99.8891L50.0133 104.203C48.2131 105.198 43.4719 107.965 41.6767 108.371L41.5937 108.318C41.3232 107.696 41.462 103.14 41.4822 102.162C42.3755 102.071 43.1464 101.833 43.9466 101.423C48.497 99.1003 52.9435 96.4983 57.4478 94.0898L88.3822 77.2613L102.9 69.3239C104.585 68.4211 106.203 67.4462 107.918 66.5967Z" fill="#02361B"/>
<path d="M60.1965 4.38672C60.6442 4.56295 61.9978 5.38658 62.4611 5.65236C63.9979 6.53379 65.5649 7.44039 67.0617 8.38791C63.1402 14.7103 56.5324 22.351 50.9222 27.1819C49.7875 28.1538 48.6266 29.0946 47.4408 30.0033C46.136 30.9916 44.1811 32.2667 43.2252 33.4995C43.0207 33.463 37.1091 29.8453 36.4102 29.4257C43.7664 24.2405 50.275 17.9464 55.7042 10.7674C57.1943 8.81182 58.7782 6.43159 60.1965 4.38672Z" fill="#02361B"/>
<path d="M35.8641 30.585C37.8285 31.5769 40.966 33.3839 42.7912 34.5738C42.5151 37.5488 42.6512 42.1588 42.6632 45.2042C42.7043 55.6413 42.8257 65.0228 49.0294 73.8631C47.668 73.47 43.6871 70.6919 42.6767 69.593C35.8455 62.1617 35.7988 50.3781 35.8016 40.977C35.7865 37.5129 35.8074 34.0486 35.8641 30.585Z" fill="#02361B"/>
<path d="M1.21289 92.2949C1.65962 92.445 3.21702 93.4186 3.76939 93.7447C5.51798 94.758 7.26123 95.7799 8.99892 96.8118L28.1424 108.082C31.4368 110.019 34.7647 112.003 38.079 113.909C38.7893 114.317 39.4957 114.463 40.2983 114.598C40.227 116.627 40.3022 118.733 40.2743 120.779C38.5058 120.419 29.7409 115.016 27.7019 113.818L10.223 103.508C8.53806 102.499 2.30212 99.0628 1.25046 98.0706L1.21289 92.2949Z" fill="#02361B"/>
<path d="M6.93178 83.2822C9.96191 84.8251 13.8784 87.2658 16.8446 89.0232L30.2762 96.8949C33.0455 98.5295 35.9149 100.359 38.7853 101.807C39.1862 102.01 39.8262 102.088 40.2749 102.141C40.2534 104.231 40.2744 106.356 40.2763 108.45C38.5685 107.946 34.1979 105.203 32.4423 104.156L22.5311 98.3013L13.52 93.0055C11.421 91.7901 8.90975 90.4581 6.96712 89.0356C6.86049 87.2782 6.92199 85.0681 6.93178 83.2822Z" fill="#02361B"/>
<path d="M84.0431 1.24219C84.8814 1.58474 89.5625 4.43092 90.6848 5.07757C83.3946 8.383 78.54 9.57832 70.711 8.20813C67.4387 7.38859 66.5676 6.6359 63.7197 4.91919C72.2345 6.02001 76.2516 4.49119 84.0431 1.24219Z" fill="#02361B"/>
</svg>
