<svg width="181" height="126" viewBox="0 0 181 126" fill="none" xmlns="http://www.w3.org/2000/svg">
<path d="M164.155 3.52701C168.123 3.22978 173.909 4.51803 176.132 8.17077C176.53 8.82312 176.8 9.54619 176.923 10.3005C177.057 11.1029 177.023 17.979 176.846 18.6108C175.007 25.1421 164.76 25.4418 160.06 24.1702L123.323 46.6323C130.461 53.5711 129.935 58.0341 129.939 67.1138C129.943 73.9249 130.298 75.888 126.36 81.8005C128.084 82.7347 129.837 83.8244 131.508 84.8658C142.229 91.5518 153.271 97.9037 163.903 104.722C165.169 104.465 166.46 104.336 167.753 104.338C171.425 104.311 175.328 105.086 178.162 107.694C180.755 110.083 179.979 114.375 180.012 117.688C180.105 126.95 162.953 127.393 158.219 121.999C156.16 119.652 156.472 117.367 156.587 114.427C143.151 106.556 129.665 98.0413 116.258 89.9923C114.818 90.6997 113.344 91.3374 111.842 91.9019C97.663 97.2017 78.8619 96.5658 65.077 90.2978C51.8969 98.4057 38.6626 106.424 25.3749 114.352C25.4574 120.634 24.9618 122.876 18.3748 124.884C15.8207 125.539 13.1586 125.657 10.5567 125.23C7.7972 124.787 4.57799 123.603 2.88258 121.241C2.56936 120.804 1.8813 119.56 1.89505 119.026C2.00934 114.605 0.503581 109.35 5.02676 106.606C8.89527 104.261 13.3422 103.925 17.5577 104.786C20.361 102.739 27.5855 98.6522 30.8381 96.6962L54.5669 82.3293C49.294 75.8076 50.4969 72.3047 50.3594 64.7327C50.2121 56.627 50.5789 53.8003 56.0487 47.5187L20.1101 25.5562C15.0522 26.8301 8.96491 26.4822 4.88425 22.8444C2.21274 20.463 3.27599 17.2643 3.01259 14.1214C2.13935 3.70457 19.4642 2.86037 24.8602 8.52123C26.7892 10.5413 26.6949 12.6495 26.6122 15.1915C32.398 18.546 38.5535 22.4507 44.3021 25.9627C51.928 30.5929 59.5288 35.2649 67.1037 39.9785C72.3265 37.7444 78.0995 36.4024 83.7408 35.8268C86.0378 35.5925 87.9934 35.8333 89.9556 34.5141C90.1719 34.6232 90.3929 34.7256 90.6067 34.839C92.078 35.6193 99.1873 36.0576 101.621 36.5203C105.068 37.1755 108.335 38.0977 111.66 39.2057C113.673 37.8925 115.811 36.7016 117.855 35.4276C129.655 28.0721 141.858 21.1108 153.542 13.5933L153.519 13.3661C152.796 6.23732 157.862 4.04003 164.155 3.52701Z" fill="#E4E9A8"/>
<path d="M162.412 0.0411719C166.38 -0.256063 172.166 1.03219 174.389 4.68493C174.787 5.33728 175.057 6.06035 175.18 6.81469C175.314 7.61709 175.28 14.4931 175.103 15.1249C173.264 21.6563 163.017 21.956 158.317 20.6843L121.58 43.1465C128.718 50.0852 128.192 54.5482 128.196 63.628C128.2 70.439 128.555 72.4021 124.617 78.3147C126.341 79.2489 128.094 80.3385 129.764 81.3799C140.486 88.0659 151.527 94.4179 162.16 101.236C163.426 100.979 164.717 100.85 166.01 100.852C169.682 100.825 173.585 101.6 176.419 104.208C179.012 106.597 178.235 110.889 178.269 114.203C178.362 123.464 161.21 123.907 156.476 118.513C154.417 116.166 154.729 113.881 154.844 110.941C141.407 103.071 127.922 94.5554 114.515 86.5065C113.075 87.2139 111.601 87.8516 110.098 88.416C95.9198 93.7159 77.1187 93.08 63.3338 86.812C50.1538 94.9198 36.9194 102.938 23.6317 110.866C23.7142 117.148 23.2187 119.39 16.6317 121.398C14.0775 122.053 11.4154 122.171 8.81358 121.744C6.05403 121.301 2.83483 120.117 1.13942 117.755C0.826197 117.318 0.13814 116.075 0.151891 115.54C0.26618 111.119 -1.23958 105.864 3.28359 103.121C7.1521 100.775 11.599 100.439 15.8145 101.3C18.6178 99.2533 25.8423 95.1663 29.0949 93.2104L52.8237 78.8434C47.5508 72.3218 48.7537 68.8189 48.6162 61.2469C48.4689 53.1412 48.8357 50.3144 54.3055 44.0328L18.3669 22.0703C13.3091 23.3443 7.22175 22.9963 3.14109 19.3586C0.469579 16.9771 1.53283 13.7785 1.26942 10.6355C0.396183 0.218726 17.721 -0.625466 23.1171 5.03539C25.046 7.05548 24.9518 9.16364 24.8691 11.7057C30.6548 15.0601 36.8103 18.9649 42.5589 22.4769C50.1849 27.1071 57.7856 31.779 65.3605 36.4926C70.5833 34.2586 76.3564 32.9165 81.9976 32.341C84.2946 32.1066 86.2502 32.3474 88.2124 31.0283C88.4287 31.1374 88.6498 31.2398 88.8635 31.3532C90.3348 32.1334 97.4442 32.5718 99.878 33.0344C103.325 33.6896 106.591 34.6119 109.917 35.7199C111.929 34.4066 114.068 33.2157 116.112 31.9418C127.912 24.5863 140.115 17.625 151.799 10.1075L151.776 9.8803C151.052 2.75148 156.119 0.554188 162.412 0.0411719Z" fill="#02361B"/>
<path d="M161.922 1.46067C163.901 1.24274 165.205 1.48086 167.144 1.77345C172.75 2.61871 176.85 8.33744 170.655 12.0606C166.871 14.3357 162.124 14.0815 157.881 12.943L126.88 31.9658L119.239 36.6021C117.923 37.3979 115.703 38.6427 114.642 39.6018C115.834 40.5944 117.356 41.4986 118.621 42.4569C123.497 46.1524 127.349 51.7412 126.678 58.1268C126.15 63.1458 122.823 67.5329 118.971 70.616C117.596 71.7164 116.101 72.6291 114.733 73.7402C115.738 74.6262 118.572 76.2499 119.88 77.0412L129.067 82.6054L161.889 102.683C165.003 102.017 167.328 101.944 170.303 102.631C179.043 104.652 179.025 112.131 170.228 114.074C165.714 115.073 157.954 114.283 156.342 109.039C155.901 107.606 156.813 106.152 157.537 105.012C156.338 104.014 152.876 101.945 151.436 101.065L140.581 94.452L122.693 83.5879C118.667 81.1264 114.186 78.2505 110.068 76.007C95.9881 81.3533 81.8788 80.9978 67.7251 76.3249C64.0857 78.263 60.1388 80.8281 56.5933 82.977L35.6382 95.7399L25.9156 101.588C24.5824 102.388 21.7864 103.966 20.7226 104.882C22.3252 107.265 22.9227 110.001 20.2701 111.954C15.3896 115.546 6.30556 115.392 2.21829 110.602C1.69953 109.969 1.24576 108.719 1.4897 107.904C3.31476 101.806 11.4571 101.82 16.2377 102.649C22.8712 98.2781 31.3226 93.482 38.2133 89.3218L54.5513 79.383C57.0276 77.87 60.7821 75.7212 63.033 74.1046C61.7417 73.1025 59.7658 71.9218 58.425 70.9411C47.7481 63.1512 47.0311 51.5703 57.4012 43.0934C58.1188 42.507 60.749 41.0283 60.5722 40.1512C59.3824 39.1704 57.0559 37.8412 55.6633 36.9908L47.2891 31.8758C37.8003 26.0026 28.2695 20.1975 18.6974 14.4613C14.5374 15.3485 10.8978 15.7451 6.87093 13.9408C4.41907 12.842 1.51952 10.257 3.19475 7.31748C6.15431 2.2059 15.1101 1.94635 19.8187 4.4014C23.0854 6.10478 24.4442 8.5325 22.55 11.9896C36.7785 20.3901 51.1544 29.3725 65.2649 38.0172C72.851 35.0032 76.6431 34.3498 84.584 33.2811C79.9753 36.3768 72.6342 40.6335 67.7733 43.478L67.7551 47.3488C67.2049 47.8216 66.6758 48.3184 66.1694 48.838C61.3689 53.8633 61.4106 60.6433 66.8149 65.2661C77.9333 74.778 100.577 75.0388 110.943 64.2587C116.248 58.7427 114.236 51.9475 108.803 47.2584L108.785 43.6591C107.432 42.6967 104.921 41.2525 103.42 40.32C99.6511 37.9673 95.8681 35.6371 92.0716 33.3293C99.1195 34.0858 103.282 34.7904 109.939 37.2971C114.546 34.8669 121.323 30.4368 126.001 27.587C135.353 21.929 144.663 16.2024 153.931 10.4077C150.688 4.56806 157.31 2.0655 161.922 1.46067Z" fill="#FCFCF4"/>
<path d="M162.016 3.58445C169.71 2.62558 173.746 9.83763 164.757 11.5642C156.499 12.2112 153.503 5.24389 162.016 3.58445Z" fill="#02361B"/>
<path d="M11.5262 5.19123C14.2325 4.95383 18.6646 5.37004 19.4938 8.59157C19.6954 9.36002 19.5459 10.1783 19.0857 10.8258C18.1007 12.2332 16.3256 12.6766 14.7581 13.0001C6.38229 13.8568 2.84111 6.79994 11.5262 5.19123Z" fill="#02361B"/>
<path d="M10.6094 104.335C13.2 104.187 17.1805 104.582 18.0939 107.59C18.3302 108.36 18.2246 109.195 17.8041 109.883C16.8358 111.453 14.8334 111.916 13.168 112.246C5.53136 113.161 1.61785 106.039 10.6094 104.335Z" fill="#02361B"/>
<path d="M165.466 104.337C173.273 103.853 176.452 110.566 167.798 112.252C165.21 112.527 160.781 111.879 160.231 108.715C160.092 107.897 160.303 107.057 160.812 106.402C161.914 104.973 163.792 104.578 165.466 104.337Z" fill="#02361B"/>
<path d="M88.3299 32.6416C89.0606 32.906 92.3218 35.0875 93.1598 35.6065L106.69 44.0069C100.562 47.7072 94.4151 51.3754 88.2488 55.0116C87.704 54.9941 71.9147 45.1889 69.7773 43.9067C71.7726 42.8855 74.7357 40.9781 76.6801 39.7878L88.3299 32.6416Z" fill="#DDE392"/>
<path d="M107.352 45.3179C107.457 45.8855 107.403 49.3807 107.401 50.1294L107.378 60.7702C104.496 62.4993 91.3 70.884 88.8899 71.1859C88.6349 70.2374 88.7822 58.3265 88.7579 56.3749C94.6351 52.6944 101.34 48.9045 107.352 45.3179Z" fill="#DDE392"/>
<path d="M69.2178 45.2373C75.2906 48.8868 81.2574 52.7187 87.3862 56.2877C87.3719 61.1721 87.4673 66.2469 87.314 71.1144C85.035 70.8179 72.3072 62.5386 69.2421 60.7344L69.2178 45.2373Z" fill="#DDE392"/>
<path d="M109.016 60.0518C109.57 60.4322 110.449 61.4218 110.95 61.9506C107.274 67.1325 101.509 69.1474 95.5667 70.3567L93.3584 70.7176L103.665 64.6568C105.24 63.7368 107.268 62.6436 108.743 61.5558C109.054 61.3272 109.007 60.4805 109.016 60.0518Z" fill="#FCFCF4"/>
<path d="M67.6303 60.1216C67.6546 60.2966 67.8165 61.3559 67.8496 61.3809C71.3336 64.0657 79.2692 67.9365 82.3875 70.3587C82.115 70.5409 81.4289 70.3408 81.0064 70.2765C74.4748 68.6974 70.3745 67.3542 65.7549 62.0829L67.6303 60.1216Z" fill="#FCFCF4"/>
</svg>
