<svg width="266" height="281" viewBox="0 0 266 281" fill="none" xmlns="http://www.w3.org/2000/svg">
<mask id="mask0_383_7415" style="mask-type:alpha" maskUnits="userSpaceOnUse" x="0" y="-72" width="266" height="353">
<path d="M3.63466 -70.1827C3.63466 -69.179 2.82101 -68.3653 1.81733 -68.3653C0.813645 -68.3653 0 -69.179 0 -70.1827C0 -71.1864 0.813645 -72 1.81733 -72C2.82101 -72 3.63466 -71.1864 3.63466 -70.1827Z" fill="url(#paint0_linear_383_7415)"/>
<path d="M32.7119 -70.1827C32.7119 -69.179 31.8983 -68.3653 30.8946 -68.3653C29.8909 -68.3653 29.0772 -69.179 29.0772 -70.1827C29.0772 -71.1864 29.8909 -72 30.8946 -72C31.8983 -72 32.7119 -71.1864 32.7119 -70.1827Z" fill="url(#paint1_linear_383_7415)"/>
<path d="M61.7892 -70.1827C61.7892 -69.179 60.9755 -68.3653 59.9718 -68.3653C58.9681 -68.3653 58.1545 -69.179 58.1545 -70.1827C58.1545 -71.1864 58.9681 -72 59.9718 -72C60.9755 -72 61.7892 -71.1864 61.7892 -70.1827Z" fill="url(#paint2_linear_383_7415)"/>
<path d="M90.8664 -70.1827C90.8664 -69.179 90.0528 -68.3653 89.0491 -68.3653C88.0454 -68.3653 87.2317 -69.179 87.2317 -70.1827C87.2317 -71.1864 88.0454 -72 89.0491 -72C90.0528 -72 90.8664 -71.1864 90.8664 -70.1827Z" fill="url(#paint3_linear_383_7415)"/>
<path d="M119.944 -70.1827C119.944 -69.179 119.13 -68.3653 118.126 -68.3653C117.123 -68.3653 116.309 -69.179 116.309 -70.1827C116.309 -71.1864 117.123 -72 118.126 -72C119.13 -72 119.944 -71.1864 119.944 -70.1827Z" fill="url(#paint4_linear_383_7415)"/>
<path d="M149.021 -70.1827C149.021 -69.179 148.207 -68.3653 147.204 -68.3653C146.2 -68.3653 145.386 -69.179 145.386 -70.1827C145.386 -71.1864 146.2 -72 147.204 -72C148.207 -72 149.021 -71.1864 149.021 -70.1827Z" fill="url(#paint5_linear_383_7415)"/>
<path d="M178.098 -70.1827C178.098 -69.179 177.285 -68.3653 176.281 -68.3653C175.277 -68.3653 174.463 -69.179 174.463 -70.1827C174.463 -71.1864 175.277 -72 176.281 -72C177.285 -72 178.098 -71.1864 178.098 -70.1827Z" fill="url(#paint6_linear_383_7415)"/>
<path d="M207.175 -70.1827C207.175 -69.179 206.362 -68.3653 205.358 -68.3653C204.354 -68.3653 203.541 -69.179 203.541 -70.1827C203.541 -71.1864 204.354 -72 205.358 -72C206.362 -72 207.175 -71.1864 207.175 -70.1827Z" fill="url(#paint7_linear_383_7415)"/>
<path d="M236.253 -70.1827C236.253 -69.179 235.439 -68.3653 234.435 -68.3653C233.432 -68.3653 232.618 -69.179 232.618 -70.1827C232.618 -71.1864 233.432 -72 234.435 -72C235.439 -72 236.253 -71.1864 236.253 -70.1827Z" fill="url(#paint8_linear_383_7415)"/>
<path d="M265.33 -70.1827C265.33 -69.179 264.516 -68.3653 263.513 -68.3653C262.509 -68.3653 261.695 -69.179 261.695 -70.1827C261.695 -71.1864 262.509 -72 263.513 -72C264.516 -72 265.33 -71.1864 265.33 -70.1827Z" fill="url(#paint9_linear_383_7415)"/>
<path d="M3.63466 -41.1054C3.63466 -40.1017 2.82101 -39.2881 1.81733 -39.2881C0.813645 -39.2881 0 -40.1017 0 -41.1054C0 -42.1091 0.813645 -42.9228 1.81733 -42.9228C2.82101 -42.9228 3.63466 -42.1091 3.63466 -41.1054Z" fill="url(#paint10_linear_383_7415)"/>
<path d="M32.7119 -41.1054C32.7119 -40.1017 31.8983 -39.2881 30.8946 -39.2881C29.8909 -39.2881 29.0772 -40.1017 29.0772 -41.1054C29.0772 -42.1091 29.8909 -42.9228 30.8946 -42.9228C31.8983 -42.9228 32.7119 -42.1091 32.7119 -41.1054Z" fill="url(#paint11_linear_383_7415)"/>
<path d="M61.7892 -41.1054C61.7892 -40.1017 60.9755 -39.2881 59.9718 -39.2881C58.9681 -39.2881 58.1545 -40.1017 58.1545 -41.1054C58.1545 -42.1091 58.9681 -42.9228 59.9718 -42.9228C60.9755 -42.9228 61.7892 -42.1091 61.7892 -41.1054Z" fill="url(#paint12_linear_383_7415)"/>
<path d="M90.8664 -41.1054C90.8664 -40.1017 90.0528 -39.2881 89.0491 -39.2881C88.0454 -39.2881 87.2317 -40.1017 87.2317 -41.1054C87.2317 -42.1091 88.0454 -42.9228 89.0491 -42.9228C90.0528 -42.9228 90.8664 -42.1091 90.8664 -41.1054Z" fill="url(#paint13_linear_383_7415)"/>
<path d="M119.944 -41.1054C119.944 -40.1017 119.13 -39.2881 118.126 -39.2881C117.123 -39.2881 116.309 -40.1017 116.309 -41.1054C116.309 -42.1091 117.123 -42.9228 118.126 -42.9228C119.13 -42.9228 119.944 -42.1091 119.944 -41.1054Z" fill="url(#paint14_linear_383_7415)"/>
<path d="M149.021 -41.1054C149.021 -40.1017 148.207 -39.2881 147.204 -39.2881C146.2 -39.2881 145.386 -40.1017 145.386 -41.1054C145.386 -42.1091 146.2 -42.9228 147.204 -42.9228C148.207 -42.9228 149.021 -42.1091 149.021 -41.1054Z" fill="url(#paint15_linear_383_7415)"/>
<path d="M178.098 -41.1054C178.098 -40.1017 177.285 -39.2881 176.281 -39.2881C175.277 -39.2881 174.463 -40.1017 174.463 -41.1054C174.463 -42.1091 175.277 -42.9228 176.281 -42.9228C177.285 -42.9228 178.098 -42.1091 178.098 -41.1054Z" fill="url(#paint16_linear_383_7415)"/>
<path d="M207.175 -41.1054C207.175 -40.1017 206.362 -39.2881 205.358 -39.2881C204.354 -39.2881 203.541 -40.1017 203.541 -41.1054C203.541 -42.1091 204.354 -42.9228 205.358 -42.9228C206.362 -42.9228 207.175 -42.1091 207.175 -41.1054Z" fill="url(#paint17_linear_383_7415)"/>
<path d="M236.253 -41.1054C236.253 -40.1017 235.439 -39.2881 234.435 -39.2881C233.432 -39.2881 232.618 -40.1017 232.618 -41.1054C232.618 -42.1091 233.432 -42.9228 234.435 -42.9228C235.439 -42.9228 236.253 -42.1091 236.253 -41.1054Z" fill="url(#paint18_linear_383_7415)"/>
<path d="M265.33 -41.1054C265.33 -40.1017 264.516 -39.2881 263.513 -39.2881C262.509 -39.2881 261.695 -40.1017 261.695 -41.1054C261.695 -42.1091 262.509 -42.9228 263.513 -42.9228C264.516 -42.9228 265.33 -42.1091 265.33 -41.1054Z" fill="url(#paint19_linear_383_7415)"/>
<path d="M3.63466 -12.0282C3.63466 -11.0245 2.82101 -10.2109 1.81733 -10.2109C0.813645 -10.2109 0 -11.0245 0 -12.0282C0 -13.0319 0.813645 -13.8455 1.81733 -13.8455C2.82101 -13.8455 3.63466 -13.0319 3.63466 -12.0282Z" fill="url(#paint20_linear_383_7415)"/>
<path d="M32.7119 -12.0282C32.7119 -11.0245 31.8983 -10.2109 30.8946 -10.2109C29.8909 -10.2109 29.0772 -11.0245 29.0772 -12.0282C29.0772 -13.0319 29.8909 -13.8455 30.8946 -13.8455C31.8983 -13.8455 32.7119 -13.0319 32.7119 -12.0282Z" fill="url(#paint21_linear_383_7415)"/>
<path d="M61.7892 -12.0282C61.7892 -11.0245 60.9755 -10.2109 59.9718 -10.2109C58.9681 -10.2109 58.1545 -11.0245 58.1545 -12.0282C58.1545 -13.0319 58.9681 -13.8455 59.9718 -13.8455C60.9755 -13.8455 61.7892 -13.0319 61.7892 -12.0282Z" fill="url(#paint22_linear_383_7415)"/>
<path d="M90.8664 -12.0282C90.8664 -11.0245 90.0528 -10.2109 89.0491 -10.2109C88.0454 -10.2109 87.2317 -11.0245 87.2317 -12.0282C87.2317 -13.0319 88.0454 -13.8455 89.0491 -13.8455C90.0528 -13.8455 90.8664 -13.0319 90.8664 -12.0282Z" fill="url(#paint23_linear_383_7415)"/>
<path d="M119.944 -12.0282C119.944 -11.0245 119.13 -10.2109 118.126 -10.2109C117.123 -10.2109 116.309 -11.0245 116.309 -12.0282C116.309 -13.0319 117.123 -13.8455 118.126 -13.8455C119.13 -13.8455 119.944 -13.0319 119.944 -12.0282Z" fill="url(#paint24_linear_383_7415)"/>
<path d="M149.021 -12.0282C149.021 -11.0245 148.207 -10.2109 147.204 -10.2109C146.2 -10.2109 145.386 -11.0245 145.386 -12.0282C145.386 -13.0319 146.2 -13.8455 147.204 -13.8455C148.207 -13.8455 149.021 -13.0319 149.021 -12.0282Z" fill="url(#paint25_linear_383_7415)"/>
<path d="M178.098 -12.0282C178.098 -11.0245 177.285 -10.2109 176.281 -10.2109C175.277 -10.2109 174.463 -11.0245 174.463 -12.0282C174.463 -13.0319 175.277 -13.8455 176.281 -13.8455C177.285 -13.8455 178.098 -13.0319 178.098 -12.0282Z" fill="url(#paint26_linear_383_7415)"/>
<path d="M207.175 -12.0282C207.175 -11.0245 206.362 -10.2109 205.358 -10.2109C204.354 -10.2109 203.541 -11.0245 203.541 -12.0282C203.541 -13.0319 204.354 -13.8455 205.358 -13.8455C206.362 -13.8455 207.175 -13.0319 207.175 -12.0282Z" fill="url(#paint27_linear_383_7415)"/>
<path d="M236.253 -12.0282C236.253 -11.0245 235.439 -10.2109 234.435 -10.2109C233.432 -10.2109 232.618 -11.0245 232.618 -12.0282C232.618 -13.0319 233.432 -13.8455 234.435 -13.8455C235.439 -13.8455 236.253 -13.0319 236.253 -12.0282Z" fill="url(#paint28_linear_383_7415)"/>
<path d="M265.33 -12.0282C265.33 -11.0245 264.516 -10.2109 263.513 -10.2109C262.509 -10.2109 261.695 -11.0245 261.695 -12.0282C261.695 -13.0319 262.509 -13.8455 263.513 -13.8455C264.516 -13.8455 265.33 -13.0319 265.33 -12.0282Z" fill="url(#paint29_linear_383_7415)"/>
<path d="M3.63466 17.0491C3.63466 18.0527 2.82101 18.8664 1.81733 18.8664C0.813645 18.8664 0 18.0527 0 17.0491C0 16.0454 0.813645 15.2317 1.81733 15.2317C2.82101 15.2317 3.63466 16.0454 3.63466 17.0491Z" fill="url(#paint30_linear_383_7415)"/>
<path d="M32.7119 17.0491C32.7119 18.0527 31.8983 18.8664 30.8946 18.8664C29.8909 18.8664 29.0772 18.0527 29.0772 17.0491C29.0772 16.0454 29.8909 15.2317 30.8946 15.2317C31.8983 15.2317 32.7119 16.0454 32.7119 17.0491Z" fill="url(#paint31_linear_383_7415)"/>
<path d="M61.7892 17.0491C61.7892 18.0527 60.9755 18.8664 59.9718 18.8664C58.9681 18.8664 58.1545 18.0527 58.1545 17.0491C58.1545 16.0454 58.9681 15.2317 59.9718 15.2317C60.9755 15.2317 61.7892 16.0454 61.7892 17.0491Z" fill="url(#paint32_linear_383_7415)"/>
<path d="M90.8664 17.0491C90.8664 18.0527 90.0528 18.8664 89.0491 18.8664C88.0454 18.8664 87.2317 18.0527 87.2317 17.0491C87.2317 16.0454 88.0454 15.2317 89.0491 15.2317C90.0528 15.2317 90.8664 16.0454 90.8664 17.0491Z" fill="url(#paint33_linear_383_7415)"/>
<path d="M119.944 17.0491C119.944 18.0527 119.13 18.8664 118.126 18.8664C117.123 18.8664 116.309 18.0527 116.309 17.0491C116.309 16.0454 117.123 15.2317 118.126 15.2317C119.13 15.2317 119.944 16.0454 119.944 17.0491Z" fill="url(#paint34_linear_383_7415)"/>
<path d="M149.021 17.0491C149.021 18.0527 148.207 18.8664 147.204 18.8664C146.2 18.8664 145.386 18.0527 145.386 17.0491C145.386 16.0454 146.2 15.2317 147.204 15.2317C148.207 15.2317 149.021 16.0454 149.021 17.0491Z" fill="url(#paint35_linear_383_7415)"/>
<path d="M178.098 17.0491C178.098 18.0527 177.285 18.8664 176.281 18.8664C175.277 18.8664 174.463 18.0527 174.463 17.0491C174.463 16.0454 175.277 15.2317 176.281 15.2317C177.285 15.2317 178.098 16.0454 178.098 17.0491Z" fill="url(#paint36_linear_383_7415)"/>
<path d="M207.175 17.0491C207.175 18.0527 206.362 18.8664 205.358 18.8664C204.354 18.8664 203.541 18.0527 203.541 17.0491C203.541 16.0454 204.354 15.2317 205.358 15.2317C206.362 15.2317 207.175 16.0454 207.175 17.0491Z" fill="url(#paint37_linear_383_7415)"/>
<path d="M236.253 17.0491C236.253 18.0527 235.439 18.8664 234.435 18.8664C233.432 18.8664 232.618 18.0527 232.618 17.0491C232.618 16.0454 233.432 15.2317 234.435 15.2317C235.439 15.2317 236.253 16.0454 236.253 17.0491Z" fill="url(#paint38_linear_383_7415)"/>
<path d="M265.33 17.0491C265.33 18.0527 264.516 18.8664 263.513 18.8664C262.509 18.8664 261.695 18.0527 261.695 17.0491C261.695 16.0454 262.509 15.2317 263.513 15.2317C264.516 15.2317 265.33 16.0454 265.33 17.0491Z" fill="url(#paint39_linear_383_7415)"/>
<path d="M3.63466 46.1263C3.63466 47.13 2.82101 47.9436 1.81733 47.9436C0.813645 47.9436 0 47.13 0 46.1263C0 45.1226 0.813645 44.309 1.81733 44.309C2.82101 44.309 3.63466 45.1226 3.63466 46.1263Z" fill="url(#paint40_linear_383_7415)"/>
<path d="M32.7119 46.1263C32.7119 47.13 31.8983 47.9436 30.8946 47.9436C29.8909 47.9436 29.0772 47.13 29.0772 46.1263C29.0772 45.1226 29.8909 44.309 30.8946 44.309C31.8983 44.309 32.7119 45.1226 32.7119 46.1263Z" fill="url(#paint41_linear_383_7415)"/>
<path d="M61.7892 46.1263C61.7892 47.13 60.9755 47.9436 59.9718 47.9436C58.9681 47.9436 58.1545 47.13 58.1545 46.1263C58.1545 45.1226 58.9681 44.309 59.9718 44.309C60.9755 44.309 61.7892 45.1226 61.7892 46.1263Z" fill="url(#paint42_linear_383_7415)"/>
<path d="M90.8664 46.1263C90.8664 47.13 90.0528 47.9436 89.0491 47.9436C88.0454 47.9436 87.2317 47.13 87.2317 46.1263C87.2317 45.1226 88.0454 44.309 89.0491 44.309C90.0528 44.309 90.8664 45.1226 90.8664 46.1263Z" fill="url(#paint43_linear_383_7415)"/>
<path d="M119.944 46.1263C119.944 47.13 119.13 47.9436 118.126 47.9436C117.123 47.9436 116.309 47.13 116.309 46.1263C116.309 45.1226 117.123 44.309 118.126 44.309C119.13 44.309 119.944 45.1226 119.944 46.1263Z" fill="url(#paint44_linear_383_7415)"/>
<path d="M149.021 46.1263C149.021 47.13 148.207 47.9436 147.204 47.9436C146.2 47.9436 145.386 47.13 145.386 46.1263C145.386 45.1226 146.2 44.309 147.204 44.309C148.207 44.309 149.021 45.1226 149.021 46.1263Z" fill="url(#paint45_linear_383_7415)"/>
<path d="M178.098 46.1263C178.098 47.13 177.285 47.9436 176.281 47.9436C175.277 47.9436 174.463 47.13 174.463 46.1263C174.463 45.1226 175.277 44.309 176.281 44.309C177.285 44.309 178.098 45.1226 178.098 46.1263Z" fill="url(#paint46_linear_383_7415)"/>
<path d="M207.175 46.1263C207.175 47.13 206.362 47.9436 205.358 47.9436C204.354 47.9436 203.541 47.13 203.541 46.1263C203.541 45.1226 204.354 44.309 205.358 44.309C206.362 44.309 207.175 45.1226 207.175 46.1263Z" fill="url(#paint47_linear_383_7415)"/>
<path d="M236.253 46.1263C236.253 47.13 235.439 47.9436 234.435 47.9436C233.432 47.9436 232.618 47.13 232.618 46.1263C232.618 45.1226 233.432 44.309 234.435 44.309C235.439 44.309 236.253 45.1226 236.253 46.1263Z" fill="url(#paint48_linear_383_7415)"/>
<path d="M265.33 46.1263C265.33 47.13 264.516 47.9436 263.513 47.9436C262.509 47.9436 261.695 47.13 261.695 46.1263C261.695 45.1226 262.509 44.309 263.513 44.309C264.516 44.309 265.33 45.1226 265.33 46.1263Z" fill="url(#paint49_linear_383_7415)"/>
<path d="M3.63466 75.2036C3.63466 76.2072 2.82101 77.0209 1.81733 77.0209C0.813645 77.0209 0 76.2072 0 75.2036C0 74.1999 0.813645 73.3862 1.81733 73.3862C2.82101 73.3862 3.63466 74.1999 3.63466 75.2036Z" fill="url(#paint50_linear_383_7415)"/>
<path d="M32.7119 75.2036C32.7119 76.2072 31.8983 77.0209 30.8946 77.0209C29.8909 77.0209 29.0772 76.2072 29.0772 75.2036C29.0772 74.1999 29.8909 73.3862 30.8946 73.3862C31.8983 73.3862 32.7119 74.1999 32.7119 75.2036Z" fill="url(#paint51_linear_383_7415)"/>
<path d="M61.7892 75.2036C61.7892 76.2072 60.9755 77.0209 59.9718 77.0209C58.9681 77.0209 58.1545 76.2072 58.1545 75.2036C58.1545 74.1999 58.9681 73.3862 59.9718 73.3862C60.9755 73.3862 61.7892 74.1999 61.7892 75.2036Z" fill="url(#paint52_linear_383_7415)"/>
<path d="M90.8664 75.2036C90.8664 76.2072 90.0528 77.0209 89.0491 77.0209C88.0454 77.0209 87.2317 76.2072 87.2317 75.2036C87.2317 74.1999 88.0454 73.3862 89.0491 73.3862C90.0528 73.3862 90.8664 74.1999 90.8664 75.2036Z" fill="url(#paint53_linear_383_7415)"/>
<path d="M119.944 75.2036C119.944 76.2072 119.13 77.0209 118.126 77.0209C117.123 77.0209 116.309 76.2072 116.309 75.2036C116.309 74.1999 117.123 73.3862 118.126 73.3862C119.13 73.3862 119.944 74.1999 119.944 75.2036Z" fill="url(#paint54_linear_383_7415)"/>
<path d="M149.021 75.2036C149.021 76.2072 148.207 77.0209 147.204 77.0209C146.2 77.0209 145.386 76.2072 145.386 75.2036C145.386 74.1999 146.2 73.3862 147.204 73.3862C148.207 73.3862 149.021 74.1999 149.021 75.2036Z" fill="url(#paint55_linear_383_7415)"/>
<path d="M178.098 75.2036C178.098 76.2072 177.285 77.0209 176.281 77.0209C175.277 77.0209 174.463 76.2072 174.463 75.2036C174.463 74.1999 175.277 73.3862 176.281 73.3862C177.285 73.3862 178.098 74.1999 178.098 75.2036Z" fill="url(#paint56_linear_383_7415)"/>
<path d="M207.175 75.2036C207.175 76.2072 206.362 77.0209 205.358 77.0209C204.354 77.0209 203.541 76.2072 203.541 75.2036C203.541 74.1999 204.354 73.3862 205.358 73.3862C206.362 73.3862 207.175 74.1999 207.175 75.2036Z" fill="url(#paint57_linear_383_7415)"/>
<path d="M236.253 75.2036C236.253 76.2072 235.439 77.0209 234.435 77.0209C233.432 77.0209 232.618 76.2072 232.618 75.2036C232.618 74.1999 233.432 73.3862 234.435 73.3862C235.439 73.3862 236.253 74.1999 236.253 75.2036Z" fill="url(#paint58_linear_383_7415)"/>
<path d="M265.33 75.2036C265.33 76.2072 264.516 77.0209 263.513 77.0209C262.509 77.0209 261.695 76.2072 261.695 75.2036C261.695 74.1999 262.509 73.3862 263.513 73.3862C264.516 73.3862 265.33 74.1999 265.33 75.2036Z" fill="url(#paint59_linear_383_7415)"/>
<path d="M3.63466 104.281C3.63466 105.284 2.82101 106.098 1.81733 106.098C0.813645 106.098 0 105.284 0 104.281C0 103.277 0.813645 102.463 1.81733 102.463C2.82101 102.463 3.63466 103.277 3.63466 104.281Z" fill="url(#paint60_linear_383_7415)"/>
<path d="M32.7119 104.281C32.7119 105.284 31.8983 106.098 30.8946 106.098C29.8909 106.098 29.0772 105.284 29.0772 104.281C29.0772 103.277 29.8909 102.463 30.8946 102.463C31.8983 102.463 32.7119 103.277 32.7119 104.281Z" fill="url(#paint61_linear_383_7415)"/>
<path d="M61.7892 104.281C61.7892 105.284 60.9755 106.098 59.9718 106.098C58.9681 106.098 58.1545 105.284 58.1545 104.281C58.1545 103.277 58.9681 102.463 59.9718 102.463C60.9755 102.463 61.7892 103.277 61.7892 104.281Z" fill="url(#paint62_linear_383_7415)"/>
<path d="M90.8664 104.281C90.8664 105.284 90.0528 106.098 89.0491 106.098C88.0454 106.098 87.2317 105.284 87.2317 104.281C87.2317 103.277 88.0454 102.463 89.0491 102.463C90.0528 102.463 90.8664 103.277 90.8664 104.281Z" fill="url(#paint63_linear_383_7415)"/>
<path d="M119.944 104.281C119.944 105.284 119.13 106.098 118.126 106.098C117.123 106.098 116.309 105.284 116.309 104.281C116.309 103.277 117.123 102.463 118.126 102.463C119.13 102.463 119.944 103.277 119.944 104.281Z" fill="url(#paint64_linear_383_7415)"/>
<path d="M149.021 104.281C149.021 105.284 148.207 106.098 147.204 106.098C146.2 106.098 145.386 105.284 145.386 104.281C145.386 103.277 146.2 102.463 147.204 102.463C148.207 102.463 149.021 103.277 149.021 104.281Z" fill="url(#paint65_linear_383_7415)"/>
<path d="M178.098 104.281C178.098 105.284 177.285 106.098 176.281 106.098C175.277 106.098 174.463 105.284 174.463 104.281C174.463 103.277 175.277 102.463 176.281 102.463C177.285 102.463 178.098 103.277 178.098 104.281Z" fill="url(#paint66_linear_383_7415)"/>
<path d="M207.175 104.281C207.175 105.284 206.362 106.098 205.358 106.098C204.354 106.098 203.541 105.284 203.541 104.281C203.541 103.277 204.354 102.463 205.358 102.463C206.362 102.463 207.175 103.277 207.175 104.281Z" fill="url(#paint67_linear_383_7415)"/>
<path d="M236.253 104.281C236.253 105.284 235.439 106.098 234.435 106.098C233.432 106.098 232.618 105.284 232.618 104.281C232.618 103.277 233.432 102.463 234.435 102.463C235.439 102.463 236.253 103.277 236.253 104.281Z" fill="url(#paint68_linear_383_7415)"/>
<path d="M265.33 104.281C265.33 105.284 264.516 106.098 263.513 106.098C262.509 106.098 261.695 105.284 261.695 104.281C261.695 103.277 262.509 102.463 263.513 102.463C264.516 102.463 265.33 103.277 265.33 104.281Z" fill="url(#paint69_linear_383_7415)"/>
<path d="M3.63466 133.358C3.63466 134.362 2.82101 135.175 1.81733 135.175C0.813645 135.175 0 134.362 0 133.358C0 132.354 0.813645 131.541 1.81733 131.541C2.82101 131.541 3.63466 132.354 3.63466 133.358Z" fill="url(#paint70_linear_383_7415)"/>
<path d="M32.7119 133.358C32.7119 134.362 31.8983 135.175 30.8946 135.175C29.8909 135.175 29.0772 134.362 29.0772 133.358C29.0772 132.354 29.8909 131.541 30.8946 131.541C31.8983 131.541 32.7119 132.354 32.7119 133.358Z" fill="url(#paint71_linear_383_7415)"/>
<path d="M61.7892 133.358C61.7892 134.362 60.9755 135.175 59.9718 135.175C58.9681 135.175 58.1545 134.362 58.1545 133.358C58.1545 132.354 58.9681 131.541 59.9718 131.541C60.9755 131.541 61.7892 132.354 61.7892 133.358Z" fill="url(#paint72_linear_383_7415)"/>
<path d="M90.8664 133.358C90.8664 134.362 90.0528 135.175 89.0491 135.175C88.0454 135.175 87.2317 134.362 87.2317 133.358C87.2317 132.354 88.0454 131.541 89.0491 131.541C90.0528 131.541 90.8664 132.354 90.8664 133.358Z" fill="url(#paint73_linear_383_7415)"/>
<path d="M119.944 133.358C119.944 134.362 119.13 135.175 118.126 135.175C117.123 135.175 116.309 134.362 116.309 133.358C116.309 132.354 117.123 131.541 118.126 131.541C119.13 131.541 119.944 132.354 119.944 133.358Z" fill="url(#paint74_linear_383_7415)"/>
<path d="M149.021 133.358C149.021 134.362 148.207 135.175 147.204 135.175C146.2 135.175 145.386 134.362 145.386 133.358C145.386 132.354 146.2 131.541 147.204 131.541C148.207 131.541 149.021 132.354 149.021 133.358Z" fill="url(#paint75_linear_383_7415)"/>
<path d="M178.098 133.358C178.098 134.362 177.285 135.175 176.281 135.175C175.277 135.175 174.463 134.362 174.463 133.358C174.463 132.354 175.277 131.541 176.281 131.541C177.285 131.541 178.098 132.354 178.098 133.358Z" fill="url(#paint76_linear_383_7415)"/>
<path d="M207.175 133.358C207.175 134.362 206.362 135.175 205.358 135.175C204.354 135.175 203.541 134.362 203.541 133.358C203.541 132.354 204.354 131.541 205.358 131.541C206.362 131.541 207.175 132.354 207.175 133.358Z" fill="url(#paint77_linear_383_7415)"/>
<path d="M236.253 133.358C236.253 134.362 235.439 135.175 234.435 135.175C233.432 135.175 232.618 134.362 232.618 133.358C232.618 132.354 233.432 131.541 234.435 131.541C235.439 131.541 236.253 132.354 236.253 133.358Z" fill="url(#paint78_linear_383_7415)"/>
<path d="M265.33 133.358C265.33 134.362 264.516 135.175 263.513 135.175C262.509 135.175 261.695 134.362 261.695 133.358C261.695 132.354 262.509 131.541 263.513 131.541C264.516 131.541 265.33 132.354 265.33 133.358Z" fill="url(#paint79_linear_383_7415)"/>
<path d="M3.63466 162.435C3.63466 163.439 2.82101 164.253 1.81733 164.253C0.813645 164.253 0 163.439 0 162.435C0 161.432 0.813645 160.618 1.81733 160.618C2.82101 160.618 3.63466 161.432 3.63466 162.435Z" fill="url(#paint80_linear_383_7415)"/>
<path d="M32.7119 162.435C32.7119 163.439 31.8983 164.253 30.8946 164.253C29.8909 164.253 29.0772 163.439 29.0772 162.435C29.0772 161.432 29.8909 160.618 30.8946 160.618C31.8983 160.618 32.7119 161.432 32.7119 162.435Z" fill="url(#paint81_linear_383_7415)"/>
<path d="M61.7892 162.435C61.7892 163.439 60.9755 164.253 59.9718 164.253C58.9681 164.253 58.1545 163.439 58.1545 162.435C58.1545 161.432 58.9681 160.618 59.9718 160.618C60.9755 160.618 61.7892 161.432 61.7892 162.435Z" fill="url(#paint82_linear_383_7415)"/>
<path d="M90.8664 162.435C90.8664 163.439 90.0528 164.253 89.0491 164.253C88.0454 164.253 87.2317 163.439 87.2317 162.435C87.2317 161.432 88.0454 160.618 89.0491 160.618C90.0528 160.618 90.8664 161.432 90.8664 162.435Z" fill="url(#paint83_linear_383_7415)"/>
<path d="M119.944 162.435C119.944 163.439 119.13 164.253 118.126 164.253C117.123 164.253 116.309 163.439 116.309 162.435C116.309 161.432 117.123 160.618 118.126 160.618C119.13 160.618 119.944 161.432 119.944 162.435Z" fill="url(#paint84_linear_383_7415)"/>
<path d="M149.021 162.435C149.021 163.439 148.207 164.253 147.204 164.253C146.2 164.253 145.386 163.439 145.386 162.435C145.386 161.432 146.2 160.618 147.204 160.618C148.207 160.618 149.021 161.432 149.021 162.435Z" fill="url(#paint85_linear_383_7415)"/>
<path d="M178.098 162.435C178.098 163.439 177.285 164.253 176.281 164.253C175.277 164.253 174.463 163.439 174.463 162.435C174.463 161.432 175.277 160.618 176.281 160.618C177.285 160.618 178.098 161.432 178.098 162.435Z" fill="url(#paint86_linear_383_7415)"/>
<path d="M207.175 162.435C207.175 163.439 206.362 164.253 205.358 164.253C204.354 164.253 203.541 163.439 203.541 162.435C203.541 161.432 204.354 160.618 205.358 160.618C206.362 160.618 207.175 161.432 207.175 162.435Z" fill="url(#paint87_linear_383_7415)"/>
<path d="M236.253 162.435C236.253 163.439 235.439 164.253 234.435 164.253C233.432 164.253 232.618 163.439 232.618 162.435C232.618 161.432 233.432 160.618 234.435 160.618C235.439 160.618 236.253 161.432 236.253 162.435Z" fill="url(#paint88_linear_383_7415)"/>
<path d="M265.33 162.435C265.33 163.439 264.516 164.253 263.513 164.253C262.509 164.253 261.695 163.439 261.695 162.435C261.695 161.432 262.509 160.618 263.513 160.618C264.516 160.618 265.33 161.432 265.33 162.435Z" fill="url(#paint89_linear_383_7415)"/>
<path d="M3.63466 191.513C3.63466 192.516 2.82101 193.33 1.81733 193.33C0.813645 193.33 0 192.516 0 191.513C0 190.509 0.813645 189.695 1.81733 189.695C2.82101 189.695 3.63466 190.509 3.63466 191.513Z" fill="url(#paint90_linear_383_7415)"/>
<path d="M32.7119 191.513C32.7119 192.516 31.8983 193.33 30.8946 193.33C29.8909 193.33 29.0772 192.516 29.0772 191.513C29.0772 190.509 29.8909 189.695 30.8946 189.695C31.8983 189.695 32.7119 190.509 32.7119 191.513Z" fill="url(#paint91_linear_383_7415)"/>
<path d="M61.7892 191.513C61.7892 192.516 60.9755 193.33 59.9718 193.33C58.9681 193.33 58.1545 192.516 58.1545 191.513C58.1545 190.509 58.9681 189.695 59.9718 189.695C60.9755 189.695 61.7892 190.509 61.7892 191.513Z" fill="url(#paint92_linear_383_7415)"/>
<path d="M90.8664 191.513C90.8664 192.516 90.0528 193.33 89.0491 193.33C88.0454 193.33 87.2317 192.516 87.2317 191.513C87.2317 190.509 88.0454 189.695 89.0491 189.695C90.0528 189.695 90.8664 190.509 90.8664 191.513Z" fill="url(#paint93_linear_383_7415)"/>
<path d="M119.944 191.513C119.944 192.516 119.13 193.33 118.126 193.33C117.123 193.33 116.309 192.516 116.309 191.513C116.309 190.509 117.123 189.695 118.126 189.695C119.13 189.695 119.944 190.509 119.944 191.513Z" fill="url(#paint94_linear_383_7415)"/>
<path d="M149.021 191.513C149.021 192.516 148.207 193.33 147.204 193.33C146.2 193.33 145.386 192.516 145.386 191.513C145.386 190.509 146.2 189.695 147.204 189.695C148.207 189.695 149.021 190.509 149.021 191.513Z" fill="url(#paint95_linear_383_7415)"/>
<path d="M178.098 191.513C178.098 192.516 177.285 193.33 176.281 193.33C175.277 193.33 174.463 192.516 174.463 191.513C174.463 190.509 175.277 189.695 176.281 189.695C177.285 189.695 178.098 190.509 178.098 191.513Z" fill="url(#paint96_linear_383_7415)"/>
<path d="M207.175 191.513C207.175 192.516 206.362 193.33 205.358 193.33C204.354 193.33 203.541 192.516 203.541 191.513C203.541 190.509 204.354 189.695 205.358 189.695C206.362 189.695 207.175 190.509 207.175 191.513Z" fill="url(#paint97_linear_383_7415)"/>
<path d="M236.253 191.513C236.253 192.516 235.439 193.33 234.435 193.33C233.432 193.33 232.618 192.516 232.618 191.513C232.618 190.509 233.432 189.695 234.435 189.695C235.439 189.695 236.253 190.509 236.253 191.513Z" fill="url(#paint98_linear_383_7415)"/>
<path d="M265.33 191.513C265.33 192.516 264.516 193.33 263.513 193.33C262.509 193.33 261.695 192.516 261.695 191.513C261.695 190.509 262.509 189.695 263.513 189.695C264.516 189.695 265.33 190.509 265.33 191.513Z" fill="url(#paint99_linear_383_7415)"/>
<path d="M3.63466 220.59C3.63466 221.593 2.82101 222.407 1.81733 222.407C0.813645 222.407 0 221.593 0 220.59C0 219.586 0.813645 218.772 1.81733 218.772C2.82101 218.772 3.63466 219.586 3.63466 220.59Z" fill="url(#paint100_linear_383_7415)"/>
<path d="M32.7119 220.59C32.7119 221.593 31.8983 222.407 30.8946 222.407C29.8909 222.407 29.0772 221.593 29.0772 220.59C29.0772 219.586 29.8909 218.772 30.8946 218.772C31.8983 218.772 32.7119 219.586 32.7119 220.59Z" fill="url(#paint101_linear_383_7415)"/>
<path d="M61.7892 220.59C61.7892 221.593 60.9755 222.407 59.9718 222.407C58.9681 222.407 58.1545 221.593 58.1545 220.59C58.1545 219.586 58.9681 218.772 59.9718 218.772C60.9755 218.772 61.7892 219.586 61.7892 220.59Z" fill="url(#paint102_linear_383_7415)"/>
<path d="M90.8664 220.59C90.8664 221.593 90.0528 222.407 89.0491 222.407C88.0454 222.407 87.2317 221.593 87.2317 220.59C87.2317 219.586 88.0454 218.772 89.0491 218.772C90.0528 218.772 90.8664 219.586 90.8664 220.59Z" fill="url(#paint103_linear_383_7415)"/>
<path d="M119.944 220.59C119.944 221.593 119.13 222.407 118.126 222.407C117.123 222.407 116.309 221.593 116.309 220.59C116.309 219.586 117.123 218.772 118.126 218.772C119.13 218.772 119.944 219.586 119.944 220.59Z" fill="url(#paint104_linear_383_7415)"/>
<path d="M149.021 220.59C149.021 221.593 148.207 222.407 147.204 222.407C146.2 222.407 145.386 221.593 145.386 220.59C145.386 219.586 146.2 218.772 147.204 218.772C148.207 218.772 149.021 219.586 149.021 220.59Z" fill="url(#paint105_linear_383_7415)"/>
<path d="M178.098 220.59C178.098 221.593 177.285 222.407 176.281 222.407C175.277 222.407 174.463 221.593 174.463 220.59C174.463 219.586 175.277 218.772 176.281 218.772C177.285 218.772 178.098 219.586 178.098 220.59Z" fill="url(#paint106_linear_383_7415)"/>
<path d="M207.175 220.59C207.175 221.593 206.362 222.407 205.358 222.407C204.354 222.407 203.541 221.593 203.541 220.59C203.541 219.586 204.354 218.772 205.358 218.772C206.362 218.772 207.175 219.586 207.175 220.59Z" fill="url(#paint107_linear_383_7415)"/>
<path d="M236.253 220.59C236.253 221.593 235.439 222.407 234.435 222.407C233.432 222.407 232.618 221.593 232.618 220.59C232.618 219.586 233.432 218.772 234.435 218.772C235.439 218.772 236.253 219.586 236.253 220.59Z" fill="url(#paint108_linear_383_7415)"/>
<path d="M265.33 220.59C265.33 221.593 264.516 222.407 263.513 222.407C262.509 222.407 261.695 221.593 261.695 220.59C261.695 219.586 262.509 218.772 263.513 218.772C264.516 218.772 265.33 219.586 265.33 220.59Z" fill="url(#paint109_linear_383_7415)"/>
<path d="M3.63466 249.667C3.63466 250.671 2.82101 251.484 1.81733 251.484C0.813645 251.484 0 250.671 0 249.667C0 248.663 0.813645 247.85 1.81733 247.85C2.82101 247.85 3.63466 248.663 3.63466 249.667Z" fill="url(#paint110_linear_383_7415)"/>
<path d="M32.7119 249.667C32.7119 250.671 31.8983 251.484 30.8946 251.484C29.8909 251.484 29.0772 250.671 29.0772 249.667C29.0772 248.663 29.8909 247.85 30.8946 247.85C31.8983 247.85 32.7119 248.663 32.7119 249.667Z" fill="url(#paint111_linear_383_7415)"/>
<path d="M61.7892 249.667C61.7892 250.671 60.9755 251.484 59.9718 251.484C58.9681 251.484 58.1545 250.671 58.1545 249.667C58.1545 248.663 58.9681 247.85 59.9718 247.85C60.9755 247.85 61.7892 248.663 61.7892 249.667Z" fill="url(#paint112_linear_383_7415)"/>
<path d="M90.8664 249.667C90.8664 250.671 90.0528 251.484 89.0491 251.484C88.0454 251.484 87.2317 250.671 87.2317 249.667C87.2317 248.663 88.0454 247.85 89.0491 247.85C90.0528 247.85 90.8664 248.663 90.8664 249.667Z" fill="url(#paint113_linear_383_7415)"/>
<path d="M119.944 249.667C119.944 250.671 119.13 251.484 118.126 251.484C117.123 251.484 116.309 250.671 116.309 249.667C116.309 248.663 117.123 247.85 118.126 247.85C119.13 247.85 119.944 248.663 119.944 249.667Z" fill="url(#paint114_linear_383_7415)"/>
<path d="M149.021 249.667C149.021 250.671 148.207 251.484 147.204 251.484C146.2 251.484 145.386 250.671 145.386 249.667C145.386 248.663 146.2 247.85 147.204 247.85C148.207 247.85 149.021 248.663 149.021 249.667Z" fill="url(#paint115_linear_383_7415)"/>
<path d="M178.098 249.667C178.098 250.671 177.285 251.484 176.281 251.484C175.277 251.484 174.463 250.671 174.463 249.667C174.463 248.663 175.277 247.85 176.281 247.85C177.285 247.85 178.098 248.663 178.098 249.667Z" fill="url(#paint116_linear_383_7415)"/>
<path d="M207.175 249.667C207.175 250.671 206.362 251.484 205.358 251.484C204.354 251.484 203.541 250.671 203.541 249.667C203.541 248.663 204.354 247.85 205.358 247.85C206.362 247.85 207.175 248.663 207.175 249.667Z" fill="url(#paint117_linear_383_7415)"/>
<path d="M236.253 249.667C236.253 250.671 235.439 251.484 234.435 251.484C233.432 251.484 232.618 250.671 232.618 249.667C232.618 248.663 233.432 247.85 234.435 247.85C235.439 247.85 236.253 248.663 236.253 249.667Z" fill="url(#paint118_linear_383_7415)"/>
<path d="M265.33 249.667C265.33 250.671 264.516 251.484 263.513 251.484C262.509 251.484 261.695 250.671 261.695 249.667C261.695 248.663 262.509 247.85 263.513 247.85C264.516 247.85 265.33 248.663 265.33 249.667Z" fill="url(#paint119_linear_383_7415)"/>
<path d="M3.63466 278.744C3.63466 279.748 2.82101 280.562 1.81733 280.562C0.813645 280.562 0 279.748 0 278.744C0 277.741 0.813645 276.927 1.81733 276.927C2.82101 276.927 3.63466 277.741 3.63466 278.744Z" fill="url(#paint120_linear_383_7415)"/>
<path d="M32.7119 278.744C32.7119 279.748 31.8983 280.562 30.8946 280.562C29.8909 280.562 29.0772 279.748 29.0772 278.744C29.0772 277.741 29.8909 276.927 30.8946 276.927C31.8983 276.927 32.7119 277.741 32.7119 278.744Z" fill="url(#paint121_linear_383_7415)"/>
<path d="M61.7892 278.744C61.7892 279.748 60.9755 280.562 59.9718 280.562C58.9681 280.562 58.1545 279.748 58.1545 278.744C58.1545 277.741 58.9681 276.927 59.9718 276.927C60.9755 276.927 61.7892 277.741 61.7892 278.744Z" fill="url(#paint122_linear_383_7415)"/>
<path d="M90.8664 278.744C90.8664 279.748 90.0528 280.562 89.0491 280.562C88.0454 280.562 87.2317 279.748 87.2317 278.744C87.2317 277.741 88.0454 276.927 89.0491 276.927C90.0528 276.927 90.8664 277.741 90.8664 278.744Z" fill="url(#paint123_linear_383_7415)"/>
<path d="M119.944 278.744C119.944 279.748 119.13 280.562 118.126 280.562C117.123 280.562 116.309 279.748 116.309 278.744C116.309 277.741 117.123 276.927 118.126 276.927C119.13 276.927 119.944 277.741 119.944 278.744Z" fill="url(#paint124_linear_383_7415)"/>
<path d="M149.021 278.744C149.021 279.748 148.207 280.562 147.204 280.562C146.2 280.562 145.386 279.748 145.386 278.744C145.386 277.741 146.2 276.927 147.204 276.927C148.207 276.927 149.021 277.741 149.021 278.744Z" fill="url(#paint125_linear_383_7415)"/>
<path d="M178.098 278.744C178.098 279.748 177.285 280.562 176.281 280.562C175.277 280.562 174.463 279.748 174.463 278.744C174.463 277.741 175.277 276.927 176.281 276.927C177.285 276.927 178.098 277.741 178.098 278.744Z" fill="url(#paint126_linear_383_7415)"/>
<path d="M207.175 278.744C207.175 279.748 206.362 280.562 205.358 280.562C204.354 280.562 203.541 279.748 203.541 278.744C203.541 277.741 204.354 276.927 205.358 276.927C206.362 276.927 207.175 277.741 207.175 278.744Z" fill="url(#paint127_linear_383_7415)"/>
<path d="M236.253 278.744C236.253 279.748 235.439 280.562 234.435 280.562C233.432 280.562 232.618 279.748 232.618 278.744C232.618 277.741 233.432 276.927 234.435 276.927C235.439 276.927 236.253 277.741 236.253 278.744Z" fill="url(#paint128_linear_383_7415)"/>
<path d="M265.33 278.744C265.33 279.748 264.516 280.562 263.513 280.562C262.509 280.562 261.695 279.748 261.695 278.744C261.695 277.741 262.509 276.927 263.513 276.927C264.516 276.927 265.33 277.741 265.33 278.744Z" fill="url(#paint129_linear_383_7415)"/>
</mask>
<g mask="url(#mask0_383_7415)">
<rect x="-6.05762" y="-80.481" width="278.051" height="368.918" fill="url(#paint130_radial_383_7415)"/>
</g>
<defs>
<linearGradient id="paint0_linear_383_7415" x1="3.02888" y1="-63.5191" x2="476.746" y2="280.562" gradientUnits="userSpaceOnUse">
<stop stop-color="#D9D9D9" stop-opacity="0"/>
<stop offset="0.50257" stop-color="#011E0F"/>
<stop offset="1" stop-color="#6D7C74" stop-opacity="0"/>
</linearGradient>
<linearGradient id="paint1_linear_383_7415" x1="3.02888" y1="-63.5191" x2="476.746" y2="280.562" gradientUnits="userSpaceOnUse">
<stop stop-color="#D9D9D9" stop-opacity="0"/>
<stop offset="0.50257" stop-color="#011E0F"/>
<stop offset="1" stop-color="#6D7C74" stop-opacity="0"/>
</linearGradient>
<linearGradient id="paint2_linear_383_7415" x1="3.02888" y1="-63.5191" x2="476.746" y2="280.562" gradientUnits="userSpaceOnUse">
<stop stop-color="#D9D9D9" stop-opacity="0"/>
<stop offset="0.50257" stop-color="#011E0F"/>
<stop offset="1" stop-color="#6D7C74" stop-opacity="0"/>
</linearGradient>
<linearGradient id="paint3_linear_383_7415" x1="3.02888" y1="-63.5191" x2="476.746" y2="280.562" gradientUnits="userSpaceOnUse">
<stop stop-color="#D9D9D9" stop-opacity="0"/>
<stop offset="0.50257" stop-color="#011E0F"/>
<stop offset="1" stop-color="#6D7C74" stop-opacity="0"/>
</linearGradient>
<linearGradient id="paint4_linear_383_7415" x1="3.02888" y1="-63.5191" x2="476.746" y2="280.562" gradientUnits="userSpaceOnUse">
<stop stop-color="#D9D9D9" stop-opacity="0"/>
<stop offset="0.50257" stop-color="#011E0F"/>
<stop offset="1" stop-color="#6D7C74" stop-opacity="0"/>
</linearGradient>
<linearGradient id="paint5_linear_383_7415" x1="3.02888" y1="-63.5191" x2="476.746" y2="280.562" gradientUnits="userSpaceOnUse">
<stop stop-color="#D9D9D9" stop-opacity="0"/>
<stop offset="0.50257" stop-color="#011E0F"/>
<stop offset="1" stop-color="#6D7C74" stop-opacity="0"/>
</linearGradient>
<linearGradient id="paint6_linear_383_7415" x1="3.02888" y1="-63.5191" x2="476.746" y2="280.562" gradientUnits="userSpaceOnUse">
<stop stop-color="#D9D9D9" stop-opacity="0"/>
<stop offset="0.50257" stop-color="#011E0F"/>
<stop offset="1" stop-color="#6D7C74" stop-opacity="0"/>
</linearGradient>
<linearGradient id="paint7_linear_383_7415" x1="3.02888" y1="-63.5191" x2="476.746" y2="280.562" gradientUnits="userSpaceOnUse">
<stop stop-color="#D9D9D9" stop-opacity="0"/>
<stop offset="0.50257" stop-color="#011E0F"/>
<stop offset="1" stop-color="#6D7C74" stop-opacity="0"/>
</linearGradient>
<linearGradient id="paint8_linear_383_7415" x1="3.02888" y1="-63.5191" x2="476.746" y2="280.562" gradientUnits="userSpaceOnUse">
<stop stop-color="#D9D9D9" stop-opacity="0"/>
<stop offset="0.50257" stop-color="#011E0F"/>
<stop offset="1" stop-color="#6D7C74" stop-opacity="0"/>
</linearGradient>
<linearGradient id="paint9_linear_383_7415" x1="3.02888" y1="-63.5191" x2="476.746" y2="280.562" gradientUnits="userSpaceOnUse">
<stop stop-color="#D9D9D9" stop-opacity="0"/>
<stop offset="0.50257" stop-color="#011E0F"/>
<stop offset="1" stop-color="#6D7C74" stop-opacity="0"/>
</linearGradient>
<linearGradient id="paint10_linear_383_7415" x1="3.02888" y1="-63.5191" x2="476.746" y2="280.562" gradientUnits="userSpaceOnUse">
<stop stop-color="#D9D9D9" stop-opacity="0"/>
<stop offset="0.50257" stop-color="#011E0F"/>
<stop offset="1" stop-color="#6D7C74" stop-opacity="0"/>
</linearGradient>
<linearGradient id="paint11_linear_383_7415" x1="3.02888" y1="-63.5191" x2="476.746" y2="280.562" gradientUnits="userSpaceOnUse">
<stop stop-color="#D9D9D9" stop-opacity="0"/>
<stop offset="0.50257" stop-color="#011E0F"/>
<stop offset="1" stop-color="#6D7C74" stop-opacity="0"/>
</linearGradient>
<linearGradient id="paint12_linear_383_7415" x1="3.02888" y1="-63.5191" x2="476.746" y2="280.562" gradientUnits="userSpaceOnUse">
<stop stop-color="#D9D9D9" stop-opacity="0"/>
<stop offset="0.50257" stop-color="#011E0F"/>
<stop offset="1" stop-color="#6D7C74" stop-opacity="0"/>
</linearGradient>
<linearGradient id="paint13_linear_383_7415" x1="3.02888" y1="-63.5191" x2="476.746" y2="280.562" gradientUnits="userSpaceOnUse">
<stop stop-color="#D9D9D9" stop-opacity="0"/>
<stop offset="0.50257" stop-color="#011E0F"/>
<stop offset="1" stop-color="#6D7C74" stop-opacity="0"/>
</linearGradient>
<linearGradient id="paint14_linear_383_7415" x1="3.02888" y1="-63.5191" x2="476.746" y2="280.562" gradientUnits="userSpaceOnUse">
<stop stop-color="#D9D9D9" stop-opacity="0"/>
<stop offset="0.50257" stop-color="#011E0F"/>
<stop offset="1" stop-color="#6D7C74" stop-opacity="0"/>
</linearGradient>
<linearGradient id="paint15_linear_383_7415" x1="3.02888" y1="-63.5191" x2="476.746" y2="280.562" gradientUnits="userSpaceOnUse">
<stop stop-color="#D9D9D9" stop-opacity="0"/>
<stop offset="0.50257" stop-color="#011E0F"/>
<stop offset="1" stop-color="#6D7C74" stop-opacity="0"/>
</linearGradient>
<linearGradient id="paint16_linear_383_7415" x1="3.02888" y1="-63.5191" x2="476.746" y2="280.562" gradientUnits="userSpaceOnUse">
<stop stop-color="#D9D9D9" stop-opacity="0"/>
<stop offset="0.50257" stop-color="#011E0F"/>
<stop offset="1" stop-color="#6D7C74" stop-opacity="0"/>
</linearGradient>
<linearGradient id="paint17_linear_383_7415" x1="3.02888" y1="-63.5191" x2="476.746" y2="280.562" gradientUnits="userSpaceOnUse">
<stop stop-color="#D9D9D9" stop-opacity="0"/>
<stop offset="0.50257" stop-color="#011E0F"/>
<stop offset="1" stop-color="#6D7C74" stop-opacity="0"/>
</linearGradient>
<linearGradient id="paint18_linear_383_7415" x1="3.02888" y1="-63.5191" x2="476.746" y2="280.562" gradientUnits="userSpaceOnUse">
<stop stop-color="#D9D9D9" stop-opacity="0"/>
<stop offset="0.50257" stop-color="#011E0F"/>
<stop offset="1" stop-color="#6D7C74" stop-opacity="0"/>
</linearGradient>
<linearGradient id="paint19_linear_383_7415" x1="3.02888" y1="-63.5191" x2="476.746" y2="280.562" gradientUnits="userSpaceOnUse">
<stop stop-color="#D9D9D9" stop-opacity="0"/>
<stop offset="0.50257" stop-color="#011E0F"/>
<stop offset="1" stop-color="#6D7C74" stop-opacity="0"/>
</linearGradient>
<linearGradient id="paint20_linear_383_7415" x1="3.02888" y1="-63.5191" x2="476.746" y2="280.562" gradientUnits="userSpaceOnUse">
<stop stop-color="#D9D9D9" stop-opacity="0"/>
<stop offset="0.50257" stop-color="#011E0F"/>
<stop offset="1" stop-color="#6D7C74" stop-opacity="0"/>
</linearGradient>
<linearGradient id="paint21_linear_383_7415" x1="3.02888" y1="-63.5191" x2="476.746" y2="280.562" gradientUnits="userSpaceOnUse">
<stop stop-color="#D9D9D9" stop-opacity="0"/>
<stop offset="0.50257" stop-color="#011E0F"/>
<stop offset="1" stop-color="#6D7C74" stop-opacity="0"/>
</linearGradient>
<linearGradient id="paint22_linear_383_7415" x1="3.02888" y1="-63.5191" x2="476.746" y2="280.562" gradientUnits="userSpaceOnUse">
<stop stop-color="#D9D9D9" stop-opacity="0"/>
<stop offset="0.50257" stop-color="#011E0F"/>
<stop offset="1" stop-color="#6D7C74" stop-opacity="0"/>
</linearGradient>
<linearGradient id="paint23_linear_383_7415" x1="3.02888" y1="-63.5191" x2="476.746" y2="280.562" gradientUnits="userSpaceOnUse">
<stop stop-color="#D9D9D9" stop-opacity="0"/>
<stop offset="0.50257" stop-color="#011E0F"/>
<stop offset="1" stop-color="#6D7C74" stop-opacity="0"/>
</linearGradient>
<linearGradient id="paint24_linear_383_7415" x1="3.02888" y1="-63.5191" x2="476.746" y2="280.562" gradientUnits="userSpaceOnUse">
<stop stop-color="#D9D9D9" stop-opacity="0"/>
<stop offset="0.50257" stop-color="#011E0F"/>
<stop offset="1" stop-color="#6D7C74" stop-opacity="0"/>
</linearGradient>
<linearGradient id="paint25_linear_383_7415" x1="3.02888" y1="-63.5191" x2="476.746" y2="280.562" gradientUnits="userSpaceOnUse">
<stop stop-color="#D9D9D9" stop-opacity="0"/>
<stop offset="0.50257" stop-color="#011E0F"/>
<stop offset="1" stop-color="#6D7C74" stop-opacity="0"/>
</linearGradient>
<linearGradient id="paint26_linear_383_7415" x1="3.02888" y1="-63.5191" x2="476.746" y2="280.562" gradientUnits="userSpaceOnUse">
<stop stop-color="#D9D9D9" stop-opacity="0"/>
<stop offset="0.50257" stop-color="#011E0F"/>
<stop offset="1" stop-color="#6D7C74" stop-opacity="0"/>
</linearGradient>
<linearGradient id="paint27_linear_383_7415" x1="3.02888" y1="-63.5191" x2="476.746" y2="280.562" gradientUnits="userSpaceOnUse">
<stop stop-color="#D9D9D9" stop-opacity="0"/>
<stop offset="0.50257" stop-color="#011E0F"/>
<stop offset="1" stop-color="#6D7C74" stop-opacity="0"/>
</linearGradient>
<linearGradient id="paint28_linear_383_7415" x1="3.02888" y1="-63.5191" x2="476.746" y2="280.562" gradientUnits="userSpaceOnUse">
<stop stop-color="#D9D9D9" stop-opacity="0"/>
<stop offset="0.50257" stop-color="#011E0F"/>
<stop offset="1" stop-color="#6D7C74" stop-opacity="0"/>
</linearGradient>
<linearGradient id="paint29_linear_383_7415" x1="3.02888" y1="-63.5191" x2="476.746" y2="280.562" gradientUnits="userSpaceOnUse">
<stop stop-color="#D9D9D9" stop-opacity="0"/>
<stop offset="0.50257" stop-color="#011E0F"/>
<stop offset="1" stop-color="#6D7C74" stop-opacity="0"/>
</linearGradient>
<linearGradient id="paint30_linear_383_7415" x1="3.02888" y1="-63.5191" x2="476.746" y2="280.562" gradientUnits="userSpaceOnUse">
<stop stop-color="#D9D9D9" stop-opacity="0"/>
<stop offset="0.50257" stop-color="#011E0F"/>
<stop offset="1" stop-color="#6D7C74" stop-opacity="0"/>
</linearGradient>
<linearGradient id="paint31_linear_383_7415" x1="3.02888" y1="-63.5191" x2="476.746" y2="280.562" gradientUnits="userSpaceOnUse">
<stop stop-color="#D9D9D9" stop-opacity="0"/>
<stop offset="0.50257" stop-color="#011E0F"/>
<stop offset="1" stop-color="#6D7C74" stop-opacity="0"/>
</linearGradient>
<linearGradient id="paint32_linear_383_7415" x1="3.02888" y1="-63.5191" x2="476.746" y2="280.562" gradientUnits="userSpaceOnUse">
<stop stop-color="#D9D9D9" stop-opacity="0"/>
<stop offset="0.50257" stop-color="#011E0F"/>
<stop offset="1" stop-color="#6D7C74" stop-opacity="0"/>
</linearGradient>
<linearGradient id="paint33_linear_383_7415" x1="3.02888" y1="-63.5191" x2="476.746" y2="280.562" gradientUnits="userSpaceOnUse">
<stop stop-color="#D9D9D9" stop-opacity="0"/>
<stop offset="0.50257" stop-color="#011E0F"/>
<stop offset="1" stop-color="#6D7C74" stop-opacity="0"/>
</linearGradient>
<linearGradient id="paint34_linear_383_7415" x1="3.02888" y1="-63.5191" x2="476.746" y2="280.562" gradientUnits="userSpaceOnUse">
<stop stop-color="#D9D9D9" stop-opacity="0"/>
<stop offset="0.50257" stop-color="#011E0F"/>
<stop offset="1" stop-color="#6D7C74" stop-opacity="0"/>
</linearGradient>
<linearGradient id="paint35_linear_383_7415" x1="3.02888" y1="-63.5191" x2="476.746" y2="280.562" gradientUnits="userSpaceOnUse">
<stop stop-color="#D9D9D9" stop-opacity="0"/>
<stop offset="0.50257" stop-color="#011E0F"/>
<stop offset="1" stop-color="#6D7C74" stop-opacity="0"/>
</linearGradient>
<linearGradient id="paint36_linear_383_7415" x1="3.02888" y1="-63.5191" x2="476.746" y2="280.562" gradientUnits="userSpaceOnUse">
<stop stop-color="#D9D9D9" stop-opacity="0"/>
<stop offset="0.50257" stop-color="#011E0F"/>
<stop offset="1" stop-color="#6D7C74" stop-opacity="0"/>
</linearGradient>
<linearGradient id="paint37_linear_383_7415" x1="3.02888" y1="-63.5191" x2="476.746" y2="280.562" gradientUnits="userSpaceOnUse">
<stop stop-color="#D9D9D9" stop-opacity="0"/>
<stop offset="0.50257" stop-color="#011E0F"/>
<stop offset="1" stop-color="#6D7C74" stop-opacity="0"/>
</linearGradient>
<linearGradient id="paint38_linear_383_7415" x1="3.02888" y1="-63.5191" x2="476.746" y2="280.562" gradientUnits="userSpaceOnUse">
<stop stop-color="#D9D9D9" stop-opacity="0"/>
<stop offset="0.50257" stop-color="#011E0F"/>
<stop offset="1" stop-color="#6D7C74" stop-opacity="0"/>
</linearGradient>
<linearGradient id="paint39_linear_383_7415" x1="3.02888" y1="-63.5191" x2="476.746" y2="280.562" gradientUnits="userSpaceOnUse">
<stop stop-color="#D9D9D9" stop-opacity="0"/>
<stop offset="0.50257" stop-color="#011E0F"/>
<stop offset="1" stop-color="#6D7C74" stop-opacity="0"/>
</linearGradient>
<linearGradient id="paint40_linear_383_7415" x1="3.02888" y1="-63.5191" x2="476.746" y2="280.562" gradientUnits="userSpaceOnUse">
<stop stop-color="#D9D9D9" stop-opacity="0"/>
<stop offset="0.50257" stop-color="#011E0F"/>
<stop offset="1" stop-color="#6D7C74" stop-opacity="0"/>
</linearGradient>
<linearGradient id="paint41_linear_383_7415" x1="3.02888" y1="-63.5191" x2="476.746" y2="280.562" gradientUnits="userSpaceOnUse">
<stop stop-color="#D9D9D9" stop-opacity="0"/>
<stop offset="0.50257" stop-color="#011E0F"/>
<stop offset="1" stop-color="#6D7C74" stop-opacity="0"/>
</linearGradient>
<linearGradient id="paint42_linear_383_7415" x1="3.02888" y1="-63.5191" x2="476.746" y2="280.562" gradientUnits="userSpaceOnUse">
<stop stop-color="#D9D9D9" stop-opacity="0"/>
<stop offset="0.50257" stop-color="#011E0F"/>
<stop offset="1" stop-color="#6D7C74" stop-opacity="0"/>
</linearGradient>
<linearGradient id="paint43_linear_383_7415" x1="3.02888" y1="-63.5191" x2="476.746" y2="280.562" gradientUnits="userSpaceOnUse">
<stop stop-color="#D9D9D9" stop-opacity="0"/>
<stop offset="0.50257" stop-color="#011E0F"/>
<stop offset="1" stop-color="#6D7C74" stop-opacity="0"/>
</linearGradient>
<linearGradient id="paint44_linear_383_7415" x1="3.02888" y1="-63.5191" x2="476.746" y2="280.562" gradientUnits="userSpaceOnUse">
<stop stop-color="#D9D9D9" stop-opacity="0"/>
<stop offset="0.50257" stop-color="#011E0F"/>
<stop offset="1" stop-color="#6D7C74" stop-opacity="0"/>
</linearGradient>
<linearGradient id="paint45_linear_383_7415" x1="3.02888" y1="-63.5191" x2="476.746" y2="280.562" gradientUnits="userSpaceOnUse">
<stop stop-color="#D9D9D9" stop-opacity="0"/>
<stop offset="0.50257" stop-color="#011E0F"/>
<stop offset="1" stop-color="#6D7C74" stop-opacity="0"/>
</linearGradient>
<linearGradient id="paint46_linear_383_7415" x1="3.02888" y1="-63.5191" x2="476.746" y2="280.562" gradientUnits="userSpaceOnUse">
<stop stop-color="#D9D9D9" stop-opacity="0"/>
<stop offset="0.50257" stop-color="#011E0F"/>
<stop offset="1" stop-color="#6D7C74" stop-opacity="0"/>
</linearGradient>
<linearGradient id="paint47_linear_383_7415" x1="3.02888" y1="-63.5191" x2="476.746" y2="280.562" gradientUnits="userSpaceOnUse">
<stop stop-color="#D9D9D9" stop-opacity="0"/>
<stop offset="0.50257" stop-color="#011E0F"/>
<stop offset="1" stop-color="#6D7C74" stop-opacity="0"/>
</linearGradient>
<linearGradient id="paint48_linear_383_7415" x1="3.02888" y1="-63.5191" x2="476.746" y2="280.562" gradientUnits="userSpaceOnUse">
<stop stop-color="#D9D9D9" stop-opacity="0"/>
<stop offset="0.50257" stop-color="#011E0F"/>
<stop offset="1" stop-color="#6D7C74" stop-opacity="0"/>
</linearGradient>
<linearGradient id="paint49_linear_383_7415" x1="3.02888" y1="-63.5191" x2="476.746" y2="280.562" gradientUnits="userSpaceOnUse">
<stop stop-color="#D9D9D9" stop-opacity="0"/>
<stop offset="0.50257" stop-color="#011E0F"/>
<stop offset="1" stop-color="#6D7C74" stop-opacity="0"/>
</linearGradient>
<linearGradient id="paint50_linear_383_7415" x1="3.02888" y1="-63.5191" x2="476.746" y2="280.562" gradientUnits="userSpaceOnUse">
<stop stop-color="#D9D9D9" stop-opacity="0"/>
<stop offset="0.50257" stop-color="#011E0F"/>
<stop offset="1" stop-color="#6D7C74" stop-opacity="0"/>
</linearGradient>
<linearGradient id="paint51_linear_383_7415" x1="3.02888" y1="-63.5191" x2="476.746" y2="280.562" gradientUnits="userSpaceOnUse">
<stop stop-color="#D9D9D9" stop-opacity="0"/>
<stop offset="0.50257" stop-color="#011E0F"/>
<stop offset="1" stop-color="#6D7C74" stop-opacity="0"/>
</linearGradient>
<linearGradient id="paint52_linear_383_7415" x1="3.02888" y1="-63.5191" x2="476.746" y2="280.562" gradientUnits="userSpaceOnUse">
<stop stop-color="#D9D9D9" stop-opacity="0"/>
<stop offset="0.50257" stop-color="#011E0F"/>
<stop offset="1" stop-color="#6D7C74" stop-opacity="0"/>
</linearGradient>
<linearGradient id="paint53_linear_383_7415" x1="3.02888" y1="-63.5191" x2="476.746" y2="280.562" gradientUnits="userSpaceOnUse">
<stop stop-color="#D9D9D9" stop-opacity="0"/>
<stop offset="0.50257" stop-color="#011E0F"/>
<stop offset="1" stop-color="#6D7C74" stop-opacity="0"/>
</linearGradient>
<linearGradient id="paint54_linear_383_7415" x1="3.02888" y1="-63.5191" x2="476.746" y2="280.562" gradientUnits="userSpaceOnUse">
<stop stop-color="#D9D9D9" stop-opacity="0"/>
<stop offset="0.50257" stop-color="#011E0F"/>
<stop offset="1" stop-color="#6D7C74" stop-opacity="0"/>
</linearGradient>
<linearGradient id="paint55_linear_383_7415" x1="3.02888" y1="-63.5191" x2="476.746" y2="280.562" gradientUnits="userSpaceOnUse">
<stop stop-color="#D9D9D9" stop-opacity="0"/>
<stop offset="0.50257" stop-color="#011E0F"/>
<stop offset="1" stop-color="#6D7C74" stop-opacity="0"/>
</linearGradient>
<linearGradient id="paint56_linear_383_7415" x1="3.02888" y1="-63.5191" x2="476.746" y2="280.562" gradientUnits="userSpaceOnUse">
<stop stop-color="#D9D9D9" stop-opacity="0"/>
<stop offset="0.50257" stop-color="#011E0F"/>
<stop offset="1" stop-color="#6D7C74" stop-opacity="0"/>
</linearGradient>
<linearGradient id="paint57_linear_383_7415" x1="3.02888" y1="-63.5191" x2="476.746" y2="280.562" gradientUnits="userSpaceOnUse">
<stop stop-color="#D9D9D9" stop-opacity="0"/>
<stop offset="0.50257" stop-color="#011E0F"/>
<stop offset="1" stop-color="#6D7C74" stop-opacity="0"/>
</linearGradient>
<linearGradient id="paint58_linear_383_7415" x1="3.02888" y1="-63.5191" x2="476.746" y2="280.562" gradientUnits="userSpaceOnUse">
<stop stop-color="#D9D9D9" stop-opacity="0"/>
<stop offset="0.50257" stop-color="#011E0F"/>
<stop offset="1" stop-color="#6D7C74" stop-opacity="0"/>
</linearGradient>
<linearGradient id="paint59_linear_383_7415" x1="3.02888" y1="-63.5191" x2="476.746" y2="280.562" gradientUnits="userSpaceOnUse">
<stop stop-color="#D9D9D9" stop-opacity="0"/>
<stop offset="0.50257" stop-color="#011E0F"/>
<stop offset="1" stop-color="#6D7C74" stop-opacity="0"/>
</linearGradient>
<linearGradient id="paint60_linear_383_7415" x1="3.02888" y1="-63.5191" x2="476.746" y2="280.562" gradientUnits="userSpaceOnUse">
<stop stop-color="#D9D9D9" stop-opacity="0"/>
<stop offset="0.50257" stop-color="#011E0F"/>
<stop offset="1" stop-color="#6D7C74" stop-opacity="0"/>
</linearGradient>
<linearGradient id="paint61_linear_383_7415" x1="3.02888" y1="-63.5191" x2="476.746" y2="280.562" gradientUnits="userSpaceOnUse">
<stop stop-color="#D9D9D9" stop-opacity="0"/>
<stop offset="0.50257" stop-color="#011E0F"/>
<stop offset="1" stop-color="#6D7C74" stop-opacity="0"/>
</linearGradient>
<linearGradient id="paint62_linear_383_7415" x1="3.02888" y1="-63.5191" x2="476.746" y2="280.562" gradientUnits="userSpaceOnUse">
<stop stop-color="#D9D9D9" stop-opacity="0"/>
<stop offset="0.50257" stop-color="#011E0F"/>
<stop offset="1" stop-color="#6D7C74" stop-opacity="0"/>
</linearGradient>
<linearGradient id="paint63_linear_383_7415" x1="3.02888" y1="-63.5191" x2="476.746" y2="280.562" gradientUnits="userSpaceOnUse">
<stop stop-color="#D9D9D9" stop-opacity="0"/>
<stop offset="0.50257" stop-color="#011E0F"/>
<stop offset="1" stop-color="#6D7C74" stop-opacity="0"/>
</linearGradient>
<linearGradient id="paint64_linear_383_7415" x1="3.02888" y1="-63.5191" x2="476.746" y2="280.562" gradientUnits="userSpaceOnUse">
<stop stop-color="#D9D9D9" stop-opacity="0"/>
<stop offset="0.50257" stop-color="#011E0F"/>
<stop offset="1" stop-color="#6D7C74" stop-opacity="0"/>
</linearGradient>
<linearGradient id="paint65_linear_383_7415" x1="3.02888" y1="-63.5191" x2="476.746" y2="280.562" gradientUnits="userSpaceOnUse">
<stop stop-color="#D9D9D9" stop-opacity="0"/>
<stop offset="0.50257" stop-color="#011E0F"/>
<stop offset="1" stop-color="#6D7C74" stop-opacity="0"/>
</linearGradient>
<linearGradient id="paint66_linear_383_7415" x1="3.02888" y1="-63.5191" x2="476.746" y2="280.562" gradientUnits="userSpaceOnUse">
<stop stop-color="#D9D9D9" stop-opacity="0"/>
<stop offset="0.50257" stop-color="#011E0F"/>
<stop offset="1" stop-color="#6D7C74" stop-opacity="0"/>
</linearGradient>
<linearGradient id="paint67_linear_383_7415" x1="3.02888" y1="-63.5191" x2="476.746" y2="280.562" gradientUnits="userSpaceOnUse">
<stop stop-color="#D9D9D9" stop-opacity="0"/>
<stop offset="0.50257" stop-color="#011E0F"/>
<stop offset="1" stop-color="#6D7C74" stop-opacity="0"/>
</linearGradient>
<linearGradient id="paint68_linear_383_7415" x1="3.02888" y1="-63.5191" x2="476.746" y2="280.562" gradientUnits="userSpaceOnUse">
<stop stop-color="#D9D9D9" stop-opacity="0"/>
<stop offset="0.50257" stop-color="#011E0F"/>
<stop offset="1" stop-color="#6D7C74" stop-opacity="0"/>
</linearGradient>
<linearGradient id="paint69_linear_383_7415" x1="3.02888" y1="-63.5191" x2="476.746" y2="280.562" gradientUnits="userSpaceOnUse">
<stop stop-color="#D9D9D9" stop-opacity="0"/>
<stop offset="0.50257" stop-color="#011E0F"/>
<stop offset="1" stop-color="#6D7C74" stop-opacity="0"/>
</linearGradient>
<linearGradient id="paint70_linear_383_7415" x1="3.02888" y1="-63.5191" x2="476.746" y2="280.562" gradientUnits="userSpaceOnUse">
<stop stop-color="#D9D9D9" stop-opacity="0"/>
<stop offset="0.50257" stop-color="#011E0F"/>
<stop offset="1" stop-color="#6D7C74" stop-opacity="0"/>
</linearGradient>
<linearGradient id="paint71_linear_383_7415" x1="3.02888" y1="-63.5191" x2="476.746" y2="280.562" gradientUnits="userSpaceOnUse">
<stop stop-color="#D9D9D9" stop-opacity="0"/>
<stop offset="0.50257" stop-color="#011E0F"/>
<stop offset="1" stop-color="#6D7C74" stop-opacity="0"/>
</linearGradient>
<linearGradient id="paint72_linear_383_7415" x1="3.02888" y1="-63.5191" x2="476.746" y2="280.562" gradientUnits="userSpaceOnUse">
<stop stop-color="#D9D9D9" stop-opacity="0"/>
<stop offset="0.50257" stop-color="#011E0F"/>
<stop offset="1" stop-color="#6D7C74" stop-opacity="0"/>
</linearGradient>
<linearGradient id="paint73_linear_383_7415" x1="3.02888" y1="-63.5191" x2="476.746" y2="280.562" gradientUnits="userSpaceOnUse">
<stop stop-color="#D9D9D9" stop-opacity="0"/>
<stop offset="0.50257" stop-color="#011E0F"/>
<stop offset="1" stop-color="#6D7C74" stop-opacity="0"/>
</linearGradient>
<linearGradient id="paint74_linear_383_7415" x1="3.02888" y1="-63.5191" x2="476.746" y2="280.562" gradientUnits="userSpaceOnUse">
<stop stop-color="#D9D9D9" stop-opacity="0"/>
<stop offset="0.50257" stop-color="#011E0F"/>
<stop offset="1" stop-color="#6D7C74" stop-opacity="0"/>
</linearGradient>
<linearGradient id="paint75_linear_383_7415" x1="3.02888" y1="-63.5191" x2="476.746" y2="280.562" gradientUnits="userSpaceOnUse">
<stop stop-color="#D9D9D9" stop-opacity="0"/>
<stop offset="0.50257" stop-color="#011E0F"/>
<stop offset="1" stop-color="#6D7C74" stop-opacity="0"/>
</linearGradient>
<linearGradient id="paint76_linear_383_7415" x1="3.02888" y1="-63.5191" x2="476.746" y2="280.562" gradientUnits="userSpaceOnUse">
<stop stop-color="#D9D9D9" stop-opacity="0"/>
<stop offset="0.50257" stop-color="#011E0F"/>
<stop offset="1" stop-color="#6D7C74" stop-opacity="0"/>
</linearGradient>
<linearGradient id="paint77_linear_383_7415" x1="3.02888" y1="-63.5191" x2="476.746" y2="280.562" gradientUnits="userSpaceOnUse">
<stop stop-color="#D9D9D9" stop-opacity="0"/>
<stop offset="0.50257" stop-color="#011E0F"/>
<stop offset="1" stop-color="#6D7C74" stop-opacity="0"/>
</linearGradient>
<linearGradient id="paint78_linear_383_7415" x1="3.02888" y1="-63.5191" x2="476.746" y2="280.562" gradientUnits="userSpaceOnUse">
<stop stop-color="#D9D9D9" stop-opacity="0"/>
<stop offset="0.50257" stop-color="#011E0F"/>
<stop offset="1" stop-color="#6D7C74" stop-opacity="0"/>
</linearGradient>
<linearGradient id="paint79_linear_383_7415" x1="3.02888" y1="-63.5191" x2="476.746" y2="280.562" gradientUnits="userSpaceOnUse">
<stop stop-color="#D9D9D9" stop-opacity="0"/>
<stop offset="0.50257" stop-color="#011E0F"/>
<stop offset="1" stop-color="#6D7C74" stop-opacity="0"/>
</linearGradient>
<linearGradient id="paint80_linear_383_7415" x1="3.02888" y1="-63.5191" x2="476.746" y2="280.562" gradientUnits="userSpaceOnUse">
<stop stop-color="#D9D9D9" stop-opacity="0"/>
<stop offset="0.50257" stop-color="#011E0F"/>
<stop offset="1" stop-color="#6D7C74" stop-opacity="0"/>
</linearGradient>
<linearGradient id="paint81_linear_383_7415" x1="3.02888" y1="-63.5191" x2="476.746" y2="280.562" gradientUnits="userSpaceOnUse">
<stop stop-color="#D9D9D9" stop-opacity="0"/>
<stop offset="0.50257" stop-color="#011E0F"/>
<stop offset="1" stop-color="#6D7C74" stop-opacity="0"/>
</linearGradient>
<linearGradient id="paint82_linear_383_7415" x1="3.02888" y1="-63.5191" x2="476.746" y2="280.562" gradientUnits="userSpaceOnUse">
<stop stop-color="#D9D9D9" stop-opacity="0"/>
<stop offset="0.50257" stop-color="#011E0F"/>
<stop offset="1" stop-color="#6D7C74" stop-opacity="0"/>
</linearGradient>
<linearGradient id="paint83_linear_383_7415" x1="3.02888" y1="-63.5191" x2="476.746" y2="280.562" gradientUnits="userSpaceOnUse">
<stop stop-color="#D9D9D9" stop-opacity="0"/>
<stop offset="0.50257" stop-color="#011E0F"/>
<stop offset="1" stop-color="#6D7C74" stop-opacity="0"/>
</linearGradient>
<linearGradient id="paint84_linear_383_7415" x1="3.02888" y1="-63.5191" x2="476.746" y2="280.562" gradientUnits="userSpaceOnUse">
<stop stop-color="#D9D9D9" stop-opacity="0"/>
<stop offset="0.50257" stop-color="#011E0F"/>
<stop offset="1" stop-color="#6D7C74" stop-opacity="0"/>
</linearGradient>
<linearGradient id="paint85_linear_383_7415" x1="3.02888" y1="-63.5191" x2="476.746" y2="280.562" gradientUnits="userSpaceOnUse">
<stop stop-color="#D9D9D9" stop-opacity="0"/>
<stop offset="0.50257" stop-color="#011E0F"/>
<stop offset="1" stop-color="#6D7C74" stop-opacity="0"/>
</linearGradient>
<linearGradient id="paint86_linear_383_7415" x1="3.02888" y1="-63.5191" x2="476.746" y2="280.562" gradientUnits="userSpaceOnUse">
<stop stop-color="#D9D9D9" stop-opacity="0"/>
<stop offset="0.50257" stop-color="#011E0F"/>
<stop offset="1" stop-color="#6D7C74" stop-opacity="0"/>
</linearGradient>
<linearGradient id="paint87_linear_383_7415" x1="3.02888" y1="-63.5191" x2="476.746" y2="280.562" gradientUnits="userSpaceOnUse">
<stop stop-color="#D9D9D9" stop-opacity="0"/>
<stop offset="0.50257" stop-color="#011E0F"/>
<stop offset="1" stop-color="#6D7C74" stop-opacity="0"/>
</linearGradient>
<linearGradient id="paint88_linear_383_7415" x1="3.02888" y1="-63.5191" x2="476.746" y2="280.562" gradientUnits="userSpaceOnUse">
<stop stop-color="#D9D9D9" stop-opacity="0"/>
<stop offset="0.50257" stop-color="#011E0F"/>
<stop offset="1" stop-color="#6D7C74" stop-opacity="0"/>
</linearGradient>
<linearGradient id="paint89_linear_383_7415" x1="3.02888" y1="-63.5191" x2="476.746" y2="280.562" gradientUnits="userSpaceOnUse">
<stop stop-color="#D9D9D9" stop-opacity="0"/>
<stop offset="0.50257" stop-color="#011E0F"/>
<stop offset="1" stop-color="#6D7C74" stop-opacity="0"/>
</linearGradient>
<linearGradient id="paint90_linear_383_7415" x1="3.02888" y1="-63.5191" x2="476.746" y2="280.562" gradientUnits="userSpaceOnUse">
<stop stop-color="#D9D9D9" stop-opacity="0"/>
<stop offset="0.50257" stop-color="#011E0F"/>
<stop offset="1" stop-color="#6D7C74" stop-opacity="0"/>
</linearGradient>
<linearGradient id="paint91_linear_383_7415" x1="3.02888" y1="-63.5191" x2="476.746" y2="280.562" gradientUnits="userSpaceOnUse">
<stop stop-color="#D9D9D9" stop-opacity="0"/>
<stop offset="0.50257" stop-color="#011E0F"/>
<stop offset="1" stop-color="#6D7C74" stop-opacity="0"/>
</linearGradient>
<linearGradient id="paint92_linear_383_7415" x1="3.02888" y1="-63.5191" x2="476.746" y2="280.562" gradientUnits="userSpaceOnUse">
<stop stop-color="#D9D9D9" stop-opacity="0"/>
<stop offset="0.50257" stop-color="#011E0F"/>
<stop offset="1" stop-color="#6D7C74" stop-opacity="0"/>
</linearGradient>
<linearGradient id="paint93_linear_383_7415" x1="3.02888" y1="-63.5191" x2="476.746" y2="280.562" gradientUnits="userSpaceOnUse">
<stop stop-color="#D9D9D9" stop-opacity="0"/>
<stop offset="0.50257" stop-color="#011E0F"/>
<stop offset="1" stop-color="#6D7C74" stop-opacity="0"/>
</linearGradient>
<linearGradient id="paint94_linear_383_7415" x1="3.02888" y1="-63.5191" x2="476.746" y2="280.562" gradientUnits="userSpaceOnUse">
<stop stop-color="#D9D9D9" stop-opacity="0"/>
<stop offset="0.50257" stop-color="#011E0F"/>
<stop offset="1" stop-color="#6D7C74" stop-opacity="0"/>
</linearGradient>
<linearGradient id="paint95_linear_383_7415" x1="3.02888" y1="-63.5191" x2="476.746" y2="280.562" gradientUnits="userSpaceOnUse">
<stop stop-color="#D9D9D9" stop-opacity="0"/>
<stop offset="0.50257" stop-color="#011E0F"/>
<stop offset="1" stop-color="#6D7C74" stop-opacity="0"/>
</linearGradient>
<linearGradient id="paint96_linear_383_7415" x1="3.02888" y1="-63.5191" x2="476.746" y2="280.562" gradientUnits="userSpaceOnUse">
<stop stop-color="#D9D9D9" stop-opacity="0"/>
<stop offset="0.50257" stop-color="#011E0F"/>
<stop offset="1" stop-color="#6D7C74" stop-opacity="0"/>
</linearGradient>
<linearGradient id="paint97_linear_383_7415" x1="3.02888" y1="-63.5191" x2="476.746" y2="280.562" gradientUnits="userSpaceOnUse">
<stop stop-color="#D9D9D9" stop-opacity="0"/>
<stop offset="0.50257" stop-color="#011E0F"/>
<stop offset="1" stop-color="#6D7C74" stop-opacity="0"/>
</linearGradient>
<linearGradient id="paint98_linear_383_7415" x1="3.02888" y1="-63.5191" x2="476.746" y2="280.562" gradientUnits="userSpaceOnUse">
<stop stop-color="#D9D9D9" stop-opacity="0"/>
<stop offset="0.50257" stop-color="#011E0F"/>
<stop offset="1" stop-color="#6D7C74" stop-opacity="0"/>
</linearGradient>
<linearGradient id="paint99_linear_383_7415" x1="3.02888" y1="-63.5191" x2="476.746" y2="280.562" gradientUnits="userSpaceOnUse">
<stop stop-color="#D9D9D9" stop-opacity="0"/>
<stop offset="0.50257" stop-color="#011E0F"/>
<stop offset="1" stop-color="#6D7C74" stop-opacity="0"/>
</linearGradient>
<linearGradient id="paint100_linear_383_7415" x1="3.02888" y1="-63.5191" x2="476.746" y2="280.562" gradientUnits="userSpaceOnUse">
<stop stop-color="#D9D9D9" stop-opacity="0"/>
<stop offset="0.50257" stop-color="#011E0F"/>
<stop offset="1" stop-color="#6D7C74" stop-opacity="0"/>
</linearGradient>
<linearGradient id="paint101_linear_383_7415" x1="3.02888" y1="-63.5191" x2="476.746" y2="280.562" gradientUnits="userSpaceOnUse">
<stop stop-color="#D9D9D9" stop-opacity="0"/>
<stop offset="0.50257" stop-color="#011E0F"/>
<stop offset="1" stop-color="#6D7C74" stop-opacity="0"/>
</linearGradient>
<linearGradient id="paint102_linear_383_7415" x1="3.02888" y1="-63.5191" x2="476.746" y2="280.562" gradientUnits="userSpaceOnUse">
<stop stop-color="#D9D9D9" stop-opacity="0"/>
<stop offset="0.50257" stop-color="#011E0F"/>
<stop offset="1" stop-color="#6D7C74" stop-opacity="0"/>
</linearGradient>
<linearGradient id="paint103_linear_383_7415" x1="3.02888" y1="-63.5191" x2="476.746" y2="280.562" gradientUnits="userSpaceOnUse">
<stop stop-color="#D9D9D9" stop-opacity="0"/>
<stop offset="0.50257" stop-color="#011E0F"/>
<stop offset="1" stop-color="#6D7C74" stop-opacity="0"/>
</linearGradient>
<linearGradient id="paint104_linear_383_7415" x1="3.02888" y1="-63.5191" x2="476.746" y2="280.562" gradientUnits="userSpaceOnUse">
<stop stop-color="#D9D9D9" stop-opacity="0"/>
<stop offset="0.50257" stop-color="#011E0F"/>
<stop offset="1" stop-color="#6D7C74" stop-opacity="0"/>
</linearGradient>
<linearGradient id="paint105_linear_383_7415" x1="3.02888" y1="-63.5191" x2="476.746" y2="280.562" gradientUnits="userSpaceOnUse">
<stop stop-color="#D9D9D9" stop-opacity="0"/>
<stop offset="0.50257" stop-color="#011E0F"/>
<stop offset="1" stop-color="#6D7C74" stop-opacity="0"/>
</linearGradient>
<linearGradient id="paint106_linear_383_7415" x1="3.02888" y1="-63.5191" x2="476.746" y2="280.562" gradientUnits="userSpaceOnUse">
<stop stop-color="#D9D9D9" stop-opacity="0"/>
<stop offset="0.50257" stop-color="#011E0F"/>
<stop offset="1" stop-color="#6D7C74" stop-opacity="0"/>
</linearGradient>
<linearGradient id="paint107_linear_383_7415" x1="3.02888" y1="-63.5191" x2="476.746" y2="280.562" gradientUnits="userSpaceOnUse">
<stop stop-color="#D9D9D9" stop-opacity="0"/>
<stop offset="0.50257" stop-color="#011E0F"/>
<stop offset="1" stop-color="#6D7C74" stop-opacity="0"/>
</linearGradient>
<linearGradient id="paint108_linear_383_7415" x1="3.02888" y1="-63.5191" x2="476.746" y2="280.562" gradientUnits="userSpaceOnUse">
<stop stop-color="#D9D9D9" stop-opacity="0"/>
<stop offset="0.50257" stop-color="#011E0F"/>
<stop offset="1" stop-color="#6D7C74" stop-opacity="0"/>
</linearGradient>
<linearGradient id="paint109_linear_383_7415" x1="3.02888" y1="-63.5191" x2="476.746" y2="280.562" gradientUnits="userSpaceOnUse">
<stop stop-color="#D9D9D9" stop-opacity="0"/>
<stop offset="0.50257" stop-color="#011E0F"/>
<stop offset="1" stop-color="#6D7C74" stop-opacity="0"/>
</linearGradient>
<linearGradient id="paint110_linear_383_7415" x1="3.02888" y1="-63.5191" x2="476.746" y2="280.562" gradientUnits="userSpaceOnUse">
<stop stop-color="#D9D9D9" stop-opacity="0"/>
<stop offset="0.50257" stop-color="#011E0F"/>
<stop offset="1" stop-color="#6D7C74" stop-opacity="0"/>
</linearGradient>
<linearGradient id="paint111_linear_383_7415" x1="3.02888" y1="-63.5191" x2="476.746" y2="280.562" gradientUnits="userSpaceOnUse">
<stop stop-color="#D9D9D9" stop-opacity="0"/>
<stop offset="0.50257" stop-color="#011E0F"/>
<stop offset="1" stop-color="#6D7C74" stop-opacity="0"/>
</linearGradient>
<linearGradient id="paint112_linear_383_7415" x1="3.02888" y1="-63.5191" x2="476.746" y2="280.562" gradientUnits="userSpaceOnUse">
<stop stop-color="#D9D9D9" stop-opacity="0"/>
<stop offset="0.50257" stop-color="#011E0F"/>
<stop offset="1" stop-color="#6D7C74" stop-opacity="0"/>
</linearGradient>
<linearGradient id="paint113_linear_383_7415" x1="3.02888" y1="-63.5191" x2="476.746" y2="280.562" gradientUnits="userSpaceOnUse">
<stop stop-color="#D9D9D9" stop-opacity="0"/>
<stop offset="0.50257" stop-color="#011E0F"/>
<stop offset="1" stop-color="#6D7C74" stop-opacity="0"/>
</linearGradient>
<linearGradient id="paint114_linear_383_7415" x1="3.02888" y1="-63.5191" x2="476.746" y2="280.562" gradientUnits="userSpaceOnUse">
<stop stop-color="#D9D9D9" stop-opacity="0"/>
<stop offset="0.50257" stop-color="#011E0F"/>
<stop offset="1" stop-color="#6D7C74" stop-opacity="0"/>
</linearGradient>
<linearGradient id="paint115_linear_383_7415" x1="3.02888" y1="-63.5191" x2="476.746" y2="280.562" gradientUnits="userSpaceOnUse">
<stop stop-color="#D9D9D9" stop-opacity="0"/>
<stop offset="0.50257" stop-color="#011E0F"/>
<stop offset="1" stop-color="#6D7C74" stop-opacity="0"/>
</linearGradient>
<linearGradient id="paint116_linear_383_7415" x1="3.02888" y1="-63.5191" x2="476.746" y2="280.562" gradientUnits="userSpaceOnUse">
<stop stop-color="#D9D9D9" stop-opacity="0"/>
<stop offset="0.50257" stop-color="#011E0F"/>
<stop offset="1" stop-color="#6D7C74" stop-opacity="0"/>
</linearGradient>
<linearGradient id="paint117_linear_383_7415" x1="3.02888" y1="-63.5191" x2="476.746" y2="280.562" gradientUnits="userSpaceOnUse">
<stop stop-color="#D9D9D9" stop-opacity="0"/>
<stop offset="0.50257" stop-color="#011E0F"/>
<stop offset="1" stop-color="#6D7C74" stop-opacity="0"/>
</linearGradient>
<linearGradient id="paint118_linear_383_7415" x1="3.02888" y1="-63.5191" x2="476.746" y2="280.562" gradientUnits="userSpaceOnUse">
<stop stop-color="#D9D9D9" stop-opacity="0"/>
<stop offset="0.50257" stop-color="#011E0F"/>
<stop offset="1" stop-color="#6D7C74" stop-opacity="0"/>
</linearGradient>
<linearGradient id="paint119_linear_383_7415" x1="3.02888" y1="-63.5191" x2="476.746" y2="280.562" gradientUnits="userSpaceOnUse">
<stop stop-color="#D9D9D9" stop-opacity="0"/>
<stop offset="0.50257" stop-color="#011E0F"/>
<stop offset="1" stop-color="#6D7C74" stop-opacity="0"/>
</linearGradient>
<linearGradient id="paint120_linear_383_7415" x1="3.02888" y1="-63.5191" x2="476.746" y2="280.562" gradientUnits="userSpaceOnUse">
<stop stop-color="#D9D9D9" stop-opacity="0"/>
<stop offset="0.50257" stop-color="#011E0F"/>
<stop offset="1" stop-color="#6D7C74" stop-opacity="0"/>
</linearGradient>
<linearGradient id="paint121_linear_383_7415" x1="3.02888" y1="-63.5191" x2="476.746" y2="280.562" gradientUnits="userSpaceOnUse">
<stop stop-color="#D9D9D9" stop-opacity="0"/>
<stop offset="0.50257" stop-color="#011E0F"/>
<stop offset="1" stop-color="#6D7C74" stop-opacity="0"/>
</linearGradient>
<linearGradient id="paint122_linear_383_7415" x1="3.02888" y1="-63.5191" x2="476.746" y2="280.562" gradientUnits="userSpaceOnUse">
<stop stop-color="#D9D9D9" stop-opacity="0"/>
<stop offset="0.50257" stop-color="#011E0F"/>
<stop offset="1" stop-color="#6D7C74" stop-opacity="0"/>
</linearGradient>
<linearGradient id="paint123_linear_383_7415" x1="3.02888" y1="-63.5191" x2="476.746" y2="280.562" gradientUnits="userSpaceOnUse">
<stop stop-color="#D9D9D9" stop-opacity="0"/>
<stop offset="0.50257" stop-color="#011E0F"/>
<stop offset="1" stop-color="#6D7C74" stop-opacity="0"/>
</linearGradient>
<linearGradient id="paint124_linear_383_7415" x1="3.02888" y1="-63.5191" x2="476.746" y2="280.562" gradientUnits="userSpaceOnUse">
<stop stop-color="#D9D9D9" stop-opacity="0"/>
<stop offset="0.50257" stop-color="#011E0F"/>
<stop offset="1" stop-color="#6D7C74" stop-opacity="0"/>
</linearGradient>
<linearGradient id="paint125_linear_383_7415" x1="3.02888" y1="-63.5191" x2="476.746" y2="280.562" gradientUnits="userSpaceOnUse">
<stop stop-color="#D9D9D9" stop-opacity="0"/>
<stop offset="0.50257" stop-color="#011E0F"/>
<stop offset="1" stop-color="#6D7C74" stop-opacity="0"/>
</linearGradient>
<linearGradient id="paint126_linear_383_7415" x1="3.02888" y1="-63.5191" x2="476.746" y2="280.562" gradientUnits="userSpaceOnUse">
<stop stop-color="#D9D9D9" stop-opacity="0"/>
<stop offset="0.50257" stop-color="#011E0F"/>
<stop offset="1" stop-color="#6D7C74" stop-opacity="0"/>
</linearGradient>
<linearGradient id="paint127_linear_383_7415" x1="3.02888" y1="-63.5191" x2="476.746" y2="280.562" gradientUnits="userSpaceOnUse">
<stop stop-color="#D9D9D9" stop-opacity="0"/>
<stop offset="0.50257" stop-color="#011E0F"/>
<stop offset="1" stop-color="#6D7C74" stop-opacity="0"/>
</linearGradient>
<linearGradient id="paint128_linear_383_7415" x1="3.02888" y1="-63.5191" x2="476.746" y2="280.562" gradientUnits="userSpaceOnUse">
<stop stop-color="#D9D9D9" stop-opacity="0"/>
<stop offset="0.50257" stop-color="#011E0F"/>
<stop offset="1" stop-color="#6D7C74" stop-opacity="0"/>
</linearGradient>
<linearGradient id="paint129_linear_383_7415" x1="3.02888" y1="-63.5191" x2="476.746" y2="280.562" gradientUnits="userSpaceOnUse">
<stop stop-color="#D9D9D9" stop-opacity="0"/>
<stop offset="0.50257" stop-color="#011E0F"/>
<stop offset="1" stop-color="#6D7C74" stop-opacity="0"/>
</linearGradient>
<radialGradient id="paint130_radial_383_7415" cx="0" cy="0" r="1" gradientUnits="userSpaceOnUse" gradientTransform="translate(133.33 104) scale(139 199.388)">
<stop offset="0.49743" stop-color="#011E0F"/>
<stop offset="1" stop-color="#D9D9D9" stop-opacity="0"/>
</radialGradient>
</defs>
</svg>
