<svg width="22" height="22" viewBox="0 0 22 22" fill="none" xmlns="http://www.w3.org/2000/svg">
<path d="M10.75 20.75C16.2728 20.75 20.75 16.2728 20.75 10.75C20.75 5.22715 16.2728 0.75 10.75 0.75C5.22715 0.75 0.75 5.22715 0.75 10.75C0.75 16.2728 5.22715 20.75 10.75 20.75Z" stroke="#02361B" stroke-width="1.5"/>
<path d="M6.68734 14.8133C6.16934 14.2963 6.25534 12.0983 6.25534 12.0983M6.68734 14.8133C7.20434 15.3313 9.40234 15.2453 9.40234 15.2453M6.68734 14.8133L9.75034 11.7503M14.8133 6.68734C14.2963 6.16934 12.0983 6.25534 12.0983 6.25534M14.8133 6.68734C15.3313 7.20434 15.2453 9.40234 15.2453 9.40234M14.8133 6.68734L11.7503 9.75034" stroke="#02361B" stroke-width="1.5" stroke-linecap="round" stroke-linejoin="round"/>
</svg>
