<svg width="56" height="56" viewBox="0 0 56 56" fill="none" xmlns="http://www.w3.org/2000/svg">
<path d="M28.0003 51.3332C40.887 51.3332 51.3337 40.8865 51.3337 27.9998C51.3337 15.1132 40.887 4.6665 28.0003 4.6665C15.1137 4.6665 4.66699 15.1132 4.66699 27.9998C4.66699 40.8865 15.1137 51.3332 28.0003 51.3332Z" stroke="#02361B" stroke-width="1.5"/>
<path d="M18.5205 37.4802C17.3118 36.2738 17.5125 31.1452 17.5125 31.1452M18.5205 37.4802C19.7268 38.6888 24.8555 38.4882 24.8555 38.4882M18.5205 37.4802L25.6675 30.3332M37.4811 18.5195C36.2748 17.3108 31.1461 17.5115 31.1461 17.5115M37.4811 18.5195C38.6898 19.7258 38.4891 24.8545 38.4891 24.8545M37.4811 18.5195L30.3341 25.6665" stroke="#02361B" stroke-width="1.5" stroke-linecap="round" stroke-linejoin="round"/>
</svg>
