<svg width="126" height="122" viewBox="0 0 126 122" fill="none" xmlns="http://www.w3.org/2000/svg">
<path d="M37.2968 0L61.0266 12.8845L69.0718 17.2465C70.424 17.9796 72.5256 19.0479 73.736 19.8651C73.8589 23.987 73.8358 29.5507 73.7458 33.6779C72.5265 34.5672 67.8255 36.955 66.2623 37.7505C67.4129 38.3246 72.9232 41.3441 73.6399 41.9684C74.0938 42.9523 73.8273 54.1214 73.7713 55.9528C72.5441 56.8046 67.1261 59.5283 65.6049 60.3107C66.8408 61.0583 73.3564 64.7608 73.8285 65.4214C73.5705 69.6874 74.0256 74.9859 73.7518 79.0733C72.2488 80.0981 69.3625 81.5332 67.6618 82.4205C68.8236 83.0438 72.928 85.4197 73.8881 86.2255L73.747 100.455C72.5506 101.218 70.8425 102.054 69.5464 102.731L63.0069 106.174C54.3425 110.761 45.1661 115.416 36.6157 120.138C34.1945 118.62 30.3527 116.69 27.7357 115.278L9.32591 105.364C6.46095 103.824 2.83496 102.026 0.085717 100.386C-0.0147953 99.1351 0.0458061 97.0209 0.0398435 95.6758L0.00929955 86.5006C1.29065 85.6011 5.85581 83.3675 7.52886 82.4169C5.38768 81.2691 2.07224 79.5589 0.116992 78.2833C-0.0219725 77.0296 0.0259709 74.4941 0.0203733 73.1613C0.000538602 70.2291 -0.00298924 67.2967 0.0100311 64.3645C0.857084 63.8087 2.63028 62.9442 3.60681 62.4283C5.65368 61.349 7.69119 60.252 9.71896 59.1371C6.83294 57.5321 2.80077 55.3948 0.0602866 53.648C-0.0404691 52.4644 0.0155049 50.1059 0.0155049 48.8618L0.0239012 39.7569C1.41379 38.8877 4.06277 37.6558 5.58189 36.8946C4.2571 36.2473 1.2472 34.6983 0.103969 33.9057C-0.0312236 32.6226 0.0294983 30.3641 0.0264561 29.0197L0.0297426 20.2027C0.845401 19.6473 2.94788 18.5848 3.92502 18.0552L11.7595 13.8144L37.2968 0Z" fill="#02361B"/>
<path d="M37.3386 1.68604C38.3262 2.31155 40.01 3.15629 41.1007 3.74566L48.2024 7.59712L71.2913 20.1668C59.7881 26.0979 48.1595 33.0825 36.6296 38.9451C33.4528 36.9953 28.2562 34.4204 24.8623 32.6078L2.33984 20.6054C13.9297 14.3432 25.8589 8.0829 37.3386 1.68604Z" fill="#F4F6DD"/>
<path d="M7.11349 37.7866C8.14332 38.3084 9.22644 38.9165 10.2496 39.4662L36.6025 53.6832C41.2796 51.3289 46.1299 48.6215 50.738 46.1193L64.722 38.5566C66.9727 39.8905 69.2833 41.1029 71.5292 42.4226C70.2017 43.1301 65.5367 45.5454 64.4587 46.3064C64.3318 50.6911 64.4345 55.0952 64.2989 59.4896C63.7811 59.1926 62.8814 58.7108 62.4483 58.3534C62.2893 53.4592 62.5899 48.4585 62.3394 43.5581C62.3186 43.1513 62.1772 42.6704 61.9165 42.3553C61.3668 42.2312 60.2114 42.8177 59.7316 43.1033C56.8464 44.8211 53.4793 46.2959 50.6514 48.0631C50.5064 48.1544 50.3632 48.2483 50.2217 48.345C49.9781 55.1876 50.3299 62.2111 50.1813 69.0696C50.1547 70.3012 50.1399 71.7714 50.2151 72.9971C48.8707 73.6982 40.3177 78.0108 39.8081 78.6839C39.6775 79.4227 40.1614 79.626 40.7263 79.9632C42.1348 80.803 43.4646 81.7597 44.781 82.7384C47.2023 84.5447 49.5909 86.3948 51.9453 88.2888C52.7257 88.9108 56.208 91.7688 56.8903 92.0573C57.2763 91.9818 57.4268 92.0183 57.6602 91.641C58.2893 90.6234 58.8361 89.4792 59.3813 88.4105L62.3079 82.669L66.7494 74.0524C67.4425 72.7172 69.8211 68.3556 70.0383 67.1567C69.5749 66.4136 66.8701 65.0145 65.9819 64.5049C64.8443 65.1077 63.5701 65.8226 62.4264 66.3825C62.4242 64.367 62.4439 62.3238 62.3566 60.3121C65.0434 61.9235 67.8015 63.4194 70.4873 65.0334C71.0077 65.3461 71.5392 65.6316 72.0847 65.8987C71.0248 67.6962 63.235 82.781 63.0584 83.812C63.9234 84.8782 65.1295 83.7864 66.0824 83.2046C67.9675 84.3792 69.8711 85.5233 71.7929 86.6371L40.209 103.403C39.0212 103.992 37.807 104.661 36.6331 105.288C25.2251 99.1194 13.7856 93.0091 2.31543 86.9572L9.11327 83.2654C10.0164 83.8278 10.997 84.3232 11.9395 84.821C14.4104 86.3814 18.4972 88.4872 21.2078 89.9771L36.5046 98.4731C36.5512 98.4548 36.5978 98.4354 36.6445 98.4171C41.2888 96.0789 45.864 93.5775 50.4714 91.1638C50.7817 91.0019 50.9999 90.8121 51.1224 90.4956C50.7754 89.0057 42.713 83.762 41.0235 82.3696C40.7746 82.1955 40.652 82.1432 40.3837 82.0178C39.4636 82.0446 37.4854 83.2715 36.5682 83.7633C33.0107 81.7062 29.1765 79.6601 25.568 77.6614L2.35887 64.8394C5.24026 63.3903 8.38523 61.6124 11.256 60.0618C12.4157 60.7247 13.58 61.3797 14.7488 62.0266C21.9056 66.2536 29.4277 70.3043 36.6577 74.4882C38.3842 73.624 47.2738 69.2575 48.1193 68.4094C48.8041 66.8909 48.0446 58.7913 48.3299 56.624C48.4327 55.8429 48.4767 54.7368 47.6861 54.3212C46.9688 54.3376 40.4974 57.8447 39.374 58.399L36.7437 59.735C33.3384 57.6567 29.5266 55.5671 26.0487 53.5781L2.53045 40.1958C3.99031 39.3652 5.61335 38.5621 7.11349 37.7866Z" fill="#DDE392"/>
<path d="M11.2565 60.0615C12.4162 60.7244 13.5805 61.3794 14.7493 62.0263C13.5089 62.7839 11.2322 63.8751 10.2351 64.6546C13.8572 67.1348 40.4484 80.8611 41.1159 82.0978L41.024 82.3692C40.7751 82.1952 40.6525 82.1429 40.3842 82.0175C39.4641 82.0443 37.4859 83.2712 36.5687 83.7629C33.0112 81.7059 29.177 79.6598 25.5685 77.6611L2.35938 64.839C5.24077 63.39 8.38573 61.6121 11.2565 60.0615Z" fill="#F4F6DD"/>
<path d="M7.11332 37.7866C8.14314 38.3084 9.22627 38.9165 10.2494 39.4662C9.46854 39.8604 8.54811 40.2927 7.82676 40.7668C8.82592 41.4668 10.3346 42.2311 11.4361 42.8312L17.1665 45.9596C24.372 49.9203 32.3889 54.179 39.3739 58.399L36.7435 59.735C33.3383 57.6567 29.5265 55.5671 26.0486 53.5781L2.53027 40.1958C3.99014 39.3652 5.61318 38.5621 7.11332 37.7866Z" fill="#F4F6DD"/>
<path d="M60.7338 44.2944C61.3813 45.1647 60.6066 67.7432 60.9766 71.0166C61.0297 71.4876 61.1244 72.0256 61.5148 72.3299C62.397 72.28 66.3029 70.0097 67.5155 69.4459C66.2732 71.4913 64.7009 74.729 63.575 76.9102L56.7837 90.1546L56.1549 89.6081L45.4971 81.297C47.4798 80.12 49.8624 79.0598 51.7158 77.8779C51.8364 75.177 51.701 71.4109 51.701 68.6293L51.6867 49.2139C54.6683 47.5526 57.7308 45.9233 60.7338 44.2944Z" fill="#F4F6DD"/>
<path d="M72.1498 88.2642C72.1554 88.269 72.1621 88.2739 72.1664 88.2812C72.5053 88.7936 72.266 98.2574 72.2566 99.6024C65 103.586 57.4222 107.436 50.0856 111.307L41.9951 115.57C40.5501 116.339 38.8775 117.35 37.4099 118.002C37.1697 117.649 37.2631 107.653 37.2572 106.589C38.8229 105.694 40.7858 104.796 42.4326 103.925L55.4399 97.045C60.6335 94.3124 66.911 90.7168 72.1498 88.2642Z" fill="#02361B"/>
<path d="M72.139 21.4238C72.4011 21.808 72.2906 31.4582 72.3144 32.8129C71.4052 33.3805 69.8229 34.1456 68.8258 34.6839L60.909 38.9512C53.0941 43.2515 45.2401 47.4802 37.3481 51.6369C37.237 50.9231 37.315 48.2723 37.325 47.4348C37.3663 45.0282 37.3684 42.6211 37.3314 40.2145L54.1696 31.1363C60.1336 27.8512 66.1235 24.6136 72.139 21.4238Z" fill="#02361B"/>
<path d="M1.51404 41.4634C6.18969 43.95 10.9974 46.7643 15.6129 49.3871L36.0257 60.9945C35.9489 64.746 35.9159 68.4981 35.9268 72.2497C35.6706 72.2668 3.72458 54.0609 1.52487 52.82C1.49056 49.0345 1.48691 45.2489 1.51404 41.4634Z" fill="#F4F6DD"/>
<path d="M1.48242 88.2852C5.75432 90.2655 11.2489 93.3852 15.4471 95.6456L35.7907 106.515C35.7619 110.321 35.8373 114.132 35.7622 117.941C35.1386 117.688 33.1412 116.527 32.4787 116.164L25.6482 112.449C17.6387 108.106 9.60737 103.803 1.55446 99.5406C1.57928 95.8464 1.49775 91.9964 1.48242 88.2852Z" fill="#F4F6DD"/>
<path d="M1.49271 21.8687L35.837 40.1443C35.7446 43.8684 35.7982 47.8692 35.79 51.6148C32.3622 49.5216 27.1977 46.9316 23.5662 44.9769L1.53591 33.0764C1.49843 29.3407 1.48395 25.6046 1.49271 21.8687Z" fill="#F4F6DD"/>
<path d="M1.49186 66.1411C4.52305 67.6491 7.68554 69.5641 10.6962 71.1638C19.0478 75.6029 27.4181 80.6372 35.7729 85.0082L35.7628 96.3707C35.2382 96.1711 33.1553 94.9344 32.5526 94.5936L25.7579 90.7948L1.55952 77.4664C1.50622 73.6919 1.48371 69.9164 1.49186 66.1411Z" fill="#F4F6DD"/>
<path d="M46.6149 56.3643C46.8855 56.7194 46.8141 66.2612 46.8404 67.6052L37.5461 72.4263C37.475 72.3545 37.4015 72.2291 37.4021 72.1269C37.4255 68.4209 37.6041 64.7226 37.4014 61.0177C40.4912 59.4815 43.5102 57.8869 46.6149 56.3643Z" fill="#02361B"/>
<path d="M40.0355 83.6133C40.6435 83.7058 42.5425 85.3685 43.193 85.8748C45.1282 87.3537 47.0755 88.8156 49.0348 90.2616C47.1657 91.2719 45.2862 92.2639 43.3965 93.2352L37.2627 96.4377L37.278 85.1202C38.1806 84.5883 39.1003 84.0856 40.0355 83.6133Z" fill="#02361B"/>
<path d="M72.2962 43.7148C72.4652 44.0476 72.3056 53.6759 72.3597 55.038C70.3503 56.0985 68.0474 57.4249 66.0187 58.352C65.7047 57.9813 65.9911 48.3802 65.9583 47.08C68.0827 45.9807 70.1954 44.8588 72.2962 43.7148Z" fill="#02361B"/>
<path d="M72.2517 68.855C72.2988 68.9118 72.3459 68.9687 72.3929 69.0255C72.4061 71.7249 72.2704 75.626 72.2912 78.2442C70.4728 79.3141 67.8508 80.58 65.921 81.6049L65.8027 81.482C67.77 77.3812 70.1614 72.9786 72.2517 68.855Z" fill="#02361B"/>
<path d="M50.0412 74.7266C50.292 75.1538 50.2016 76.4209 50.2072 77.0246C48.1497 78.0885 46.109 79.1839 44.0854 80.3111L43.0161 79.5905L42.0371 78.9685C44.3001 77.9144 47.8809 75.9596 50.0412 74.7266Z" fill="#DDE392"/>
<path d="M65.8159 66.3292C66.1751 66.32 67.4535 67.1452 67.8199 67.3597L63.8391 69.4957L62.4502 70.2895L62.4453 68.0936L65.8159 66.3292Z" fill="#DDE392"/>
<path d="M73.828 65.4214C73.9813 66.5814 73.9254 68.7917 73.9193 70.0476L73.8755 77.8232L85.2932 78.1311C86.7693 78.1774 89.3636 78.1896 90.7168 78.4476C91.1633 78.5328 94.0327 80.0762 94.6143 80.383L105.081 86.0234L118.583 93.3035C120.6 94.3953 123.577 95.9035 125.479 97.0951V107.371L105.416 117.971C103.567 118.946 99.5256 121.443 97.7745 121.947C97.0724 122.149 82.862 121.732 81.9177 121.441C80.3285 120.953 78.5689 119.739 77.1306 118.893C76.4455 119.291 73.121 121.164 72.4981 121.231C70.551 121.44 65.8344 121.306 63.9346 121.019C63.2969 120.922 60.0597 118.992 59.2601 118.596C57.8241 119.411 56.3775 120.208 54.9208 120.986C51.6472 120.894 48.2939 120.681 45.001 120.564C42.4939 120.475 39.0808 120.425 36.6152 120.138C45.1656 115.416 54.342 110.761 63.0064 106.174L69.5459 102.731C70.842 102.054 72.5501 101.218 73.7465 100.455L73.8876 86.2255C72.9276 85.4197 68.8231 83.0437 67.6614 82.4205C69.362 81.5332 72.2483 80.0981 73.7514 79.0732C74.0251 74.9859 73.57 69.6874 73.828 65.4214Z" fill="#E8ECB6"/>
</svg>
