<svg width="179" height="122" viewBox="0 0 179 122" fill="none" xmlns="http://www.w3.org/2000/svg">
<path d="M88.8569 0C90.6488 1.28115 95.9674 4.04655 98.2813 5.41442C108.957 4.25833 121.637 2.52419 132.217 1.83892C132.337 3.5871 132.517 10.6601 132.155 12.0393C131.303 15.2896 128.938 20.5321 127.607 23.8076C129.057 24.559 130.688 25.5129 132.092 26.3576C141.547 32.048 151.682 37.0444 161.059 42.8227C161.004 45.3382 160.976 47.8541 160.976 50.3702C158.65 51.4771 156.219 52.8971 153.955 54.1615C155.117 55.735 175.761 66.9267 178.784 68.5677C169.606 73.4852 159.801 79.4261 150.575 84.6067L84.2544 122C82.0954 121.953 78.8877 122.051 77.0461 121.043L76.9402 120.983C76.1366 121.275 75.47 121.623 74.6559 121.179C49.61 107.514 25.2019 92.451 0.114511 78.884C-0.173286 75.8009 0.193648 72.8777 0.0206583 69.7971C3.29031 67.8889 9.20252 64.9246 11.938 62.824C8.16012 60.5504 3.98851 58.2816 0.128332 56.1141C0.21126 53.8196 0.141707 51.2787 0.125434 48.9658C12.0994 42.5186 23.8848 35.5013 35.8432 28.9993C39.4216 27.0536 43.0613 25.1237 46.5356 23.0048C45.3316 22.7293 43.5587 22.0377 42.2945 21.6309C42.2771 18.3196 42.2769 15.0082 42.294 11.6971C45.641 11.5125 51.6431 10.6023 55.2734 10.1979L66.8582 8.92104C70.785 8.48722 74.0328 8.44665 77.5584 6.45481C81.3412 4.31807 85.1274 2.23817 88.8569 0Z" fill="#02361B"/>
<path d="M153.954 54.1616C155.116 55.735 175.76 66.9268 178.783 68.5677C169.605 73.4852 159.8 79.4262 150.574 84.6068L84.2536 122C82.0946 121.953 78.8869 122.051 77.0453 121.044L76.9395 120.983C78.3265 119.597 95.3074 110.631 97.7533 109.255C118.783 97.1548 139.916 85.2359 161.149 73.4973C161.257 70.4887 161.169 67.2262 161.143 64.1986C159.333 63.0506 150.33 58.2902 149.633 57.1874L149.757 56.7224C150.574 55.9424 152.857 54.7691 153.954 54.1616Z" fill="#DDE392"/>
<path d="M129.676 3.49268L129.945 3.60837C130.06 4.10059 112.729 43.7454 110.927 48.4505C105.747 43.4503 99.7762 37.6235 94.2446 33.0158C92.11 33.9173 88.9309 35.8343 86.8592 37.0075L71.6861 45.7513L51.6232 57.0079C48.8977 58.5519 44.6097 60.7977 42.1634 62.5071C36.1359 58.9356 28.4182 54.6177 22.251 51.3896C23.1639 49.6733 67.3742 26.3673 71.5953 23.5573C72.0755 23.2376 73.0116 22.7557 73.6275 22.1914C73.4235 21.7282 73.1384 21.4701 72.6368 21.3122C65.5719 19.0843 58.619 16.534 51.5757 14.2363C50.3536 13.8375 48.3928 13.4137 47.3368 12.8959C49.5143 11.9868 66.4125 10.3891 69.9087 9.9934C83.7347 8.39992 97.569 6.87936 111.411 5.43168C117.502 4.7852 123.571 4.00942 129.676 3.49268Z" fill="#FCFCF4"/>
<path d="M127.031 25.1582C129.041 26.294 131.018 27.3988 132.974 28.6298C136.908 30.6544 141.028 33.1425 144.913 35.3339C149.31 37.8141 154.342 40.4785 158.585 43.1701L101.745 75.3575C92.8999 80.355 83.6249 85.2418 74.9096 90.3512C69.2894 87.1101 63.6465 83.9091 57.9813 80.7478C55.2041 79.1766 51.9231 77.1723 49.1457 75.7233C47.6224 75.0369 44.8914 73.451 43.3086 72.6001C46.2191 70.4968 53.3677 66.7256 56.842 64.764L80.619 51.3807C84.9807 48.9062 89.6263 46.3983 93.8289 43.7027C95.1896 45.2086 96.4427 46.4315 97.9084 47.8407C100.114 49.7881 110.046 59.7649 111.82 59.898C112.102 59.0741 112.541 58.1866 112.905 57.3812C116.325 49.8218 119.448 42.1603 122.951 34.6359C124.396 31.5305 125.545 28.2716 127.031 25.1582Z" fill="#FCFCF4"/>
<path d="M127.03 25.1582C129.04 26.294 131.017 27.3988 132.974 28.6298C131.936 29.3463 127.833 39.5436 126.946 41.638L118.137 61.86C116.526 61.1096 113.586 60.0748 111.819 59.898C112.102 59.0741 112.54 58.1866 112.904 57.3812C116.324 49.8218 119.447 42.1603 122.95 34.6359C124.395 31.5305 125.544 28.2716 127.03 25.1582Z" fill="#DDE392"/>
<path d="M74.8648 98.555C86.0331 91.8404 99.126 84.9826 110.614 78.4916L134.854 64.796C139.068 62.4216 143.921 59.559 148.158 57.3804L148.262 62.9591C145.882 63.8432 143.423 65.4289 141.173 66.6438C136.408 69.2166 131.762 72.196 127.061 74.8187C116.899 80.4324 106.771 86.1077 96.678 91.8449C89.4608 95.7951 82.2991 99.8457 75.1949 103.997C69.9814 101.228 14.5529 69.1885 13.6726 69.1557C12.339 68.3378 12.8799 64.8653 12.8921 63.2505C14.7083 64.2576 16.5071 65.296 18.2874 66.3652C23.6247 69.1379 28.7533 72.301 33.9769 75.282L55.6593 87.4992C59.4811 89.6986 63.3159 91.8761 67.1634 94.0296C69.3456 95.2512 72.9654 97.1483 74.8648 98.555Z" fill="#DDE392"/>
<path d="M12.8921 63.2505C14.7083 64.2577 16.5071 65.296 18.2874 66.3652C17.5889 67.0266 14.5244 68.9335 13.6726 69.1558C12.339 68.3379 12.8799 64.8654 12.8921 63.2505Z" fill="#FCFCF4"/>
<path d="M48.3359 23.7095C48.8721 23.6379 59.0711 27.4551 60.4522 27.9578C51.3548 33.4368 41.8267 38.2902 32.6123 43.567C28.4026 45.978 24.2725 48.5193 19.9366 50.7029C20.0661 53.1234 19.9816 56.6218 19.9881 59.1165L16.7833 57.3592C13.0372 55.1251 6.36397 51.0243 2.5 49.4648C5.96248 47.3242 9.85052 45.1422 13.4347 43.1954C25.0879 36.8661 36.6208 29.8674 48.3359 23.7095Z" fill="#FCFCF4"/>
<path d="M149.819 59.4009C152.788 61.2177 155.811 62.9454 158.883 64.5819C152.641 67.7818 146.646 71.545 140.563 74.9571L102.77 96.1938L87.746 104.759C86.1209 105.675 82.3427 107.944 80.8848 108.586C79.3894 107.897 76.6091 105.49 75.7646 105.485C81.9589 101.642 90.3812 97.0744 96.8407 93.4942L125.887 77.2686C131.816 73.9301 137.599 70.4319 143.539 67.1406C144.892 66.3912 148.421 64.348 149.753 63.9873C149.774 62.4665 149.78 60.9186 149.819 59.4009Z" fill="#DDE392"/>
<path d="M2.28418 69.9644C4.52436 69.1143 9.3293 66.2596 11.5481 65.0132C11.4103 66.8282 11.3856 67.6952 11.5046 69.5089C17.3635 72.6056 23.9559 76.6225 29.7936 79.9494L56.3367 94.9612C62.1629 98.3252 68.0361 101.87 73.9369 105.127C74.8277 105.619 74.9387 105.653 75.7644 105.486C76.6089 105.49 79.3892 107.898 80.8846 108.586C79.0548 109.806 77.1201 110.862 75.1032 111.741C70.1186 108.832 65.0415 106.121 60.0219 103.259L25.7279 83.6005C18.1736 79.2835 9.51678 74.6005 2.28418 69.9644Z" fill="#FCFCF4"/>
<path d="M75.635 91.6667C77.3968 90.483 81.9202 88.1008 83.9388 86.963L103.681 75.9837C119.178 67.358 134.575 58.3447 150.177 49.8096C151.145 50.7124 152.953 51.7435 153.55 52.5636C150.672 54.3809 146.415 56.5718 143.354 58.2723L125.761 68.1093L75.6961 96.3237C75.5922 94.5737 75.5661 93.4167 75.635 91.6667Z" fill="#DDE392"/>
<path d="M9.30847 54.8984C19.0929 60.3503 28.8338 65.88 38.5304 71.4868L74.1588 91.5906C74.1513 93.1623 74.1704 94.8052 74.0969 96.3702C69.481 93.2782 62.5674 89.7767 57.5165 86.8769L22.3358 66.8185L11.9472 60.9908C10.3437 60.0944 7.35007 58.502 5.89258 57.5171C6.73145 56.6972 8.31556 55.6192 9.30847 54.8984Z" fill="#DDE392"/>
<path d="M88.7427 1.79932C90.9446 2.82946 93.8299 4.49827 96.0384 5.69805C92.7688 5.92633 88.9365 6.43215 85.6265 6.77457C83.2499 7.05902 81.1372 7.22688 78.7461 7.37958C81.6557 5.8706 85.9597 3.49712 88.7427 1.79932Z" fill="#FCFCF4"/>
<path d="M150.177 49.8094C153.273 47.9424 156.413 46.3123 159.536 44.5146C159.522 46.1128 159.533 47.7769 159.491 49.3684L153.55 52.5634C152.953 51.7432 151.145 50.7122 150.177 49.8094Z" fill="#FCFCF4"/>
<path d="M1.7485 50.4941C3.74658 51.8172 7.13862 53.6485 9.30857 54.8983C8.31566 55.619 6.73155 56.697 5.89268 57.517C4.45504 56.8335 3.10611 55.9841 1.74158 55.1633C1.66267 53.7145 1.72999 51.9659 1.7485 50.4941Z" fill="#FCFCF4"/>
</svg>
