<svg width="1440" height="1035" viewBox="0 0 1440 1035" fill="none" xmlns="http://www.w3.org/2000/svg" xmlns:xlink="http://www.w3.org/1999/xlink">
<rect width="1440" height="1035" fill="url(#pattern0_1399_9374)"/>
<defs>
<pattern id="pattern0_1399_9374" patternUnits="userSpaceOnUse" patternTransform="matrix(218.148 0 0 200.976 0 0)" preserveAspectRatio="none" viewBox="0 0 363.58 334.96" width="1" height="1">
<g id="pattern0_1399_9374_inner">
<circle cx="2" cy="2" r="2" fill="#808080" fill-opacity="0.1"/>
<circle cx="26" cy="2" r="2" fill="#808080" fill-opacity="0.1"/>
<circle cx="50" cy="2" r="2" fill="#808080" fill-opacity="0.1"/>
<circle cx="74" cy="2" r="2" fill="#808080" fill-opacity="0.1"/>
<circle cx="98" cy="2" r="2" fill="#808080" fill-opacity="0.14"/>
<circle cx="122" cy="2" r="2" fill="#808080" fill-opacity="0.1"/>
<circle cx="146" cy="2" r="2" fill="#808080" fill-opacity="0.1"/>
<circle cx="170" cy="2" r="2" fill="#808080" fill-opacity="0.1"/>
<circle cx="194" cy="2" r="2" fill="#808080" fill-opacity="0.1"/>
<circle cx="218" cy="2" r="2" fill="#808080" fill-opacity="0.14"/>
<circle cx="242" cy="2" r="2" fill="#808080" fill-opacity="0.14"/>
<circle cx="266" cy="2" r="2" fill="#808080" fill-opacity="0.14"/>
<circle cx="290" cy="2" r="2" fill="#808080" fill-opacity="0.14"/>
<circle cx="314" cy="2" r="2" fill="#808080" fill-opacity="0.14"/>
<circle cx="338" cy="2" r="2" fill="#808080" fill-opacity="0.14"/>
<circle cx="2" cy="26" r="2" fill="#808080" fill-opacity="0.14"/>
<circle cx="26" cy="26" r="2" fill="#808080" fill-opacity="0.14"/>
<circle cx="50" cy="26" r="2" fill="#808080" fill-opacity="0.1"/>
<circle cx="74" cy="26" r="2" fill="#808080" fill-opacity="0.2"/>
<circle cx="98" cy="26" r="2" fill="#808080" fill-opacity="0.2"/>
<circle cx="122" cy="26" r="2" fill="#808080" fill-opacity="0.2"/>
<circle cx="146" cy="26" r="2" fill="#808080" fill-opacity="0.2"/>
<circle cx="170" cy="26" r="2" fill="#808080" fill-opacity="0.2"/>
<circle cx="194" cy="26" r="2" fill="#808080" fill-opacity="0.2"/>
<circle cx="218" cy="26" r="2" fill="#808080" fill-opacity="0.2"/>
<circle cx="242" cy="26" r="2" fill="#808080" fill-opacity="0.2"/>
<circle cx="266" cy="26" r="2" fill="#808080" fill-opacity="0.2"/>
<circle cx="290" cy="26" r="2" fill="#808080" fill-opacity="0.2"/>
<circle cx="314" cy="26" r="2" fill="#808080" fill-opacity="0.2"/>
<circle cx="338" cy="26" r="2" fill="#808080" fill-opacity="0.14"/>
<circle cx="2" cy="50" r="2" fill="#808080" fill-opacity="0.1"/>
<circle cx="26" cy="50" r="2" fill="#808080" fill-opacity="0.1"/>
<circle cx="50" cy="50" r="2" fill="#808080" fill-opacity="0.1"/>
<circle cx="74" cy="50" r="2" fill="#808080" fill-opacity="0.1"/>
<circle cx="98" cy="50" r="2" fill="#808080" fill-opacity="0.14"/>
<circle cx="122" cy="50" r="2" fill="#808080" fill-opacity="0.14"/>
<circle cx="146" cy="50" r="2" fill="#808080" fill-opacity="0.1"/>
<circle cx="170" cy="50" r="2" fill="#808080" fill-opacity="0.1"/>
<circle cx="194" cy="50" r="2" fill="#808080" fill-opacity="0.1"/>
<circle cx="218" cy="50" r="2" fill="#808080" fill-opacity="0.2"/>
<circle cx="242" cy="50" r="2" fill="#808080" fill-opacity="0.1"/>
<circle cx="266" cy="50" r="2" fill="#808080" fill-opacity="0.1"/>
<circle cx="290" cy="50" r="2" fill="#808080" fill-opacity="0.1"/>
<circle cx="314" cy="50" r="2" fill="#808080" fill-opacity="0.2"/>
<circle cx="338" cy="50" r="2" fill="#808080" fill-opacity="0.2"/>
<circle cx="2" cy="74" r="2" fill="#808080" fill-opacity="0.2"/>
<circle cx="26" cy="74" r="2" fill="#808080" fill-opacity="0.2"/>
<circle cx="50" cy="74" r="2" fill="#808080" fill-opacity="0.14"/>
<circle cx="74" cy="74" r="2" fill="#808080" fill-opacity="0.14"/>
<circle cx="98" cy="74" r="2" fill="#808080" fill-opacity="0.1"/>
<circle cx="122" cy="74" r="2" fill="#808080" fill-opacity="0.1"/>
<circle cx="146" cy="74" r="2" fill="#808080" fill-opacity="0.2"/>
<circle cx="170" cy="74" r="2" fill="#808080" fill-opacity="0.14"/>
<circle cx="194" cy="74" r="2" fill="#808080" fill-opacity="0.14"/>
<circle cx="218" cy="74" r="2" fill="#808080" fill-opacity="0.2"/>
<circle cx="242" cy="74" r="2" fill="#808080" fill-opacity="0.2"/>
<circle cx="266" cy="74" r="2" fill="#808080" fill-opacity="0.2"/>
<circle cx="290" cy="74" r="2" fill="#808080" fill-opacity="0.2"/>
<circle cx="314" cy="74" r="2" fill="#808080" fill-opacity="0.2"/>
<circle cx="338" cy="74" r="2" fill="#808080" fill-opacity="0.2"/>
<circle cx="2" cy="98" r="2" fill="#808080" fill-opacity="0.1"/>
<circle cx="26" cy="98" r="2" fill="#808080" fill-opacity="0.1"/>
<circle cx="50" cy="98" r="2" fill="#808080" fill-opacity="0.1"/>
<circle cx="74" cy="98" r="2" fill="#808080" fill-opacity="0.1"/>
<circle cx="98" cy="98" r="2" fill="#808080" fill-opacity="0.1"/>
<circle cx="122" cy="98" r="2" fill="#808080" fill-opacity="0.1"/>
<circle cx="146" cy="98" r="2" fill="#808080" fill-opacity="0.2"/>
<circle cx="170" cy="98" r="2" fill="#808080" fill-opacity="0.2"/>
<circle cx="194" cy="98" r="2" fill="#808080" fill-opacity="0.1"/>
<circle cx="218" cy="98" r="2" fill="#808080" fill-opacity="0.1"/>
<circle cx="242" cy="98" r="2" fill="#808080" fill-opacity="0.1"/>
<circle cx="266" cy="98" r="2" fill="#808080" fill-opacity="0.14"/>
<circle cx="290" cy="98" r="2" fill="#808080" fill-opacity="0.14"/>
<circle cx="314" cy="98" r="2" fill="#808080" fill-opacity="0.14"/>
<circle cx="338" cy="98" r="2" fill="#808080" fill-opacity="0.14"/>
<circle cx="2" cy="122" r="2" fill="#808080" fill-opacity="0.2"/>
<circle cx="26" cy="122" r="2" fill="#808080" fill-opacity="0.14"/>
<circle cx="50" cy="122" r="2" fill="#808080" fill-opacity="0.14"/>
<circle cx="74" cy="122" r="2" fill="#808080" fill-opacity="0.2"/>
<circle cx="98" cy="122" r="2" fill="#808080" fill-opacity="0.2"/>
<circle cx="122" cy="122" r="2" fill="#808080" fill-opacity="0.2"/>
<circle cx="146" cy="122" r="2" fill="#808080" fill-opacity="0.2"/>
<circle cx="170" cy="122" r="2" fill="#808080" fill-opacity="0.14"/>
<circle cx="194" cy="122" r="2" fill="#808080" fill-opacity="0.2"/>
<circle cx="218" cy="122" r="2" fill="#808080" fill-opacity="0.2"/>
<circle cx="242" cy="122" r="2" fill="#808080" fill-opacity="0.14"/>
<circle cx="266" cy="122" r="2" fill="#808080" fill-opacity="0.14"/>
<circle cx="290" cy="122" r="2" fill="#808080" fill-opacity="0.1"/>
<circle cx="314" cy="122" r="2" fill="#808080" fill-opacity="0.14"/>
<circle cx="338" cy="122" r="2" fill="#808080" fill-opacity="0.14"/>
<circle cx="2" cy="146" r="2" fill="#808080" fill-opacity="0.2"/>
<circle cx="26" cy="146" r="2" fill="#808080" fill-opacity="0.14"/>
<circle cx="50" cy="146" r="2" fill="#808080" fill-opacity="0.14"/>
<circle cx="74" cy="146" r="2" fill="#808080" fill-opacity="0.2"/>
<circle cx="98" cy="146" r="2" fill="#808080" fill-opacity="0.2"/>
<circle cx="122" cy="146" r="2" fill="#808080" fill-opacity="0.1"/>
<circle cx="146" cy="146" r="2" fill="#808080" fill-opacity="0.1"/>
<circle cx="170" cy="146" r="2" fill="#808080" fill-opacity="0.2"/>
<circle cx="194" cy="146" r="2" fill="#808080" fill-opacity="0.2"/>
<circle cx="218" cy="146" r="2" fill="#808080" fill-opacity="0.1"/>
<circle cx="242" cy="146" r="2" fill="#808080" fill-opacity="0.14"/>
<circle cx="266" cy="146" r="2" fill="#808080" fill-opacity="0.14"/>
<circle cx="290" cy="146" r="2" fill="#808080" fill-opacity="0.2"/>
<circle cx="314" cy="146" r="2" fill="#808080" fill-opacity="0.2"/>
<circle cx="338" cy="146" r="2" fill="#808080" fill-opacity="0.2"/>
<circle cx="2" cy="170" r="2" fill="#808080" fill-opacity="0.2"/>
<circle cx="26" cy="170" r="2" fill="#808080" fill-opacity="0.14"/>
<circle cx="50" cy="170" r="2" fill="#808080" fill-opacity="0.14"/>
<circle cx="74" cy="170" r="2" fill="#808080" fill-opacity="0.14"/>
<circle cx="98" cy="170" r="2" fill="#808080" fill-opacity="0.2"/>
<circle cx="122" cy="170" r="2" fill="#808080" fill-opacity="0.2"/>
<circle cx="146" cy="170" r="2" fill="#808080" fill-opacity="0.2"/>
<circle cx="170" cy="170" r="2" fill="#808080" fill-opacity="0.14"/>
<circle cx="194" cy="170" r="2" fill="#808080" fill-opacity="0.14"/>
<circle cx="218" cy="170" r="2" fill="#808080" fill-opacity="0.1"/>
<circle cx="242" cy="170" r="2" fill="#808080" fill-opacity="0.2"/>
<circle cx="266" cy="170" r="2" fill="#808080" fill-opacity="0.2"/>
<circle cx="290" cy="170" r="2" fill="#808080" fill-opacity="0.2"/>
<circle cx="314" cy="170" r="2" fill="#808080" fill-opacity="0.14"/>
<circle cx="338" cy="170" r="2" fill="#808080" fill-opacity="0.2"/>
<circle cx="2" cy="194" r="2" fill="#808080" fill-opacity="0.2"/>
<circle cx="26" cy="194" r="2" fill="#808080" fill-opacity="0.1"/>
<circle cx="50" cy="194" r="2" fill="#808080" fill-opacity="0.2"/>
<circle cx="74" cy="194" r="2" fill="#808080" fill-opacity="0.2"/>
<circle cx="98" cy="194" r="2" fill="#808080" fill-opacity="0.2"/>
<circle cx="122" cy="194" r="2" fill="#808080" fill-opacity="0.2"/>
<circle cx="146" cy="194" r="2" fill="#808080" fill-opacity="0.2"/>
<circle cx="170" cy="194" r="2" fill="#808080" fill-opacity="0.2"/>
<circle cx="194" cy="194" r="2" fill="#808080" fill-opacity="0.2"/>
<circle cx="218" cy="194" r="2" fill="#808080" fill-opacity="0.2"/>
<circle cx="242" cy="194" r="2" fill="#808080" fill-opacity="0.14"/>
<circle cx="266" cy="194" r="2" fill="#808080" fill-opacity="0.2"/>
<circle cx="290" cy="194" r="2" fill="#808080" fill-opacity="0.2"/>
<circle cx="314" cy="194" r="2" fill="#808080" fill-opacity="0.14"/>
<circle cx="338" cy="194" r="2" fill="#808080" fill-opacity="0.14"/>
<circle cx="2" cy="218" r="2" fill="#808080" fill-opacity="0.14"/>
<circle cx="26" cy="218" r="2" fill="#808080" fill-opacity="0.1"/>
<circle cx="50" cy="218" r="2" fill="#808080" fill-opacity="0.1"/>
<circle cx="74" cy="218" r="2" fill="#808080" fill-opacity="0.1"/>
<circle cx="98" cy="218" r="2" fill="#808080" fill-opacity="0.2"/>
<circle cx="122" cy="218" r="2" fill="#808080" fill-opacity="0.2"/>
<circle cx="146" cy="218" r="2" fill="#808080" fill-opacity="0.2"/>
<circle cx="170" cy="218" r="2" fill="#808080" fill-opacity="0.2"/>
<circle cx="194" cy="218" r="2" fill="#808080" fill-opacity="0.2"/>
<circle cx="218" cy="218" r="2" fill="#808080" fill-opacity="0.2"/>
<circle cx="242" cy="218" r="2" fill="#808080" fill-opacity="0.2"/>
<circle cx="266" cy="218" r="2" fill="#808080" fill-opacity="0.1"/>
<circle cx="290" cy="218" r="2" fill="#808080" fill-opacity="0.1"/>
<circle cx="314" cy="218" r="2" fill="#808080" fill-opacity="0.1"/>
<circle cx="338" cy="218" r="2" fill="#808080" fill-opacity="0.1"/>
<circle cx="2" cy="242" r="2" fill="#808080" fill-opacity="0.1"/>
<circle cx="26" cy="242" r="2" fill="#808080" fill-opacity="0.14"/>
<circle cx="50" cy="242" r="2" fill="#808080" fill-opacity="0.14"/>
<circle cx="74" cy="242" r="2" fill="#808080" fill-opacity="0.14"/>
<circle cx="98" cy="242" r="2" fill="#808080" fill-opacity="0.2"/>
<circle cx="122" cy="242" r="2" fill="#808080" fill-opacity="0.2"/>
<circle cx="146" cy="242" r="2" fill="#808080" fill-opacity="0.2"/>
<circle cx="170" cy="242" r="2" fill="#808080" fill-opacity="0.2"/>
<circle cx="194" cy="242" r="2" fill="#808080" fill-opacity="0.14"/>
<circle cx="218" cy="242" r="2" fill="#808080" fill-opacity="0.14"/>
<circle cx="242" cy="242" r="2" fill="#808080" fill-opacity="0.14"/>
<circle cx="266" cy="242" r="2" fill="#808080" fill-opacity="0.14"/>
<circle cx="290" cy="242" r="2" fill="#808080" fill-opacity="0.14"/>
<circle cx="314" cy="242" r="2" fill="#808080" fill-opacity="0.14"/>
<circle cx="338" cy="242" r="2" fill="#808080" fill-opacity="0.2"/>
<circle cx="2" cy="266" r="2" fill="#808080" fill-opacity="0.14"/>
<circle cx="26" cy="266" r="2" fill="#808080" fill-opacity="0.14"/>
<circle cx="50" cy="266" r="2" fill="#808080" fill-opacity="0.14"/>
<circle cx="74" cy="266" r="2" fill="#808080" fill-opacity="0.14"/>
<circle cx="98" cy="266" r="2" fill="#808080" fill-opacity="0.14"/>
<circle cx="122" cy="266" r="2" fill="#808080" fill-opacity="0.14"/>
<circle cx="146" cy="266" r="2" fill="#808080" fill-opacity="0.2"/>
<circle cx="170" cy="266" r="2" fill="#808080" fill-opacity="0.14"/>
<circle cx="194" cy="266" r="2" fill="#808080" fill-opacity="0.2"/>
<circle cx="218" cy="266" r="2" fill="#808080" fill-opacity="0.2"/>
<circle cx="242" cy="266" r="2" fill="#808080" fill-opacity="0.14"/>
<circle cx="266" cy="266" r="2" fill="#808080" fill-opacity="0.2"/>
<circle cx="290" cy="266" r="2" fill="#808080" fill-opacity="0.2"/>
<circle cx="314" cy="266" r="2" fill="#808080" fill-opacity="0.2"/>
<circle cx="338" cy="266" r="2" fill="#808080" fill-opacity="0.1"/>
<circle cx="2" cy="290" r="2" fill="#808080" fill-opacity="0.1"/>
<circle cx="26" cy="290" r="2" fill="#808080" fill-opacity="0.14"/>
<circle cx="50" cy="290" r="2" fill="#808080" fill-opacity="0.14"/>
<circle cx="74" cy="290" r="2" fill="#808080" fill-opacity="0.14"/>
<circle cx="98" cy="290" r="2" fill="#808080" fill-opacity="0.14"/>
<circle cx="122" cy="290" r="2" fill="#808080" fill-opacity="0.14"/>
<circle cx="146" cy="290" r="2" fill="#808080" fill-opacity="0.14"/>
<circle cx="170" cy="290" r="2" fill="#808080" fill-opacity="0.14"/>
<circle cx="194" cy="290" r="2" fill="#808080" fill-opacity="0.14"/>
<circle cx="218" cy="290" r="2" fill="#808080" fill-opacity="0.14"/>
<circle cx="242" cy="290" r="2" fill="#808080" fill-opacity="0.14"/>
<circle cx="266" cy="290" r="2" fill="#808080" fill-opacity="0.14"/>
<circle cx="290" cy="290" r="2" fill="#808080" fill-opacity="0.2"/>
<circle cx="314" cy="290" r="2" fill="#808080" fill-opacity="0.2"/>
<circle cx="338" cy="290" r="2" fill="#808080" fill-opacity="0.14"/>
<circle cx="2" cy="314" r="2" fill="#808080" fill-opacity="0.1"/>
<circle cx="26" cy="314" r="2" fill="#808080" fill-opacity="0.14"/>
<circle cx="50" cy="314" r="2" fill="#808080" fill-opacity="0.14"/>
<circle cx="74" cy="314" r="2" fill="#808080" fill-opacity="0.2"/>
<circle cx="98" cy="314" r="2" fill="#808080" fill-opacity="0.1"/>
<circle cx="122" cy="314" r="2" fill="#808080" fill-opacity="0.14"/>
<circle cx="146" cy="314" r="2" fill="#808080" fill-opacity="0.14"/>
<circle cx="170" cy="314" r="2" fill="#808080" fill-opacity="0.14"/>
<circle cx="194" cy="314" r="2" fill="#808080" fill-opacity="0.14"/>
<circle cx="218" cy="314" r="2" fill="#808080" fill-opacity="0.2"/>
<circle cx="242" cy="314" r="2" fill="#808080" fill-opacity="0.2"/>
<circle cx="266" cy="314" r="2" fill="#808080" fill-opacity="0.14"/>
<circle cx="290" cy="314" r="2" fill="#808080" fill-opacity="0.2"/>
<circle cx="314" cy="314" r="2" fill="#808080" fill-opacity="0.14"/>
<circle cx="338" cy="314" r="2" fill="#808080" fill-opacity="0.2"/>
</g>
</pattern></defs>
</svg>
