<svg width="12" height="13" viewBox="0 0 12 13" fill="none" xmlns="http://www.w3.org/2000/svg">
<path d="M6.51562 3.15625C5.99479 2.20833 5.73438 1.15625 5.73438 0C5.73438 1.15625 5.47396 2.20833 4.95312 3.15625C4.44271 4.10417 3.75521 4.85938 2.89062 5.42188C2.02604 5.98438 1.0625 6.26562 0 6.26562C1.0625 6.26562 2.02604 6.55208 2.89062 7.125C3.75521 7.6875 4.44271 8.44271 4.95312 9.39062C5.47396 10.3385 5.73438 11.3906 5.73438 12.5469C5.73438 11.3906 5.99479 10.3385 6.51562 9.39062C7.03646 8.44271 7.72917 7.6875 8.59375 7.125C9.45833 6.55208 10.4219 6.26562 11.4844 6.26562C10.4219 6.26562 9.45833 5.98438 8.59375 5.42188C7.72917 4.85938 7.03646 4.10417 6.51562 3.15625Z" fill="#B0C1B9"/>
</svg>
